<?xml version="1.0" encoding="UTF-8"?>
<svg width="177px" height="32px" viewBox="0 0 177 32" version="1.1" xmlns="http://www.w3.org/2000/svg" xmlns:xlink="http://www.w3.org/1999/xlink">
    <!-- Generator: Sketch 61.2 (89653) - https://sketch.com -->
    <title>logo</title>
    <desc>Created with Sketch.</desc>
    <defs>
        <polygon id="path-1" points="0.2985 0.161 17.6095 0.161 17.6095 23.2008 0.2985 23.2008"></polygon>
        <polygon id="path-3" points="0 0.4094 4.872 0.4094 4.872 6 0 6"></polygon>
        <polygon id="path-5" points="0.6626 0.4094 5.5346 0.4094 5.5346 6 0.6626 6"></polygon>
    </defs>
    <g id="Page-1" stroke="none" stroke-width="1" fill="none" fill-rule="evenodd">
        <g id="Menu" transform="translate(-20.000000, -20.000000)">
            <g id="menu" transform="translate(-1.000000, 0.000000)">
                <g id="main-bar" transform="translate(1.000000, 0.000000)">
                    <g id="logo" transform="translate(20.000000, 19.000000)">
                        <path d="M13.6074,19.4478 C14.3724,18.9258 14.7554,18.1518 14.7554,17.1288 C14.7554,16.1688 14.3784,15.4218 13.6224,14.8878 C12.8674,14.3548 11.7134,14.0888 10.1614,14.0888 L3.9404,14.0888 L3.9404,20.2318 L10.4484,20.2318 C11.7884,20.2318 12.8414,19.9708 13.6074,19.4478 M12.3594,10.0358 C13.1254,9.5318 13.5074,8.7548 13.5074,7.7038 C13.5074,6.7818 13.1724,6.0688 12.5034,5.5648 C11.8324,5.0598 10.8604,4.8078 9.5854,4.8078 L3.9404,4.8078 L3.9404,10.7918 L9.2974,10.7918 C10.5734,10.7918 11.5934,10.5398 12.3594,10.0358 M15.4314,2.8598 C16.7514,3.8848 17.4114,5.2848 17.4114,7.0588 C17.4114,7.7428 17.3214,8.3518 17.1414,8.8858 C16.9614,9.4208 16.7294,9.8848 16.4434,10.2808 C16.1574,10.6768 15.8194,11.0238 15.4274,11.3228 C15.0364,11.6218 14.6394,11.8788 14.2374,12.0918 C14.8944,12.3258 15.4934,12.5978 16.0344,12.9068 C16.5754,13.2158 17.0424,13.5828 17.4344,14.0088 C17.8264,14.4348 18.1294,14.9408 18.3414,15.5268 C18.5534,16.1128 18.6594,16.7878 18.6594,17.5548 C18.6594,18.5558 18.4624,19.4398 18.0684,20.2068 C17.6744,20.9728 17.1154,21.6178 16.3914,22.1388 C15.6684,22.6618 14.7944,23.0548 13.7724,23.3208 C12.7504,23.5878 11.6204,23.7198 10.3854,23.7198 L0.0354,23.7198 L0.0354,1.3208 L10.0654,1.3208 C12.3224,1.3208 14.1114,1.8328 15.4314,2.8598" id="Fill-1" fill="#231F20"></path>
                        <path d="M32.0674,5.8643 L28.2274,14.8243 L35.9394,14.8243 L32.0674,5.8643 Z M43.8114,23.7203 L39.6514,23.7203 L37.3794,18.3123 L26.7874,18.3123 L24.4834,23.7203 L20.4514,23.7203 L30.3074,1.1603 L33.9554,1.1603 L43.8114,23.7203 Z" id="Fill-3" fill="#231F20"></path>
                        <polygon id="Fill-5" fill="#231F20" points="61.0591 23.7203 55.1711 15.2403 49.2511 23.7203 44.7391 23.7203 52.8991 12.3283 45.0591 1.3203 49.6991 1.3203 55.2671 9.3523 60.8671 1.3203 65.3791 1.3203 57.5711 12.2643 65.6991 23.7203"></polygon>
                        <polygon id="Fill-7" fill="#231F20" points="78.4668 23.7203 74.4988 23.7203 74.4988 4.9683 67.3948 4.9683 67.3948 1.3203 85.5708 1.3203 85.5708 4.9683 78.4668 4.9683"></polygon>
                        <polygon id="Fill-9" fill="#231F20" points="105.5063 4.8721 92.8343 4.8721 92.8343 10.6321 104.0663 10.6321 104.0663 14.1841 92.8343 14.1841 92.8343 20.1681 105.6663 20.1681 105.6663 23.7201 88.9303 23.7201 88.9303 1.3201 105.5063 1.3201"></polygon>
                        <path d="M122.6548,5.8204 C121.8428,5.1884 120.6968,4.8724 119.2198,4.8724 L113.4748,4.8724 L113.4748,12.4244 L119.2528,12.4244 C120.6648,12.4244 121.7888,12.0814 122.6228,11.3964 C123.4578,10.7114 123.8748,9.7894 123.8748,8.6324 C123.8748,7.3894 123.4678,6.4524 122.6548,5.8204 L122.6548,5.8204 Z M123.9388,23.7204 L118.4178,15.9124 L113.4748,15.9124 L113.4748,23.7204 L109.5708,23.7204 L109.5708,1.3204 L119.5548,1.3204 C120.8348,1.3204 121.9918,1.4864 123.0268,1.8164 C124.0608,2.1474 124.9358,2.6164 125.6508,3.2244 C126.3658,3.8324 126.9148,4.5794 127.2998,5.4644 C127.6828,6.3494 127.8748,7.3364 127.8748,8.4244 C127.8748,9.3634 127.7418,10.2004 127.4748,10.9364 C127.2078,11.6724 126.8408,12.3234 126.3708,12.8884 C125.9018,13.4534 125.3418,13.9334 124.6908,14.3284 C124.0398,14.7234 123.3198,15.0274 122.5308,15.2404 L128.5788,23.7204 L123.9388,23.7204 Z" id="Fill-11" fill="#231F20"></path>
                        <g id="Group-15" transform="translate(139.000000, 0.839400)">
                            <mask id="mask-2" fill="white">
                                <use xlink:href="#path-1"></use>
                            </mask>
                            <g id="Clip-14"></g>
                            <path d="M5.2905,7.4888 C5.4395,7.8088 5.7125,8.1078 6.1085,8.3848 C6.5045,8.6628 7.0495,8.9188 7.7445,9.1528 C8.4395,9.3878 9.3215,9.6328 10.3925,9.8888 C11.5675,10.1878 12.6105,10.5188 13.5195,10.8808 C14.4285,11.2438 15.1825,11.6868 15.7805,12.2088 C16.3805,12.7318 16.8345,13.3398 17.1445,14.0328 C17.4545,14.7268 17.6095,15.5428 17.6095,16.4818 C17.6095,17.5478 17.4145,18.4968 17.0225,19.3288 C16.6315,20.1608 16.0865,20.8648 15.3885,21.4408 C14.6895,22.0168 13.8515,22.4538 12.8715,22.7528 C11.8925,23.0518 10.8145,23.2008 9.6425,23.2008 C7.9145,23.2008 6.2605,22.9068 4.6825,22.3218 C3.1025,21.7348 1.6425,20.8328 0.2985,19.6168 L2.6665,16.8008 C3.7545,17.7398 4.8535,18.4598 5.9625,18.9608 C7.0705,19.4618 8.3305,19.7128 9.7375,19.7128 C10.9545,19.7128 11.9195,19.4568 12.6345,18.9458 C13.3495,18.4328 13.7065,17.7398 13.7065,16.8638 C13.7065,16.4598 13.6365,16.0968 13.4975,15.7768 C13.3585,15.4568 13.1025,15.1638 12.7275,14.8968 C12.3525,14.6308 11.8395,14.3798 11.1875,14.1448 C10.5345,13.9098 9.6855,13.6648 8.6375,13.4088 C7.4385,13.1318 6.3755,12.8218 5.4445,12.4808 C4.5145,12.1398 3.7335,11.7128 3.1025,11.2008 C2.4725,10.6888 1.9905,10.0708 1.6585,9.3448 C1.3275,8.6198 1.1625,7.7348 1.1625,6.6888 C1.1625,5.7078 1.3525,4.8168 1.7325,4.0168 C2.1135,3.2168 2.6375,2.5288 3.3045,1.9528 C3.9705,1.3768 4.7715,0.9348 5.7095,0.6248 C6.6455,0.3158 7.6685,0.1608 8.7775,0.1608 C10.4205,0.1608 11.8975,0.4008 13.2105,0.8808 C14.5215,1.3608 15.7545,2.0598 16.9055,2.9768 L14.7945,5.9528 C13.7695,5.2068 12.7565,4.6358 11.7545,4.2408 C10.7515,3.8458 9.7375,3.6488 8.7145,3.6488 C7.5615,3.6488 6.6665,3.9098 6.0255,4.4328 C5.3865,4.9558 5.0655,5.5908 5.0655,6.3368 C5.0655,6.7848 5.1415,7.1688 5.2905,7.4888" id="Fill-13" fill="#231F20" mask="url(#mask-2)"></path>
                        </g>
                        <polygon id="Fill-16" fill="#231F20" points="169.4731 23.7203 165.5051 23.7203 165.5051 4.9683 158.4021 4.9683 158.4021 1.3203 176.5771 1.3203 176.5771 4.9683 169.4731 4.9683"></polygon>
                        <g id="Group-20" transform="translate(0.000000, 26.839400)">
                            <mask id="mask-4" fill="white">
                                <use xlink:href="#path-3"></use>
                            </mask>
                            <g id="Clip-19"></g>
                            <path d="M4.436,5.4404 C4.284,5.5554 4.121,5.6554 3.946,5.7374 C3.77,5.8194 3.583,5.8834 3.382,5.9304 C3.181,5.9764 2.957,6.0004 2.71,6.0004 C2.319,6.0004 1.958,5.9274 1.629,5.7834 C1.3,5.6394 1.014,5.4424 0.772,5.1934 C0.53,4.9434 0.341,4.6484 0.205,4.3084 C0.068,3.9684 0,3.6034 0,3.2124 C0,2.8264 0.068,2.4634 0.205,2.1244 C0.341,1.7844 0.53,1.4864 0.772,1.2324 C1.014,0.9774 1.302,0.7764 1.637,0.6294 C1.972,0.4834 2.337,0.4094 2.733,0.4094 C2.98,0.4094 3.203,0.4304 3.401,0.4714 C3.6,0.5124 3.784,0.5704 3.954,0.6454 C4.124,0.7194 4.28,0.8094 4.424,0.9154 C4.568,1.0204 4.707,1.1374 4.841,1.2664 L4.424,1.7144 C4.193,1.4984 3.944,1.3204 3.679,1.1814 C3.414,1.0434 3.096,0.9734 2.726,0.9734 C2.427,0.9734 2.15,1.0304 1.895,1.1434 C1.641,1.2564 1.419,1.4134 1.232,1.6144 C1.044,1.8144 0.897,2.0504 0.791,2.3204 C0.686,2.5904 0.633,2.8824 0.633,3.1974 C0.633,3.5104 0.686,3.8044 0.791,4.0774 C0.897,4.3504 1.044,4.5864 1.232,4.7884 C1.419,4.9884 1.641,5.1464 1.895,5.2624 C2.15,5.3784 2.427,5.4364 2.726,5.4364 C3.096,5.4364 3.415,5.3684 3.683,5.2314 C3.951,5.0954 4.213,4.9034 4.471,4.6564 L4.872,5.0494 C4.733,5.1944 4.588,5.3244 4.436,5.4404" id="Fill-18" fill="#231F20" mask="url(#mask-4)"></path>
                        </g>
                        <path d="M10.7866,28.021 L9.5516,30.778 L12.0146,30.778 L10.7866,28.021 Z M13.5436,32.747 L12.8876,32.747 L12.2536,31.318 L9.3116,31.318 L8.6716,32.747 L8.0456,32.747 L10.5086,27.303 L11.0796,27.303 L13.5436,32.747 Z" id="Fill-21" fill="#231F20"></path>
                        <polygon id="Fill-23" fill="#231F20" points="19.7666 31.2642 19.7356 31.2642 17.7666 28.3762 17.7666 32.7462 17.1726 32.7462 17.1726 27.3412 17.7896 27.3412 19.7586 30.2912 21.7276 27.3412 22.3456 27.3412 22.3456 32.7462 21.7356 32.7462 21.7356 28.3682"></polygon>
                        <polygon id="Fill-25" fill="#231F20" points="30.3525 27.898 27.0555 27.898 27.0555 29.743 30.0045 29.743 30.0045 30.299 27.0555 30.299 27.0555 32.191 30.3915 32.191 30.3915 32.747 26.4455 32.747 26.4455 27.341 30.3525 27.341"></polygon>
                        <path d="M37.4937,28.188 C37.2507,28 36.9107,27.906 36.4717,27.906 L34.7997,27.906 L34.7997,30.106 L36.4637,30.106 C36.6647,30.106 36.8507,30.081 37.0217,30.029 C37.1917,29.977 37.3387,29.903 37.4627,29.807 C37.5867,29.712 37.6827,29.594 37.7527,29.455 C37.8227,29.316 37.8577,29.158 37.8577,28.982 C37.8577,28.641 37.7357,28.376 37.4937,28.188 L37.4937,28.188 Z M37.9107,32.747 L36.3437,30.646 L34.7997,30.646 L34.7997,32.747 L34.1897,32.747 L34.1897,27.341 L36.5137,27.341 C36.8127,27.341 37.0817,27.38 37.3207,27.458 C37.5597,27.535 37.7647,27.644 37.9347,27.786 C38.1047,27.927 38.2357,28.097 38.3277,28.295 C38.4207,28.494 38.4677,28.714 38.4677,28.957 C38.4677,29.183 38.4307,29.385 38.3597,29.563 C38.2867,29.741 38.1857,29.895 38.0547,30.026 C37.9227,30.158 37.7667,30.267 37.5867,30.355 C37.4067,30.442 37.2117,30.504 37.0007,30.54 L38.6607,32.747 L37.9107,32.747 Z" id="Fill-27" fill="#231F20"></path>
                        <path d="M44.6211,28.021 L43.3861,30.778 L45.8491,30.778 L44.6211,28.021 Z M47.3781,32.747 L46.7221,32.747 L46.0881,31.318 L43.1461,31.318 L42.5061,32.747 L41.8801,32.747 L44.3431,27.303 L44.9141,27.303 L47.3781,32.747 Z" id="Fill-29" fill="#231F20"></path>
                        <g id="Group-33" transform="translate(55.000000, 26.839400)">
                            <mask id="mask-6" fill="white">
                                <use xlink:href="#path-5"></use>
                            </mask>
                            <g id="Clip-32"></g>
                            <path d="M5.0986,5.4404 C4.9466,5.5554 4.7836,5.6554 4.6086,5.7374 C4.4326,5.8194 4.2456,5.8834 4.0446,5.9304 C3.8436,5.9764 3.6196,6.0004 3.3726,6.0004 C2.9816,6.0004 2.6206,5.9274 2.2916,5.7834 C1.9626,5.6394 1.6766,5.4424 1.4346,5.1934 C1.1926,4.9434 1.0036,4.6484 0.8676,4.3084 C0.7306,3.9684 0.6626,3.6034 0.6626,3.2124 C0.6626,2.8264 0.7306,2.4634 0.8676,2.1244 C1.0036,1.7844 1.1926,1.4864 1.4346,1.2324 C1.6766,0.9774 1.9646,0.7764 2.2996,0.6294 C2.6346,0.4834 2.9996,0.4094 3.3956,0.4094 C3.6426,0.4094 3.8656,0.4304 4.0636,0.4714 C4.2626,0.5124 4.4466,0.5704 4.6166,0.6454 C4.7866,0.7194 4.9426,0.8094 5.0866,0.9154 C5.2306,1.0204 5.3696,1.1374 5.5036,1.2664 L5.0866,1.7144 C4.8556,1.4984 4.6066,1.3204 4.3416,1.1814 C4.0766,1.0434 3.7586,0.9734 3.3886,0.9734 C3.0896,0.9734 2.8126,1.0304 2.5576,1.1434 C2.3036,1.2564 2.0816,1.4134 1.8946,1.6144 C1.7066,1.8144 1.5596,2.0504 1.4536,2.3204 C1.3486,2.5904 1.2956,2.8824 1.2956,3.1974 C1.2956,3.5104 1.3486,3.8044 1.4536,4.0774 C1.5596,4.3504 1.7066,4.5864 1.8946,4.7884 C2.0816,4.9884 2.3036,5.1464 2.5576,5.2624 C2.8126,5.3784 3.0896,5.4364 3.3886,5.4364 C3.7586,5.4364 4.0776,5.3684 4.3456,5.2314 C4.6136,5.0954 4.8756,4.9034 5.1336,4.6564 L5.5346,5.0494 C5.3956,5.1944 5.2506,5.3244 5.0986,5.4404" id="Fill-31" fill="#231F20" mask="url(#mask-6)"></path>
                        </g>
                        <polygon id="Fill-34" fill="#231F20" points="64.1714 27.3414 64.7814 27.3414 64.7814 32.1834 67.8234 32.1834 67.8234 32.7464 64.1714 32.7464"></polygon>
                        <path d="M75.7764,30.438 C75.7764,30.834 75.7224,31.182 75.6144,31.48 C75.5054,31.779 75.3524,32.029 75.1544,32.229 C74.9564,32.43 74.7194,32.581 74.4444,32.681 C74.1694,32.782 73.8614,32.832 73.5214,32.832 C73.1874,32.832 72.8814,32.782 72.6064,32.681 C72.3314,32.581 72.0944,32.431 71.8964,32.233 C71.6984,32.035 71.5454,31.79 71.4374,31.496 C71.3284,31.203 71.2754,30.866 71.2754,30.484 L71.2754,27.341 L71.8844,27.341 L71.8844,30.446 C71.8844,31.033 72.0304,31.483 72.3204,31.796 C72.6114,32.111 73.0174,32.268 73.5374,32.268 C74.0364,32.268 74.4324,32.119 74.7264,31.82 C75.0194,31.522 75.1664,31.077 75.1664,30.484 L75.1664,27.341 L75.7764,27.341 L75.7764,30.438 Z" id="Fill-36" fill="#231F20"></path>
                        <path d="M83.1816,31.9507 C83.4176,31.7797 83.5356,31.5397 83.5356,31.2287 C83.5356,30.9297 83.4156,30.6987 83.1736,30.5357 C82.9326,30.3727 82.5756,30.2917 82.1036,30.2917 L80.4016,30.2917 L80.4016,32.2067 L82.2116,32.2067 C82.6216,32.2067 82.9456,32.1207 83.1816,31.9507 M82.8886,29.5027 C83.1196,29.3377 83.2346,29.0947 83.2346,28.7737 C83.2346,28.4997 83.1326,28.2827 82.9266,28.1227 C82.7216,27.9627 82.4266,27.8827 82.0416,27.8827 L80.4016,27.8827 L80.4016,29.7507 L81.9946,29.7507 C82.3596,29.7507 82.6576,29.6687 82.8886,29.5027 M82.8116,27.4377 C83.0276,27.5027 83.2126,27.5927 83.3676,27.7087 C83.5216,27.8247 83.6396,27.9667 83.7216,28.1337 C83.8036,28.3007 83.8446,28.4867 83.8446,28.6927 C83.8446,28.8737 83.8206,29.0297 83.7716,29.1637 C83.7236,29.2977 83.6576,29.4167 83.5756,29.5187 C83.4936,29.6227 83.4016,29.7087 83.3016,29.7777 C83.2016,29.8467 83.0976,29.9047 82.9896,29.9517 C83.1496,29.9977 83.2996,30.0577 83.4406,30.1337 C83.5816,30.2077 83.7036,30.2967 83.8066,30.3987 C83.9096,30.5027 83.9916,30.6257 84.0536,30.7697 C84.1156,30.9147 84.1456,31.0787 84.1456,31.2637 C84.1456,31.4957 84.0996,31.7047 84.0076,31.8887 C83.9146,32.0747 83.7826,32.2307 83.6106,32.3567 C83.4386,32.4827 83.2316,32.5797 82.9896,32.6457 C82.7486,32.7137 82.4806,32.7467 82.1886,32.7467 L79.7916,32.7467 L79.7916,27.3417 L82.0876,27.3417 C82.3546,27.3417 82.5966,27.3737 82.8116,27.4377" id="Fill-38" fill="#231F20"></path>
                        <path d="M97.3071,29.1792 C97.2011,28.9072 97.0531,28.6692 96.8631,28.4692 C96.6721,28.2682 96.4471,28.1092 96.1871,27.9912 C95.9271,27.8712 95.6431,27.8132 95.3331,27.8132 C95.0251,27.8132 94.7411,27.8702 94.4811,27.9872 C94.2201,28.1022 93.9981,28.2602 93.8131,28.4612 C93.6271,28.6612 93.4821,28.8982 93.3761,29.1672 C93.2711,29.4382 93.2181,29.7282 93.2181,30.0362 C93.2181,30.3452 93.2711,30.6362 93.3761,30.9082 C93.4821,31.1822 93.6301,31.4182 93.8211,31.6192 C94.0111,31.8202 94.2361,31.9802 94.4961,32.0982 C94.7561,32.2162 95.0401,32.2762 95.3491,32.2762 C95.6581,32.2762 95.9431,32.2172 96.2031,32.1022 C96.4621,31.9862 96.6851,31.8272 96.8701,31.6272 C97.0561,31.4262 97.2011,31.1912 97.3071,30.9202 C97.4121,30.6502 97.4651,30.3612 97.4651,30.0522 C97.4651,29.7422 97.4121,29.4522 97.3071,29.1792 M97.8971,31.1062 C97.7631,31.4432 97.5761,31.7412 97.3331,31.9972 C97.0911,32.2552 96.8011,32.4592 96.4611,32.6122 C96.1211,32.7632 95.7451,32.8392 95.3331,32.8392 C94.9221,32.8392 94.5471,32.7642 94.2101,32.6162 C93.8731,32.4662 93.5831,32.2642 93.3411,32.0092 C93.1001,31.7542 92.9131,31.4582 92.7821,31.1212 C92.6511,30.7832 92.5851,30.4272 92.5851,30.0522 C92.5851,29.6762 92.6521,29.3202 92.7861,28.9832 C92.9191,28.6452 93.1081,28.3482 93.3491,28.0902 C93.5911,27.8332 93.8821,27.6282 94.2221,27.4772 C94.5621,27.3252 94.9371,27.2482 95.3491,27.2482 C95.7611,27.2482 96.1351,27.3242 96.4731,27.4732 C96.8101,27.6222 97.0991,27.8252 97.3411,28.0782 C97.5831,28.3332 97.7701,28.6302 97.9011,28.9672 C98.0331,29.3042 98.0981,29.6602 98.0981,30.0362 C98.0981,30.4122 98.0311,30.7692 97.8971,31.1062" id="Fill-40" fill="#231F20"></path>
                        <polygon id="Fill-42" fill="#231F20" points="105.8433 27.9058 102.5693 27.9058 102.5693 29.8358 105.4953 29.8358 105.4953 30.3908 102.5693 30.3908 102.5693 32.7468 101.9593 32.7468 101.9593 27.3418 105.8433 27.3418"></polygon>
                        <polygon id="Fill-44" fill="#231F20" points="118.4595 27.3414 119.0535 27.3414 119.0535 32.7464 118.5665 32.7464 115.0775 28.3154 115.0775 32.7464 114.4825 32.7464 114.4825 27.3414 115.0545 27.3414 118.4595 31.6734"></polygon>
                        <polygon id="Fill-46" fill="#231F20" points="127.061 27.898 123.763 27.898 123.763 29.743 126.713 29.743 126.713 30.299 123.763 30.299 123.763 32.191 127.099 32.191 127.099 32.747 123.154 32.747 123.154 27.341 127.061 27.341"></polygon>
                        <polygon id="Fill-48" fill="#231F20" points="134.1714 27.3267 134.6734 27.3267 136.1554 31.8437 137.6994 27.3417 138.3414 27.3417 136.4104 32.7857 135.8934 32.7857 134.4104 28.3997 132.9204 32.7857 132.4104 32.7857 130.4814 27.3417 131.1454 27.3417 132.6894 31.8437"></polygon>
                        <polygon id="Fill-50" fill="#231F20" points="149.1978 32.7466 148.5878 32.7466 148.5878 30.6076 146.3408 27.3416 147.0828 27.3416 148.8998 30.0446 150.7338 27.3416 151.4448 27.3416 149.1978 30.6006"></polygon>
                        <path d="M159.0151,29.1792 C158.9091,28.9072 158.7611,28.6692 158.5711,28.4692 C158.3801,28.2682 158.1551,28.1092 157.8951,27.9912 C157.6351,27.8712 157.3511,27.8132 157.0411,27.8132 C156.7331,27.8132 156.4491,27.8702 156.1891,27.9872 C155.9281,28.1022 155.7061,28.2602 155.5211,28.4612 C155.3351,28.6612 155.1901,28.8982 155.0841,29.1672 C154.9791,29.4382 154.9261,29.7282 154.9261,30.0362 C154.9261,30.3452 154.9791,30.6362 155.0841,30.9082 C155.1901,31.1822 155.3381,31.4182 155.5291,31.6192 C155.7191,31.8202 155.9441,31.9802 156.2041,32.0982 C156.4641,32.2162 156.7481,32.2762 157.0571,32.2762 C157.3661,32.2762 157.6511,32.2172 157.9111,32.1022 C158.1701,31.9862 158.3931,31.8272 158.5781,31.6272 C158.7641,31.4262 158.9091,31.1912 159.0151,30.9202 C159.1201,30.6502 159.1731,30.3612 159.1731,30.0522 C159.1731,29.7422 159.1201,29.4522 159.0151,29.1792 M159.6051,31.1062 C159.4711,31.4432 159.2841,31.7412 159.0411,31.9972 C158.7991,32.2552 158.5091,32.4592 158.1691,32.6122 C157.8291,32.7632 157.4531,32.8392 157.0411,32.8392 C156.6301,32.8392 156.2551,32.7642 155.9181,32.6162 C155.5811,32.4662 155.2911,32.2642 155.0491,32.0092 C154.8081,31.7542 154.6211,31.4582 154.4901,31.1212 C154.3591,30.7832 154.2931,30.4272 154.2931,30.0522 C154.2931,29.6762 154.3601,29.3202 154.4941,28.9832 C154.6271,28.6452 154.8161,28.3482 155.0571,28.0902 C155.2991,27.8332 155.5901,27.6282 155.9301,27.4772 C156.2701,27.3252 156.6451,27.2482 157.0571,27.2482 C157.4691,27.2482 157.8431,27.3242 158.1811,27.4732 C158.5181,27.6222 158.8071,27.8252 159.0491,28.0782 C159.2911,28.3332 159.4781,28.6302 159.6091,28.9672 C159.7411,29.3042 159.8061,29.6602 159.8061,30.0362 C159.8061,30.4122 159.7391,30.7692 159.6051,31.1062" id="Fill-52" fill="#231F20"></path>
                        <path d="M166.9712,28.188 C166.7282,28 166.3882,27.906 165.9502,27.906 L164.2772,27.906 L164.2772,30.106 L165.9422,30.106 C166.1432,30.106 166.3282,30.081 166.4982,30.029 C166.6692,29.977 166.8162,29.903 166.9402,29.807 C167.0642,29.712 167.1602,29.594 167.2302,29.455 C167.3002,29.316 167.3342,29.158 167.3342,28.982 C167.3342,28.641 167.2132,28.376 166.9712,28.188 L166.9712,28.188 Z M167.3892,32.747 L165.8222,30.646 L164.2772,30.646 L164.2772,32.747 L163.6672,32.747 L163.6672,27.341 L165.9922,27.341 C166.2892,27.341 166.5592,27.38 166.7982,27.458 C167.0372,27.535 167.2422,27.644 167.4112,27.786 C167.5812,27.927 167.7132,28.097 167.8062,28.295 C167.8992,28.494 167.9452,28.714 167.9452,28.957 C167.9452,29.183 167.9082,29.385 167.8362,29.563 C167.7642,29.741 167.6622,29.895 167.5322,30.026 C167.4012,30.158 167.2442,30.267 167.0652,30.355 C166.8842,30.442 166.6892,30.504 166.4782,30.54 L168.1382,32.747 L167.3892,32.747 Z" id="Fill-54" fill="#231F20"></path>
                        <polygon id="Fill-56" fill="#231F20" points="176.4224 32.7466 175.6574 32.7466 173.5804 30.1296 172.4304 31.2956 172.4304 32.7466 171.8204 32.7466 171.8204 27.3416 172.4304 27.3416 172.4304 30.5686 175.5344 27.3416 176.3214 27.3416 174.0054 29.7046"></polygon>
                    </g>
                </g>
            </g>
        </g>
    </g>
</svg>