<?xml version="1.0" encoding="UTF-8"?>
<svg xmlns="http://www.w3.org/2000/svg" xmlns:xlink="http://www.w3.org/1999/xlink" version="1.2" >
<font id="Helvetica Neue LT Pro 37 Thin Condensed Oblique">
<font-face  font-family="Helvetica Neue LT Pro" units-per-em="1000" ascent="714" descent="-286" font-style="italic" font-weight="100" font-stretch="condensed" slope="-12" cap-height="714" x-height="523" underline-position="-75" underline-thickness="50" />
<missing-glyph  horiz-adv-x="512" d="M0 718 L0 0 L512 0 L512 718 L0 718 Z M50 50 L50 667 L462 667 L462 50 L50 50 Z M259 609 C180 609 133 560 124 472 L174 464 C182 527 212 559 256 559 C297 559 332 521 332 474 C332 436 306 415 286 395 C241 349 223 325 223 265 C223 258 224 239 225 234 L271 234 C272 310 273 315 319 357 C360 395 383 423 383 478 C383 556 330 609 259 609 L259 609 Z M222 117 L278 117 L278 184 L222 184 L222 117 Z " />
<glyph glyph-name=".null" d="" />
<glyph glyph-name="CR" unicode="&#xd;" horiz-adv-x="240" d="" />
<glyph glyph-name="space" unicode="&#x20;" horiz-adv-x="240" d="" />
<glyph glyph-name="exclam" unicode="&#x21;" horiz-adv-x="222" d="M189 480 L134 186 L164 186 L232 485 L280 714 L238 714 L189 480 Z M90 0 L132 0 L151 96 L109 96 L90 0 Z " />
<glyph glyph-name="quotedbl" unicode="&#x22;" horiz-adv-x="296" d="M176 486 L210 486 L257 714 L223 714 L176 486 Z M288 486 L322 486 L369 714 L335 714 L288 486 Z " />
<glyph glyph-name="numbersign" unicode="&#x23;" horiz-adv-x="480" d="M251 471 L138 471 L131 437 L240 437 L178 259 L66 259 L59 225 L167 225 L90 0 L124 0 L201 225 L338 225 L261 0 L295 0 L372 225 L485 225 L492 259 L383 259 L445 437 L557 437 L564 471 L456 471 L534 696 L500 696 L422 471 L285 471 L363 696 L329 696 L251 471 Z M274 437 L411 437 L349 259 L212 259 L274 437 Z " />
<glyph glyph-name="dollar" unicode="&#x24;" horiz-adv-x="480" d="M372 708 C278 704 208 652 176 583 C161 549 153 518 153 490 C153 425 187 384 297 348 L229 22 C145 28 108 66 108 133 C108 149 109 167 119 208 L77 208 C69 179 66 153 66 131 C66 40 120 -10 222 -12 L205 -96 L235 -96 L252 -12 C396 -7 489 109 489 231 C489 268 479 297 458 318 C437 339 395 360 334 380 L395 674 C464 670 502 634 502 569 C502 553 500 537 496 521 L538 521 C542 544 544 564 544 579 C544 658 498 702 402 708 L416 778 L386 778 L372 708 Z M306 390 C230 410 196 439 196 491 C196 560 234 666 365 674 L306 390 Z M325 338 C415 310 445 282 445 218 C445 138 388 33 259 22 L325 338 Z " />
<glyph glyph-name="percent" unicode="&#x25;" horiz-adv-x="685" d="M324 708 C247 708 198 656 173 563 C161 517 154 478 154 448 C154 382 184 354 250 354 C316 354 358 390 384 450 C405 499 419 565 419 612 C419 680 389 708 324 708 L324 708 Z M169 -12 L203 -12 L656 708 L622 708 L169 -12 Z M190 458 C190 487 195 522 207 563 C230 647 272 678 316 678 C362 678 383 655 383 602 C383 555 373 509 353 460 C333 411 303 384 256 384 C211 384 190 407 190 458 L190 458 Z M579 342 C506 342 457 296 430 203 C417 156 410 115 410 81 C410 15 440 -12 505 -12 C581 -12 630 37 655 129 C668 176 674 216 674 248 C674 314 644 342 579 342 L579 342 Z M445 92 C445 117 449 147 459 187 C480 269 519 312 571 312 C621 312 639 285 639 234 C639 204 629 146 608 94 C588 44 556 18 511 18 C463 18 445 43 445 92 L445 92 Z " />
<glyph glyph-name="ampersand" unicode="&#x26;" horiz-adv-x="537" d="M383 714 C289 714 219 637 219 553 C219 499 249 452 274 405 C204 360 154 325 127 299 C73 248 51 185 51 133 C51 42 108 -12 206 -12 C287 -12 356 19 429 100 L481 0 L523 0 L454 134 C488 177 517 235 530 299 L492 299 C483 256 461 201 437 167 L320 397 C355 421 397 447 434 488 C471 529 491 575 491 617 C491 676 453 714 383 714 L383 714 Z M258 562 C258 624 306 680 375 680 C423 680 453 654 453 610 C453 589 446 564 432 539 C417 512 388 484 345 452 L306 427 L283 471 C266 503 258 536 258 562 L258 562 Z M94 141 C94 213 140 276 226 335 L288 377 L414 130 C350 57 282 22 217 22 C144 22 94 68 94 141 L94 141 Z " />
<glyph glyph-name="quotesingle" unicode="&#x27;" horiz-adv-x="184" d="M176 486 L210 486 L257 714 L223 714 L176 486 Z " />
<glyph glyph-name="parenleft" unicode="&#x28;" horiz-adv-x="222" d="M338 714 C190 533 102 303 102 84 C102 -7 120 -102 151 -184 L181 -184 C150 -104 136 -14 136 83 C136 308 228 539 368 714 L338 714 Z " />
<glyph glyph-name="parenright" unicode="&#x29;" horiz-adv-x="222" d="M150 714 C178 640 195 548 195 452 C195 323 174 221 131 111 C89 1 33 -98 -36 -184 L-6 -184 C148 11 230 230 230 443 C230 539 213 626 180 714 L150 714 Z " />
<glyph glyph-name="asterisk" unicode="&#x2a;" horiz-adv-x="296" d="M259 603 L176 647 L158 617 L238 577 L160 497 L182 478 L266 566 L311 478 L341 497 L298 577 L394 619 L388 647 L289 603 L312 714 L282 714 L259 603 Z " />
<glyph glyph-name="plus" unicode="&#x2b;" horiz-adv-x="600" d="M339 270 L103 270 L96 236 L332 236 L283 0 L317 0 L366 236 L602 236 L609 270 L373 270 L422 506 L388 506 L339 270 Z " />
<glyph glyph-name="comma" unicode="&#x2c;" horiz-adv-x="240" d="M99 0 L111 0 C99 -53 87 -78 63 -94 L56 -128 C105 -104 125 -73 141 2 L162 102 L120 102 L99 0 Z " />
<glyph glyph-name="hyphen" unicode="&#x2d;" horiz-adv-x="315" d="M123 289 L116 255 L305 255 L312 289 L123 289 Z " />
<glyph glyph-name="period" unicode="&#x2e;" horiz-adv-x="240" d="M99 0 L141 0 L162 102 L120 102 L99 0 Z " />
<glyph glyph-name="slash" unicode="&#x2f;" horiz-adv-x="278" d="M-11 -12 L28 -12 L437 726 L397 726 L-11 -12 Z " />
<glyph glyph-name="zero" unicode="0" horiz-adv-x="480" d="M386 708 C261 708 179 612 128 410 C103 309 90 218 90 163 C90 42 138 -12 236 -12 C371 -12 448 89 497 291 C522 393 534 474 534 537 C534 656 489 708 386 708 L386 708 Z M132 153 C132 221 145 300 165 389 C205 567 271 674 378 674 C458 674 494 629 494 533 C494 475 484 413 459 309 C413 116 361 22 243 22 C158 22 132 73 132 153 L132 153 Z " />
<glyph glyph-name="one" unicode="1" horiz-adv-x="480" d="M395 708 C361 649 276 596 196 586 L189 552 C251 557 329 594 376 636 L244 0 L282 0 L429 708 L395 708 Z " />
<glyph glyph-name="two" unicode="2" horiz-adv-x="480" d="M393 708 C276 708 181 626 153 493 L195 493 C219 605 290 674 382 674 C456 674 498 633 498 564 C498 484 459 410 355 339 L220 247 C128 184 66 100 46 0 L434 0 L441 38 L95 38 C109 100 182 178 253 227 L358 299 C458 367 496 406 522 473 C535 506 541 540 541 572 C541 664 476 708 393 708 L393 708 Z " />
<glyph glyph-name="three" unicode="3" horiz-adv-x="480" d="M386 708 C276 708 187 634 162 517 L204 517 C229 616 289 674 376 674 C453 674 488 633 488 575 C488 508 455 432 399 406 C373 394 353 387 296 387 L279 387 L272 353 L306 353 C383 353 441 319 441 240 C441 168 406 93 343 52 C312 32 275 22 236 22 C160 22 117 69 117 140 C117 153 118 168 122 184 L80 184 C77 168 76 152 76 134 C76 40 130 -12 228 -12 C326 -12 410 39 452 121 C473 163 483 203 483 240 C483 315 439 361 371 368 L371 370 C464 386 530 475 530 580 C530 662 474 708 386 708 L386 708 Z " />
<glyph glyph-name="four" unicode="4" horiz-adv-x="480" d="M80 229 L72 191 L361 191 L322 0 L360 0 L399 191 L486 191 L493 225 L406 225 L507 708 L465 708 L80 229 Z M453 643 L455 643 L368 225 L117 225 L453 643 Z " />
<glyph glyph-name="five" unicode="5" horiz-adv-x="480" d="M241 696 L123 331 L165 331 C203 388 261 425 328 425 C406 425 448 372 448 290 C448 208 410 109 348 61 C315 36 278 22 232 22 C159 22 118 66 118 138 C118 148 118 159 122 177 L80 177 C76 154 74 137 74 125 C75 37 134 -12 229 -12 C328 -12 408 44 455 147 C478 199 492 251 492 303 C492 402 436 459 339 459 C275 459 216 429 175 377 L173 377 L265 658 L538 658 L546 696 L241 696 Z " />
<glyph glyph-name="six" unicode="6" horiz-adv-x="480" d="M399 708 C269 708 182 611 128 405 C101 301 88 221 88 160 C88 47 136 -12 235 -12 C335 -12 416 43 459 145 C481 198 493 250 493 296 C493 398 436 452 342 452 C261 452 193 407 147 317 L145 317 C192 555 274 674 389 674 C456 674 493 635 493 575 C493 567 492 556 490 547 L532 547 C533 553 535 563 535 577 C535 657 488 708 399 708 L399 708 Z M130 157 C130 189 138 233 155 277 C189 366 251 418 330 418 C408 418 449 372 449 290 C449 251 441 208 424 163 C390 72 327 22 245 22 C173 22 130 69 130 157 L130 157 Z " />
<glyph glyph-name="seven" unicode="7" horiz-adv-x="480" d="M187 696 L179 658 L535 658 C418 549 288 369 203 202 C160 117 133 50 123 0 L169 0 C191 94 242 207 317 334 C393 462 477 570 573 658 L581 696 L187 696 Z " />
<glyph glyph-name="eight" unicode="8" horiz-adv-x="480" d="M387 708 C322 708 267 684 227 641 C194 605 171 547 171 496 C171 433 204 392 260 380 L259 378 C144 361 75 246 75 134 C75 42 134 -12 236 -12 C332 -12 411 36 453 121 C473 163 484 206 484 249 C484 323 447 368 381 378 L381 380 C475 401 532 487 532 580 C532 660 479 708 387 708 L387 708 Z M213 497 C213 589 277 674 379 674 C451 674 489 636 489 574 C489 482 429 397 322 397 C254 397 213 432 213 497 L213 497 Z M117 140 C117 232 174 363 315 363 C398 363 441 325 441 248 C441 134 371 22 244 22 C164 22 117 67 117 140 L117 140 Z " />
<glyph glyph-name="nine" unicode="9" horiz-adv-x="480" d="M388 708 C282 708 203 645 162 543 C141 491 131 442 131 397 C131 300 185 244 280 244 C366 244 436 294 477 380 L479 380 C430 139 350 22 235 22 C167 22 130 63 130 122 C130 131 131 140 133 149 L91 149 C90 143 89 133 89 119 C89 39 135 -12 224 -12 C353 -12 436 76 493 284 C521 388 536 473 536 536 C536 649 488 708 388 708 L388 708 Z M174 406 C174 444 183 486 199 531 C231 622 296 674 378 674 C454 674 494 624 494 539 C494 467 459 365 399 315 C369 291 333 278 292 278 C217 278 174 322 174 406 L174 406 Z " />
<glyph glyph-name="colon" unicode="&#x3a;" horiz-adv-x="240" d="M181 395 L223 395 L244 497 L202 497 L181 395 Z M99 0 L141 0 L162 102 L120 102 L99 0 Z " />
<glyph glyph-name="semicolon" unicode="&#x3b;" horiz-adv-x="240" d="M181 395 L223 395 L244 497 L202 497 L181 395 Z M99 0 L111 0 C99 -53 87 -78 63 -94 L56 -128 C105 -103 125 -73 141 2 L162 102 L120 102 L99 0 Z " />
<glyph glyph-name="less" unicode="&#x3c;" horiz-adv-x="600" d="M103 270 L96 236 L551 -6 L557 24 L129 253 L653 482 L659 512 L103 270 Z " />
<glyph glyph-name="equal" unicode="&#x3d;" horiz-adv-x="600" d="M123 368 L116 334 L622 334 L629 368 L123 368 Z M82 172 L75 138 L581 138 L588 172 L82 172 Z " />
<glyph glyph-name="greater" unicode="&#x3e;" horiz-adv-x="600" d="M147 482 L575 253 L51 24 L45 -6 L602 236 L609 270 L153 512 L147 482 Z " />
<glyph glyph-name="question" unicode="&#x3f;" horiz-adv-x="426" d="M367 726 C255 726 168 647 140 509 L182 509 C204 628 269 692 361 692 C433 692 469 652 469 599 C469 508 417 456 348 400 C275 340 246 307 226 208 L221 183 L263 183 C277 258 280 276 311 317 C324 334 350 359 385 386 C441 428 471 466 488 503 C504 538 512 577 512 600 C512 670 469 726 367 726 L367 726 Z M183 0 L225 0 L244 96 L202 96 L183 0 Z " />
<glyph glyph-name="at" unicode="&#x40;" horiz-adv-x="800" d="M565 726 C485 726 408 705 333 662 C187 578 96 430 96 280 C96 192 126 122 185 68 C244 15 321 -12 416 -12 C544 -12 694 54 782 170 L740 170 C652 74 532 22 423 22 C349 22 277 46 222 97 C167 148 139 216 139 288 C139 418 223 553 354 632 C420 672 492 692 560 692 C705 692 819 609 819 475 C819 411 793 338 739 270 C687 205 625 171 579 171 C559 171 544 183 544 200 C545 217 564 246 599 312 L729 557 L687 557 L649 487 L647 487 C646 544 608 577 550 577 C453 577 349 502 288 395 C257 341 242 292 242 249 C242 184 281 137 348 137 C405 137 458 162 502 207 L504 207 C503 199 502 193 502 187 C502 156 522 137 558 137 C640 137 750 212 814 318 C846 371 862 424 862 482 C862 632 741 726 565 726 L565 726 Z M283 253 C283 288 296 329 321 377 C373 473 456 543 536 543 C587 543 614 520 614 471 C614 435 600 392 574 344 C523 249 442 171 368 171 C314 171 283 200 283 253 L283 253 Z " />
<glyph glyph-name="A" unicode="A" horiz-adv-x="481" d="M-4 0 L38 0 L152 222 L421 222 L443 0 L485 0 L419 714 L366 714 L-4 0 Z M381 672 L383 672 L420 256 L169 256 L381 672 Z " />
<glyph glyph-name="B" unicode="B" horiz-adv-x="500" d="M209 714 L61 0 L264 0 C413 0 508 112 508 245 C508 320 465 368 385 374 L386 376 C502 392 557 488 557 592 C557 675 504 714 404 714 L209 714 Z M402 680 C473 680 514 649 514 583 C514 477 449 391 324 391 L184 391 L244 680 L402 680 Z M319 357 C416 357 466 321 466 243 C466 184 442 97 379 62 C349 45 311 34 256 34 L110 34 L177 357 L319 357 Z " />
<glyph glyph-name="C" unicode="C" horiz-adv-x="500" d="M416 726 C278 726 182 620 130 433 C104 338 91 244 91 186 C91 51 148 -12 251 -12 C349 -12 423 36 475 117 C501 157 517 201 525 240 L483 240 C470 175 421 90 363 52 C333 32 300 22 266 22 C177 22 133 80 133 193 C133 244 146 334 170 424 C219 605 297 692 411 692 C489 692 535 646 535 560 C535 539 533 524 530 509 L572 509 C576 526 578 542 578 562 C578 665 523 726 416 726 L416 726 Z " />
<glyph glyph-name="D" unicode="D" horiz-adv-x="519" d="M209 714 L61 0 L229 0 C381 0 481 95 534 274 C561 364 574 450 574 514 C574 653 512 714 375 714 L209 714 Z M244 680 L369 680 C475 680 533 632 533 512 C533 456 521 378 497 292 C450 119 366 34 235 34 L110 34 L244 680 Z " />
<glyph glyph-name="E" unicode="E" horiz-adv-x="426" d="M209 714 L61 0 L411 0 L418 38 L110 38 L176 353 L455 353 L463 391 L184 391 L243 676 L542 676 L550 714 L209 714 Z " />
<glyph glyph-name="F" unicode="F" horiz-adv-x="407" d="M209 714 L61 0 L103 0 L176 353 L455 353 L463 391 L184 391 L243 676 L543 676 L551 714 L209 714 Z " />
<glyph glyph-name="G" unicode="G" horiz-adv-x="519" d="M496 276 C465 129 386 22 268 22 C180 22 134 72 134 193 C134 257 146 334 170 424 C219 605 297 692 412 692 C490 692 535 643 535 560 C535 539 533 525 530 509 L572 509 C576 526 578 542 578 562 C578 664 523 726 417 726 C278 726 182 621 130 432 C105 342 92 251 92 189 C92 56 144 -12 254 -12 C351 -12 429 43 474 144 L476 144 L447 0 L481 0 L555 357 L317 357 L310 323 L506 323 L496 276 Z " />
<glyph glyph-name="H" unicode="H" horiz-adv-x="519" d="M61 0 L103 0 L178 363 L491 363 L416 0 L458 0 L606 714 L564 714 L499 401 L186 401 L251 714 L209 714 L61 0 Z " />
<glyph glyph-name="I" unicode="I" horiz-adv-x="164" d="M61 0 L103 0 L251 714 L209 714 L61 0 Z " />
<glyph glyph-name="J" unicode="J" horiz-adv-x="407" d="M337 163 C315 59 256 22 186 22 C127 22 96 54 96 122 C96 144 99 167 109 209 L67 209 C61 176 54 142 54 111 C54 24 99 -12 182 -12 C281 -12 355 50 377 155 L494 714 L452 714 L337 163 Z " />
<glyph glyph-name="K" unicode="K" horiz-adv-x="463" d="M61 0 L103 0 L156 256 L273 378 L420 0 L468 0 L307 413 L594 714 L548 714 L170 317 L168 317 L251 714 L209 714 L61 0 Z " />
<glyph glyph-name="L" unicode="L" horiz-adv-x="426" d="M61 0 L402 0 L409 38 L110 38 L251 714 L209 714 L61 0 Z " />
<glyph glyph-name="M" unicode="M" horiz-adv-x="648" d="M202 714 L54 0 L96 0 L233 660 L235 660 L303 0 L345 0 L687 660 L689 660 L552 0 L594 0 L742 714 L673 714 L341 72 L339 72 L270 714 L202 714 Z " />
<glyph glyph-name="N" unicode="N" horiz-adv-x="519" d="M54 0 L96 0 L230 648 L232 648 L410 0 L465 0 L613 714 L571 714 L436 66 L434 66 L258 714 L202 714 L54 0 Z " />
<glyph glyph-name="O" unicode="O" horiz-adv-x="537" d="M418 726 C282 726 184 624 131 436 C105 341 91 255 91 195 C91 56 148 -12 266 -12 C402 -12 500 90 553 276 C579 370 592 448 592 528 C592 663 537 726 418 726 L418 726 Z M550 517 C550 454 537 372 513 282 C465 104 389 22 272 22 C159 22 133 101 133 200 C133 221 146 383 201 516 C242 615 308 692 411 692 C506 692 550 633 550 517 L550 517 Z " />
<glyph glyph-name="P" unicode="P" horiz-adv-x="463" d="M209 714 L61 0 L103 0 L169 318 L307 318 C444 318 553 417 553 578 C553 671 485 714 393 714 L209 714 Z M244 680 L390 680 C460 680 510 645 510 566 C510 446 434 352 317 352 L176 352 L244 680 Z " />
<glyph glyph-name="Q" unicode="Q" horiz-adv-x="537" d="M418 726 C282 726 184 624 131 436 C105 341 92 256 92 193 C92 53 151 -12 266 -12 C324 -12 375 8 414 39 L473 -37 L503 -12 L443 66 C490 113 526 185 553 278 C580 371 592 449 592 528 C592 663 538 726 418 726 L418 726 Z M395 63 C360 37 321 22 273 22 C190 22 134 61 134 193 C134 291 169 447 205 526 C249 624 313 692 411 692 C506 692 550 632 550 516 C550 451 538 377 515 289 C492 202 462 139 423 92 L355 177 L325 152 L395 63 Z " />
<glyph glyph-name="R" unicode="R" horiz-adv-x="500" d="M209 714 L61 0 L103 0 L171 331 L328 331 C395 331 443 307 443 239 C443 218 437 179 436 173 L420 98 C415 75 413 54 413 39 C413 23 415 11 418 0 L466 0 C458 18 456 36 456 51 C456 64 459 84 462 100 L476 165 C482 197 486 223 486 243 C486 315 447 343 376 348 L376 350 C485 361 562 461 562 582 C562 665 509 714 421 714 L209 714 Z M244 680 L407 680 C472 680 519 645 519 573 C519 510 490 430 430 393 C400 374 359 365 316 365 L178 365 L244 680 Z " />
<glyph glyph-name="S" unicode="S" horiz-adv-x="481" d="M389 726 C323 726 265 702 222 658 C181 617 155 552 155 498 C155 464 165 437 184 415 C203 393 236 375 298 354 C416 314 446 287 446 224 C446 164 422 114 382 77 C342 40 295 22 243 22 C156 22 110 71 110 144 C110 155 113 171 115 183 L122 220 L80 220 L72 182 C69 169 66 150 66 136 C66 41 128 -12 235 -12 C331 -12 418 39 458 117 C479 156 489 197 489 235 C489 284 474 312 439 338 C420 352 388 365 339 383 C293 400 260 413 246 421 C217 437 198 470 198 503 C198 557 224 629 281 665 C310 683 344 692 386 692 C465 692 504 652 504 583 C504 570 501 553 498 532 L540 532 C543 551 547 570 547 590 C547 680 491 726 389 726 L389 726 Z " />
<glyph glyph-name="T" unicode="T" horiz-adv-x="426" d="M150 714 L142 676 L332 676 L192 0 L234 0 L374 676 L564 676 L572 714 L150 714 Z " />
<glyph glyph-name="U" unicode="U" horiz-adv-x="500" d="M100 236 C91 192 84 158 84 128 C84 36 138 -12 247 -12 C370 -12 459 60 486 188 L596 714 L554 714 L445 190 C422 81 352 22 254 22 C168 22 127 63 127 134 C127 152 130 175 133 190 L242 714 L200 714 L100 236 Z " />
<glyph glyph-name="V" unicode="V" horiz-adv-x="444" d="M196 0 L248 0 L591 714 L549 714 L232 48 L230 48 L191 714 L149 714 L196 0 Z " />
<glyph glyph-name="W" unicode="W" horiz-adv-x="704" d="M166 0 L216 0 L486 654 L488 654 L485 0 L537 0 L841 714 L799 714 L526 60 L524 60 L525 714 L474 714 L204 60 L202 60 L201 714 L159 714 L166 0 Z " />
<glyph glyph-name="X" unicode="X" horiz-adv-x="463" d="M285 363 L8 0 L53 0 L298 324 L409 0 L455 0 L330 363 L591 714 L549 714 L317 405 L215 714 L173 714 L285 363 Z " />
<glyph glyph-name="Y" unicode="Y" horiz-adv-x="444" d="M262 294 L201 0 L243 0 L304 294 L586 714 L544 714 L292 338 L200 714 L154 714 L262 294 Z " />
<glyph glyph-name="Z" unicode="Z" horiz-adv-x="443" d="M186 714 L178 676 L520 676 L25 42 L17 0 L426 0 L433 38 L66 38 L561 672 L570 714 L186 714 Z " />
<glyph glyph-name="bracketleft" unicode="&#x5b;" horiz-adv-x="222" d="M230 714 L43 -184 L177 -184 L183 -154 L83 -154 L258 684 L358 684 L364 714 L230 714 Z " />
<glyph glyph-name="backslash" unicode="&#x5c;" horiz-adv-x="278" d="M244 -12 L284 -12 L181 726 L141 726 L244 -12 Z " />
<glyph glyph-name="bracketright" unicode="&#x5d;" horiz-adv-x="222" d="M154 714 L148 684 L248 684 L73 -154 L-26 -154 L-32 -184 L101 -184 L288 714 L154 714 Z " />
<glyph glyph-name="asciicircum" unicode="&#x5e;" horiz-adv-x="600" d="M97 243 L127 243 L439 670 L573 243 L603 243 L461 696 L427 696 L97 243 Z " />
<glyph glyph-name="underscore" unicode="&#x5f;" horiz-adv-x="500" d="M-15 -75 L-25 -125 L474 -125 L484 -75 L-15 -75 Z " />
<glyph glyph-name="grave" unicode="&#x60;" horiz-adv-x="148" d="M204 596 L237 596 L189 736 L141 736 L204 596 Z " />
<glyph glyph-name="a" unicode="a" horiz-adv-x="389" d="M300 535 C207 535 143 484 118 374 L156 374 C177 465 223 501 297 501 C354 501 378 480 378 428 C378 395 369 348 351 331 C341 321 327 314 307 309 L187 278 C135 265 99 240 78 205 C57 171 47 131 47 92 C47 24 84 -12 152 -12 C216 -12 277 21 309 84 L311 84 L306 60 C305 57 303 42 303 35 C303 11 318 -6 339 -6 C359 -6 367 -3 379 3 L385 33 C379 30 371 28 360 28 C348 28 343 36 343 47 C343 52 345 65 347 75 L415 402 C417 413 419 428 419 442 C419 505 380 535 300 535 L300 535 Z M357 305 L333 192 C311 86 250 22 166 22 C117 22 89 45 89 96 C89 125 96 157 112 187 C128 217 159 239 203 250 L304 276 C322 281 345 289 355 305 L357 305 Z " />
<glyph glyph-name="b" unicode="b" horiz-adv-x="426" d="M53 0 L91 0 L111 101 L113 101 C113 23 154 -12 222 -12 C318 -12 387 59 427 202 C447 275 458 343 458 395 C458 489 420 535 338 535 C273 535 226 507 182 431 L180 431 L239 714 L201 714 L53 0 Z M223 22 C161 22 130 60 130 145 C130 185 139 245 157 310 C192 441 245 501 329 501 C390 501 417 468 417 392 C417 352 409 296 392 226 C357 84 303 22 223 22 L223 22 Z " />
<glyph glyph-name="c" unicode="c" horiz-adv-x="389" d="M324 535 C215 535 144 458 105 318 C86 248 77 187 77 136 C77 31 122 -12 203 -12 C268 -12 323 18 362 76 C382 106 397 140 404 171 L362 171 C343 92 293 22 216 22 C152 22 118 57 118 140 C118 180 127 236 143 301 C176 436 235 501 316 501 C373 501 404 461 404 398 C404 388 402 379 401 373 L443 373 C445 383 446 396 446 412 C446 487 401 535 324 535 L324 535 Z " />
<glyph glyph-name="d" unicode="d" horiz-adv-x="426" d="M424 431 L422 431 C412 503 374 535 313 535 C210 535 143 461 105 318 C86 246 76 175 76 137 C76 38 117 -12 198 -12 C267 -12 324 25 353 101 L355 101 L335 0 L373 0 L521 714 L483 714 L424 431 Z M119 141 C119 230 157 371 184 417 C214 469 250 501 308 501 C373 501 404 458 404 378 C404 330 389 237 357 151 C326 68 277 22 211 22 C149 22 119 59 119 141 L119 141 Z " />
<glyph glyph-name="e" unicode="e" horiz-adv-x="407" d="M324 535 C214 535 139 449 104 314 C85 240 77 177 77 132 C77 33 117 -12 204 -12 C299 -12 379 60 404 171 L366 171 C345 86 288 22 207 22 C148 22 117 59 117 134 C117 176 126 222 134 264 L430 264 C440 315 446 358 446 396 C446 491 405 535 324 535 L324 535 Z M141 298 C175 444 239 501 314 501 C376 501 407 468 407 396 C407 372 404 347 395 298 L141 298 Z " />
<glyph glyph-name="f" unicode="f" horiz-adv-x="204" d="M324 714 C278 714 251 701 230 672 C219 657 210 635 204 605 L187 523 L116 523 L109 489 L180 489 L79 0 L117 0 L218 489 L305 489 L312 523 L225 523 L245 615 C254 658 279 680 318 680 C331 680 342 679 350 677 L357 711 C349 713 335 714 324 714 L324 714 Z " />
<glyph glyph-name="g" unicode="g" horiz-adv-x="426" d="M314 535 C214 535 146 468 107 327 C87 256 78 187 78 145 C78 49 117 0 195 0 C265 0 315 34 354 106 L357 106 L337 11 C315 -97 268 -150 177 -150 C117 -150 87 -124 87 -79 C87 -71 87 -63 89 -54 L51 -54 C48 -66 48 -80 48 -83 C49 -151 89 -184 166 -184 C281 -184 348 -119 379 29 L481 523 L443 523 L425 437 L423 437 C415 503 376 535 314 535 L314 535 Z M121 151 C121 194 130 252 146 313 C178 436 230 501 315 501 C376 501 405 461 405 382 C405 346 396 285 379 222 C345 97 293 34 214 34 C151 34 121 73 121 151 L121 151 Z " />
<glyph glyph-name="h" unicode="h" horiz-adv-x="407" d="M51 0 L89 0 L159 339 C178 430 241 501 318 501 C375 501 401 477 401 422 C401 407 399 392 396 376 L318 0 L356 0 L437 395 C440 412 442 424 442 436 C442 502 401 535 335 535 C275 535 218 501 183 444 L181 444 L237 714 L199 714 L51 0 Z " />
<glyph glyph-name="i" unicode="i" horiz-adv-x="148" d="M182 612 L220 612 L241 714 L203 714 L182 612 Z M55 0 L93 0 L201 523 L163 523 L55 0 Z " />
<glyph glyph-name="j" unicode="j" horiz-adv-x="148" d="M182 612 L220 612 L241 714 L203 714 L182 612 Z M40 -71 C30 -121 6 -144 -39 -144 C-48 -144 -58 -143 -67 -142 L-74 -176 C-61 -177 -51 -178 -40 -178 C25 -178 63 -141 80 -61 L201 523 L163 523 L40 -71 Z " />
<glyph glyph-name="k" unicode="k" horiz-adv-x="389" d="M51 0 L89 0 L128 192 L237 295 L346 0 L394 0 L271 329 L473 523 L425 523 L141 245 L139 245 L237 714 L199 714 L51 0 Z " />
<glyph glyph-name="l" unicode="l" horiz-adv-x="148" d="M55 0 L93 0 L241 714 L203 714 L55 0 Z " />
<glyph glyph-name="m" unicode="m" horiz-adv-x="648" d="M334 535 C273 535 218 503 189 445 L187 445 L203 523 L165 523 L57 0 L95 0 L166 342 C187 445 245 501 317 501 C364 501 388 479 388 427 C388 414 386 397 385 390 L305 0 L343 0 L415 347 C435 441 492 501 567 501 C613 501 638 476 638 429 C638 421 638 413 634 393 L553 0 L591 0 L671 387 C676 412 679 425 679 445 C679 504 642 535 577 535 C511 535 452 492 428 437 L426 437 L426 449 C426 506 396 535 334 535 L334 535 Z " />
<glyph glyph-name="n" unicode="n" horiz-adv-x="407" d="M335 535 C275 535 218 500 183 444 L181 444 L197 523 L159 523 L51 0 L89 0 L159 338 C178 429 240 501 318 501 C375 501 401 477 401 422 C401 407 399 392 396 376 L318 0 L356 0 L437 394 C440 411 442 424 442 436 C442 502 401 535 335 535 L335 535 Z " />
<glyph glyph-name="o" unicode="o" horiz-adv-x="426" d="M328 535 C220 535 149 469 108 326 C87 254 77 190 77 139 C77 38 119 -12 208 -12 C315 -12 386 56 427 200 C447 271 457 333 457 385 C457 484 416 535 328 535 L328 535 Z M217 22 C153 22 119 57 119 145 C119 187 128 241 145 308 C179 442 236 501 316 501 C386 501 415 461 415 377 C415 342 407 283 390 216 C355 82 301 22 217 22 L217 22 Z " />
<glyph glyph-name="p" unicode="p" horiz-adv-x="426" d="M338 535 C273 535 226 507 182 431 L180 431 L199 523 L161 523 L16 -176 L54 -176 L111 101 L113 101 C113 23 153 -12 222 -12 C317 -12 385 57 426 199 C447 271 457 336 457 391 C457 485 418 535 338 535 L338 535 Z M223 22 C161 22 130 60 130 145 C130 183 139 246 157 311 C192 441 245 501 329 501 C388 501 414 456 414 378 C414 334 406 280 389 214 C354 82 301 22 223 22 L223 22 Z " />
<glyph glyph-name="q" unicode="q" horiz-adv-x="426" d="M314 535 C212 535 145 463 106 320 C86 250 76 184 76 137 C76 38 116 -12 199 -12 C267 -12 323 24 353 100 L355 101 L298 -176 L336 -176 L481 523 L443 523 L424 431 L422 431 C412 506 376 535 314 535 L314 535 Z M119 140 C119 184 127 239 144 304 C178 434 233 501 309 501 C373 501 404 460 404 377 C404 337 395 282 378 216 C345 87 290 22 211 22 C149 22 119 61 119 140 L119 140 Z " />
<glyph glyph-name="r" unicode="r" horiz-adv-x="241" d="M334 535 C273 535 218 502 180 432 L178 432 L197 523 L159 523 L51 0 L89 0 L158 333 C174 409 219 468 274 491 C291 497 305 501 336 501 L348 501 L355 535 L334 535 Z " />
<glyph glyph-name="s" unicode="s" horiz-adv-x="352" d="M288 535 C187 535 113 464 113 361 C113 323 135 292 185 270 L262 236 C299 220 317 198 317 160 C317 118 294 64 253 40 C233 28 208 22 182 22 C118 22 87 50 87 106 C87 119 87 127 95 167 L57 167 C49 132 47 114 47 95 C47 24 92 -12 174 -12 C276 -12 361 68 361 173 C361 202 351 227 331 246 C321 255 303 266 280 275 L216 301 C178 316 156 338 156 376 C156 446 205 501 281 501 C332 501 361 479 361 428 C361 416 359 403 353 376 L391 376 C399 420 399 422 399 438 C399 507 358 535 288 535 L288 535 Z " />
<glyph glyph-name="t" unicode="t" horiz-adv-x="204" d="M187 523 L116 523 L109 489 L180 489 L96 82 C92 63 92 55 92 48 C92 13 111 -6 154 -6 C173 -6 190 -4 210 0 L217 34 C205 30 188 28 168 28 C141 28 131 42 131 63 C131 72 134 86 136 94 L218 489 L305 489 L312 523 L225 523 L257 678 L219 678 L187 523 Z " />
<glyph glyph-name="u" unicode="u" horiz-adv-x="407" d="M81 148 C76 122 72 106 72 88 C72 21 114 -12 180 -12 C242 -12 295 22 332 79 L334 79 L318 0 L356 0 L464 523 L426 523 L356 184 C338 97 278 22 196 22 C144 22 113 45 113 100 C113 109 116 134 119 148 L197 523 L159 523 L81 148 Z " />
<glyph glyph-name="v" unicode="v" horiz-adv-x="352" d="M156 0 L201 0 L451 523 L409 523 L189 48 L187 48 L159 523 L117 523 L156 0 Z " />
<glyph glyph-name="w" unicode="w" horiz-adv-x="537" d="M118 0 L166 0 L366 469 L368 469 L370 0 L418 0 L639 523 L597 523 L406 54 L404 54 L402 523 L354 523 L154 54 L152 54 L156 523 L114 523 L118 0 Z " />
<glyph glyph-name="x" unicode="x" horiz-adv-x="352" d="M209 269 L13 0 L55 0 L224 236 L292 0 L339 0 L254 269 L440 523 L398 523 L239 301 L175 523 L128 523 L209 269 Z " />
<glyph glyph-name="y" unicode="y" horiz-adv-x="352" d="M161 -5 L128 -72 C110 -108 90 -142 34 -142 C28 -142 13 -142 -3 -140 L-10 -174 C7 -176 14 -176 27 -176 C94 -176 132 -145 166 -74 L451 523 L409 523 L196 54 L194 54 L159 523 L117 523 L161 -5 Z " />
<glyph glyph-name="z" unicode="z" horiz-adv-x="334" d="M137 523 L130 489 L375 489 L22 34 L15 0 L319 0 L326 34 L64 34 L417 489 L424 523 L137 523 Z " />
<glyph glyph-name="braceleft" unicode="&#x7b;" horiz-adv-x="222" d="M384 714 L337 714 C260 714 237 663 222 592 L189 432 C167 327 134 282 87 280 L80 250 C113 250 129 224 129 171 C129 150 123 114 120 98 L87 -61 C83 -78 80 -101 80 -117 C80 -178 113 -184 158 -184 L197 -184 L203 -154 L156 -154 C125 -154 114 -143 114 -110 C114 -100 116 -88 121 -61 L154 101 C158 122 164 147 164 179 C164 226 150 256 117 264 L118 266 C166 275 205 340 223 430 L259 606 C269 654 290 684 325 684 L378 684 L384 714 Z " />
<glyph glyph-name="bar" unicode="&#x7c;" horiz-adv-x="222" d="M89 -12 L127 -12 L280 726 L242 726 L89 -12 Z " />
<glyph glyph-name="braceright" unicode="&#x7d;" horiz-adv-x="222" d="M128 684 L179 684 C206 684 217 670 217 642 C217 628 215 615 211 597 L176 424 C172 402 168 380 168 353 C168 304 183 273 214 266 L213 264 C160 250 126 185 108 99 L79 -41 C66 -105 56 -154 4 -154 L-46 -154 L-52 -184 L-2 -184 C69 -184 94 -133 108 -65 L146 116 C160 184 192 250 244 250 L251 280 C220 280 202 303 202 353 C202 381 209 424 210 429 L245 595 C248 610 251 630 251 648 C251 695 230 714 183 714 L134 714 L128 684 Z " />
<glyph glyph-name="asciitilde" unicode="&#x7e;" horiz-adv-x="600" d="M568 307 C521 252 493 236 461 236 C384 236 336 304 257 304 C209 304 173 288 117 221 L136 199 C188 260 216 270 245 270 C320 270 368 202 447 202 C499 202 535 223 587 285 L568 307 Z " />
<glyph glyph-name="uni00A0" unicode="&#xa0;" horiz-adv-x="240" d="" />
<glyph glyph-name="exclamdown" unicode="&#xa1;" horiz-adv-x="222" d="M182 446 L224 446 L244 542 L202 542 L182 446 Z M102 62 L54 -172 L96 -172 L144 60 L200 360 L170 360 L102 62 Z " />
<glyph glyph-name="cent" unicode="&#xa2;" horiz-adv-x="480" d="M346 535 C244 525 178 451 141 314 C123 245 113 176 113 138 C113 38 154 -9 232 -12 L213 -103 L237 -103 L256 -12 C352 -4 417 78 440 171 L398 171 C378 86 327 27 263 22 L363 501 C412 498 440 459 440 404 C440 392 439 381 438 373 L480 373 C482 383 483 397 483 412 C483 477 445 532 370 535 L386 613 L362 613 L346 535 Z M155 142 C155 172 163 234 180 302 C213 434 269 493 339 501 L239 22 C184 28 155 65 155 142 L155 142 Z " />
<glyph glyph-name="sterling" unicode="&#xa3;" horiz-adv-x="480" d="M386 708 C262 708 156 613 156 500 C156 462 162 437 191 368 L104 368 L97 334 L198 334 C202 318 203 305 203 290 C203 200 150 118 29 25 L45 -9 C83 15 114 25 144 25 C217 25 239 -12 304 -12 C352 -12 407 9 467 53 L453 81 C387 37 344 22 309 22 C256 22 222 59 165 59 C139 59 104 46 75 28 L74 30 C185 108 245 198 245 288 C245 299 245 303 240 334 L366 334 L373 368 L233 368 C199 464 198 477 198 509 C198 596 279 674 377 674 C463 674 507 632 507 556 C507 540 505 521 501 501 L543 501 C547 520 550 539 550 557 C550 650 493 708 386 708 L386 708 Z " />
<glyph glyph-name="currency" unicode="&#xa4;" horiz-adv-x="480" d="M356 561 C305 561 251 543 208 510 L168 559 L140 536 L179 487 C126 438 94 369 94 302 C94 268 103 235 121 210 L62 160 L80 137 L140 186 C171 153 217 135 268 135 C321 135 371 152 416 186 L456 137 L484 160 L445 210 C501 261 530 329 530 395 C530 430 521 460 503 487 L562 536 L544 559 L484 510 C455 543 410 561 356 561 L356 561 Z M133 309 C133 418 235 527 348 527 C434 527 492 465 492 387 C492 288 399 169 274 169 C192 169 133 229 133 309 L133 309 Z " />
<glyph glyph-name="yen" unicode="&#xa5;" horiz-adv-x="480" d="M268 321 L150 321 L143 287 L278 287 L261 205 L126 205 L119 171 L254 171 L219 0 L261 0 L296 171 L439 171 L446 205 L303 205 L320 287 L463 287 L470 321 L344 321 L600 696 L558 696 L308 329 L214 696 L168 696 L268 321 Z " />
<glyph glyph-name="brokenbar" unicode="&#xa6;" horiz-adv-x="222" d="M187 460 L225 460 L280 726 L242 726 L187 460 Z M89 -12 L127 -12 L182 254 L144 254 L89 -12 Z " />
<glyph glyph-name="section" unicode="&#xa7;" horiz-adv-x="481" d="M397 726 C277 726 205 642 205 563 C205 537 214 515 244 484 C161 448 105 386 105 309 C105 260 135 234 168 209 L276 125 C339 76 362 42 362 6 C362 -59 307 -117 215 -117 C153 -117 117 -85 117 -26 C117 -11 120 4 124 20 L82 20 C75 -8 73 -19 73 -35 C73 -102 120 -151 211 -151 C332 -151 406 -66 406 18 C406 49 392 78 361 107 C458 151 498 212 498 281 C498 320 478 352 446 377 L313 481 C283 505 248 533 248 570 C248 615 287 692 391 692 C452 692 484 660 484 610 C484 599 483 590 481 580 L523 580 C526 592 527 602 527 615 C527 678 485 726 397 726 L397 726 Z M148 322 C148 369 183 427 267 464 L409 354 C444 327 454 303 454 272 C453 208 416 162 339 127 L196 242 C165 267 148 296 148 322 L148 322 Z " />
<glyph glyph-name="dieresis" unicode="&#xa8;" horiz-adv-x="148" d="M112 615 L154 615 L175 717 L133 717 L112 615 Z M246 615 L288 615 L309 717 L267 717 L246 615 Z " />
<glyph glyph-name="copyright" unicode="&#xa9;" horiz-adv-x="800" d="M550 726 C432 726 320 672 234 588 C152 508 97 392 97 283 C97 203 124 126 181 71 C236 16 312 -12 397 -12 C514 -12 636 45 724 136 C801 215 851 323 851 433 C851 521 819 588 771 638 C716 695 637 726 550 726 L550 726 Z M136 291 C136 416 211 550 342 629 C407 668 474 688 542 688 C697 688 812 581 812 424 C812 226 623 26 405 26 C244 26 136 140 136 291 L136 291 Z M523 592 C376 592 252 460 252 290 C252 181 319 121 425 121 C537 121 625 185 660 282 L618 282 C580 199 517 155 433 155 C345 155 295 214 295 305 C295 362 316 429 362 482 C407 533 462 558 517 558 C601 558 650 518 650 442 L650 437 L692 437 C693 443 693 448 693 454 C691 543 634 592 523 592 L523 592 Z " />
<glyph glyph-name="ordfeminine" unicode="&#xaa;" horiz-adv-x="276" d="M277 708 C209 708 168 673 155 611 L189 611 C196 651 223 678 269 678 C307 678 324 666 324 638 C324 634 322 613 314 600 C308 590 297 583 280 578 L200 555 C134 536 111 482 111 438 C111 399 136 377 177 377 C216 377 253 392 279 427 L281 427 C280 421 277 411 277 403 C277 385 291 377 312 377 C321 377 330 379 337 383 L341 402 C336 400 330 399 325 399 C317 399 314 403 314 414 C314 419 316 428 317 433 L356 622 C357 627 360 642 360 650 C360 689 334 708 277 708 L277 708 Z M310 567 L296 497 C286 450 248 407 192 407 C162 407 147 425 147 451 C147 467 155 517 204 532 L264 550 C281 555 297 560 308 567 L310 567 Z " />
<glyph glyph-name="guillemotleft" unicode="&#xab;" horiz-adv-x="333" d="M112 289 L104 251 L190 116 L200 166 L138 270 L244 378 L254 428 L112 289 Z M227 289 L219 251 L305 116 L315 166 L253 270 L359 378 L369 428 L227 289 Z " />
<glyph glyph-name="logicalnot" unicode="&#xac;" horiz-adv-x="600" d="M123 368 L116 334 L588 334 L541 108 L575 108 L629 368 L123 368 Z " />
<glyph glyph-name="uni00AD" unicode="&#xad;" horiz-adv-x="315" d="M123 289 L116 255 L305 255 L312 289 L123 289 Z " />
<glyph glyph-name="registered" unicode="&#xae;" horiz-adv-x="800" d="M550 726 C448 726 345 684 263 615 C165 532 97 406 97 283 C97 204 124 126 181 71 C236 16 313 -12 397 -12 C521 -12 650 50 740 153 C807 230 851 330 851 433 C851 509 825 584 768 641 C711 698 634 726 550 726 L550 726 Z M136 291 C136 416 211 549 340 628 C405 667 474 688 542 688 C698 688 812 580 812 424 C812 223 621 26 405 26 C246 26 136 139 136 291 L136 291 Z M381 577 L290 139 L332 139 L374 338 L487 338 L575 139 L620 139 L532 337 C632 354 673 420 673 490 C673 549 627 577 552 577 L381 577 Z M540 543 C594 543 629 523 629 479 C629 412 582 372 498 372 L381 372 L416 543 L540 543 Z " />
<glyph glyph-name="macron" unicode="&#xaf;" horiz-adv-x="148" d="M105 681 L99 651 L315 651 L321 681 L105 681 Z " />
<glyph glyph-name="degree" unicode="&#xb0;" horiz-adv-x="400" d="M347 708 C262 708 171 632 171 537 C171 469 219 422 287 422 C373 422 463 499 463 594 C463 661 415 708 347 708 L347 708 Z M206 542 C206 613 273 674 339 674 C392 674 428 636 428 586 C428 516 359 456 294 456 C244 456 206 490 206 542 L206 542 Z " />
<glyph glyph-name="plusminus" unicode="&#xb1;" horiz-adv-x="600" d="M348 314 L112 314 L105 280 L341 280 L301 88 L335 88 L375 280 L611 280 L618 314 L382 314 L422 506 L388 506 L348 314 Z M54 34 L47 0 L553 0 L560 34 L54 34 Z " />
<glyph glyph-name="twosuperior" unicode="&#xb2;" horiz-adv-x="333" d="M337 829 C261 829 205 787 189 702 L226 702 C238 764 278 797 334 797 C376 797 402 771 402 730 C402 681 378 641 313 600 L257 565 C161 505 134 459 117 397 L370 397 L377 430 L166 430 C181 469 211 500 302 555 C374 599 440 648 440 733 C440 792 398 829 337 829 L337 829 Z " />
<glyph glyph-name="threesuperior" unicode="&#xb3;" horiz-adv-x="333" d="M334 829 C258 829 206 786 190 714 L227 714 C240 767 275 797 330 797 C373 797 399 772 399 735 C399 682 357 636 291 636 L273 636 L266 604 L283 604 C345 604 371 576 371 535 C371 470 322 420 256 420 C205 420 172 442 172 485 C172 492 173 500 174 507 L137 507 C135 499 134 491 134 481 C134 423 179 388 253 388 C341 388 409 452 409 538 C409 580 387 610 344 619 L344 622 C399 637 437 686 437 736 C437 791 396 829 334 829 L334 829 Z " />
<glyph glyph-name="acute" unicode="&#xb4;" horiz-adv-x="148" d="M155 596 L188 596 L311 736 L263 736 L155 596 Z " />
<glyph glyph-name="mu" unicode="&#xb5;" horiz-adv-x="407" d="M16 -176 L53 -176 L97 36 L99 36 C113 4 148 -12 187 -12 C245 -12 297 20 332 79 L334 79 L318 0 L356 0 L464 523 L426 523 L356 185 C339 103 279 22 196 22 C141 22 114 49 114 99 C114 115 116 126 120 147 L197 523 L159 523 L16 -176 Z " />
<glyph glyph-name="paragraph" unicode="&#xb6;" horiz-adv-x="600" d="M433 714 C333 714 244 669 200 591 C179 552 168 512 168 471 C168 378 230 323 337 322 L242 -139 L280 -139 L450 680 L579 680 L409 -139 L447 -139 L624 714 L433 714 Z M211 479 C211 586 296 680 412 680 L345 356 C262 356 211 402 211 479 L211 479 Z " />
<glyph glyph-name="periodcentered" unicode="&#xb7;" horiz-adv-x="240" d="M199 381 C163 381 136 347 136 319 C136 296 153 279 178 279 C210 279 240 310 240 341 C240 364 224 381 199 381 L199 381 Z " />
<glyph glyph-name="cedilla" unicode="&#xb8;" horiz-adv-x="148" d="M1 -82 L11 -94 C24 -87 46 -80 66 -80 C93 -80 110 -91 110 -116 C110 -152 80 -172 37 -172 C11 -172 -14 -167 -37 -156 L-50 -178 C-30 -190 -1 -196 36 -196 C97 -196 145 -163 145 -113 C145 -80 122 -56 83 -56 C70 -56 59 -58 49 -61 L48 -59 L103 0 L73 0 L1 -82 Z " />
<glyph glyph-name="onesuperior" unicode="&#xb9;" horiz-adv-x="333" d="M343 820 C321 786 264 751 214 747 L207 715 C256 719 299 738 328 765 L251 397 L287 397 L375 820 L343 820 Z " />
<glyph glyph-name="ordmasculine" unicode="&#xba;" horiz-adv-x="313" d="M304 708 C230 708 185 663 161 581 C149 539 144 500 144 470 C144 405 174 377 234 377 C311 377 354 424 376 503 C388 546 394 587 394 616 C394 679 364 708 304 708 L304 708 Z M179 481 C179 506 182 531 192 569 C211 641 246 678 295 678 C337 678 358 656 358 604 C358 552 338 469 304 434 C287 416 265 407 240 407 C197 407 179 432 179 481 L179 481 Z " />
<glyph glyph-name="guillemotright" unicode="&#xbb;" horiz-adv-x="333" d="M130 378 L192 274 L86 166 L76 116 L219 255 L226 293 L140 428 L130 378 Z M245 378 L307 274 L201 166 L191 116 L334 255 L341 293 L255 428 L245 378 Z " />
<glyph glyph-name="onequarter" unicode="&#xbc;" horiz-adv-x="721" d="M114 -32 L147 -32 L722 728 L689 728 L114 -32 Z M303 697 C280 662 223 628 174 624 L167 592 C218 596 263 618 288 642 L211 274 L247 274 L335 697 L303 697 Z M416 136 L408 100 L601 100 L580 0 L616 0 L637 100 L698 100 L705 133 L644 133 L704 423 L669 423 L416 136 Z M656 365 L608 133 L452 133 L656 365 Z " />
<glyph glyph-name="onehalf" unicode="&#xbd;" horiz-adv-x="721" d="M86 -32 L119 -32 L694 728 L661 728 L86 -32 Z M293 697 C272 665 215 628 164 624 L157 592 C210 596 254 619 278 642 L201 274 L237 274 L325 697 L293 697 Z M634 432 C557 432 503 390 486 305 L523 305 C536 369 576 400 631 400 C673 400 699 374 699 333 C699 286 677 245 610 203 L553 167 C457 107 430 60 414 0 L667 0 L674 33 L463 33 C478 73 511 104 594 155 C666 198 737 247 737 336 C737 396 693 432 634 432 L634 432 Z " />
<glyph glyph-name="threequarters" unicode="&#xbe;" horiz-adv-x="721" d="M185 -32 L218 -32 L793 728 L760 728 L185 -32 Z M337 706 C264 706 211 666 193 591 L230 591 C242 642 277 674 333 674 C376 674 402 649 402 612 C402 560 361 513 294 513 L276 513 L269 481 L285 481 C350 481 374 451 374 412 C374 345 324 297 259 297 C205 297 175 321 175 362 C175 367 176 376 177 384 L140 384 C138 377 137 368 137 358 C137 299 182 265 256 265 C347 265 412 332 412 415 C412 457 388 488 347 496 L347 499 C402 515 440 562 440 613 C440 666 401 706 337 706 L337 706 Z M426 136 L418 100 L611 100 L590 0 L626 0 L647 100 L708 100 L715 133 L654 133 L714 423 L679 423 L426 136 Z M666 365 L618 133 L462 133 L666 365 Z " />
<glyph glyph-name="questiondown" unicode="&#xbf;" horiz-adv-x="426" d="M293 446 L335 446 L355 542 L313 542 L293 446 Z M263 303 C248 233 202 195 153 157 C97 113 69 81 51 43 C35 10 26 -28 26 -58 C26 -135 74 -184 170 -184 C301 -184 378 -78 397 33 L355 33 C339 -76 272 -150 176 -150 C108 -150 69 -116 69 -53 C69 -11 87 58 160 117 C245 186 289 221 309 319 L317 359 L275 359 L263 303 Z " />
<glyph glyph-name="Agrave" unicode="&#xc0;" horiz-adv-x="481" d="M-4 0 L38 0 L152 222 L421 222 L443 0 L485 0 L419 714 L366 714 L-4 0 Z M381 672 L383 672 L420 256 L169 256 L381 672 Z M388 770 L421 770 L373 910 L325 910 L388 770 Z " />
<glyph glyph-name="Aacute" unicode="&#xc1;" horiz-adv-x="481" d="M-4 0 L38 0 L152 222 L421 222 L443 0 L485 0 L419 714 L366 714 L-4 0 Z M381 672 L383 672 L420 256 L169 256 L381 672 Z M377 770 L410 770 L533 910 L485 910 L377 770 Z " />
<glyph glyph-name="Acircumflex" unicode="&#xc2;" horiz-adv-x="481" d="M-4 0 L38 0 L152 222 L421 222 L443 0 L485 0 L419 714 L366 714 L-4 0 Z M381 672 L383 672 L420 256 L169 256 L381 672 Z M285 770 L327 770 L423 880 L473 770 L515 770 L451 910 L409 910 L285 770 Z " />
<glyph glyph-name="Atilde" unicode="&#xc3;" horiz-adv-x="481" d="M-4 0 L38 0 L152 222 L421 222 L443 0 L485 0 L419 714 L366 714 L-4 0 Z M381 672 L383 672 L420 256 L169 256 L381 672 Z M515 885 C504 842 485 829 465 829 C434 829 414 880 371 880 C318 880 290 832 282 795 L312 795 C318 827 337 850 362 850 C395 850 409 799 459 799 C504 799 536 842 545 885 L515 885 Z " />
<glyph glyph-name="Adieresis" unicode="&#xc4;" horiz-adv-x="481" d="M-4 0 L38 0 L152 222 L421 222 L443 0 L485 0 L419 714 L366 714 L-4 0 Z M381 672 L383 672 L420 256 L169 256 L381 672 Z M314 789 L356 789 L377 891 L335 891 L314 789 Z M448 789 L490 789 L511 891 L469 891 L448 789 Z " />
<glyph glyph-name="Aring" unicode="&#xc5;" horiz-adv-x="481" d="M-4 0 L38 0 L152 222 L421 222 L443 0 L485 0 L419 714 L366 714 L-4 0 Z M381 672 L383 672 L420 256 L169 256 L381 672 Z M431 920 C369 920 322 864 322 813 C322 775 350 744 393 744 C452 744 504 796 504 849 C504 890 473 920 431 920 L431 920 Z M353 821 C353 858 391 891 422 891 C452 891 473 875 473 844 C473 803 434 773 400 773 C376 773 353 787 353 821 L353 821 Z " />
<glyph glyph-name="AE" unicode="&#xc6;" horiz-adv-x="704" d="M451 714 L-4 0 L41 0 L180 222 L382 222 L336 0 L687 0 L694 38 L385 38 L451 353 L730 353 L738 391 L459 391 L518 676 L817 676 L825 714 L451 714 Z M476 676 L389 256 L201 256 L469 676 L476 676 Z " />
<glyph glyph-name="Ccedilla" unicode="&#xc7;" horiz-adv-x="500" d="M416 726 C280 726 181 622 129 428 C103 331 91 249 91 187 C91 57 142 -5 237 -11 L175 -82 L185 -94 C200 -86 221 -80 241 -80 C268 -80 284 -92 284 -116 C284 -150 256 -172 211 -172 C186 -172 160 -167 137 -156 L124 -178 C144 -190 173 -196 210 -196 C271 -196 319 -163 319 -113 C319 -79 295 -56 258 -56 C246 -56 233 -58 223 -61 L222 -59 L266 -11 C335 -7 391 20 436 67 C481 115 511 175 525 240 L483 240 C470 176 423 92 363 52 C333 32 300 22 266 22 C182 22 133 73 133 191 C133 243 145 330 169 420 C218 606 298 692 411 692 C491 692 535 643 535 560 C535 539 533 525 530 509 L572 509 C576 526 578 542 578 562 C578 665 523 726 416 726 L416 726 Z " />
<glyph glyph-name="Egrave" unicode="&#xc8;" horiz-adv-x="426" d="M209 714 L61 0 L411 0 L418 38 L110 38 L176 353 L455 353 L463 391 L184 391 L243 676 L542 676 L550 714 L209 714 Z M379 770 L412 770 L364 910 L316 910 L379 770 Z " />
<glyph glyph-name="Eacute" unicode="&#xc9;" horiz-adv-x="426" d="M209 714 L61 0 L411 0 L418 38 L110 38 L176 353 L455 353 L463 391 L184 391 L243 676 L542 676 L550 714 L209 714 Z M353 770 L386 770 L509 910 L461 910 L353 770 Z " />
<glyph glyph-name="Ecircumflex" unicode="&#xca;" horiz-adv-x="426" d="M209 714 L61 0 L411 0 L418 38 L110 38 L176 353 L455 353 L463 391 L184 391 L243 676 L542 676 L550 714 L209 714 Z M266 770 L308 770 L404 880 L454 770 L496 770 L432 910 L390 910 L266 770 Z " />
<glyph glyph-name="Edieresis" unicode="&#xcb;" horiz-adv-x="426" d="M209 714 L61 0 L411 0 L418 38 L110 38 L176 353 L455 353 L463 391 L184 391 L243 676 L542 676 L550 714 L209 714 Z M295 789 L337 789 L358 891 L316 891 L295 789 Z M429 789 L471 789 L492 891 L450 891 L429 789 Z " />
<glyph glyph-name="Igrave" unicode="&#xcc;" horiz-adv-x="164" d="M61 0 L103 0 L251 714 L209 714 L61 0 Z M227 770 L260 770 L212 910 L164 910 L227 770 Z " />
<glyph glyph-name="Iacute" unicode="&#xcd;" horiz-adv-x="164" d="M61 0 L103 0 L251 714 L209 714 L61 0 Z M216 770 L249 770 L372 910 L324 910 L216 770 Z " />
<glyph glyph-name="Icircumflex" unicode="&#xce;" horiz-adv-x="164" d="M61 0 L103 0 L251 714 L209 714 L61 0 Z M124 770 L166 770 L262 880 L312 770 L354 770 L290 910 L248 910 L124 770 Z " />
<glyph glyph-name="Idieresis" unicode="&#xcf;" horiz-adv-x="164" d="M61 0 L103 0 L251 714 L209 714 L61 0 Z M153 789 L195 789 L216 891 L174 891 L153 789 Z M287 789 L329 789 L350 891 L308 891 L287 789 Z " />
<glyph glyph-name="Eth" unicode="&#xd0;" horiz-adv-x="519" d="M209 714 L142 391 L82 391 L74 355 L134 355 L61 0 L228 0 C383 0 481 96 534 274 C561 364 574 451 574 514 C574 653 513 714 376 714 L209 714 Z M368 680 C474 680 533 634 533 512 C533 463 521 378 497 292 C450 119 365 34 234 34 L110 34 L176 355 L356 355 L364 391 L184 391 L244 680 L368 680 Z " />
<glyph glyph-name="Ntilde" unicode="&#xd1;" horiz-adv-x="519" d="M54 0 L96 0 L230 648 L232 648 L410 0 L465 0 L613 714 L571 714 L436 66 L434 66 L258 714 L202 714 L54 0 Z M529 885 C518 842 499 829 479 829 C448 829 428 880 385 880 C332 880 304 832 296 795 L326 795 C332 827 351 850 376 850 C409 850 423 799 473 799 C518 799 550 842 559 885 L529 885 Z " />
<glyph glyph-name="Ograve" unicode="&#xd2;" horiz-adv-x="537" d="M418 726 C282 726 184 624 131 436 C105 341 91 255 91 195 C91 56 148 -12 266 -12 C402 -12 500 90 553 276 C579 370 592 448 592 528 C592 663 537 726 418 726 L418 726 Z M550 517 C550 454 537 372 513 282 C465 104 389 22 272 22 C159 22 133 101 133 200 C133 221 146 383 201 516 C242 615 308 692 411 692 C506 692 550 633 550 517 L550 517 Z M436 770 L469 770 L421 910 L373 910 L436 770 Z " />
<glyph glyph-name="Oacute" unicode="&#xd3;" horiz-adv-x="537" d="M418 726 C282 726 184 624 131 436 C105 341 91 255 91 195 C91 56 148 -12 266 -12 C402 -12 500 90 553 276 C579 370 592 448 592 528 C592 663 537 726 418 726 L418 726 Z M550 517 C550 454 537 372 513 282 C465 104 389 22 272 22 C159 22 133 101 133 200 C133 221 146 383 201 516 C242 615 308 692 411 692 C506 692 550 633 550 517 L550 517 Z M406 770 L439 770 L562 910 L514 910 L406 770 Z " />
<glyph glyph-name="Ocircumflex" unicode="&#xd4;" horiz-adv-x="537" d="M418 726 C282 726 184 624 131 436 C105 341 91 255 91 195 C91 56 148 -12 266 -12 C402 -12 500 90 553 276 C579 370 592 448 592 528 C592 663 537 726 418 726 L418 726 Z M550 517 C550 454 537 372 513 282 C465 104 389 22 272 22 C159 22 133 101 133 200 C133 221 146 383 201 516 C242 615 308 692 411 692 C506 692 550 633 550 517 L550 517 Z M319 770 L361 770 L457 880 L507 770 L549 770 L485 910 L443 910 L319 770 Z " />
<glyph glyph-name="Otilde" unicode="&#xd5;" horiz-adv-x="537" d="M418 726 C282 726 184 624 131 436 C105 341 91 255 91 195 C91 56 148 -12 266 -12 C402 -12 500 90 553 276 C579 370 592 448 592 528 C592 663 537 726 418 726 L418 726 Z M550 517 C550 454 537 372 513 282 C465 104 389 22 272 22 C159 22 133 101 133 200 C133 221 146 383 201 516 C242 615 308 692 411 692 C506 692 550 633 550 517 L550 517 Z M549 885 C538 842 519 829 499 829 C468 829 448 880 405 880 C352 880 324 832 316 795 L346 795 C352 827 371 850 396 850 C429 850 443 799 493 799 C538 799 570 842 579 885 L549 885 Z " />
<glyph glyph-name="Odieresis" unicode="&#xd6;" horiz-adv-x="537" d="M418 726 C282 726 184 624 131 436 C105 341 91 255 91 195 C91 56 148 -12 266 -12 C402 -12 500 90 553 276 C579 370 592 448 592 528 C592 663 537 726 418 726 L418 726 Z M550 517 C550 454 537 372 513 282 C465 104 389 22 272 22 C159 22 133 101 133 200 C133 221 146 383 201 516 C242 615 308 692 411 692 C506 692 550 633 550 517 L550 517 Z M348 789 L390 789 L411 891 L369 891 L348 789 Z M482 789 L524 789 L545 891 L503 891 L482 789 Z " />
<glyph glyph-name="multiply" unicode="&#xd7;" horiz-adv-x="600" d="M175 450 L331 253 L93 57 L110 35 L348 232 L504 35 L529 57 L373 253 L611 450 L594 471 L356 274 L200 471 L175 450 Z " />
<glyph glyph-name="Oslash" unicode="&#xd8;" horiz-adv-x="537" d="M530 695 C509 714 470 726 419 726 C284 726 183 624 131 437 C105 343 92 261 92 194 C92 128 105 80 132 45 L79 -41 L109 -53 L155 21 C180 0 218 -12 266 -12 C401 -12 500 89 553 275 C580 369 593 464 593 526 C593 591 580 639 554 672 L603 751 L572 763 L530 695 Z M133 194 C133 242 145 326 168 417 C215 599 297 692 411 692 C454 692 485 680 507 658 L156 83 C141 112 133 149 133 194 L133 194 Z M528 629 C542 605 550 564 550 520 C550 455 538 376 514 285 C465 104 390 22 273 22 C231 22 199 32 176 56 L528 629 Z " />
<glyph glyph-name="Ugrave" unicode="&#xd9;" horiz-adv-x="500" d="M100 236 C91 192 84 158 84 128 C84 36 138 -12 247 -12 C370 -12 459 60 486 188 L596 714 L554 714 L445 190 C422 81 352 22 254 22 C168 22 127 63 127 134 C127 152 130 175 133 190 L242 714 L200 714 L100 236 Z M403 770 L436 770 L388 910 L340 910 L403 770 Z " />
<glyph glyph-name="Uacute" unicode="&#xda;" horiz-adv-x="500" d="M100 236 C91 192 84 158 84 128 C84 36 138 -12 247 -12 C370 -12 459 60 486 188 L596 714 L554 714 L445 190 C422 81 352 22 254 22 C168 22 127 63 127 134 C127 152 130 175 133 190 L242 714 L200 714 L100 236 Z M377 770 L410 770 L533 910 L485 910 L377 770 Z " />
<glyph glyph-name="Ucircumflex" unicode="&#xdb;" horiz-adv-x="500" d="M100 236 C91 192 84 158 84 128 C84 36 138 -12 247 -12 C370 -12 459 60 486 188 L596 714 L554 714 L445 190 C422 81 352 22 254 22 C168 22 127 63 127 134 C127 152 130 175 133 190 L242 714 L200 714 L100 236 Z M290 770 L332 770 L428 880 L478 770 L520 770 L456 910 L414 910 L290 770 Z " />
<glyph glyph-name="Udieresis" unicode="&#xdc;" horiz-adv-x="500" d="M100 236 C91 192 84 158 84 128 C84 36 138 -12 247 -12 C370 -12 459 60 486 188 L596 714 L554 714 L445 190 C422 81 352 22 254 22 C168 22 127 63 127 134 C127 152 130 175 133 190 L242 714 L200 714 L100 236 Z M319 789 L361 789 L382 891 L340 891 L319 789 Z M453 789 L495 789 L516 891 L474 891 L453 789 Z " />
<glyph glyph-name="Yacute" unicode="&#xdd;" horiz-adv-x="444" d="M262 294 L201 0 L243 0 L304 294 L586 714 L544 714 L292 338 L200 714 L154 714 L262 294 Z M348 770 L381 770 L504 910 L456 910 L348 770 Z " />
<glyph glyph-name="Thorn" unicode="&#xde;" horiz-adv-x="463" d="M61 0 L103 0 L140 178 L278 178 C416 178 524 278 524 438 C524 530 458 574 364 574 L222 574 L251 714 L209 714 L61 0 Z M361 540 C433 540 481 503 481 427 C481 304 404 212 289 212 L147 212 L215 540 L361 540 Z " />
<glyph glyph-name="germandbls" unicode="&#xdf;" horiz-adv-x="426" d="M361 714 C268 714 188 663 162 536 L51 0 L89 0 L201 539 C222 638 272 680 350 680 C406 680 440 650 440 592 C440 547 419 493 393 466 C365 438 334 424 279 424 L260 424 L253 390 L275 390 C371 390 408 352 408 275 C408 217 381 128 345 88 C313 52 270 28 190 28 L172 28 L165 -6 L180 -6 C305 -6 382 50 421 147 C440 194 450 241 450 280 C450 351 416 400 347 410 L347 412 C394 425 428 450 450 485 C472 521 483 565 483 598 C483 672 438 714 361 714 L361 714 Z " />
<glyph glyph-name="agrave" unicode="&#xe0;" horiz-adv-x="389" d="M300 535 C207 535 143 484 118 374 L156 374 C177 465 223 501 297 501 C354 501 378 480 378 428 C378 395 369 348 351 331 C341 321 327 314 307 309 L187 278 C135 265 99 240 78 205 C57 171 47 131 47 92 C47 24 84 -12 152 -12 C216 -12 277 21 309 84 L311 84 L306 60 C305 57 303 42 303 35 C303 11 318 -6 339 -6 C359 -6 367 -3 379 3 L385 33 C379 30 371 28 360 28 C348 28 343 36 343 47 C343 52 345 65 347 75 L415 402 C417 413 419 428 419 442 C419 505 380 535 300 535 L300 535 Z M357 305 L333 192 C311 86 250 22 166 22 C117 22 89 45 89 96 C89 125 96 157 112 187 C128 217 159 239 203 250 L304 276 C322 281 345 289 355 305 L357 305 Z M309 596 L342 596 L294 736 L246 736 L309 596 Z " />
<glyph glyph-name="aacute" unicode="&#xe1;" horiz-adv-x="389" d="M300 535 C207 535 143 484 118 374 L156 374 C177 465 223 501 297 501 C354 501 378 480 378 428 C378 395 369 348 351 331 C341 321 327 314 307 309 L187 278 C135 265 99 240 78 205 C57 171 47 131 47 92 C47 24 84 -12 152 -12 C216 -12 277 21 309 84 L311 84 L306 60 C305 57 303 42 303 35 C303 11 318 -6 339 -6 C359 -6 367 -3 379 3 L385 33 C379 30 371 28 360 28 C348 28 343 36 343 47 C343 52 345 65 347 75 L415 402 C417 413 419 428 419 442 C419 505 380 535 300 535 L300 535 Z M357 305 L333 192 C311 86 250 22 166 22 C117 22 89 45 89 96 C89 125 96 157 112 187 C128 217 159 239 203 250 L304 276 C322 281 345 289 355 305 L357 305 Z M283 596 L316 596 L439 736 L391 736 L283 596 Z " />
<glyph glyph-name="acircumflex" unicode="&#xe2;" horiz-adv-x="389" d="M300 535 C207 535 143 484 118 374 L156 374 C177 465 223 501 297 501 C354 501 378 480 378 428 C378 395 369 348 351 331 C341 321 327 314 307 309 L187 278 C135 265 99 240 78 205 C57 171 47 131 47 92 C47 24 84 -12 152 -12 C216 -12 277 21 309 84 L311 84 L306 60 C305 57 303 42 303 35 C303 11 318 -6 339 -6 C359 -6 367 -3 379 3 L385 33 C379 30 371 28 360 28 C348 28 343 36 343 47 C343 52 345 65 347 75 L415 402 C417 413 419 428 419 442 C419 505 380 535 300 535 L300 535 Z M357 305 L333 192 C311 86 250 22 166 22 C117 22 89 45 89 96 C89 125 96 157 112 187 C128 217 159 239 203 250 L304 276 C322 281 345 289 355 305 L357 305 Z M196 596 L238 596 L334 706 L384 596 L426 596 L362 736 L320 736 L196 596 Z " />
<glyph glyph-name="atilde" unicode="&#xe3;" horiz-adv-x="389" d="M300 535 C207 535 143 484 118 374 L156 374 C177 465 223 501 297 501 C354 501 378 480 378 428 C378 395 369 348 351 331 C341 321 327 314 307 309 L187 278 C135 265 99 240 78 205 C57 171 47 131 47 92 C47 24 84 -12 152 -12 C216 -12 277 21 309 84 L311 84 L306 60 C305 57 303 42 303 35 C303 11 318 -6 339 -6 C359 -6 367 -3 379 3 L385 33 C379 30 371 28 360 28 C348 28 343 36 343 47 C343 52 345 65 347 75 L415 402 C417 413 419 428 419 442 C419 505 380 535 300 535 L300 535 Z M357 305 L333 192 C311 86 250 22 166 22 C117 22 89 45 89 96 C89 125 96 157 112 187 C128 217 159 239 203 250 L304 276 C322 281 345 289 355 305 L357 305 Z M426 711 C415 668 397 655 376 655 C345 655 326 706 281 706 C233 706 203 664 193 621 L223 621 C230 655 248 676 273 676 C305 676 323 625 368 625 C417 625 447 669 456 711 L426 711 Z " />
<glyph glyph-name="adieresis" unicode="&#xe4;" horiz-adv-x="389" d="M300 535 C207 535 143 484 118 374 L156 374 C177 465 223 501 297 501 C354 501 378 480 378 428 C378 395 369 348 351 331 C341 321 327 314 307 309 L187 278 C135 265 99 240 78 205 C57 171 47 131 47 92 C47 24 84 -12 152 -12 C216 -12 277 21 309 84 L311 84 L306 60 C305 57 303 42 303 35 C303 11 318 -6 339 -6 C359 -6 367 -3 379 3 L385 33 C379 30 371 28 360 28 C348 28 343 36 343 47 C343 52 345 65 347 75 L415 402 C417 413 419 428 419 442 C419 505 380 535 300 535 L300 535 Z M357 305 L333 192 C311 86 250 22 166 22 C117 22 89 45 89 96 C89 125 96 157 112 187 C128 217 159 239 203 250 L304 276 C322 281 345 289 355 305 L357 305 Z M225 615 L267 615 L288 717 L246 717 L225 615 Z M359 615 L401 615 L422 717 L380 717 L359 615 Z " />
<glyph glyph-name="aring" unicode="&#xe5;" horiz-adv-x="389" d="M300 535 C207 535 143 484 118 374 L156 374 C177 465 223 501 297 501 C354 501 378 480 378 428 C378 395 369 348 351 331 C341 321 327 314 307 309 L187 278 C135 265 99 240 78 205 C57 171 47 131 47 92 C47 24 84 -12 152 -12 C216 -12 277 21 309 84 L311 84 L306 60 C305 57 303 42 303 35 C303 11 318 -6 339 -6 C359 -6 367 -3 379 3 L385 33 C379 30 371 28 360 28 C348 28 343 36 343 47 C343 52 345 65 347 75 L415 402 C417 413 419 428 419 442 C419 505 380 535 300 535 L300 535 Z M357 305 L333 192 C311 86 250 22 166 22 C117 22 89 45 89 96 C89 125 96 157 112 187 C128 217 159 239 203 250 L304 276 C322 281 345 289 355 305 L357 305 Z M346 770 C285 770 237 715 237 663 C237 623 267 594 308 594 C368 594 419 647 419 699 C419 738 390 770 346 770 L346 770 Z M268 670 C268 708 304 741 339 741 C366 741 388 725 388 694 C388 656 353 623 315 623 C286 623 268 642 268 670 L268 670 Z " />
<glyph glyph-name="ae" unicode="&#xe6;" horiz-adv-x="612" d="M377 298 C406 434 463 501 535 501 C590 501 618 465 618 393 C618 364 613 321 607 298 L377 298 Z M338 289 L315 182 C293 82 238 22 166 22 C116 22 89 46 89 94 C89 125 97 156 113 187 C130 218 159 239 200 249 L266 265 C317 277 324 283 336 289 L338 289 Z M156 374 C174 457 221 501 290 501 C341 501 365 480 365 436 C365 423 360 400 358 389 C352 355 346 335 337 325 C328 315 312 307 291 302 L185 276 C77 250 47 160 47 92 C47 24 84 -12 152 -12 C224 -12 283 33 316 110 L318 110 C320 32 362 -12 425 -12 C515 -12 592 64 616 171 L578 171 C557 85 504 22 433 22 C378 22 352 60 352 135 C352 156 356 204 370 264 L642 264 C651 309 658 352 658 393 C658 494 615 535 537 535 C483 535 436 501 404 446 L402 446 C401 501 365 535 298 535 C205 535 142 478 118 374 L156 374 Z " />
<glyph glyph-name="ccedilla" unicode="&#xe7;" horiz-adv-x="389" d="M326 535 C215 535 143 458 105 317 C86 247 77 187 77 136 C77 44 111 -4 186 -11 L124 -82 L134 -94 C153 -85 170 -80 189 -80 C216 -80 233 -91 233 -116 C233 -152 203 -172 160 -172 C134 -172 109 -167 86 -156 L73 -178 C93 -190 122 -196 159 -196 C221 -196 268 -162 268 -113 C268 -80 245 -56 207 -56 C193 -56 182 -58 172 -61 L171 -59 L215 -12 C310 -7 378 69 404 171 L362 171 C343 90 290 22 217 22 C151 22 118 57 118 140 C118 176 127 238 144 304 C178 437 234 501 317 501 C373 501 404 461 404 398 C404 388 403 379 401 373 L443 373 C445 383 446 396 446 412 C446 485 402 535 326 535 L326 535 Z " />
<glyph glyph-name="egrave" unicode="&#xe8;" horiz-adv-x="407" d="M324 535 C214 535 139 449 104 314 C85 240 77 177 77 132 C77 33 117 -12 204 -12 C299 -12 379 60 404 171 L366 171 C345 86 288 22 207 22 C148 22 117 59 117 134 C117 176 126 222 134 264 L430 264 C440 315 446 358 446 396 C446 491 405 535 324 535 L324 535 Z M141 298 C175 444 239 501 314 501 C376 501 407 468 407 396 C407 372 404 347 395 298 L141 298 Z M332 596 L365 596 L317 736 L269 736 L332 596 Z " />
<glyph glyph-name="eacute" unicode="&#xe9;" horiz-adv-x="407" d="M324 535 C214 535 139 449 104 314 C85 240 77 177 77 132 C77 33 117 -12 204 -12 C299 -12 379 60 404 171 L366 171 C345 86 288 22 207 22 C148 22 117 59 117 134 C117 176 126 222 134 264 L430 264 C440 315 446 358 446 396 C446 491 405 535 324 535 L324 535 Z M141 298 C175 444 239 501 314 501 C376 501 407 468 407 396 C407 372 404 347 395 298 L141 298 Z M306 596 L339 596 L462 736 L414 736 L306 596 Z " />
<glyph glyph-name="ecircumflex" unicode="&#xea;" horiz-adv-x="407" d="M324 535 C214 535 139 449 104 314 C85 240 77 177 77 132 C77 33 117 -12 204 -12 C299 -12 379 60 404 171 L366 171 C345 86 288 22 207 22 C148 22 117 59 117 134 C117 176 126 222 134 264 L430 264 C440 315 446 358 446 396 C446 491 405 535 324 535 L324 535 Z M141 298 C175 444 239 501 314 501 C376 501 407 468 407 396 C407 372 404 347 395 298 L141 298 Z M219 596 L261 596 L357 706 L407 596 L449 596 L385 736 L343 736 L219 596 Z " />
<glyph glyph-name="edieresis" unicode="&#xeb;" horiz-adv-x="407" d="M324 535 C214 535 139 449 104 314 C85 240 77 177 77 132 C77 33 117 -12 204 -12 C299 -12 379 60 404 171 L366 171 C345 86 288 22 207 22 C148 22 117 59 117 134 C117 176 126 222 134 264 L430 264 C440 315 446 358 446 396 C446 491 405 535 324 535 L324 535 Z M141 298 C175 444 239 501 314 501 C376 501 407 468 407 396 C407 372 404 347 395 298 L141 298 Z M248 615 L290 615 L311 717 L269 717 L248 615 Z M382 615 L424 615 L445 717 L403 717 L382 615 Z " />
<glyph glyph-name="igrave" unicode="&#xec;" horiz-adv-x="148" d="M55 0 L93 0 L201 523 L163 523 L55 0 Z M183 596 L216 596 L168 736 L120 736 L183 596 Z " />
<glyph glyph-name="iacute" unicode="&#xed;" horiz-adv-x="148" d="M55 0 L93 0 L201 523 L163 523 L55 0 Z M172 596 L205 596 L328 736 L280 736 L172 596 Z " />
<glyph glyph-name="icircumflex" unicode="&#xee;" horiz-adv-x="148" d="M55 0 L93 0 L201 523 L163 523 L55 0 Z M80 596 L122 596 L218 706 L268 596 L310 596 L246 736 L204 736 L80 596 Z " />
<glyph glyph-name="idieresis" unicode="&#xef;" horiz-adv-x="148" d="M55 0 L93 0 L201 523 L163 523 L55 0 Z M109 615 L151 615 L172 717 L130 717 L109 615 Z M243 615 L285 615 L306 717 L264 717 L243 615 Z " />
<glyph glyph-name="eth" unicode="&#xf0;" horiz-adv-x="426" d="M267 744 C292 729 318 707 333 689 L244 642 L265 616 L353 663 C382 627 413 562 416 504 L414 502 C390 525 359 535 324 535 C218 535 148 468 107 323 C87 251 77 188 77 136 C77 37 119 -12 210 -12 C323 -12 393 62 433 221 C453 301 463 374 463 440 C463 540 440 618 393 684 L484 732 L463 758 L373 710 C355 732 331 752 308 766 L267 744 Z M119 141 C119 186 127 239 144 305 C179 441 235 501 315 501 C385 501 415 461 415 377 C415 339 406 283 389 215 C355 81 300 22 216 22 C151 22 119 59 119 141 L119 141 Z " />
<glyph glyph-name="ntilde" unicode="&#xf1;" horiz-adv-x="407" d="M335 535 C275 535 218 500 183 444 L181 444 L197 523 L159 523 L51 0 L89 0 L159 338 C178 429 240 501 318 501 C375 501 401 477 401 422 C401 407 399 392 396 376 L318 0 L356 0 L437 394 C440 411 442 424 442 436 C442 502 401 535 335 535 L335 535 Z M434 711 C423 668 405 655 384 655 C353 655 334 706 289 706 C241 706 211 664 201 621 L231 621 C238 655 256 676 281 676 C313 676 331 625 376 625 C425 625 455 669 464 711 L434 711 Z " />
<glyph glyph-name="ograve" unicode="&#xf2;" horiz-adv-x="426" d="M328 535 C220 535 149 469 108 326 C87 254 77 190 77 139 C77 38 119 -12 208 -12 C315 -12 386 56 427 200 C447 271 457 333 457 385 C457 484 416 535 328 535 L328 535 Z M217 22 C153 22 119 57 119 145 C119 187 128 241 145 308 C179 442 236 501 316 501 C386 501 415 461 415 377 C415 342 407 283 390 216 C355 82 301 22 217 22 L217 22 Z M339 596 L372 596 L324 736 L276 736 L339 596 Z " />
<glyph glyph-name="oacute" unicode="&#xf3;" horiz-adv-x="426" d="M328 535 C220 535 149 469 108 326 C87 254 77 190 77 139 C77 38 119 -12 208 -12 C315 -12 386 56 427 200 C447 271 457 333 457 385 C457 484 416 535 328 535 L328 535 Z M217 22 C153 22 119 57 119 145 C119 187 128 241 145 308 C179 442 236 501 316 501 C386 501 415 461 415 377 C415 342 407 283 390 216 C355 82 301 22 217 22 L217 22 Z M313 596 L346 596 L469 736 L421 736 L313 596 Z " />
<glyph glyph-name="ocircumflex" unicode="&#xf4;" horiz-adv-x="426" d="M328 535 C220 535 149 469 108 326 C87 254 77 190 77 139 C77 38 119 -12 208 -12 C315 -12 386 56 427 200 C447 271 457 333 457 385 C457 484 416 535 328 535 L328 535 Z M217 22 C153 22 119 57 119 145 C119 187 128 241 145 308 C179 442 236 501 316 501 C386 501 415 461 415 377 C415 342 407 283 390 216 C355 82 301 22 217 22 L217 22 Z M226 596 L268 596 L364 706 L414 596 L456 596 L392 736 L350 736 L226 596 Z " />
<glyph glyph-name="otilde" unicode="&#xf5;" horiz-adv-x="426" d="M328 535 C220 535 149 469 108 326 C87 254 77 190 77 139 C77 38 119 -12 208 -12 C315 -12 386 56 427 200 C447 271 457 333 457 385 C457 484 416 535 328 535 L328 535 Z M217 22 C153 22 119 57 119 145 C119 187 128 241 145 308 C179 442 236 501 316 501 C386 501 415 461 415 377 C415 342 407 283 390 216 C355 82 301 22 217 22 L217 22 Z M456 711 C445 668 427 655 406 655 C375 655 356 706 311 706 C263 706 233 664 223 621 L253 621 C260 655 278 676 303 676 C335 676 353 625 398 625 C447 625 477 669 486 711 L456 711 Z " />
<glyph glyph-name="odieresis" unicode="&#xf6;" horiz-adv-x="426" d="M328 535 C220 535 149 469 108 326 C87 254 77 190 77 139 C77 38 119 -12 208 -12 C315 -12 386 56 427 200 C447 271 457 333 457 385 C457 484 416 535 328 535 L328 535 Z M217 22 C153 22 119 57 119 145 C119 187 128 241 145 308 C179 442 236 501 316 501 C386 501 415 461 415 377 C415 342 407 283 390 216 C355 82 301 22 217 22 L217 22 Z M255 615 L297 615 L318 717 L276 717 L255 615 Z M389 615 L431 615 L452 717 L410 717 L389 615 Z " />
<glyph glyph-name="divide" unicode="&#xf7;" horiz-adv-x="600" d="M394 476 C367 476 342 451 342 424 C342 402 358 388 380 388 C411 388 432 416 432 440 C432 461 416 476 394 476 L394 476 Z M103 270 L96 236 L602 236 L609 270 L103 270 Z M325 118 C297 118 273 92 273 66 C273 44 289 30 311 30 C339 30 363 55 363 82 C363 103 348 118 325 118 L325 118 Z " />
<glyph glyph-name="oslash" unicode="&#xf8;" horiz-adv-x="426" d="M406 513 C387 528 361 535 327 535 C219 535 148 467 107 323 C87 251 77 186 77 135 C77 94 86 55 107 29 L63 -43 L88 -53 L128 10 C152 -7 176 -12 207 -12 C317 -12 387 60 426 197 C446 269 457 334 457 387 C457 436 446 471 427 494 L470 563 L444 573 L406 513 Z M119 144 C119 187 128 241 145 308 C179 442 236 501 316 501 C347 501 369 492 384 477 L132 71 C124 88 119 113 119 144 L119 144 Z M401 452 C410 434 415 405 415 378 C415 346 406 279 389 213 C355 83 300 22 217 22 C187 22 166 29 150 46 L401 452 Z " />
<glyph glyph-name="ugrave" unicode="&#xf9;" horiz-adv-x="407" d="M81 148 C76 122 72 106 72 88 C72 21 114 -12 180 -12 C242 -12 295 22 332 79 L334 79 L318 0 L356 0 L464 523 L426 523 L356 184 C338 97 278 22 196 22 C144 22 113 45 113 100 C113 109 116 134 119 148 L197 523 L159 523 L81 148 Z M320 596 L353 596 L305 736 L257 736 L320 596 Z " />
<glyph glyph-name="uacute" unicode="&#xfa;" horiz-adv-x="407" d="M81 148 C76 122 72 106 72 88 C72 21 114 -12 180 -12 C242 -12 295 22 332 79 L334 79 L318 0 L356 0 L464 523 L426 523 L356 184 C338 97 278 22 196 22 C144 22 113 45 113 100 C113 109 116 134 119 148 L197 523 L159 523 L81 148 Z M294 596 L327 596 L450 736 L402 736 L294 596 Z " />
<glyph glyph-name="ucircumflex" unicode="&#xfb;" horiz-adv-x="407" d="M81 148 C76 122 72 106 72 88 C72 21 114 -12 180 -12 C242 -12 295 22 332 79 L334 79 L318 0 L356 0 L464 523 L426 523 L356 184 C338 97 278 22 196 22 C144 22 113 45 113 100 C113 109 116 134 119 148 L197 523 L159 523 L81 148 Z M207 596 L249 596 L345 706 L395 596 L437 596 L373 736 L331 736 L207 596 Z " />
<glyph glyph-name="udieresis" unicode="&#xfc;" horiz-adv-x="407" d="M81 148 C76 122 72 106 72 88 C72 21 114 -12 180 -12 C242 -12 295 22 332 79 L334 79 L318 0 L356 0 L464 523 L426 523 L356 184 C338 97 278 22 196 22 C144 22 113 45 113 100 C113 109 116 134 119 148 L197 523 L159 523 L81 148 Z M236 615 L278 615 L299 717 L257 717 L236 615 Z M370 615 L412 615 L433 717 L391 717 L370 615 Z " />
<glyph glyph-name="yacute" unicode="&#xfd;" horiz-adv-x="352" d="M161 -5 L128 -72 C110 -108 90 -142 34 -142 C28 -142 13 -142 -3 -140 L-10 -174 C7 -176 14 -176 27 -176 C94 -176 132 -145 166 -74 L451 523 L409 523 L196 54 L194 54 L159 523 L117 523 L161 -5 Z M266 596 L299 596 L422 736 L374 736 L266 596 Z " />
<glyph glyph-name="thorn" unicode="&#xfe;" horiz-adv-x="426" d="M16 -176 L54 -176 L111 101 L113 101 C113 23 154 -12 222 -12 C317 -12 385 57 426 199 C447 271 457 336 457 391 C457 485 418 535 338 535 C273 535 225 507 182 431 L180 431 L239 714 L201 714 L16 -176 Z M223 22 C161 22 130 60 130 145 C130 188 139 246 157 311 C192 441 246 501 329 501 C388 501 414 456 414 378 C414 334 406 280 389 214 C354 83 301 22 223 22 L223 22 Z " />
<glyph glyph-name="ydieresis" unicode="&#xff;" horiz-adv-x="352" d="M161 -5 L128 -72 C110 -108 90 -142 34 -142 C28 -142 13 -142 -3 -140 L-10 -174 C7 -176 14 -176 27 -176 C94 -176 132 -145 166 -74 L451 523 L409 523 L196 54 L194 54 L159 523 L117 523 L161 -5 Z M208 615 L250 615 L271 717 L229 717 L208 615 Z M342 615 L384 615 L405 717 L363 717 L342 615 Z " />
<glyph glyph-name="Amacron" unicode="&#x100;" horiz-adv-x="481" d="M-4 0 L38 0 L152 222 L421 222 L443 0 L485 0 L419 714 L366 714 L-4 0 Z M381 672 L383 672 L420 256 L169 256 L381 672 Z M308 855 L302 825 L518 825 L524 855 L308 855 Z " />
<glyph glyph-name="amacron" unicode="&#x101;" horiz-adv-x="389" d="M300 535 C207 535 143 484 118 374 L156 374 C177 465 223 501 297 501 C354 501 378 480 378 428 C378 395 369 348 351 331 C341 321 327 314 307 309 L187 278 C135 265 99 240 78 205 C57 171 47 131 47 92 C47 24 84 -12 152 -12 C216 -12 277 21 309 84 L311 84 L306 60 C305 57 303 42 303 35 C303 11 318 -6 339 -6 C359 -6 367 -3 379 3 L385 33 C379 30 371 28 360 28 C348 28 343 36 343 47 C343 52 345 65 347 75 L415 402 C417 413 419 428 419 442 C419 505 380 535 300 535 L300 535 Z M357 305 L333 192 C311 86 250 22 166 22 C117 22 89 45 89 96 C89 125 96 157 112 187 C128 217 159 239 203 250 L304 276 C322 281 345 289 355 305 L357 305 Z M219 681 L213 651 L429 651 L435 681 L219 681 Z " />
<glyph glyph-name="Abreve" unicode="&#x102;" horiz-adv-x="481" d="M-4 0 L38 0 L152 222 L421 222 L443 0 L485 0 L419 714 L366 714 L-4 0 Z M381 672 L383 672 L420 256 L169 256 L381 672 Z M315 898 C314 890 312 880 312 872 C312 815 343 782 401 782 C470 782 524 828 539 898 L509 898 C495 843 457 812 409 812 C372 812 342 835 342 874 C342 882 343 890 345 898 L315 898 Z " />
<glyph glyph-name="abreve" unicode="&#x103;" horiz-adv-x="389" d="M300 535 C207 535 143 484 118 374 L156 374 C177 465 223 501 297 501 C354 501 378 480 378 428 C378 395 369 348 351 331 C341 321 327 314 307 309 L187 278 C135 265 99 240 78 205 C57 171 47 131 47 92 C47 24 84 -12 152 -12 C216 -12 277 21 309 84 L311 84 L306 60 C305 57 303 42 303 35 C303 11 318 -6 339 -6 C359 -6 367 -3 379 3 L385 33 C379 30 371 28 360 28 C348 28 343 36 343 47 C343 52 345 65 347 75 L415 402 C417 413 419 428 419 442 C419 505 380 535 300 535 L300 535 Z M357 305 L333 192 C311 86 250 22 166 22 C117 22 89 45 89 96 C89 125 96 157 112 187 C128 217 159 239 203 250 L304 276 C322 281 345 289 355 305 L357 305 Z M225 724 C224 719 222 709 222 696 C222 644 251 608 311 608 C376 608 432 649 449 724 L419 724 C406 672 370 638 319 638 C279 638 252 664 252 700 C252 706 252 711 255 724 L225 724 Z " />
<glyph glyph-name="Aogonek" unicode="&#x104;" horiz-adv-x="481" d="M-4 0 L38 0 L152 222 L421 222 L443 0 C360 -54 325 -93 325 -137 C325 -176 350 -196 394 -196 C415 -196 438 -189 460 -176 L451 -154 C433 -167 417 -172 400 -172 C375 -172 361 -157 361 -135 C361 -82 429 -36 473 0 L485 0 L419 714 L366 714 L-4 0 Z M381 672 L383 672 L420 256 L169 256 L381 672 Z " />
<glyph glyph-name="aogonek" unicode="&#x105;" horiz-adv-x="389" d="M300 535 C207 535 143 484 118 374 L156 374 C177 466 224 501 297 501 C354 501 378 480 378 428 C378 398 370 349 351 331 C341 321 326 314 303 308 L187 278 C135 265 99 240 78 205 C57 171 47 131 47 92 C47 24 84 -12 152 -12 C216 -12 278 22 309 84 L311 84 L305 56 C305 54 302 42 302 35 C302 19 309 5 322 -2 C239 -56 208 -96 208 -137 C208 -174 232 -196 277 -196 C298 -196 321 -189 343 -176 L334 -154 C318 -165 301 -172 283 -172 C259 -172 244 -158 244 -135 C244 -95 271 -67 349 -5 C364 -4 374 0 379 3 L385 33 C379 30 371 28 360 28 C348 28 343 36 343 47 C343 52 344 58 346 68 L414 397 C416 408 419 428 419 442 C419 505 380 535 300 535 L300 535 Z M357 305 L333 192 C311 86 250 22 166 22 C117 22 89 45 89 96 C89 125 96 158 112 187 C128 217 159 239 203 250 L283 270 C336 283 347 293 355 305 L357 305 Z " />
<glyph glyph-name="Cacute" unicode="&#x106;" horiz-adv-x="500" d="M416 726 C278 726 182 620 130 433 C104 338 91 244 91 186 C91 51 148 -12 251 -12 C349 -12 423 36 475 117 C501 157 517 201 525 240 L483 240 C470 175 421 90 363 52 C333 32 300 22 266 22 C177 22 133 80 133 193 C133 244 146 334 170 424 C219 605 297 692 411 692 C489 692 535 646 535 560 C535 539 533 524 530 509 L572 509 C576 526 578 542 578 562 C578 665 523 726 416 726 L416 726 Z M400 770 L433 770 L556 910 L508 910 L400 770 Z " />
<glyph glyph-name="cacute" unicode="&#x107;" horiz-adv-x="389" d="M324 535 C215 535 144 458 105 318 C86 248 77 187 77 136 C77 31 122 -12 203 -12 C268 -12 323 18 362 76 C382 106 397 140 404 171 L362 171 C343 92 293 22 216 22 C152 22 118 57 118 140 C118 180 127 236 143 301 C176 436 235 501 316 501 C373 501 404 461 404 398 C404 388 402 379 401 373 L443 373 C445 383 446 396 446 412 C446 487 401 535 324 535 L324 535 Z M303 596 L336 596 L459 736 L411 736 L303 596 Z " />
<glyph glyph-name="Ccircumflex" unicode="&#x108;" horiz-adv-x="500" d="M416 726 C278 726 182 620 130 433 C104 338 91 244 91 186 C91 51 148 -12 251 -12 C349 -12 423 36 475 117 C501 157 517 201 525 240 L483 240 C470 175 421 90 363 52 C333 32 300 22 266 22 C177 22 133 80 133 193 C133 244 146 334 170 424 C219 605 297 692 411 692 C489 692 535 646 535 560 C535 539 533 524 530 509 L572 509 C576 526 578 542 578 562 C578 665 523 726 416 726 L416 726 Z M313 770 L355 770 L451 880 L501 770 L543 770 L479 910 L437 910 L313 770 Z " />
<glyph glyph-name="ccircumflex" unicode="&#x109;" horiz-adv-x="389" d="M324 535 C215 535 144 458 105 318 C86 248 77 187 77 136 C77 31 122 -12 203 -12 C268 -12 323 18 362 76 C382 106 397 140 404 171 L362 171 C343 92 293 22 216 22 C152 22 118 57 118 140 C118 180 127 236 143 301 C176 436 235 501 316 501 C373 501 404 461 404 398 C404 388 402 379 401 373 L443 373 C445 383 446 396 446 412 C446 487 401 535 324 535 L324 535 Z M217 596 L259 596 L355 706 L405 596 L447 596 L383 736 L341 736 L217 596 Z " />
<glyph glyph-name="Cdotaccent" unicode="&#x10a;" horiz-adv-x="500" d="M416 726 C278 726 182 620 130 433 C104 338 91 244 91 186 C91 51 148 -12 251 -12 C349 -12 423 36 475 117 C501 157 517 201 525 240 L483 240 C470 175 421 90 363 52 C333 32 300 22 266 22 C177 22 133 80 133 193 C133 244 146 334 170 424 C219 605 297 692 411 692 C489 692 535 646 535 560 C535 539 533 524 530 509 L572 509 C576 526 578 542 578 562 C578 665 523 726 416 726 L416 726 Z M407 789 L449 789 L470 891 L428 891 L407 789 Z " />
<glyph glyph-name="cdotaccent" unicode="&#x10b;" horiz-adv-x="389" d="M324 535 C215 535 144 458 105 318 C86 248 77 187 77 136 C77 31 122 -12 203 -12 C268 -12 323 18 362 76 C382 106 397 140 404 171 L362 171 C343 92 293 22 216 22 C152 22 118 57 118 140 C118 180 127 236 143 301 C176 436 235 501 316 501 C373 501 404 461 404 398 C404 388 402 379 401 373 L443 373 C445 383 446 396 446 412 C446 487 401 535 324 535 L324 535 Z M312 615 L354 615 L375 717 L333 717 L312 615 Z " />
<glyph glyph-name="Ccaron" unicode="&#x10c;" horiz-adv-x="500" d="M416 726 C278 726 182 620 130 433 C104 338 91 244 91 186 C91 51 148 -12 251 -12 C349 -12 423 36 475 117 C501 157 517 201 525 240 L483 240 C470 175 421 90 363 52 C333 32 300 22 266 22 C177 22 133 80 133 193 C133 244 146 334 170 424 C219 605 297 692 411 692 C489 692 535 646 535 560 C535 539 533 524 530 509 L572 509 C576 526 578 542 578 562 C578 665 523 726 416 726 L416 726 Z M405 770 L447 770 L571 910 L529 910 L433 800 L383 910 L341 910 L405 770 Z " />
<glyph glyph-name="ccaron" unicode="&#x10d;" horiz-adv-x="389" d="M324 535 C215 535 144 458 105 318 C86 248 77 187 77 136 C77 31 122 -12 203 -12 C268 -12 323 18 362 76 C382 106 397 140 404 171 L362 171 C343 92 293 22 216 22 C152 22 118 57 118 140 C118 180 127 236 143 301 C176 436 235 501 316 501 C373 501 404 461 404 398 C404 388 402 379 401 373 L443 373 C445 383 446 396 446 412 C446 487 401 535 324 535 L324 535 Z M309 596 L351 596 L475 736 L433 736 L337 626 L287 736 L245 736 L309 596 Z " />
<glyph glyph-name="Dcaron" unicode="&#x10e;" horiz-adv-x="519" d="M209 714 L61 0 L229 0 C381 0 481 95 534 274 C561 364 574 450 574 514 C574 653 512 714 375 714 L209 714 Z M244 680 L369 680 C475 680 533 632 533 512 C533 456 521 378 497 292 C450 119 366 34 235 34 L110 34 L244 680 Z M354 770 L396 770 L520 910 L478 910 L382 800 L332 910 L290 910 L354 770 Z " />
<glyph glyph-name="dcaron" unicode="&#x10f;" horiz-adv-x="426" d="M424 431 L422 431 C412 503 374 535 313 535 C210 535 143 461 105 318 C86 246 76 175 76 137 C76 38 117 -12 198 -12 C267 -12 324 25 353 101 L355 101 L335 0 L373 0 L521 714 L483 714 L424 431 Z M119 141 C119 230 157 371 184 417 C214 469 250 501 308 501 C373 501 404 458 404 378 C404 330 389 237 357 151 C326 68 277 22 211 22 C149 22 119 59 119 141 L119 141 Z M538 574 L566 574 L642 714 L595 714 L538 574 Z " />
<glyph glyph-name="Dcroat" unicode="&#x110;" horiz-adv-x="519" d="M209 714 L142 391 L82 391 L74 355 L134 355 L61 0 L228 0 C383 0 481 96 534 274 C561 364 574 451 574 514 C574 653 513 714 376 714 L209 714 Z M368 680 C474 680 533 634 533 512 C533 463 521 378 497 292 C450 119 365 34 234 34 L110 34 L176 355 L356 355 L364 391 L184 391 L244 680 L368 680 Z " />
<glyph glyph-name="dcroat" unicode="&#x111;" horiz-adv-x="426" d="M465 632 L330 632 L323 600 L459 600 L424 431 L422 431 C412 503 374 535 313 535 C210 535 143 461 105 318 C86 246 76 175 76 138 C76 39 117 -12 198 -12 C267 -12 323 24 353 100 L355 100 L335 0 L373 0 L497 600 L570 600 L577 632 L504 632 L521 714 L483 714 L465 632 Z M119 140 C119 227 155 363 180 409 C211 467 247 501 310 501 C372 501 404 458 404 378 C404 337 391 241 356 149 C330 80 285 22 210 22 C148 22 119 61 119 140 L119 140 Z " />
<glyph glyph-name="Emacron" unicode="&#x112;" horiz-adv-x="426" d="M209 714 L61 0 L411 0 L418 38 L110 38 L176 353 L455 353 L463 391 L184 391 L243 676 L542 676 L550 714 L209 714 Z M289 855 L283 825 L499 825 L505 855 L289 855 Z " />
<glyph glyph-name="emacron" unicode="&#x113;" horiz-adv-x="407" d="M324 535 C214 535 139 449 104 314 C85 240 77 177 77 132 C77 33 117 -12 204 -12 C299 -12 379 60 404 171 L366 171 C345 86 288 22 207 22 C148 22 117 59 117 134 C117 176 126 222 134 264 L430 264 C440 315 446 358 446 396 C446 491 405 535 324 535 L324 535 Z M141 298 C175 444 239 501 314 501 C376 501 407 468 407 396 C407 372 404 347 395 298 L141 298 Z M242 681 L236 651 L452 651 L458 681 L242 681 Z " />
<glyph glyph-name="Ebreve" unicode="&#x114;" horiz-adv-x="426" d="M209 714 L61 0 L411 0 L418 38 L110 38 L176 353 L455 353 L463 391 L184 391 L243 676 L542 676 L550 714 L209 714 Z M296 898 C295 890 293 880 293 872 C293 815 324 782 382 782 C451 782 505 828 520 898 L490 898 C476 843 438 812 390 812 C353 812 323 835 323 874 C323 882 324 890 326 898 L296 898 Z " />
<glyph glyph-name="ebreve" unicode="&#x115;" horiz-adv-x="407" d="M324 535 C214 535 139 449 104 314 C85 240 77 177 77 132 C77 33 117 -12 204 -12 C299 -12 379 60 404 171 L366 171 C345 86 288 22 207 22 C148 22 117 59 117 134 C117 176 126 222 134 264 L430 264 C440 315 446 358 446 396 C446 491 405 535 324 535 L324 535 Z M141 298 C175 444 239 501 314 501 C376 501 407 468 407 396 C407 372 404 347 395 298 L141 298 Z M248 724 C247 719 245 709 245 696 C245 644 274 608 334 608 C399 608 455 649 472 724 L442 724 C429 672 393 638 342 638 C302 638 275 664 275 700 C275 706 275 711 278 724 L248 724 Z " />
<glyph glyph-name="Edotaccent" unicode="&#x116;" horiz-adv-x="426" d="M209 714 L61 0 L411 0 L418 38 L110 38 L176 353 L455 353 L463 391 L184 391 L243 676 L542 676 L550 714 L209 714 Z M362 789 L404 789 L425 891 L383 891 L362 789 Z " />
<glyph glyph-name="edotaccent" unicode="&#x117;" horiz-adv-x="407" d="M324 535 C214 535 139 449 104 314 C85 240 77 177 77 132 C77 33 117 -12 204 -12 C299 -12 379 60 404 171 L366 171 C345 86 288 22 207 22 C148 22 117 59 117 134 C117 176 126 222 134 264 L430 264 C440 315 446 358 446 396 C446 491 405 535 324 535 L324 535 Z M141 298 C175 444 239 501 314 501 C376 501 407 468 407 396 C407 372 404 347 395 298 L141 298 Z M315 615 L357 615 L378 717 L336 717 L315 615 Z " />
<glyph glyph-name="Eogonek" unicode="&#x118;" horiz-adv-x="426" d="M209 714 L61 0 L354 0 C267 -56 236 -95 236 -137 C236 -174 259 -196 305 -196 C326 -196 349 -189 371 -176 L362 -154 C347 -165 329 -172 311 -172 C286 -172 272 -157 272 -135 C272 -78 346 -33 384 0 L411 0 L418 38 L110 38 L176 353 L455 353 L463 391 L184 391 L243 676 L542 676 L550 714 L209 714 Z " />
<glyph glyph-name="eogonek" unicode="&#x119;" horiz-adv-x="407" d="M324 535 C215 535 140 451 104 314 C86 245 77 178 77 132 C77 33 118 -12 203 -12 L222 -11 C154 -55 121 -96 121 -137 C121 -174 144 -196 190 -196 C211 -196 234 -189 256 -176 L247 -154 C229 -166 213 -172 196 -172 C172 -172 157 -158 157 -135 C157 -104 170 -76 268 0 C337 24 388 94 404 171 L366 171 C346 86 287 22 208 22 C147 22 117 58 117 137 C117 179 126 222 134 264 L430 264 C440 315 446 358 446 396 C446 491 405 535 324 535 L324 535 Z M141 298 C175 444 239 501 314 501 C376 501 407 468 407 396 C407 372 404 347 395 298 L141 298 Z " />
<glyph glyph-name="Ecaron" unicode="&#x11a;" horiz-adv-x="426" d="M209 714 L61 0 L411 0 L418 38 L110 38 L176 353 L455 353 L463 391 L184 391 L243 676 L542 676 L550 714 L209 714 Z M358 770 L400 770 L524 910 L482 910 L386 800 L336 910 L294 910 L358 770 Z " />
<glyph glyph-name="ecaron" unicode="&#x11b;" horiz-adv-x="407" d="M324 535 C214 535 139 449 104 314 C85 240 77 177 77 132 C77 33 117 -12 204 -12 C299 -12 379 60 404 171 L366 171 C345 86 288 22 207 22 C148 22 117 59 117 134 C117 176 126 222 134 264 L430 264 C440 315 446 358 446 396 C446 491 405 535 324 535 L324 535 Z M141 298 C175 444 239 501 314 501 C376 501 407 468 407 396 C407 372 404 347 395 298 L141 298 Z M311 596 L353 596 L477 736 L435 736 L339 626 L289 736 L247 736 L311 596 Z " />
<glyph glyph-name="Gcircumflex" unicode="&#x11c;" horiz-adv-x="519" d="M496 276 C465 129 386 22 268 22 C180 22 134 72 134 193 C134 257 146 334 170 424 C219 605 297 692 412 692 C490 692 535 643 535 560 C535 539 533 525 530 509 L572 509 C576 526 578 542 578 562 C578 664 523 726 417 726 C278 726 182 621 130 432 C105 342 92 251 92 189 C92 56 144 -12 254 -12 C351 -12 429 43 474 144 L476 144 L447 0 L481 0 L555 357 L317 357 L310 323 L506 323 L496 276 Z M313 770 L355 770 L451 880 L501 770 L543 770 L479 910 L437 910 L313 770 Z " />
<glyph glyph-name="gcircumflex" unicode="&#x11d;" horiz-adv-x="426" d="M314 535 C214 535 146 468 107 327 C87 256 78 187 78 145 C78 49 117 0 195 0 C265 0 315 34 354 106 L357 106 L337 11 C315 -97 268 -150 177 -150 C117 -150 87 -124 87 -79 C87 -71 87 -63 89 -54 L51 -54 C48 -66 48 -80 48 -83 C49 -151 89 -184 166 -184 C281 -184 348 -119 379 29 L481 523 L443 523 L425 437 L423 437 C415 503 376 535 314 535 L314 535 Z M121 151 C121 194 130 252 146 313 C178 436 230 501 315 501 C376 501 405 461 405 382 C405 346 396 285 379 222 C345 97 293 34 214 34 C151 34 121 73 121 151 L121 151 Z M221 596 L263 596 L359 706 L409 596 L451 596 L387 736 L345 736 L221 596 Z " />
<glyph glyph-name="Gbreve" unicode="&#x11e;" horiz-adv-x="519" d="M496 276 C465 129 386 22 268 22 C180 22 134 72 134 193 C134 257 146 334 170 424 C219 605 297 692 412 692 C490 692 535 643 535 560 C535 539 533 525 530 509 L572 509 C576 526 578 542 578 562 C578 664 523 726 417 726 C278 726 182 621 130 432 C105 342 92 251 92 189 C92 56 144 -12 254 -12 C351 -12 429 43 474 144 L476 144 L447 0 L481 0 L555 357 L317 357 L310 323 L506 323 L496 276 Z M342 898 C341 890 339 880 339 872 C339 815 370 782 428 782 C497 782 551 828 566 898 L536 898 C522 843 484 812 436 812 C399 812 369 835 369 874 C369 882 370 890 372 898 L342 898 Z " />
<glyph glyph-name="gbreve" unicode="&#x11f;" horiz-adv-x="426" d="M314 535 C214 535 146 468 107 327 C87 256 78 187 78 145 C78 49 117 0 195 0 C265 0 315 34 354 106 L357 106 L337 11 C315 -97 268 -150 177 -150 C117 -150 87 -124 87 -79 C87 -71 87 -63 89 -54 L51 -54 C48 -66 48 -80 48 -83 C49 -151 89 -184 166 -184 C281 -184 348 -119 379 29 L481 523 L443 523 L425 437 L423 437 C415 503 376 535 314 535 L314 535 Z M121 151 C121 194 130 252 146 313 C178 436 230 501 315 501 C376 501 405 461 405 382 C405 346 396 285 379 222 C345 97 293 34 214 34 C151 34 121 73 121 151 L121 151 Z M251 724 C250 719 248 709 248 696 C248 644 277 608 337 608 C402 608 458 649 475 724 L445 724 C432 672 396 638 345 638 C305 638 278 664 278 700 C278 706 278 711 281 724 L251 724 Z " />
<glyph glyph-name="Gdotaccent" unicode="&#x120;" horiz-adv-x="519" d="M496 276 C465 129 386 22 268 22 C180 22 134 72 134 193 C134 257 146 334 170 424 C219 605 297 692 412 692 C490 692 535 643 535 560 C535 539 533 525 530 509 L572 509 C576 526 578 542 578 562 C578 664 523 726 417 726 C278 726 182 621 130 432 C105 342 92 251 92 189 C92 56 144 -12 254 -12 C351 -12 429 43 474 144 L476 144 L447 0 L481 0 L555 357 L317 357 L310 323 L506 323 L496 276 Z M407 789 L449 789 L470 891 L428 891 L407 789 Z " />
<glyph glyph-name="gdotaccent" unicode="&#x121;" horiz-adv-x="426" d="M314 535 C214 535 146 468 107 327 C87 256 78 187 78 145 C78 49 117 0 195 0 C265 0 315 34 354 106 L357 106 L337 11 C315 -97 268 -150 177 -150 C117 -150 87 -124 87 -79 C87 -71 87 -63 89 -54 L51 -54 C48 -66 48 -80 48 -83 C49 -151 89 -184 166 -184 C281 -184 348 -119 379 29 L481 523 L443 523 L425 437 L423 437 C415 503 376 535 314 535 L314 535 Z M121 151 C121 194 130 252 146 313 C178 436 230 501 315 501 C376 501 405 461 405 382 C405 346 396 285 379 222 C345 97 293 34 214 34 C151 34 121 73 121 151 L121 151 Z M317 615 L359 615 L380 717 L338 717 L317 615 Z " />
<glyph glyph-name="Gcommaaccent" unicode="&#x122;" horiz-adv-x="519" d="M496 276 C465 129 386 22 268 22 C180 22 134 72 134 193 C134 257 146 334 170 424 C219 605 297 692 412 692 C490 692 535 643 535 560 C535 539 533 525 530 509 L572 509 C576 526 578 542 578 562 C578 664 523 726 417 726 C278 726 182 621 130 432 C105 342 92 251 92 189 C92 56 144 -12 254 -12 C351 -12 429 43 474 144 L476 144 L447 0 L481 0 L555 357 L317 357 L310 323 L506 323 L496 276 Z M229 -137 L250 -137 C246 -156 237 -175 214 -184 L210 -204 C258 -192 270 -166 278 -126 L294 -50 L247 -50 L229 -137 Z " />
<glyph glyph-name="gcommaaccent" unicode="&#x123;" horiz-adv-x="426" d="M314 535 C214 535 146 468 107 327 C87 256 78 187 78 145 C78 49 117 0 195 0 C265 0 315 34 354 106 L357 106 L337 11 C315 -97 268 -150 177 -150 C117 -150 87 -124 87 -79 C87 -71 87 -63 89 -54 L51 -54 C48 -66 48 -80 48 -83 C49 -151 89 -184 166 -184 C281 -184 348 -119 379 29 L481 523 L443 523 L425 437 L423 437 C415 503 376 535 314 535 L314 535 Z M121 151 C121 194 130 252 146 313 C178 436 230 501 315 501 C376 501 405 461 405 382 C405 346 396 285 379 222 C345 97 293 34 214 34 C151 34 121 73 121 151 L121 151 Z M400 781 C363 773 342 750 334 712 L316 627 L363 627 L381 714 L360 714 C365 736 373 751 396 761 L400 781 Z " />
<glyph glyph-name="Hcircumflex" unicode="&#x124;" horiz-adv-x="519" d="M61 0 L103 0 L178 363 L491 363 L416 0 L458 0 L606 714 L564 714 L499 401 L186 401 L251 714 L209 714 L61 0 Z M297 770 L339 770 L435 880 L485 770 L527 770 L463 910 L421 910 L297 770 Z " />
<glyph glyph-name="hcircumflex" unicode="&#x125;" horiz-adv-x="407" d="M51 0 L89 0 L159 339 C178 430 241 501 318 501 C375 501 401 477 401 422 C401 407 399 392 396 376 L318 0 L356 0 L437 395 C440 412 442 424 442 436 C442 502 401 535 335 535 C275 535 218 501 183 444 L181 444 L237 714 L199 714 L51 0 Z M222 770 L264 770 L360 880 L410 770 L452 770 L388 910 L346 910 L222 770 Z " />
<glyph glyph-name="Hbar" unicode="&#x126;" horiz-adv-x="519" d="M61 0 L103 0 L174 343 L487 343 L416 0 L458 0 L606 714 L564 714 L532 562 L219 562 L251 714 L209 714 L61 0 Z M212 529 L525 529 L495 381 L182 381 L212 529 Z " />
<glyph glyph-name="hbar" unicode="&#x127;" horiz-adv-x="407" d="M182 632 L109 632 L102 600 L175 600 L51 0 L89 0 L159 340 C178 430 241 501 318 501 C374 501 402 475 402 423 C402 411 400 394 396 376 L318 0 L356 0 L436 389 C440 409 442 425 442 437 C442 500 404 535 335 535 C275 535 218 501 183 444 L181 444 L213 600 L349 600 L356 632 L220 632 L237 714 L199 714 L182 632 Z " />
<glyph glyph-name="Itilde" unicode="&#x128;" horiz-adv-x="164" d="M61 0 L103 0 L251 714 L209 714 L61 0 Z M354 885 C343 842 324 829 304 829 C273 829 253 880 210 880 C157 880 129 832 121 795 L151 795 C157 827 176 850 201 850 C234 850 248 799 298 799 C343 799 375 842 384 885 L354 885 Z " />
<glyph glyph-name="itilde" unicode="&#x129;" horiz-adv-x="148" d="M55 0 L93 0 L201 523 L163 523 L55 0 Z M310 711 C299 668 281 655 260 655 C229 655 210 706 165 706 C117 706 87 664 77 621 L107 621 C114 655 132 676 157 676 C189 676 207 625 252 625 C301 625 331 669 340 711 L310 711 Z " />
<glyph glyph-name="Imacron" unicode="&#x12a;" horiz-adv-x="164" d="M61 0 L103 0 L251 714 L209 714 L61 0 Z M147 855 L141 825 L357 825 L363 855 L147 855 Z " />
<glyph glyph-name="imacron" unicode="&#x12b;" horiz-adv-x="148" d="M55 0 L93 0 L201 523 L163 523 L55 0 Z M103 681 L97 651 L313 651 L319 681 L103 681 Z " />
<glyph glyph-name="Iogonek" unicode="&#x12e;" horiz-adv-x="164" d="M61 0 L73 0 C0 -49 -37 -92 -37 -137 C-37 -174 -14 -196 32 -196 C53 -196 76 -189 98 -176 L89 -154 C74 -165 56 -172 38 -172 C13 -172 -1 -157 -1 -135 C-1 -99 17 -71 103 0 L251 714 L209 714 L61 0 Z " />
<glyph glyph-name="iogonek" unicode="&#x12f;" horiz-adv-x="148" d="M182 612 L220 612 L241 714 L203 714 L182 612 Z M55 0 L63 0 C-11 -52 -45 -94 -45 -137 C-45 -174 -22 -196 24 -196 C45 -196 68 -189 90 -176 L81 -154 C63 -166 47 -172 30 -172 C6 -172 -9 -158 -9 -135 C-9 -102 6 -73 93 0 L201 523 L163 523 L55 0 Z " />
<glyph glyph-name="Idotaccent" unicode="&#x130;" horiz-adv-x="164" d="M61 0 L103 0 L251 714 L209 714 L61 0 Z M222 789 L264 789 L285 891 L243 891 L222 789 Z " />
<glyph glyph-name="dotlessi" unicode="&#x131;" horiz-adv-x="148" d="M55 0 L93 0 L201 523 L163 523 L55 0 Z " />
<glyph glyph-name="IJ" unicode="&#x132;" horiz-adv-x="575" d="M61 0 L103 0 L251 714 L209 714 L61 0 Z M505 163 C483 59 424 22 354 22 C295 22 264 54 264 122 C264 144 267 167 277 209 L235 209 C229 176 222 142 222 111 C222 24 267 -12 350 -12 C449 -12 523 50 545 155 L662 714 L620 714 L505 163 Z " />
<glyph glyph-name="ij" unicode="&#x133;" horiz-adv-x="305" d="M182 612 L220 612 L241 714 L203 714 L182 612 Z M55 0 L93 0 L201 523 L163 523 L55 0 Z M339 612 L377 612 L398 714 L360 714 L339 612 Z M197 -71 C187 -121 163 -144 118 -144 C109 -144 99 -143 90 -142 L83 -176 C96 -177 106 -178 117 -178 C182 -178 220 -141 237 -61 L358 523 L320 523 L197 -71 Z " />
<glyph glyph-name="Jcircumflex" unicode="&#x134;" horiz-adv-x="407" d="M337 163 C315 59 256 22 186 22 C127 22 96 54 96 122 C96 144 99 167 109 209 L67 209 C61 176 54 142 54 111 C54 24 99 -12 182 -12 C281 -12 355 50 377 155 L494 714 L452 714 L337 163 Z M363 770 L405 770 L501 880 L551 770 L593 770 L529 910 L487 910 L363 770 Z " />
<glyph glyph-name="jcircumflex" unicode="&#x135;" horiz-adv-x="148" d="M40 -71 C29 -122 6 -144 -39 -144 C-48 -144 -55 -144 -67 -142 L-74 -176 C-61 -177 -51 -178 -40 -178 C24 -178 63 -142 80 -62 L201 523 L163 523 L40 -71 Z M74 596 L116 596 L212 706 L262 596 L304 596 L240 736 L198 736 L74 596 Z " />
<glyph glyph-name="Kcommaaccent" unicode="&#x136;" horiz-adv-x="463" d="M61 0 L103 0 L156 256 L273 378 L420 0 L468 0 L307 413 L594 714 L548 714 L170 317 L168 317 L251 714 L209 714 L61 0 Z M209 -137 L230 -137 C226 -156 217 -175 194 -184 L190 -204 C238 -192 250 -166 258 -126 L274 -50 L227 -50 L209 -137 Z " />
<glyph glyph-name="kcommaaccent" unicode="&#x137;" horiz-adv-x="389" d="M51 0 L89 0 L128 192 L237 295 L346 0 L394 0 L271 329 L473 523 L425 523 L141 245 L139 245 L237 714 L199 714 L51 0 Z M169 -137 L190 -137 C186 -156 177 -175 154 -184 L150 -204 C198 -192 210 -166 218 -126 L234 -50 L187 -50 L169 -137 Z " />
<glyph glyph-name="Lacute" unicode="&#x139;" horiz-adv-x="426" d="M61 0 L402 0 L409 38 L110 38 L251 714 L209 714 L61 0 Z M226 770 L259 770 L382 910 L334 910 L226 770 Z " />
<glyph glyph-name="lacute" unicode="&#x13a;" horiz-adv-x="148" d="M55 0 L93 0 L241 714 L203 714 L55 0 Z M207 770 L240 770 L363 910 L315 910 L207 770 Z " />
<glyph glyph-name="Lcommaaccent" unicode="&#x13b;" horiz-adv-x="426" d="M61 0 L402 0 L409 38 L110 38 L251 714 L209 714 L61 0 Z M185 -137 L206 -137 C202 -156 193 -175 170 -184 L166 -204 C214 -192 226 -166 234 -126 L250 -50 L203 -50 L185 -137 Z " />
<glyph glyph-name="lcommaaccent" unicode="&#x13c;" horiz-adv-x="148" d="M55 0 L93 0 L241 714 L203 714 L55 0 Z M24 -137 L45 -137 C41 -156 32 -175 9 -184 L5 -204 C53 -192 65 -166 73 -126 L89 -50 L42 -50 L24 -137 Z " />
<glyph glyph-name="Lcaron" unicode="&#x13d;" horiz-adv-x="426" d="M61 0 L402 0 L409 38 L110 38 L251 714 L209 714 L61 0 Z M303 574 L331 574 L407 714 L360 714 L303 574 Z " />
<glyph glyph-name="lcaron" unicode="&#x13e;" horiz-adv-x="148" d="M55 0 L93 0 L241 714 L203 714 L55 0 Z M258 574 L286 574 L362 714 L315 714 L258 574 Z " />
<glyph glyph-name="Ldot" unicode="&#x13f;" horiz-adv-x="426" d="M61 0 L402 0 L409 38 L110 38 L251 714 L209 714 L61 0 Z M299 334 L341 334 L362 436 L320 436 L299 334 Z " />
<glyph glyph-name="ldot" unicode="&#x140;" horiz-adv-x="227" d="M55 0 L93 0 L241 714 L203 714 L55 0 Z M225 334 L267 334 L288 436 L246 436 L225 334 Z " />
<glyph glyph-name="Lslash" unicode="&#x141;" horiz-adv-x="426" d="M133 347 L50 292 L41 246 L123 301 L61 0 L402 0 L409 38 L110 38 L172 333 L389 477 L398 523 L181 379 L251 714 L209 714 L133 347 Z " />
<glyph glyph-name="lslash" unicode="&#x142;" horiz-adv-x="148" d="M133 376 L64 310 L53 258 L120 324 L122 324 L55 0 L93 0 L168 364 L237 430 L248 482 L181 416 L179 416 L241 714 L203 714 L133 376 Z " />
<glyph glyph-name="Nacute" unicode="&#x143;" horiz-adv-x="519" d="M54 0 L96 0 L230 648 L232 648 L410 0 L465 0 L613 714 L571 714 L436 66 L434 66 L258 714 L202 714 L54 0 Z M386 770 L419 770 L542 910 L494 910 L386 770 Z " />
<glyph glyph-name="nacute" unicode="&#x144;" horiz-adv-x="407" d="M335 535 C275 535 218 500 183 444 L181 444 L197 523 L159 523 L51 0 L89 0 L159 338 C178 429 240 501 318 501 C375 501 401 477 401 422 C401 407 399 392 396 376 L318 0 L356 0 L437 394 C440 411 442 424 442 436 C442 502 401 535 335 535 L335 535 Z M291 596 L324 596 L447 736 L399 736 L291 596 Z " />
<glyph glyph-name="Ncommaaccent" unicode="&#x145;" horiz-adv-x="519" d="M54 0 L96 0 L230 648 L232 648 L410 0 L465 0 L613 714 L571 714 L436 66 L434 66 L258 714 L202 714 L54 0 Z M212 -137 L233 -137 C229 -156 220 -175 197 -184 L193 -204 C241 -192 253 -166 261 -126 L277 -50 L230 -50 L212 -137 Z " />
<glyph glyph-name="ncommaaccent" unicode="&#x146;" horiz-adv-x="407" d="M335 535 C275 535 218 500 183 444 L181 444 L197 523 L159 523 L51 0 L89 0 L159 338 C178 429 240 501 318 501 C375 501 401 477 401 422 C401 407 399 392 396 376 L318 0 L356 0 L437 394 C440 411 442 424 442 436 C442 502 401 535 335 535 L335 535 Z M159 -137 L180 -137 C176 -156 167 -175 144 -184 L140 -204 C188 -192 200 -166 208 -126 L224 -50 L177 -50 L159 -137 Z " />
<glyph glyph-name="Ncaron" unicode="&#x147;" horiz-adv-x="519" d="M54 0 L96 0 L230 648 L232 648 L410 0 L465 0 L613 714 L571 714 L436 66 L434 66 L258 714 L202 714 L54 0 Z M391 770 L433 770 L557 910 L515 910 L419 800 L369 910 L327 910 L391 770 Z " />
<glyph glyph-name="ncaron" unicode="&#x148;" horiz-adv-x="407" d="M335 535 C275 535 218 500 183 444 L181 444 L197 523 L159 523 L51 0 L89 0 L159 338 C178 429 240 501 318 501 C375 501 401 477 401 422 C401 407 399 392 396 376 L318 0 L356 0 L437 394 C440 411 442 424 442 436 C442 502 401 535 335 535 L335 535 Z M296 596 L338 596 L462 736 L420 736 L324 626 L274 736 L232 736 L296 596 Z " />
<glyph glyph-name="napostrophe" unicode="&#x149;" horiz-adv-x="452" d="M380 535 C320 535 263 500 228 444 L226 444 L242 523 L204 523 L96 0 L134 0 L204 338 C223 429 285 501 363 501 C420 501 446 477 446 422 C446 407 444 392 441 376 L363 0 L401 0 L482 394 C485 411 487 424 487 436 C487 502 446 535 380 535 L380 535 Z M151 612 L163 612 C154 562 140 534 115 518 L108 484 C157 508 178 540 194 618 L214 714 L172 714 L151 612 Z " />
<glyph glyph-name="Omacron" unicode="&#x14c;" horiz-adv-x="537" d="M418 726 C282 726 184 624 131 436 C105 341 91 255 91 195 C91 56 148 -12 266 -12 C402 -12 500 90 553 276 C579 370 592 448 592 528 C592 663 537 726 418 726 L418 726 Z M550 517 C550 454 537 372 513 282 C465 104 389 22 272 22 C159 22 133 101 133 200 C133 221 146 383 201 516 C242 615 308 692 411 692 C506 692 550 633 550 517 L550 517 Z M341 855 L335 825 L551 825 L557 855 L341 855 Z " />
<glyph glyph-name="omacron" unicode="&#x14d;" horiz-adv-x="426" d="M328 535 C220 535 149 469 108 326 C87 254 77 190 77 139 C77 38 119 -12 208 -12 C315 -12 386 56 427 200 C447 271 457 333 457 385 C457 484 416 535 328 535 L328 535 Z M217 22 C153 22 119 57 119 145 C119 187 128 241 145 308 C179 442 236 501 316 501 C386 501 415 461 415 377 C415 342 407 283 390 216 C355 82 301 22 217 22 L217 22 Z M249 681 L243 651 L459 651 L465 681 L249 681 Z " />
<glyph glyph-name="Obreve" unicode="&#x14e;" horiz-adv-x="537" d="M418 726 C282 726 184 624 131 436 C105 341 91 255 91 195 C91 56 148 -12 266 -12 C402 -12 500 90 553 276 C579 370 592 448 592 528 C592 663 537 726 418 726 L418 726 Z M550 517 C550 454 537 372 513 282 C465 104 389 22 272 22 C159 22 133 101 133 200 C133 221 146 383 201 516 C242 615 308 692 411 692 C506 692 550 633 550 517 L550 517 Z M348 898 C347 890 345 880 345 872 C345 815 376 782 434 782 C503 782 557 828 572 898 L542 898 C528 843 490 812 442 812 C405 812 375 835 375 874 C375 882 376 890 378 898 L348 898 Z " />
<glyph glyph-name="obreve" unicode="&#x14f;" horiz-adv-x="426" d="M328 535 C220 535 149 469 108 326 C87 254 77 190 77 139 C77 38 119 -12 208 -12 C315 -12 386 56 427 200 C447 271 457 333 457 385 C457 484 416 535 328 535 L328 535 Z M217 22 C153 22 119 57 119 145 C119 187 128 241 145 308 C179 442 236 501 316 501 C386 501 415 461 415 377 C415 342 407 283 390 216 C355 82 301 22 217 22 L217 22 Z M256 724 C255 719 253 709 253 696 C253 644 282 608 342 608 C407 608 463 649 480 724 L450 724 C437 672 401 638 350 638 C310 638 283 664 283 700 C283 706 283 711 286 724 L256 724 Z " />
<glyph glyph-name="Ohungarumlaut" unicode="&#x150;" horiz-adv-x="537" d="M418 726 C282 726 184 624 131 436 C105 341 91 255 91 195 C91 56 148 -12 266 -12 C402 -12 500 90 553 276 C579 370 592 448 592 528 C592 663 537 726 418 726 L418 726 Z M550 517 C550 454 537 372 513 282 C465 104 389 22 272 22 C159 22 133 101 133 200 C133 221 146 383 201 516 C242 615 308 692 411 692 C506 692 550 633 550 517 L550 517 Z M342 770 L375 770 L498 910 L450 910 L342 770 Z M476 770 L509 770 L632 910 L584 910 L476 770 Z " />
<glyph glyph-name="ohungarumlaut" unicode="&#x151;" horiz-adv-x="426" d="M328 535 C220 535 149 469 108 326 C87 254 77 190 77 139 C77 38 119 -12 208 -12 C315 -12 386 56 427 200 C447 271 457 333 457 385 C457 484 416 535 328 535 L328 535 Z M217 22 C153 22 119 57 119 145 C119 187 128 241 145 308 C179 442 236 501 316 501 C386 501 415 461 415 377 C415 342 407 283 390 216 C355 82 301 22 217 22 L217 22 Z M249 596 L282 596 L405 736 L357 736 L249 596 Z M383 596 L416 596 L539 736 L491 736 L383 596 Z " />
<glyph glyph-name="OE" unicode="&#x152;" horiz-adv-x="778" d="M421 726 C286 726 196 629 143 434 C117 336 103 254 103 188 C103 54 159 -12 268 -12 C340 -12 391 7 428 60 L430 60 L418 0 L758 0 L765 38 L467 38 L533 353 L797 353 L805 391 L541 391 L600 676 L885 676 L893 714 L566 714 L555 660 L553 660 C538 702 489 726 421 726 L421 726 Z M282 22 C188 22 145 81 145 193 C145 255 157 332 182 425 C232 610 308 692 420 692 C501 692 536 659 536 593 C536 575 533 555 530 539 L455 180 C432 70 379 22 282 22 L282 22 Z " />
<glyph glyph-name="oe" unicode="&#x153;" horiz-adv-x="685" d="M324 535 C219 535 145 454 106 318 C86 247 77 177 77 141 C77 32 124 -12 209 -12 C286 -12 349 34 377 120 L379 120 L378 107 C378 34 418 -12 483 -12 C575 -12 651 65 675 171 L637 171 C615 83 562 22 492 22 C437 22 411 60 411 135 C411 158 415 204 429 264 L701 264 C710 310 717 353 717 391 C717 488 679 535 602 535 C535 535 473 489 438 404 L436 404 C436 409 436 416 436 421 C436 499 390 535 324 535 L324 535 Z M119 140 C119 184 128 241 144 304 C177 431 235 501 316 501 C380 501 408 465 408 390 C408 344 399 293 382 223 C348 80 300 22 216 22 C153 22 119 58 119 140 L119 140 Z M436 298 C464 435 523 501 594 501 C650 501 677 464 677 393 C677 355 671 324 666 298 L436 298 Z " />
<glyph glyph-name="Racute" unicode="&#x154;" horiz-adv-x="500" d="M209 714 L61 0 L103 0 L171 331 L328 331 C395 331 443 307 443 239 C443 218 437 179 436 173 L420 98 C415 75 413 54 413 39 C413 23 415 11 418 0 L466 0 C458 18 456 36 456 51 C456 64 459 84 462 100 L476 165 C482 197 486 223 486 243 C486 315 447 343 376 348 L376 350 C485 361 562 461 562 582 C562 665 509 714 421 714 L209 714 Z M244 680 L407 680 C472 680 519 645 519 573 C519 510 490 430 430 393 C400 374 359 365 316 365 L178 365 L244 680 Z M362 770 L395 770 L518 910 L470 910 L362 770 Z " />
<glyph glyph-name="racute" unicode="&#x155;" horiz-adv-x="241" d="M334 535 C273 535 218 502 180 432 L178 432 L197 523 L159 523 L51 0 L89 0 L158 333 C174 409 219 468 274 491 C291 497 305 501 336 501 L348 501 L355 535 L334 535 Z M235 596 L268 596 L391 736 L343 736 L235 596 Z " />
<glyph glyph-name="Rcommaaccent" unicode="&#x156;" horiz-adv-x="500" d="M209 714 L61 0 L103 0 L171 331 L328 331 C395 331 443 307 443 239 C443 218 437 179 436 173 L420 98 C415 75 413 54 413 39 C413 23 415 11 418 0 L466 0 C458 18 456 36 456 51 C456 64 459 84 462 100 L476 165 C482 197 486 223 486 243 C486 315 447 343 376 348 L376 350 C485 361 562 461 562 582 C562 665 509 714 421 714 L209 714 Z M244 680 L407 680 C472 680 519 645 519 573 C519 510 490 430 430 393 C400 374 359 365 316 365 L178 365 L244 680 Z M215 -137 L236 -137 C232 -156 223 -175 200 -184 L196 -204 C244 -192 256 -166 264 -126 L280 -50 L233 -50 L215 -137 Z " />
<glyph glyph-name="rcommaaccent" unicode="&#x157;" horiz-adv-x="241" d="M334 535 C273 535 218 502 180 432 L178 432 L197 523 L159 523 L51 0 L89 0 L158 333 C174 409 219 468 274 491 C291 497 305 501 336 501 L348 501 L355 535 L334 535 Z M21 -137 L42 -137 C38 -156 29 -175 6 -184 L2 -204 C50 -192 62 -166 70 -126 L86 -50 L39 -50 L21 -137 Z " />
<glyph glyph-name="Rcaron" unicode="&#x158;" horiz-adv-x="500" d="M209 714 L61 0 L103 0 L171 331 L328 331 C395 331 443 307 443 239 C443 218 437 179 436 173 L420 98 C415 75 413 54 413 39 C413 23 415 11 418 0 L466 0 C458 18 456 36 456 51 C456 64 459 84 462 100 L476 165 C482 197 486 223 486 243 C486 315 447 343 376 348 L376 350 C485 361 562 461 562 582 C562 665 509 714 421 714 L209 714 Z M244 680 L407 680 C472 680 519 645 519 573 C519 510 490 430 430 393 C400 374 359 365 316 365 L178 365 L244 680 Z M367 770 L409 770 L533 910 L491 910 L395 800 L345 910 L303 910 L367 770 Z " />
<glyph glyph-name="rcaron" unicode="&#x159;" horiz-adv-x="241" d="M334 535 C273 535 218 502 180 432 L178 432 L197 523 L159 523 L51 0 L89 0 L158 333 C174 409 219 468 274 491 C291 497 305 501 336 501 L348 501 L355 535 L334 535 Z M240 596 L282 596 L406 736 L364 736 L268 626 L218 736 L176 736 L240 596 Z " />
<glyph glyph-name="Sacute" unicode="&#x15a;" horiz-adv-x="481" d="M389 726 C323 726 265 702 222 658 C181 617 155 552 155 498 C155 464 165 437 184 415 C203 393 236 375 298 354 C416 314 446 287 446 224 C446 164 422 114 382 77 C342 40 295 22 243 22 C156 22 110 71 110 144 C110 155 113 171 115 183 L122 220 L80 220 L72 182 C69 169 66 150 66 136 C66 41 128 -12 235 -12 C331 -12 418 39 458 117 C479 156 489 197 489 235 C489 284 474 312 439 338 C420 352 388 365 339 383 C293 400 260 413 246 421 C217 437 198 470 198 503 C198 557 224 629 281 665 C310 683 344 692 386 692 C465 692 504 652 504 583 C504 570 501 553 498 532 L540 532 C543 551 547 570 547 590 C547 680 491 726 389 726 L389 726 Z M374 770 L407 770 L530 910 L482 910 L374 770 Z " />
<glyph glyph-name="sacute" unicode="&#x15b;" horiz-adv-x="352" d="M288 535 C187 535 113 464 113 361 C113 323 135 292 185 270 L262 236 C299 220 317 198 317 160 C317 118 294 64 253 40 C233 28 208 22 182 22 C118 22 87 50 87 106 C87 119 87 127 95 167 L57 167 C49 132 47 114 47 95 C47 24 92 -12 174 -12 C276 -12 361 68 361 173 C361 202 351 227 331 246 C321 255 303 266 280 275 L216 301 C178 316 156 338 156 376 C156 446 205 501 281 501 C332 501 361 479 361 428 C361 416 359 403 353 376 L391 376 C399 420 399 422 399 438 C399 507 358 535 288 535 L288 535 Z M272 596 L305 596 L428 736 L380 736 L272 596 Z " />
<glyph glyph-name="Scircumflex" unicode="&#x15c;" horiz-adv-x="481" d="M389 726 C323 726 265 702 222 658 C181 617 155 552 155 498 C155 464 165 437 184 415 C203 393 236 375 298 354 C416 314 446 287 446 224 C446 164 422 114 382 77 C342 40 295 22 243 22 C156 22 110 71 110 144 C110 155 113 171 115 183 L122 220 L80 220 L72 182 C69 169 66 150 66 136 C66 41 128 -12 235 -12 C331 -12 418 39 458 117 C479 156 489 197 489 235 C489 284 474 312 439 338 C420 352 388 365 339 383 C293 400 260 413 246 421 C217 437 198 470 198 503 C198 557 224 629 281 665 C310 683 344 692 386 692 C465 692 504 652 504 583 C504 570 501 553 498 532 L540 532 C543 551 547 570 547 590 C547 680 491 726 389 726 L389 726 Z M287 770 L329 770 L425 880 L475 770 L517 770 L453 910 L411 910 L287 770 Z " />
<glyph glyph-name="scircumflex" unicode="&#x15d;" horiz-adv-x="352" d="M288 535 C187 535 113 464 113 361 C113 323 135 292 185 270 L262 236 C299 220 317 198 317 160 C317 118 294 64 253 40 C233 28 208 22 182 22 C118 22 87 50 87 106 C87 119 87 127 95 167 L57 167 C49 132 47 114 47 95 C47 24 92 -12 174 -12 C276 -12 361 68 361 173 C361 202 351 227 331 246 C321 255 303 266 280 275 L216 301 C178 316 156 338 156 376 C156 446 205 501 281 501 C332 501 361 479 361 428 C361 416 359 403 353 376 L391 376 C399 420 399 422 399 438 C399 507 358 535 288 535 L288 535 Z M185 596 L227 596 L323 706 L373 596 L415 596 L351 736 L309 736 L185 596 Z " />
<glyph glyph-name="Scedilla" unicode="&#x15e;" horiz-adv-x="481" d="M390 726 C320 726 268 701 228 664 C183 623 155 555 155 497 C155 450 175 411 225 384 C253 369 292 356 341 338 C427 307 447 271 447 224 C447 171 423 115 383 78 C343 41 295 22 243 22 C152 22 110 76 110 144 C110 161 114 178 122 220 L80 220 C70 178 66 149 66 134 C66 48 119 -7 220 -11 L159 -82 L169 -94 C188 -85 207 -80 224 -80 C252 -80 268 -93 268 -116 C268 -151 240 -172 194 -172 C169 -172 144 -167 121 -156 L108 -178 C128 -190 157 -196 193 -196 C257 -196 303 -162 303 -113 C303 -80 279 -56 242 -56 C229 -56 217 -58 207 -61 L206 -59 L250 -11 C340 -7 421 42 460 120 C480 158 490 202 490 235 C490 281 475 318 421 349 C390 367 316 391 280 405 C213 431 199 464 199 507 C199 555 222 628 280 664 C308 682 345 692 386 692 C465 692 504 652 504 583 C504 570 502 553 498 532 L540 532 C544 551 547 570 547 590 C547 680 492 726 390 726 L390 726 Z " />
<glyph glyph-name="scedilla" unicode="&#x15f;" horiz-adv-x="352" d="M288 535 C168 535 113 443 113 364 C113 321 137 291 187 269 L262 236 C299 220 317 196 317 161 C317 117 294 64 253 40 C233 28 208 22 182 22 C118 22 87 50 87 106 C87 119 87 127 95 167 L57 167 C48 122 47 113 47 93 C47 36 79 -7 160 -11 L98 -82 L108 -94 C127 -85 144 -80 163 -80 C190 -80 207 -91 207 -116 C207 -152 178 -172 133 -172 C108 -172 83 -167 60 -156 L47 -178 C67 -190 96 -196 132 -196 C196 -196 242 -162 242 -113 C242 -80 219 -56 181 -56 C167 -56 156 -58 146 -61 L145 -59 L189 -11 C291 -3 361 79 361 173 C361 223 335 253 283 274 L216 301 C178 316 156 338 156 376 C156 439 198 501 281 501 C333 501 361 478 361 429 C361 421 359 403 353 376 L391 376 C399 420 399 423 399 439 C399 506 359 535 288 535 L288 535 Z " />
<glyph glyph-name="Scaron" unicode="&#x160;" horiz-adv-x="481" d="M389 726 C323 726 265 702 222 658 C181 617 155 552 155 498 C155 464 165 437 184 415 C203 393 236 375 298 354 C416 314 446 287 446 224 C446 164 422 114 382 77 C342 40 295 22 243 22 C156 22 110 71 110 144 C110 155 113 171 115 183 L122 220 L80 220 L72 182 C69 169 66 150 66 136 C66 41 128 -12 235 -12 C331 -12 418 39 458 117 C479 156 489 197 489 235 C489 284 474 312 439 338 C420 352 388 365 339 383 C293 400 260 413 246 421 C217 437 198 470 198 503 C198 557 224 629 281 665 C310 683 344 692 386 692 C465 692 504 652 504 583 C504 570 501 553 498 532 L540 532 C543 551 547 570 547 590 C547 680 491 726 389 726 L389 726 Z M379 770 L421 770 L545 910 L503 910 L407 800 L357 910 L315 910 L379 770 Z " />
<glyph glyph-name="scaron" unicode="&#x161;" horiz-adv-x="352" d="M288 535 C187 535 113 464 113 361 C113 323 135 292 185 270 L262 236 C299 220 317 198 317 160 C317 118 294 64 253 40 C233 28 208 22 182 22 C118 22 87 50 87 106 C87 119 87 127 95 167 L57 167 C49 132 47 114 47 95 C47 24 92 -12 174 -12 C276 -12 361 68 361 173 C361 202 351 227 331 246 C321 255 303 266 280 275 L216 301 C178 316 156 338 156 376 C156 446 205 501 281 501 C332 501 361 479 361 428 C361 416 359 403 353 376 L391 376 C399 420 399 422 399 438 C399 507 358 535 288 535 L288 535 Z M277 596 L319 596 L443 736 L401 736 L305 626 L255 736 L213 736 L277 596 Z " />
<glyph glyph-name="Tcommaaccent" unicode="&#x162;" horiz-adv-x="426" d="M150 714 L142 676 L332 676 L192 0 L234 0 L374 676 L564 676 L572 714 L150 714 Z M163 -137 L184 -137 C180 -156 171 -175 148 -184 L144 -204 C192 -192 204 -166 212 -126 L228 -50 L181 -50 L163 -137 Z " />
<glyph glyph-name="tcommaaccent" unicode="&#x163;" horiz-adv-x="204" d="M187 523 L116 523 L109 489 L180 489 L96 82 C92 63 92 55 92 48 C92 13 111 -6 154 -6 C173 -6 190 -4 210 0 L217 34 C205 30 188 28 168 28 C141 28 131 42 131 63 C131 72 134 86 136 94 L218 489 L305 489 L312 523 L225 523 L257 678 L219 678 L187 523 Z M93 -137 L114 -137 C110 -156 101 -175 78 -184 L74 -204 C122 -192 134 -166 142 -126 L158 -50 L111 -50 L93 -137 Z " />
<glyph glyph-name="Tcaron" unicode="&#x164;" horiz-adv-x="426" d="M150 714 L142 676 L332 676 L192 0 L234 0 L374 676 L564 676 L572 714 L150 714 Z M349 770 L391 770 L515 910 L473 910 L377 800 L327 910 L285 910 L349 770 Z " />
<glyph glyph-name="tcaron" unicode="&#x165;" horiz-adv-x="204" d="M187 523 L116 523 L109 489 L180 489 L96 82 C92 63 92 55 92 48 C92 13 111 -6 154 -6 C173 -6 190 -4 210 0 L217 34 C205 30 188 28 168 28 C141 28 131 42 131 63 C131 72 134 86 136 94 L218 489 L305 489 L312 523 L225 523 L257 678 L219 678 L187 523 Z M306 574 L334 574 L410 714 L363 714 L306 574 Z " />
<glyph glyph-name="Tbar" unicode="&#x166;" horiz-adv-x="426" d="M150 714 L142 676 L332 676 L293 489 L167 489 L159 455 L286 455 L192 0 L234 0 L328 455 L455 455 L463 489 L335 489 L374 676 L564 676 L572 714 L150 714 Z " />
<glyph glyph-name="tbar" unicode="&#x167;" horiz-adv-x="204" d="M187 523 L116 523 L109 489 L180 489 L152 357 L87 357 L80 325 L146 325 L96 82 C92 63 92 56 92 48 C92 13 111 -6 154 -6 C174 -6 190 -4 210 0 L217 34 C205 30 188 28 168 28 C140 28 131 43 131 62 C131 76 136 96 142 125 L184 325 L264 325 L271 357 L190 357 L218 489 L305 489 L312 523 L225 523 L257 678 L220 678 L187 523 Z " />
<glyph glyph-name="Utilde" unicode="&#x168;" horiz-adv-x="500" d="M100 236 C91 192 84 158 84 128 C84 36 138 -12 247 -12 C370 -12 459 60 486 188 L596 714 L554 714 L445 190 C422 81 352 22 254 22 C168 22 127 63 127 134 C127 152 130 175 133 190 L242 714 L200 714 L100 236 Z M520 885 C509 842 490 829 470 829 C439 829 419 880 376 880 C323 880 295 832 287 795 L317 795 C323 827 342 850 367 850 C400 850 414 799 464 799 C509 799 541 842 550 885 L520 885 Z " />
<glyph glyph-name="utilde" unicode="&#x169;" horiz-adv-x="407" d="M81 148 C76 122 72 106 72 88 C72 21 114 -12 180 -12 C242 -12 295 22 332 79 L334 79 L318 0 L356 0 L464 523 L426 523 L356 184 C338 97 278 22 196 22 C144 22 113 45 113 100 C113 109 116 134 119 148 L197 523 L159 523 L81 148 Z M437 711 C426 668 408 655 387 655 C356 655 337 706 292 706 C244 706 214 664 204 621 L234 621 C241 655 259 676 284 676 C316 676 334 625 379 625 C428 625 458 669 467 711 L437 711 Z " />
<glyph glyph-name="Umacron" unicode="&#x16a;" horiz-adv-x="500" d="M100 236 C91 192 84 158 84 128 C84 36 138 -12 247 -12 C370 -12 459 60 486 188 L596 714 L554 714 L445 190 C422 81 352 22 254 22 C168 22 127 63 127 134 C127 152 130 175 133 190 L242 714 L200 714 L100 236 Z M313 855 L307 825 L523 825 L529 855 L313 855 Z " />
<glyph glyph-name="umacron" unicode="&#x16b;" horiz-adv-x="407" d="M81 148 C76 122 72 106 72 88 C72 21 114 -12 180 -12 C242 -12 295 22 332 79 L334 79 L318 0 L356 0 L464 523 L426 523 L356 184 C338 97 278 22 196 22 C144 22 113 45 113 100 C113 109 116 134 119 148 L197 523 L159 523 L81 148 Z M230 681 L224 651 L440 651 L446 681 L230 681 Z " />
<glyph glyph-name="Ubreve" unicode="&#x16c;" horiz-adv-x="500" d="M100 236 C91 192 84 158 84 128 C84 36 138 -12 247 -12 C370 -12 459 60 486 188 L596 714 L554 714 L445 190 C422 81 352 22 254 22 C168 22 127 63 127 134 C127 152 130 175 133 190 L242 714 L200 714 L100 236 Z M319 898 C318 890 316 880 316 872 C316 815 347 782 405 782 C474 782 528 828 543 898 L513 898 C499 843 461 812 413 812 C376 812 346 835 346 874 C346 882 347 890 349 898 L319 898 Z " />
<glyph glyph-name="ubreve" unicode="&#x16d;" horiz-adv-x="407" d="M81 148 C76 122 72 106 72 88 C72 21 114 -12 180 -12 C242 -12 295 22 332 79 L334 79 L318 0 L356 0 L464 523 L426 523 L356 184 C338 97 278 22 196 22 C144 22 113 45 113 100 C113 109 116 134 119 148 L197 523 L159 523 L81 148 Z M236 724 C235 719 233 709 233 696 C233 644 262 608 322 608 C387 608 443 649 460 724 L430 724 C417 672 381 638 330 638 C290 638 263 664 263 700 C263 706 263 711 266 724 L236 724 Z " />
<glyph glyph-name="Uring" unicode="&#x16e;" horiz-adv-x="500" d="M100 236 C91 192 84 158 84 128 C84 36 138 -12 247 -12 C370 -12 459 60 486 188 L596 714 L554 714 L445 190 C422 81 352 22 254 22 C168 22 127 63 127 134 C127 152 130 175 133 190 L242 714 L200 714 L100 236 Z M434 920 C372 920 325 864 325 813 C325 775 353 744 396 744 C455 744 507 796 507 849 C507 890 476 920 434 920 L434 920 Z M356 821 C356 858 394 891 425 891 C455 891 476 875 476 844 C476 803 437 773 403 773 C379 773 356 787 356 821 L356 821 Z " />
<glyph glyph-name="uring" unicode="&#x16f;" horiz-adv-x="407" d="M81 148 C76 122 72 106 72 88 C72 21 114 -12 180 -12 C242 -12 295 22 332 79 L334 79 L318 0 L356 0 L464 523 L426 523 L356 184 C338 97 278 22 196 22 C144 22 113 45 113 100 C113 109 116 134 119 148 L197 523 L159 523 L81 148 Z M356 770 C295 770 247 715 247 663 C247 623 277 594 318 594 C378 594 429 647 429 699 C429 738 400 770 356 770 L356 770 Z M278 670 C278 708 314 741 349 741 C376 741 398 725 398 694 C398 656 363 623 325 623 C296 623 278 642 278 670 L278 670 Z " />
<glyph glyph-name="Uhungarumlaut" unicode="&#x170;" horiz-adv-x="500" d="M100 236 C91 192 84 158 84 128 C84 36 138 -12 247 -12 C370 -12 459 60 486 188 L596 714 L554 714 L445 190 C422 81 352 22 254 22 C168 22 127 63 127 134 C127 152 130 175 133 190 L242 714 L200 714 L100 236 Z M313 770 L346 770 L469 910 L421 910 L313 770 Z M447 770 L480 770 L603 910 L555 910 L447 770 Z " />
<glyph glyph-name="uhungarumlaut" unicode="&#x171;" horiz-adv-x="407" d="M81 148 C76 122 72 106 72 88 C72 21 114 -12 180 -12 C242 -12 295 22 332 79 L334 79 L318 0 L356 0 L464 523 L426 523 L356 184 C338 97 278 22 196 22 C144 22 113 45 113 100 C113 109 116 134 119 148 L197 523 L159 523 L81 148 Z M230 596 L263 596 L386 736 L338 736 L230 596 Z M364 596 L397 596 L520 736 L472 736 L364 596 Z " />
<glyph glyph-name="Uogonek" unicode="&#x172;" horiz-adv-x="500" d="M100 236 C91 192 84 166 84 127 C84 34 138 -12 249 -12 L253 -12 C187 -55 153 -96 153 -137 C153 -174 176 -196 222 -196 C243 -196 266 -189 288 -176 L279 -154 C264 -165 246 -172 228 -172 C203 -172 189 -157 189 -135 C189 -99 209 -71 290 -8 C395 6 464 84 485 183 L596 714 L554 714 L445 190 C422 79 350 22 254 22 C168 22 127 63 127 134 C127 152 130 175 133 190 L242 714 L200 714 L100 236 Z " />
<glyph glyph-name="uogonek" unicode="&#x173;" horiz-adv-x="407" d="M81 148 C76 124 72 105 72 88 C72 21 115 -12 180 -12 C240 -12 295 21 332 79 L334 79 L318 0 L326 0 C242 -54 208 -94 208 -137 C208 -174 232 -196 276 -196 C298 -196 321 -189 343 -176 L334 -154 C318 -165 301 -172 283 -172 C259 -172 244 -158 244 -135 C244 -99 265 -70 356 0 L464 523 L426 523 L356 184 C338 99 279 22 196 22 C143 22 114 44 114 99 C114 121 116 134 119 148 L197 523 L159 523 L81 148 Z " />
<glyph glyph-name="Wcircumflex" unicode="&#x174;" horiz-adv-x="704" d="M166 0 L216 0 L486 654 L488 654 L485 0 L537 0 L841 714 L799 714 L526 60 L524 60 L525 714 L474 714 L204 60 L202 60 L201 714 L159 714 L166 0 Z M392 770 L434 770 L530 880 L580 770 L622 770 L558 910 L516 910 L392 770 Z " />
<glyph glyph-name="wcircumflex" unicode="&#x175;" horiz-adv-x="537" d="M118 0 L166 0 L366 469 L368 469 L370 0 L418 0 L639 523 L597 523 L406 54 L404 54 L402 523 L354 523 L154 54 L152 54 L156 523 L114 523 L118 0 Z M274 596 L316 596 L412 706 L462 596 L504 596 L440 736 L398 736 L274 596 Z " />
<glyph glyph-name="Ycircumflex" unicode="&#x176;" horiz-adv-x="444" d="M262 294 L201 0 L243 0 L304 294 L586 714 L544 714 L292 338 L200 714 L154 714 L262 294 Z M261 770 L303 770 L399 880 L449 770 L491 770 L427 910 L385 910 L261 770 Z " />
<glyph glyph-name="ycircumflex" unicode="&#x177;" horiz-adv-x="352" d="M161 -5 L128 -72 C110 -108 90 -142 34 -142 C28 -142 13 -142 -3 -140 L-10 -174 C7 -176 14 -176 27 -176 C94 -176 132 -145 166 -74 L451 523 L409 523 L196 54 L194 54 L159 523 L117 523 L161 -5 Z M179 596 L221 596 L317 706 L367 596 L409 596 L345 736 L303 736 L179 596 Z " />
<glyph glyph-name="Ydieresis" unicode="&#x178;" horiz-adv-x="444" d="M262 294 L201 0 L243 0 L304 294 L586 714 L544 714 L292 338 L200 714 L154 714 L262 294 Z M290 789 L332 789 L353 891 L311 891 L290 789 Z M424 789 L466 789 L487 891 L445 891 L424 789 Z " />
<glyph glyph-name="Zacute" unicode="&#x179;" horiz-adv-x="443" d="M186 714 L178 676 L520 676 L25 42 L17 0 L426 0 L433 38 L66 38 L561 672 L570 714 L186 714 Z M348 770 L381 770 L504 910 L456 910 L348 770 Z " />
<glyph glyph-name="zacute" unicode="&#x17a;" horiz-adv-x="334" d="M137 523 L130 489 L375 489 L22 34 L15 0 L319 0 L326 34 L64 34 L417 489 L424 523 L137 523 Z M256 596 L289 596 L412 736 L364 736 L256 596 Z " />
<glyph glyph-name="Zdotaccent" unicode="&#x17b;" horiz-adv-x="443" d="M186 714 L178 676 L520 676 L25 42 L17 0 L426 0 L433 38 L66 38 L561 672 L570 714 L186 714 Z M357 789 L399 789 L420 891 L378 891 L357 789 Z " />
<glyph glyph-name="zdotaccent" unicode="&#x17c;" horiz-adv-x="334" d="M137 523 L130 489 L375 489 L22 34 L15 0 L319 0 L326 34 L64 34 L417 489 L424 523 L137 523 Z M265 615 L307 615 L328 717 L286 717 L265 615 Z " />
<glyph glyph-name="Zcaron" unicode="&#x17d;" horiz-adv-x="443" d="M186 714 L178 676 L520 676 L25 42 L17 0 L426 0 L433 38 L66 38 L561 672 L570 714 L186 714 Z M353 770 L395 770 L519 910 L477 910 L381 800 L331 910 L289 910 L353 770 Z " />
<glyph glyph-name="zcaron" unicode="&#x17e;" horiz-adv-x="334" d="M137 523 L130 489 L375 489 L22 34 L15 0 L319 0 L326 34 L64 34 L417 489 L424 523 L137 523 Z M261 596 L303 596 L427 736 L385 736 L289 626 L239 736 L197 736 L261 596 Z " />
<glyph glyph-name="florin" unicode="&#x192;" horiz-adv-x="480" d="M556 714 C481 714 427 679 374 554 L326 440 L223 440 L210 406 L313 406 L139 -23 C104 -110 68 -142 5 -142 C-6 -142 -16 -139 -28 -134 L-43 -169 C-20 -175 -14 -176 0 -176 C74 -176 136 -134 173 -43 L355 406 L467 406 L481 440 L368 440 L420 563 C454 644 494 680 548 680 C566 680 584 676 590 674 L605 708 C589 712 571 714 556 714 L556 714 Z " />
<glyph glyph-name="Scommaaccent" unicode="&#x218;" horiz-adv-x="481" d="M389 726 C323 726 265 702 222 658 C181 617 155 552 155 498 C155 464 165 437 184 415 C203 393 236 375 298 354 C416 314 446 287 446 224 C446 164 422 114 382 77 C342 40 295 22 243 22 C156 22 110 71 110 144 C110 155 113 171 115 183 L122 220 L80 220 L72 182 C69 169 66 150 66 136 C66 41 128 -12 235 -12 C331 -12 418 39 458 117 C479 156 489 197 489 235 C489 284 474 312 439 338 C420 352 388 365 339 383 C293 400 260 413 246 421 C217 437 198 470 198 503 C198 557 224 629 281 665 C310 683 344 692 386 692 C465 692 504 652 504 583 C504 570 501 553 498 532 L540 532 C543 551 547 570 547 590 C547 680 491 726 389 726 L389 726 Z M188 -137 L209 -137 C205 -156 196 -175 173 -184 L169 -204 C217 -192 229 -166 237 -126 L253 -50 L206 -50 L188 -137 Z " />
<glyph glyph-name="scommaaccent" unicode="&#x219;" horiz-adv-x="352" d="M288 535 C187 535 113 464 113 361 C113 323 135 292 185 270 L262 236 C299 220 317 198 317 160 C317 118 294 64 253 40 C233 28 208 22 182 22 C118 22 87 50 87 106 C87 119 87 127 95 167 L57 167 C49 132 47 114 47 95 C47 24 92 -12 174 -12 C276 -12 361 68 361 173 C361 202 351 227 331 246 C321 255 303 266 280 275 L216 301 C178 316 156 338 156 376 C156 446 205 501 281 501 C332 501 361 479 361 428 C361 416 359 403 353 376 L391 376 C399 420 399 422 399 438 C399 507 358 535 288 535 L288 535 Z M127 -137 L148 -137 C144 -156 135 -175 112 -184 L108 -204 C156 -192 168 -166 176 -126 L192 -50 L145 -50 L127 -137 Z " />
<glyph glyph-name="uni021A" unicode="&#x21a;" horiz-adv-x="426" d="M150 714 L142 676 L332 676 L192 0 L234 0 L374 676 L564 676 L572 714 L150 714 Z M163 -137 L184 -137 C180 -156 171 -175 148 -184 L144 -204 C192 -192 204 -166 212 -126 L228 -50 L181 -50 L163 -137 Z " />
<glyph glyph-name="uni021B" unicode="&#x21b;" horiz-adv-x="204" d="M187 523 L116 523 L109 489 L180 489 L96 82 C92 63 92 55 92 48 C92 13 111 -6 154 -6 C173 -6 190 -4 210 0 L217 34 C205 30 188 28 168 28 C141 28 131 42 131 63 C131 72 134 86 136 94 L218 489 L305 489 L312 523 L225 523 L257 678 L219 678 L187 523 Z M93 -137 L114 -137 C110 -156 101 -175 78 -184 L74 -204 C122 -192 134 -166 142 -126 L158 -50 L111 -50 L93 -137 Z " />
<glyph glyph-name="circumflex" unicode="&#x2c6;" horiz-adv-x="148" d="M80 596 L122 596 L218 706 L268 596 L310 596 L246 736 L204 736 L80 596 Z " />
<glyph glyph-name="caron" unicode="&#x2c7;" horiz-adv-x="148" d="M174 596 L216 596 L340 736 L298 736 L202 626 L152 736 L110 736 L174 596 Z " />
<glyph glyph-name="uni02C9" unicode="&#x2c9;" horiz-adv-x="148" d="M105 681 L99 651 L315 651 L321 681 L105 681 Z " />
<glyph glyph-name="breve" unicode="&#x2d8;" horiz-adv-x="148" d="M110 724 C109 719 107 709 107 696 C107 644 136 608 196 608 C261 608 317 649 334 724 L304 724 C291 672 255 638 204 638 C164 638 137 664 137 700 C137 706 137 711 140 724 L110 724 Z " />
<glyph glyph-name="dotaccent" unicode="&#x2d9;" horiz-adv-x="148" d="M179 615 L221 615 L242 717 L200 717 L179 615 Z " />
<glyph glyph-name="ring" unicode="&#x2da;" horiz-adv-x="148" d="M229 770 C168 770 120 715 120 663 C120 623 150 594 191 594 C251 594 302 647 302 699 C302 738 273 770 229 770 L229 770 Z M151 670 C151 708 187 741 222 741 C249 741 271 725 271 694 C271 656 236 623 198 623 C169 623 151 642 151 670 L151 670 Z " />
<glyph glyph-name="ogonek" unicode="&#x2db;" horiz-adv-x="148" d="M113 0 C28 -54 -5 -96 -5 -137 C-5 -174 18 -196 64 -196 C85 -196 108 -189 130 -176 L121 -154 C103 -166 87 -172 70 -172 C45 -172 31 -157 31 -135 C31 -117 38 -99 52 -81 C66 -63 97 -36 143 0 L113 0 Z " />
<glyph glyph-name="tilde" unicode="&#x2dc;" horiz-adv-x="148" d="M312 711 C301 668 283 655 262 655 C231 655 212 706 167 706 C119 706 89 664 79 621 L109 621 C116 655 134 676 159 676 C191 676 209 625 254 625 C303 625 333 669 342 711 L312 711 Z " />
<glyph glyph-name="hungarumlaut" unicode="&#x2dd;" horiz-adv-x="148" d="M85 596 L118 596 L241 736 L193 736 L85 596 Z M219 596 L252 596 L375 736 L327 736 L219 596 Z " />
<glyph glyph-name="uni0394" unicode="&#x394;" horiz-adv-x="481" d="M-4 0 L485 0 L419 714 L366 714 L-4 0 Z M385 671 L440 38 L58 38 L383 671 L385 671 Z " />
<glyph glyph-name="uni03A9" unicode="&#x3a9;" horiz-adv-x="537" d="M411 726 C287 726 189 629 138 479 C112 403 99 326 99 248 C99 164 127 93 178 38 L54 38 L46 0 L219 0 L227 35 C170 94 141 163 141 250 C141 419 222 692 409 692 C503 692 550 631 550 520 C550 304 471 140 322 35 L314 0 L492 0 L500 38 L378 38 C518 147 593 313 593 520 C593 651 529 726 411 726 L411 726 Z " />
<glyph glyph-name="uni03BC" unicode="&#x3bc;" horiz-adv-x="407" d="M16 -176 L53 -176 L97 36 L99 36 C113 4 148 -12 187 -12 C245 -12 297 20 332 79 L334 79 L318 0 L356 0 L464 523 L426 523 L356 185 C339 103 279 22 196 22 C141 22 114 49 114 99 C114 115 116 126 120 147 L197 523 L159 523 L16 -176 Z " />
<glyph glyph-name="pi" unicode="&#x3c0;" horiz-adv-x="440" d="M119 523 L112 489 L191 489 L90 0 L128 0 L229 489 L404 489 L315 69 C313 59 312 48 312 40 C312 5 333 -12 374 -12 C391 -12 406 -8 420 -3 L427 32 C417 27 396 21 380 21 C360 21 350 31 350 50 C350 55 351 61 352 67 L442 489 L528 489 L535 523 L119 523 Z " />
<glyph glyph-name="uni1E9E" unicode="&#x1e9e;" horiz-adv-x="542" d="M573 716 C530 721 468 726 410 726 C304 726 200 695 160 503 L54 0 L95 0 L201 495 C236 658 315 694 408 694 C436 694 464 692 486 691 C409 673 328 608 328 497 C328 426 370 388 430 352 C494 313 517 276 517 218 C517 64 419 22 338 22 C264 22 224 59 224 131 C224 148 227 166 231 186 L190 186 C185 163 182 142 182 123 C182 28 239 -12 336 -12 C459 -12 561 71 561 223 C561 306 518 347 462 382 C402 420 371 448 371 503 C371 624 477 680 565 680 L573 716 Z " />
<glyph glyph-name="endash" unicode="&#x2013;" horiz-adv-x="500" d="M60 289 L53 255 L553 255 L560 289 L60 289 Z " />
<glyph glyph-name="emdash" unicode="&#x2014;" horiz-adv-x="1000" d="M60 289 L53 255 L1053 255 L1060 289 L60 289 Z " />
<glyph glyph-name="quoteleft" unicode="&#x2018;" horiz-adv-x="184" d="M273 714 C224 689 204 658 190 593 L167 484 L209 484 L230 586 L218 586 C229 641 243 665 266 680 L273 714 Z " />
<glyph glyph-name="quoteright" unicode="&#x2019;" horiz-adv-x="184" d="M202 612 L214 612 C205 562 191 534 166 518 L159 484 C208 508 229 540 245 618 L265 714 L223 714 L202 612 Z " />
<glyph glyph-name="quotesinglbase" unicode="&#x201a;" horiz-adv-x="184" d="M75 0 L87 0 C75 -53 63 -78 39 -94 L32 -128 C84 -102 103 -67 117 1 L138 102 L96 102 L75 0 Z " />
<glyph glyph-name="quotedblleft" unicode="&#x201c;" horiz-adv-x="296" d="M273 714 C223 688 205 660 190 592 L167 484 L209 484 L230 586 L218 586 C229 641 241 663 266 680 L273 714 Z M385 714 C333 687 315 655 300 585 L279 484 L321 484 L342 586 L330 586 C340 639 354 664 378 680 L385 714 Z " />
<glyph glyph-name="quotedblright" unicode="&#x201d;" horiz-adv-x="296" d="M202 612 L214 612 C205 562 191 534 166 518 L159 484 C208 508 229 540 245 618 L265 714 L223 714 L202 612 Z M314 612 L326 612 C314 553 300 532 278 518 L271 484 C318 510 339 530 357 618 L377 714 L335 714 L314 612 Z " />
<glyph glyph-name="quotedblbase" unicode="&#x201e;" horiz-adv-x="296" d="M75 0 L87 0 C75 -53 63 -78 39 -94 L32 -128 C84 -102 103 -67 117 1 L138 102 L96 102 L75 0 Z M187 0 L199 0 C184 -63 172 -80 151 -94 L144 -128 C198 -101 215 -65 229 2 L250 102 L208 102 L187 0 Z " />
<glyph glyph-name="dagger" unicode="&#x2020;" horiz-adv-x="480" d="M321 483 L141 483 L134 449 L314 449 L189 -151 L227 -151 L352 449 L532 449 L539 483 L359 483 L407 714 L369 714 L321 483 Z " />
<glyph glyph-name="daggerdbl" unicode="&#x2021;" horiz-adv-x="480" d="M325 503 L145 503 L138 469 L318 469 L241 100 L61 100 L54 66 L234 66 L189 -151 L227 -151 L272 66 L452 66 L459 100 L279 100 L356 469 L536 469 L543 503 L363 503 L407 714 L369 714 L325 503 Z " />
<glyph glyph-name="bullet" unicode="&#x2022;" horiz-adv-x="500" d="M361 535 C253 535 142 437 142 321 C142 238 202 179 287 179 C401 179 506 284 506 393 C506 479 444 535 361 535 L361 535 Z " />
<glyph glyph-name="ellipsis" unicode="&#x2026;" horiz-adv-x="1000" d="M146 0 L188 0 L209 102 L167 102 L146 0 Z M479 0 L521 0 L542 102 L500 102 L479 0 Z M812 0 L854 0 L875 102 L833 102 L812 0 Z " />
<glyph glyph-name="perthousand" unicode="&#x2030;" horiz-adv-x="963" d="M317 708 C242 708 192 658 167 567 C154 521 147 476 147 449 C147 381 178 354 243 354 C316 354 367 400 393 494 C406 540 412 580 412 613 C412 682 380 708 317 708 L317 708 Z M609 708 L156 -12 L190 -12 L643 708 L609 708 Z M183 458 C183 481 189 523 200 563 C222 646 263 678 310 678 C355 678 376 657 376 604 C376 554 366 509 345 458 C326 413 298 384 249 384 C205 384 183 405 183 458 L183 458 Z M560 342 C487 342 438 295 411 205 C397 158 390 109 390 83 C390 16 420 -12 486 -12 C562 -12 611 37 636 128 C649 175 655 215 655 247 C655 314 625 342 560 342 L560 342 Z M864 342 C786 342 738 289 713 197 C700 150 694 104 694 83 C694 17 724 -12 790 -12 C865 -12 913 35 939 126 C952 172 959 214 959 247 C959 313 930 342 864 342 L864 342 Z M426 92 C426 117 431 147 440 187 C460 268 499 312 553 312 C602 312 619 285 619 236 C619 191 610 147 589 95 C569 45 539 18 492 18 C444 18 426 43 426 92 L426 92 Z M730 92 C730 115 735 150 744 187 C759 248 792 312 856 312 C904 312 924 288 924 234 C924 201 915 151 895 99 C875 48 846 18 796 18 C749 18 730 42 730 92 L730 92 Z " />
<glyph glyph-name="guilsinglleft" unicode="&#x2039;" horiz-adv-x="222" d="M114 289 L106 251 L192 116 L202 166 L140 270 L246 378 L256 428 L114 289 Z " />
<glyph glyph-name="guilsinglright" unicode="&#x203a;" horiz-adv-x="222" d="M132 378 L194 274 L88 166 L78 116 L221 255 L228 293 L142 428 L132 378 Z " />
<glyph glyph-name="fraction" unicode="&#x2044;" horiz-adv-x="167" d="M-148 -32 L-115 -32 L460 728 L427 728 L-148 -32 Z " />
<glyph glyph-name="Euro" unicode="&#x20ac;" horiz-adv-x="480" d="M450 708 C376 708 336 689 298 658 C229 601 191 511 169 424 L106 424 L85 390 L160 390 C155 369 147 335 143 308 L82 308 L60 274 L136 274 C130 241 127 210 127 181 C127 102 149 46 195 13 C218 -3 245 -12 298 -12 C364 -12 434 11 481 56 L494 116 C474 92 453 72 428 57 C393 36 364 22 308 22 C203 22 170 97 170 192 C170 216 173 241 178 274 L398 274 L420 308 L185 308 C189 337 196 366 202 390 L469 390 L490 424 L211 424 C256 594 323 674 443 674 C520 674 565 638 579 574 L608 618 C600 641 584 665 560 682 C536 699 503 708 450 708 L450 708 Z " />
<glyph glyph-name="uni20B9" unicode="&#x20b9;" horiz-adv-x="480" d="M486 534 C487 544 488 555 488 566 C488 606 471 644 435 663 L606 663 L613 696 L214 696 L207 663 L334 663 C402 663 448 627 448 562 C448 553 447 542 446 534 L180 534 L173 501 L440 501 C419 412 345 366 238 366 L144 366 L137 333 L344 0 L393 0 L180 332 L232 332 C363 332 456 388 481 501 L572 501 L579 534 L486 534 Z " />
<glyph glyph-name="uni20BA" unicode="&#x20ba;" horiz-adv-x="480" d="M115 0 L161 0 C378 0 469 126 508 340 L468 340 C436 123 319 34 177 34 L160 34 L232 376 L454 472 L462 507 L239 410 L260 509 L483 606 L490 641 L268 545 L300 696 L262 696 L226 527 L139 489 L132 454 L219 491 L198 392 L111 355 L103 320 L190 358 L115 0 Z " />
<glyph glyph-name="uni20BC" unicode="&#x20bc;" horiz-adv-x="632" d="M450 536 C577 530 606 389 606 256 C606 196 596 119 584 59 L572 0 L612 0 L624 54 C636 109 646 201 646 256 C646 417 597 560 456 569 L483 696 L447 696 L420 569 C211 562 78 280 37 67 L24 0 L64 0 L76 59 C114 247 230 524 412 536 L313 70 L351 70 L450 536 Z " />
<glyph glyph-name="ruble" unicode="&#x20bd;" horiz-adv-x="480" d="M69 327 L154 327 L134 233 L49 233 L42 200 L127 200 L85 0 L123 0 L165 200 L338 200 L345 233 L172 233 L192 327 L316 327 C468 327 589 391 589 547 C589 650 508 696 405 696 L232 696 L161 360 L76 360 L69 327 Z M199 360 L263 663 L393 663 C481 663 548 634 548 545 C548 417 453 360 327 360 L199 360 Z " />
<glyph glyph-name="afii61289" unicode="&#x2113;" horiz-adv-x="500" d="M362 721 C302 721 255 674 230 560 L172 290 L76 206 L90 184 L165 253 L140 139 C133 106 130 83 130 72 C130 19 164 -14 220 -14 C260 -14 297 3 339 36 L327 58 C284 26 255 15 226 15 C188 15 166 38 166 78 C166 95 172 130 184 185 L205 279 C361 419 439 539 439 634 C439 688 405 721 362 721 L362 721 Z M266 570 C285 657 318 694 359 694 C388 694 408 667 408 632 C408 549 335 434 212 317 L266 570 Z " />
<glyph glyph-name="trademark" unicode="&#x2122;" horiz-adv-x="1000" d="M210 714 L203 680 L345 680 L266 302 L300 302 L379 680 L521 680 L528 714 L210 714 Z M524 302 L558 302 L637 680 L639 680 L725 302 L743 302 L987 680 L989 680 L910 302 L944 302 L1030 714 L974 714 L748 366 L668 714 L610 714 L524 302 Z " />
<glyph glyph-name="Omega" unicode="&#x2126;" horiz-adv-x="537" d="M411 726 C287 726 189 629 138 479 C112 403 99 326 99 248 C99 164 127 93 178 38 L54 38 L46 0 L219 0 L227 35 C170 94 141 163 141 250 C141 419 222 692 409 692 C503 692 550 631 550 520 C550 304 471 140 322 35 L314 0 L492 0 L500 38 L378 38 C518 147 593 313 593 520 C593 651 529 726 411 726 L411 726 Z " />
<glyph glyph-name="estimated" unicode="&#x212e;" horiz-adv-x="760" d="M381 706 C190 706 44 563 44 345 C44 141 179 -15 381 -15 C520 -15 602 40 679 161 L633 189 C571 83 493 32 381 32 C303 32 241 60 192 109 L192 345 L719 345 C717 560 580 706 381 706 L381 706 Z M192 582 C246 636 310 660 379 660 C455 660 519 633 572 582 L572 393 L192 393 L192 582 Z " />
<glyph glyph-name="partialdiff" unicode="&#x2202;" horiz-adv-x="463" d="M180 721 C132 721 89 704 46 669 L66 643 C111 677 142 688 181 688 C318 688 370 531 370 379 C370 362 369 341 369 324 C323 385 260 421 193 421 C78 421 8 327 8 210 C8 98 78 -12 191 -12 C358 -12 405 190 405 369 C405 527 353 721 180 721 L180 721 Z M44 209 C44 309 103 389 193 389 C257 389 312 355 365 284 C349 113 288 19 192 19 C101 19 44 113 44 209 L44 209 Z " />
<glyph glyph-name="Delta" unicode="&#x2206;" horiz-adv-x="481" d="M-4 0 L485 0 L419 714 L366 714 L-4 0 Z M385 671 L440 38 L58 38 L383 671 L385 671 Z " />
<glyph glyph-name="product" unicode="&#x220f;" horiz-adv-x="704" d="M83 786 L83 -214 L119 -214 L119 751 L585 751 L585 -214 L621 -214 L621 786 L83 786 Z " />
<glyph glyph-name="summation" unicode="&#x2211;" horiz-adv-x="593" d="M41 786 L41 753 L364 289 L26 -182 L26 -214 L549 -214 L549 -179 L70 -179 L408 289 L86 751 L538 751 L538 786 L41 786 Z " />
<glyph glyph-name="minus" unicode="&#x2212;" horiz-adv-x="600" d="M103 270 L96 236 L602 236 L609 270 L103 270 Z " />
<glyph glyph-name="uni2215" unicode="&#x2215;" horiz-adv-x="167" d="M-148 -32 L-115 -32 L460 728 L427 728 L-148 -32 Z " />
<glyph glyph-name="uni2219" unicode="&#x2219;" horiz-adv-x="240" d="M199 381 C163 381 136 347 136 319 C136 296 153 279 178 279 C210 279 240 310 240 341 C240 364 224 381 199 381 L199 381 Z " />
<glyph glyph-name="radical" unicode="&#x221a;" horiz-adv-x="463" d="M215 -168 L42 191 L-31 155 L-18 128 L26 149 L204 -217 L236 -217 L451 782 L417 782 L215 -168 Z " />
<glyph glyph-name="infinity" unicode="&#x221e;" horiz-adv-x="722" d="M141 376 C71 376 18 319 18 244 C18 166 70 114 146 114 C219 114 273 170 332 222 C421 135 471 113 520 113 C595 113 646 166 646 246 C646 322 595 376 520 376 C448 376 379 306 332 265 C278 312 214 376 141 376 L141 376 Z M51 245 C51 301 87 343 139 343 C186 343 232 309 268 278 L309 243 C242 177 193 147 144 147 C87 147 51 186 51 245 L51 245 Z M354 243 C431 313 479 343 521 343 C578 343 613 301 613 245 C613 184 578 146 520 146 C472 146 430 172 354 243 L354 243 Z " />
<glyph glyph-name="integral" unicode="&#x222b;" horiz-adv-x="534" d="M325 786 C262 786 225 731 225 589 C225 568 226 541 226 520 L226 -5 C226 -112 212 -180 185 -180 C171 -180 163 -154 145 -154 C132 -154 119 -165 119 -178 C119 -198 135 -213 161 -213 C260 -213 263 -66 263 7 C263 24 262 40 262 57 L262 587 C262 698 276 755 304 755 C318 755 318 724 347 724 C363 724 374 735 374 750 C374 774 352 786 325 786 L325 786 Z " />
<glyph glyph-name="approxequal" unicode="&#x2248;" horiz-adv-x="600" d="M610 414 C582 354 551 333 508 333 C423 333 338 407 242 407 C183 407 133 368 102 292 L134 292 C164 351 192 373 237 373 C315 373 409 299 503 299 C562 299 610 336 642 414 L610 414 Z M569 218 C543 165 514 137 466 137 C381 137 296 211 200 211 C138 211 90 169 61 96 L93 96 C121 153 148 177 195 177 C277 177 365 103 461 103 C522 103 572 145 601 218 L569 218 Z " />
<glyph glyph-name="notequal" unicode="&#x2260;" horiz-adv-x="600" d="M434 368 L123 368 L116 334 L404 334 L260 172 L82 172 L75 138 L230 138 L117 12 L143 -3 L269 138 L581 138 L588 172 L299 172 L444 334 L622 334 L629 368 L474 368 L587 494 L561 509 L434 368 Z " />
<glyph glyph-name="lessequal" unicode="&#x2264;" horiz-adv-x="600" d="M111 295 L104 261 L568 61 L575 96 L145 278 L653 461 L660 496 L111 295 Z M56 34 L50 0 L555 0 L562 34 L56 34 Z " />
<glyph glyph-name="greaterequal" unicode="&#x2265;" horiz-adv-x="600" d="M147 461 L577 278 L69 96 L62 61 L610 261 L617 295 L154 496 L147 461 Z M56 34 L50 0 L555 0 L562 34 L56 34 Z " />
<glyph glyph-name="lozenge" unicode="&#x25ca;" horiz-adv-x="593" d="M112 356 L281 -35 L311 -35 L481 356 L311 747 L281 747 L112 356 Z M296 702 L444 356 L296 10 L148 356 L296 702 Z " />
<glyph glyph-name="dotlessj" unicode="&#xe0d6;" horiz-adv-x="148" d="M40 -71 C29 -122 6 -144 -39 -144 C-48 -144 -55 -144 -67 -142 L-74 -176 C-61 -177 -51 -178 -40 -178 C24 -178 63 -142 80 -62 L201 523 L163 523 L40 -71 Z " />
<glyph glyph-name="grave.cap" unicode="&#xe300;" horiz-adv-x="148" d="M204 770 L237 770 L189 910 L141 910 L204 770 Z " />
<glyph glyph-name="acute.cap" unicode="&#xe301;" horiz-adv-x="148" d="M155 770 L188 770 L311 910 L263 910 L155 770 Z " />
<glyph glyph-name="circumflex.cap" unicode="&#xe302;" horiz-adv-x="148" d="M80 770 L122 770 L218 880 L268 770 L310 770 L246 910 L204 910 L80 770 Z " />
<glyph glyph-name="caron.cap" unicode="&#xe303;" horiz-adv-x="148" d="M174 770 L216 770 L340 910 L298 910 L202 800 L152 910 L110 910 L174 770 Z " />
<glyph glyph-name="tilde.cap" unicode="&#xe304;" horiz-adv-x="148" d="M312 885 C301 842 282 829 262 829 C231 829 211 880 168 880 C115 880 87 832 79 795 L109 795 C115 827 134 850 159 850 C192 850 206 799 256 799 C301 799 333 842 342 885 L312 885 Z " />
<glyph glyph-name="dieresis.cap" unicode="&#xe305;" horiz-adv-x="148" d="M112 789 L154 789 L175 891 L133 891 L112 789 Z M246 789 L288 789 L309 891 L267 891 L246 789 Z " />
<glyph glyph-name="macron.cap" unicode="&#xe306;" horiz-adv-x="148" d="M105 855 L99 825 L315 825 L321 855 L105 855 Z " />
<glyph glyph-name="breve.cap" unicode="&#xe307;" horiz-adv-x="148" d="M110 898 C109 890 107 880 107 872 C107 815 138 782 196 782 C265 782 319 828 334 898 L304 898 C290 843 252 812 204 812 C167 812 137 835 137 874 C137 882 138 890 140 898 L110 898 Z " />
<glyph glyph-name="ring.cap" unicode="&#xe308;" horiz-adv-x="148" d="M229 920 C167 920 120 864 120 813 C120 775 148 744 191 744 C250 744 302 796 302 849 C302 890 271 920 229 920 L229 920 Z M151 821 C151 858 189 891 220 891 C250 891 271 875 271 844 C271 803 232 773 198 773 C174 773 151 787 151 821 L151 821 Z " />
<glyph glyph-name="hungarumlaut.cap" unicode="&#xe309;" horiz-adv-x="148" d="M85 770 L118 770 L241 910 L193 910 L85 770 Z M219 770 L252 770 L375 910 L327 910 L219 770 Z " />
<glyph glyph-name="dotaccent.cap" unicode="&#xe30a;" horiz-adv-x="148" d="M179 789 L221 789 L242 891 L200 891 L179 789 Z " />
<glyph glyph-name="caron.alt" unicode="&#xe30b;" horiz-adv-x="148" d="M179 574 L207 574 L283 714 L236 714 L179 574 Z " />
<glyph glyph-name="commaaccent" unicode="&#xe30c;" horiz-adv-x="240" d="M86 -137 L107 -137 C103 -156 94 -175 71 -184 L67 -204 C115 -192 127 -166 135 -126 L151 -50 L104 -50 L86 -137 Z " />
<glyph glyph-name="commaaccent.alt" unicode="&#xe30d;" horiz-adv-x="240" d="M305 781 C268 773 247 750 239 712 L221 627 L268 627 L286 714 L265 714 C270 736 278 751 301 761 L305 781 Z " />
<glyph glyph-name="uniF8FF" unicode="&#xf8ff;" horiz-adv-x="512" d="M0 718 L0 0 L512 0 L512 718 L0 718 Z M50 50 L50 667 L462 667 L462 50 L50 50 Z M259 609 C181 609 133 562 124 472 L174 464 C182 528 212 559 256 559 C298 559 332 520 332 474 C332 440 310 419 286 395 C239 348 223 320 223 265 C223 259 224 240 225 234 L271 234 L271 244 C271 311 279 321 319 357 C361 396 383 424 383 478 C383 556 330 609 259 609 L259 609 Z M222 117 L278 117 L278 184 L222 184 L222 117 Z " />
<glyph glyph-name="fi" unicode="&#xfb01;" horiz-adv-x="370" d="M324 714 C278 714 251 701 230 672 C219 657 210 635 204 605 L187 523 L116 523 L109 489 L180 489 L79 0 L117 0 L218 489 L305 489 L312 523 L225 523 L245 615 C254 658 279 680 318 680 C331 680 342 679 350 677 L357 711 C349 713 335 714 324 714 L324 714 Z M404 612 L442 612 L463 714 L425 714 L404 612 Z M277 0 L315 0 L423 523 L385 523 L277 0 Z " />
<glyph glyph-name="fl" unicode="&#xfb02;" horiz-adv-x="370" d="M324 714 C278 714 251 701 230 672 C219 657 210 635 204 605 L187 523 L116 523 L109 489 L180 489 L79 0 L117 0 L218 489 L305 489 L312 523 L225 523 L245 615 C254 658 279 680 318 680 C331 680 342 679 350 677 L357 711 C349 713 335 714 324 714 L324 714 Z M277 0 L315 0 L463 714 L425 714 L277 0 Z " />
</font>
</svg>
