<?xml version="1.0" encoding="UTF-8"?>
<svg xmlns="http://www.w3.org/2000/svg" xmlns:xlink="http://www.w3.org/1999/xlink" version="1.2" >
<font id="Helvetica Neue LT Pro 87 Heavy Condensed">
<font-face  font-family="Helvetica Neue LT Pro" units-per-em="1000" ascent="714" descent="-286" font-style="normal" font-weight="750" font-stretch="condensed" cap-height="714" x-height="541" underline-position="-75" underline-thickness="50" />
<missing-glyph  horiz-adv-x="512" d="M0 718 L0 0 L512 0 L512 718 L0 718 Z M50 50 L50 667 L462 667 L462 50 L50 50 Z M259 609 C181 609 133 562 124 472 L174 464 C182 528 212 559 256 559 C296 559 332 520 332 474 C332 440 308 415 286 395 C266 376 251 358 240 339 C229 320 223 291 223 253 L225 234 L271 234 C271 274 273 299 278 311 C283 322 297 337 319 357 C362 396 383 424 383 478 C383 556 330 609 259 609 L259 609 Z M222 117 L278 117 L278 184 L222 184 L222 117 Z " />
<glyph glyph-name=".null" d="" />
<glyph glyph-name="CR" unicode="&#xd;" horiz-adv-x="260" d="" />
<glyph glyph-name="space" unicode="&#x20;" horiz-adv-x="260" d="" />
<glyph glyph-name="exclam" unicode="&#x21;" horiz-adv-x="334" d="M86 714 L86 480 L106 204 L229 204 L248 480 L248 714 L86 714 Z M90 150 L90 0 L246 0 L246 150 L90 150 Z " />
<glyph glyph-name="quotedbl" unicode="&#x22;" horiz-adv-x="481" d="M72 714 L72 365 L202 365 L202 714 L72 714 Z M279 714 L279 365 L409 365 L409 714 L279 714 Z " />
<glyph glyph-name="numbersign" unicode="&#x23;" horiz-adv-x="520" d="M162 694 L139 523 L50 523 L50 411 L123 411 L105 283 L16 283 L16 171 L89 171 L66 0 L176 0 L199 171 L271 171 L248 0 L358 0 L381 171 L470 171 L470 283 L397 283 L415 411 L504 411 L504 523 L431 523 L455 694 L345 694 L321 523 L249 523 L273 694 L162 694 Z M233 411 L305 411 L287 283 L215 283 L233 411 Z " />
<glyph glyph-name="dollar" unicode="&#x24;" horiz-adv-x="520" d="M217 782 L217 708 C86 696 24 619 24 504 C24 447 38 406 64 373 C90 340 133 314 205 288 C286 259 331 235 331 177 C331 130 306 98 255 98 C208 98 183 124 183 188 L183 212 L21 212 L21 180 C21 52 90 -7 217 -14 L217 -102 L295 -102 L295 -14 C434 -2 499 70 499 207 C499 348 399 383 306 418 C239 443 192 467 192 525 C192 572 215 596 259 596 C309 596 324 558 324 502 L486 502 L486 517 C486 634 421 698 295 708 L295 782 L217 782 Z " />
<glyph glyph-name="percent" unicode="&#x25;" horiz-adv-x="778" d="M177 708 C64 708 19 652 19 516 C19 404 37 324 178 324 C319 324 335 408 335 516 C335 626 318 708 177 708 L177 708 Z M497 708 L183 -14 L284 -14 L598 708 L497 708 Z M137 519 C137 603 146 625 177 625 C206 625 217 612 217 521 C217 437 213 407 177 407 C147 407 137 435 137 519 L137 519 Z M601 370 C476 370 443 298 443 178 C443 68 460 -14 602 -14 C743 -14 759 70 759 178 C759 288 742 370 601 370 L601 370 Z M561 175 C561 261 570 287 601 287 C631 287 641 273 641 182 C641 99 637 69 601 69 C574 69 561 92 561 175 L561 175 Z " />
<glyph glyph-name="ampersand" unicode="&#x26;" horiz-adv-x="630" d="M283 722 C168 722 88 660 88 556 C88 512 115 453 158 397 C73 335 20 287 20 186 C20 82 86 -14 239 -14 C297 -14 349 -2 416 44 L448 0 L625 0 L527 132 C580 186 604 251 610 345 L468 345 C464 296 454 271 440 250 L348 375 C446 446 473 500 473 562 C473 665 393 722 283 722 L283 722 Z M224 573 C224 610 254 628 278 628 C313 628 337 605 337 572 C337 532 312 504 275 474 C236 522 224 548 224 573 L224 573 Z M176 198 C176 242 206 271 235 292 L342 146 C322 122 294 110 266 110 C217 110 176 151 176 198 L176 198 Z " />
<glyph glyph-name="quotesingle" unicode="&#x27;" horiz-adv-x="260" d="M65 714 L65 365 L195 365 L195 714 L65 714 Z " />
<glyph glyph-name="parenleft" unicode="&#x28;" horiz-adv-x="315" d="M190 714 C97 563 49 406 49 265 C49 126 95 -29 190 -184 L320 -184 C250 -64 205 102 205 265 C205 429 251 597 320 714 L190 714 Z " />
<glyph glyph-name="parenright" unicode="&#x29;" horiz-adv-x="315" d="M-5 714 C67 589 110 429 110 265 C110 107 69 -56 -5 -184 L125 -184 C221 -28 266 126 266 265 C266 406 218 563 125 714 L-5 714 Z " />
<glyph glyph-name="asterisk" unicode="&#x2a;" horiz-adv-x="408" d="M159 714 L161 579 L37 627 L8 541 L134 499 L53 393 L126 339 L204 447 L282 339 L356 393 L274 499 L400 541 L370 627 L247 579 L249 714 L159 714 Z " />
<glyph glyph-name="plus" unicode="&#x2b;" horiz-adv-x="600" d="M235 506 L235 318 L47 318 L47 188 L235 188 L235 0 L365 0 L365 188 L553 188 L553 318 L365 318 L365 506 L235 506 Z " />
<glyph glyph-name="comma" unicode="&#x2c;" horiz-adv-x="260" d="M52 180 L52 6 L114 6 L114 3 C114 -72 89 -91 52 -91 L52 -169 C161 -162 208 -104 208 27 L208 180 L52 180 Z " />
<glyph glyph-name="hyphen" unicode="&#x2d;" horiz-adv-x="370" d="M34 357 L34 221 L336 221 L336 357 L34 357 Z " />
<glyph glyph-name="period" unicode="&#x2e;" horiz-adv-x="260" d="M52 180 L52 0 L208 0 L208 180 L52 180 Z " />
<glyph glyph-name="slash" unicode="&#x2f;" horiz-adv-x="352" d="M222 728 L-6 -14 L130 -14 L358 728 L222 728 Z " />
<glyph glyph-name="zero" unicode="0" horiz-adv-x="520" d="M260 708 C46 708 27 542 27 347 C27 113 51 -14 260 -14 C477 -14 493 158 493 348 C493 577 471 708 260 708 L260 708 Z M325 346 C325 149 318 92 260 92 C206 92 195 138 195 332 L195 367 C195 552 206 602 259 602 C310 602 325 567 325 370 L325 346 Z " />
<glyph glyph-name="one" unicode="1" horiz-adv-x="520" d="M247 708 C233 633 177 597 80 597 L61 597 L61 491 L197 491 L197 0 L365 0 L365 708 L247 708 Z " />
<glyph glyph-name="two" unicode="2" horiz-adv-x="520" d="M266 708 C119 708 38 642 38 494 L38 472 L194 472 L194 481 C194 551 204 602 258 602 C301 602 317 573 317 511 L317 496 C317 439 281 397 196 321 C77 216 35 118 34 0 L486 0 L486 130 L235 130 C245 154 273 186 315 225 C391 295 435 340 456 376 C474 408 485 442 485 509 C485 648 411 708 266 708 L266 708 Z " />
<glyph glyph-name="three" unicode="3" horiz-adv-x="520" d="M266 708 C115 708 39 639 39 502 L39 500 L189 500 C189 566 208 602 254 602 C292 602 310 579 310 521 C310 435 282 415 236 415 L192 415 L192 309 L231 309 C297 309 320 288 320 196 C320 122 303 92 256 92 C215 92 194 125 194 208 L32 208 C33 46 103 -14 265 -14 C390 -14 488 47 488 200 C488 305 450 351 371 369 L371 371 C432 385 472 436 472 514 C472 644 411 708 266 708 L266 708 Z " />
<glyph glyph-name="four" unicode="4" horiz-adv-x="520" d="M252 694 L22 267 L22 137 L276 137 L276 0 L432 0 L432 137 L498 137 L498 267 L432 267 L432 694 L252 694 Z M276 504 L276 267 L155 267 L274 504 L276 504 Z " />
<glyph glyph-name="five" unicode="5" horiz-adv-x="520" d="M57 694 L35 311 L191 311 C196 348 217 367 253 367 C295 367 315 332 315 243 C315 130 296 92 250 92 C211 92 190 118 190 183 L190 208 L28 208 L28 183 C28 46 112 -14 251 -14 C413 -14 483 65 483 239 C483 410 427 485 297 485 C248 485 197 462 180 429 L178 431 L186 564 L454 564 L454 694 L57 694 Z " />
<glyph glyph-name="six" unicode="6" horiz-adv-x="520" d="M272 708 C42 708 27 560 27 333 C27 121 50 -14 261 -14 C419 -14 493 68 493 244 C493 390 441 464 323 464 C261 464 220 444 197 402 L195 402 C195 547 206 602 266 602 C300 602 317 574 317 529 L317 527 L479 527 C476 647 409 708 272 708 L272 708 Z M201 227 C201 307 219 340 262 340 C315 340 325 302 325 216 C325 126 305 92 263 92 C219 92 201 132 201 227 L201 227 Z " />
<glyph glyph-name="seven" unicode="7" horiz-adv-x="520" d="M32 694 L32 552 L322 552 C219 413 131 175 117 0 L291 0 C302 183 383 415 483 569 L483 694 L32 694 Z " />
<glyph glyph-name="eight" unicode="8" horiz-adv-x="520" d="M260 708 C117 708 45 644 45 525 C45 447 78 393 142 376 L142 374 C66 362 25 299 25 207 C25 63 82 -14 260 -14 C448 -14 495 82 495 207 C495 301 452 362 375 374 L375 376 C441 392 475 446 475 525 C475 646 406 708 260 708 L260 708 Z M201 513 C201 564 217 602 259 602 C301 602 319 570 319 513 C319 451 303 422 260 422 C214 422 201 455 201 513 L201 513 Z M193 205 C193 285 217 316 259 316 C307 316 327 279 327 205 C327 128 305 92 260 92 C215 92 193 128 193 205 L193 205 Z " />
<glyph glyph-name="nine" unicode="9" horiz-adv-x="520" d="M259 708 C104 708 27 630 27 450 C27 301 81 230 197 230 C259 230 300 250 323 292 L325 292 C325 139 311 92 254 92 C220 92 203 119 203 166 L41 166 C44 42 114 -14 248 -14 C475 -14 493 125 493 361 C493 568 472 708 259 708 L259 708 Z M195 478 C195 553 208 602 256 602 C301 602 319 563 319 467 C319 385 299 354 258 354 C207 354 195 388 195 478 L195 478 Z " />
<glyph glyph-name="colon" unicode="&#x3a;" horiz-adv-x="260" d="M52 532 L52 352 L208 352 L208 532 L52 532 Z M52 180 L52 0 L208 0 L208 180 L52 180 Z " />
<glyph glyph-name="semicolon" unicode="&#x3b;" horiz-adv-x="260" d="M52 532 L52 352 L208 352 L208 532 L52 532 Z M52 180 L52 6 L114 6 L114 3 C114 -63 95 -91 52 -91 L52 -169 C158 -162 208 -107 208 25 L208 180 L52 180 Z " />
<glyph glyph-name="less" unicode="&#x3c;" horiz-adv-x="600" d="M553 514 L47 318 L47 188 L553 -8 L553 122 L215 253 L553 384 L553 514 Z " />
<glyph glyph-name="equal" unicode="&#x3d;" horiz-adv-x="600" d="M47 427 L47 297 L553 297 L553 427 L47 427 Z M47 209 L47 79 L553 79 L553 209 L47 209 Z " />
<glyph glyph-name="greater" unicode="&#x3e;" horiz-adv-x="600" d="M47 384 L385 253 L47 122 L47 -8 L553 188 L553 318 L47 514 L47 384 Z " />
<glyph glyph-name="question" unicode="&#x3f;" horiz-adv-x="500" d="M248 728 C116 728 39 658 39 509 L39 491 L189 491 L189 495 C189 582 206 622 250 622 C288 622 305 600 305 549 C305 504 294 466 242 418 C212 390 191 363 181 337 C171 312 166 284 166 232 L166 204 L316 204 L316 232 C316 259 322 273 331 289 C340 305 360 327 389 359 C440 416 461 465 461 534 C461 658 384 728 248 728 L248 728 Z M163 150 L163 0 L319 0 L319 150 L163 150 Z " />
<glyph glyph-name="at" unicode="&#x40;" horiz-adv-x="800" d="M418 728 C206 728 29 571 29 357 C29 137 208 -14 421 -14 C549 -14 659 43 730 143 L641 143 C575 101 502 80 424 80 C256 80 135 199 135 355 C135 515 251 634 417 634 C570 634 683 546 683 403 C683 297 623 229 581 229 C567 229 562 239 562 253 C562 265 567 285 571 303 L626 540 L539 540 L526 488 C497 533 456 555 405 555 C273 555 190 432 190 309 C190 211 257 139 337 139 C382 139 423 156 457 192 L459 191 C462 158 484 139 522 139 C585 139 771 214 771 425 C771 618 588 728 418 728 L418 728 Z M296 325 C296 389 348 455 412 455 C457 455 490 421 490 375 C490 309 439 239 371 239 C325 239 296 275 296 325 L296 325 Z " />
<glyph glyph-name="A" unicode="A" horiz-adv-x="574" d="M184 714 L2 0 L176 0 L201 136 L372 136 L398 0 L572 0 L394 714 L184 714 Z M286 584 L347 266 L225 266 L284 584 L286 584 Z " />
<glyph glyph-name="B" unicode="B" horiz-adv-x="574" d="M52 714 L52 0 L303 0 C452 0 536 69 536 199 C536 300 498 363 404 375 L404 377 C476 391 516 459 516 538 C516 654 440 714 313 714 L52 714 Z M220 590 L268 590 C324 590 348 553 348 513 C348 456 319 429 267 429 L220 429 L220 590 Z M220 317 L274 317 C330 317 362 284 362 217 C362 155 329 124 271 124 L220 124 L220 317 Z " />
<glyph glyph-name="C" unicode="C" horiz-adv-x="537" d="M284 728 C50 728 36 551 36 362 C36 147 53 -14 269 -14 C459 -14 519 82 519 251 L519 280 L357 280 L357 270 C357 151 341 98 287 98 C216 98 210 156 210 364 C210 555 217 616 283 616 C334 616 351 578 351 471 L351 466 L514 466 L514 488 C514 659 439 728 284 728 L284 728 Z " />
<glyph glyph-name="D" unicode="D" horiz-adv-x="574" d="M52 714 L52 0 L287 0 C506 0 538 127 538 378 C538 588 493 714 304 714 L52 714 Z M220 590 L263 590 C353 590 370 551 370 375 C370 133 336 124 252 124 L220 124 L220 590 Z " />
<glyph glyph-name="E" unicode="E" horiz-adv-x="500" d="M52 714 L52 0 L476 0 L476 136 L220 136 L220 299 L450 299 L450 435 L220 435 L220 578 L465 578 L465 714 L52 714 Z " />
<glyph glyph-name="F" unicode="F" horiz-adv-x="481" d="M52 714 L52 0 L220 0 L220 299 L450 299 L450 435 L220 435 L220 578 L465 578 L465 714 L52 714 Z " />
<glyph glyph-name="G" unicode="G" horiz-adv-x="556" d="M290 728 C47 728 36 566 36 343 C36 125 63 -14 245 -14 C325 -14 375 13 399 68 L401 68 L405 0 L520 0 L520 383 L285 383 L285 271 L364 271 L364 252 C364 139 340 98 287 98 C217 98 210 171 210 355 C210 531 215 616 287 616 C330 616 354 580 354 497 L516 497 L516 507 C516 688 405 728 290 728 L290 728 Z " />
<glyph glyph-name="H" unicode="H" horiz-adv-x="574" d="M52 714 L52 0 L220 0 L220 305 L354 305 L354 0 L522 0 L522 714 L354 714 L354 447 L220 447 L220 714 L52 714 Z " />
<glyph glyph-name="I" unicode="I" horiz-adv-x="278" d="M55 714 L55 0 L223 0 L223 714 L55 714 Z " />
<glyph glyph-name="J" unicode="J" horiz-adv-x="500" d="M280 714 L280 205 C280 127 265 98 227 98 C172 98 172 151 172 195 L172 227 L16 227 L16 186 C16 43 93 -14 229 -14 C380 -14 448 68 448 212 L448 714 L280 714 Z " />
<glyph glyph-name="K" unicode="K" horiz-adv-x="574" d="M52 714 L52 0 L220 0 L220 200 L265 269 L394 0 L583 0 L373 406 L560 714 L379 714 L222 432 L220 432 L220 714 L52 714 Z " />
<glyph glyph-name="L" unicode="L" horiz-adv-x="463" d="M52 714 L52 0 L463 0 L463 136 L220 136 L220 714 L52 714 Z " />
<glyph glyph-name="M" unicode="M" horiz-adv-x="778" d="M57 714 L57 0 L207 0 L207 556 L209 556 L324 0 L454 0 L563 556 L565 556 L565 0 L721 0 L721 714 L478 714 L393 245 L391 245 L303 714 L57 714 Z " />
<glyph glyph-name="N" unicode="N" horiz-adv-x="593" d="M52 714 L52 0 L202 0 L202 492 L204 492 L351 0 L541 0 L541 714 L385 714 L385 250 L383 250 L245 714 L52 714 Z " />
<glyph glyph-name="O" unicode="O" horiz-adv-x="574" d="M287 728 C60 728 36 573 36 357 C36 136 63 -14 287 -14 C520 -14 538 151 538 357 C538 564 520 728 287 728 L287 728 Z M210 357 C210 546 217 616 286 616 C355 616 364 549 364 357 C364 167 356 98 286 98 C217 98 210 167 210 357 L210 357 Z " />
<glyph glyph-name="P" unicode="P" horiz-adv-x="556" d="M52 714 L52 0 L220 0 L220 279 L295 279 C435 279 523 343 523 497 C523 632 452 714 313 714 L52 714 Z M220 590 L262 590 C316 590 349 566 349 493 C349 424 314 403 265 403 L220 403 L220 590 Z " />
<glyph glyph-name="Q" unicode="Q" horiz-adv-x="574" d="M287 728 C63 728 36 579 36 357 C36 131 65 -14 287 -14 C319 -14 342 -11 373 -4 L468 -104 L566 -14 L485 69 C538 143 538 269 538 356 C538 563 520 728 287 728 L287 728 Z M210 357 C210 548 217 616 286 616 C353 616 364 556 364 357 C364 167 356 98 286 98 C219 98 210 161 210 357 L210 357 Z " />
<glyph glyph-name="R" unicode="R" horiz-adv-x="574" d="M52 714 L52 0 L220 0 L220 295 L284 295 C334 295 354 272 354 151 C354 103 354 32 372 0 L553 0 L553 9 C529 19 525 39 521 177 C518 284 506 336 406 352 L406 354 C490 374 526 430 526 527 C526 652 452 714 335 714 L52 714 Z M220 596 L271 596 C327 596 358 571 358 506 C358 440 320 413 273 413 L220 413 L220 596 Z " />
<glyph glyph-name="S" unicode="S" horiz-adv-x="537" d="M267 728 C100 728 33 639 33 518 C33 466 45 423 70 388 C98 349 142 323 220 295 C316 261 340 230 340 183 C340 128 312 98 264 98 C213 98 191 127 191 193 L191 218 L29 218 L29 180 C29 40 116 -14 264 -14 C428 -14 508 59 508 212 C508 348 423 388 338 421 C272 447 201 468 201 539 C201 591 225 616 268 616 C309 616 333 588 333 516 L495 516 L495 531 C495 660 416 728 267 728 L267 728 Z " />
<glyph glyph-name="T" unicode="T" horiz-adv-x="480" d="M6 714 L6 578 L156 578 L156 0 L324 0 L324 578 L474 578 L474 714 L6 714 Z " />
<glyph glyph-name="U" unicode="U" horiz-adv-x="556" d="M43 714 L43 230 C43 73 104 -14 278 -14 C441 -14 513 61 513 230 L513 714 L345 714 L345 187 C345 131 323 98 278 98 C232 98 211 133 211 187 L211 714 L43 714 Z " />
<glyph glyph-name="V" unicode="V" horiz-adv-x="537" d="M2 714 L159 0 L373 0 L535 714 L355 714 L269 162 L267 162 L182 714 L2 714 Z " />
<glyph glyph-name="W" unicode="W" horiz-adv-x="778" d="M6 714 L132 0 L318 0 L387 507 L389 507 L462 0 L648 0 L772 714 L610 714 L550 206 L548 206 L468 714 L312 714 L238 206 L236 206 L174 714 L6 714 Z " />
<glyph glyph-name="X" unicode="X" horiz-adv-x="556" d="M20 714 L178 363 L3 0 L189 0 L276 234 L361 0 L553 0 L376 363 L539 714 L353 714 L281 495 L279 495 L206 714 L20 714 Z " />
<glyph glyph-name="Y" unicode="Y" horiz-adv-x="536" d="M3 714 L184 281 L184 0 L352 0 L352 281 L533 714 L353 714 L271 449 L269 449 L189 714 L3 714 Z " />
<glyph glyph-name="Z" unicode="Z" horiz-adv-x="481" d="M42 714 L42 578 L265 578 L23 124 L23 0 L458 0 L458 136 L213 136 L458 596 L458 714 L42 714 Z " />
<glyph glyph-name="bracketleft" unicode="&#x5b;" horiz-adv-x="333" d="M84 714 L84 -184 L337 -184 L337 -72 L234 -72 L234 602 L337 602 L337 714 L84 714 Z " />
<glyph glyph-name="backslash" unicode="&#x5c;" horiz-adv-x="352" d="M-6 728 L222 -14 L358 -14 L130 728 L-6 728 Z " />
<glyph glyph-name="bracketright" unicode="&#x5d;" horiz-adv-x="333" d="M-4 714 L-4 602 L99 602 L99 -72 L-4 -72 L-4 -184 L249 -184 L249 714 L-4 714 Z " />
<glyph glyph-name="asciicircum" unicode="&#x5e;" horiz-adv-x="600" d="M243 694 L56 309 L180 309 L300 558 L420 309 L544 309 L357 694 L243 694 Z " />
<glyph glyph-name="underscore" unicode="&#x5f;" horiz-adv-x="500" d="M0 -75 L0 -125 L500 -125 L500 -75 L0 -75 Z " />
<glyph glyph-name="grave" unicode="&#x60;" horiz-adv-x="260" d="M-15 741 L85 599 L191 599 L141 741 L-15 741 Z " />
<glyph glyph-name="a" unicode="a" horiz-adv-x="500" d="M252 555 C134 555 43 524 42 375 L186 375 C187 431 207 449 245 449 C281 449 296 428 296 395 C296 362 290 354 275 345 C263 338 221 329 188 321 C137 309 98 295 68 266 C43 241 27 207 27 150 C27 42 72 -14 171 -14 C226 -14 275 14 298 62 L300 62 C301 37 303 16 309 0 L465 0 C451 19 446 48 446 111 L446 395 C446 514 383 555 252 555 L252 555 Z M183 167 C183 218 201 225 242 242 C256 248 282 261 296 273 C296 263 295 222 295 171 C295 152 291 98 230 98 C200 98 183 122 183 167 L183 167 Z " />
<glyph glyph-name="b" unicode="b" horiz-adv-x="519" d="M45 714 L45 0 L201 0 L201 66 L203 66 C217 18 261 -14 320 -14 C434 -14 487 74 487 267 C487 425 466 555 330 555 C275 555 232 531 209 482 L207 482 L207 714 L45 714 Z M325 274 C325 184 321 104 262 104 C214 104 204 161 204 269 C204 366 209 437 263 437 C320 437 325 380 325 274 L325 274 Z " />
<glyph glyph-name="c" unicode="c" horiz-adv-x="481" d="M248 555 C88 555 27 466 27 289 C27 129 44 -14 247 -14 C398 -14 460 58 461 220 L311 220 C308 121 296 92 250 92 C196 92 189 149 189 270 C189 381 197 449 250 449 C293 449 311 417 311 337 L461 337 L461 341 C461 492 392 555 248 555 L248 555 Z " />
<glyph glyph-name="d" unicode="d" horiz-adv-x="519" d="M312 714 L312 482 L310 482 C287 530 246 555 189 555 C57 555 32 434 32 267 C32 74 85 -14 199 -14 C258 -14 297 15 316 66 L318 66 L318 0 L474 0 L474 714 L312 714 Z M257 104 C199 104 194 179 194 275 C194 368 196 437 255 437 C309 437 315 372 315 268 C315 159 304 104 257 104 L257 104 Z " />
<glyph glyph-name="e" unicode="e" horiz-adv-x="481" d="M247 555 C77 555 27 451 27 289 C27 122 47 -14 247 -14 C384 -14 454 53 457 185 L307 185 C303 113 289 86 248 86 C207 86 189 116 189 208 L189 244 L462 244 L462 263 C462 447 432 555 247 555 L247 555 Z M189 338 L189 345 C189 423 205 455 251 455 C294 455 306 417 306 343 L306 338 L189 338 Z " />
<glyph glyph-name="f" unicode="f" horiz-adv-x="296" d="M232 728 C101 728 66 688 66 587 L66 541 L-1 541 L-1 429 L66 429 L66 0 L228 0 L228 429 L303 429 L303 541 L228 541 L228 576 C228 607 238 616 280 616 C285 616 290 616 303 615 L303 725 C288 727 264 728 232 728 L232 728 Z " />
<glyph glyph-name="g" unicode="g" horiz-adv-x="519" d="M194 555 C60 555 36 419 36 279 C36 100 87 13 188 13 C258 13 297 41 316 93 L318 93 L318 55 C318 -45 304 -78 253 -78 C223 -78 201 -64 196 -34 L46 -34 C46 -134 116 -184 249 -184 C407 -184 474 -116 474 18 L474 541 L324 541 L324 468 L322 468 C299 528 256 555 194 555 L194 555 Z M198 280 C198 358 203 431 258 431 C305 431 318 389 318 285 C318 167 303 131 257 131 C212 131 198 170 198 280 L198 280 Z " />
<glyph glyph-name="h" unicode="h" horiz-adv-x="519" d="M45 714 L45 0 L207 0 L207 355 C207 402 230 431 265 431 C294 431 312 411 312 369 L312 0 L474 0 L474 405 C474 503 430 555 333 555 C275 555 236 534 209 482 L207 482 L207 714 L45 714 Z " />
<glyph glyph-name="i" unicode="i" horiz-adv-x="260" d="M49 722 L49 598 L211 598 L211 722 L49 722 Z M49 541 L49 0 L211 0 L211 541 L49 541 Z " />
<glyph glyph-name="j" unicode="j" horiz-adv-x="260" d="M49 722 L49 598 L211 598 L211 722 L49 722 Z M49 541 L49 0 C49 -49 38 -64 -1 -64 C-7 -64 -12 -64 -23 -63 L-23 -174 C-9 -175 35 -176 41 -176 C166 -176 211 -143 211 -19 L211 541 L49 541 Z " />
<glyph glyph-name="k" unicode="k" horiz-adv-x="519" d="M45 714 L45 0 L207 0 L207 147 L249 204 L350 0 L527 0 L353 323 L508 541 L330 541 L209 347 L207 347 L207 714 L45 714 Z " />
<glyph glyph-name="l" unicode="l" horiz-adv-x="260" d="M49 714 L49 0 L211 0 L211 714 L49 714 Z " />
<glyph glyph-name="m" unicode="m" horiz-adv-x="796" d="M338 555 C280 555 232 527 208 477 L206 477 L206 541 L50 541 L50 0 L212 0 L212 355 C212 402 235 431 270 431 C299 431 317 411 317 369 L317 0 L479 0 L479 356 C479 401 502 431 537 431 C566 431 584 410 584 371 L584 0 L746 0 L746 405 C746 506 700 555 605 555 C544 555 508 535 471 472 C452 529 413 555 338 555 L338 555 Z " />
<glyph glyph-name="n" unicode="n" horiz-adv-x="519" d="M333 555 C276 555 227 527 203 477 L201 477 L201 541 L45 541 L45 0 L207 0 L207 355 C207 402 230 431 265 431 C294 431 312 411 312 368 L312 0 L474 0 L474 404 C474 505 429 555 333 555 L333 555 Z " />
<glyph glyph-name="o" unicode="o" horiz-adv-x="500" d="M250 555 C66 555 27 435 27 269 C27 98 58 -14 250 -14 C433 -14 473 103 473 272 C473 447 439 555 250 555 L250 555 Z M189 271 C189 383 197 449 250 449 C305 449 311 393 311 270 C311 144 303 92 251 92 C204 92 189 135 189 271 L189 271 Z " />
<glyph glyph-name="p" unicode="p" horiz-adv-x="519" d="M320 555 C259 555 217 522 203 475 L201 475 L201 541 L45 541 L45 -176 L207 -176 L207 59 L209 59 C232 9 273 -14 331 -14 C468 -14 487 122 487 274 C487 467 434 555 320 555 L320 555 Z M204 272 C204 400 221 437 262 437 C319 437 325 364 325 267 C325 163 321 104 263 104 C208 104 204 180 204 272 L204 272 Z " />
<glyph glyph-name="q" unicode="q" horiz-adv-x="519" d="M199 555 C85 555 32 467 32 274 C32 114 54 -14 189 -14 C245 -14 287 9 310 59 L312 59 L312 -176 L474 -176 L474 541 L318 541 L318 475 L316 475 C298 525 259 555 199 555 L199 555 Z M194 267 C194 358 198 437 257 437 C305 437 315 380 315 273 C315 182 312 104 256 104 C198 104 194 165 194 267 L194 267 Z " />
<glyph glyph-name="r" unicode="r" horiz-adv-x="370" d="M333 555 C273 555 228 522 203 465 L201 465 L201 541 L45 541 L45 0 L207 0 L207 306 C207 382 252 405 315 405 C334 405 347 403 359 401 L359 553 C350 555 342 555 333 555 L333 555 Z " />
<glyph glyph-name="s" unicode="s" horiz-adv-x="463" d="M235 555 C101 555 29 498 29 392 C29 292 78 260 177 224 C233 203 288 195 288 141 C288 109 268 86 230 86 C191 86 171 110 169 172 L25 172 L25 149 C25 39 87 -14 231 -14 C363 -14 438 51 438 163 C438 278 361 310 278 335 C216 354 179 368 179 405 C179 440 197 455 234 455 C272 455 287 439 287 394 L287 385 L431 385 L431 402 C431 501 362 555 235 555 L235 555 Z " />
<glyph glyph-name="t" unicode="t" horiz-adv-x="315" d="M66 700 L66 541 L-1 541 L-1 429 L66 429 L66 134 C66 11 103 -6 209 -6 C241 -6 270 -4 303 0 L303 108 C290 106 283 106 278 106 C239 106 228 120 228 156 L228 429 L303 429 L303 541 L228 541 L228 700 L66 700 Z " />
<glyph glyph-name="u" unicode="u" horiz-adv-x="519" d="M45 541 L45 136 C45 39 88 -14 186 -14 C241 -14 291 12 316 64 L318 64 L318 0 L474 0 L474 541 L312 541 L312 185 C312 140 289 110 254 110 C224 110 207 132 207 171 L207 541 L45 541 Z " />
<glyph glyph-name="v" unicode="v" horiz-adv-x="481" d="M11 541 L144 0 L336 0 L470 541 L308 541 L244 142 L242 142 L179 541 L11 541 Z " />
<glyph glyph-name="w" unicode="w" horiz-adv-x="741" d="M9 541 L122 0 L308 0 L371 399 L373 399 L432 0 L615 0 L732 541 L576 541 L519 142 L517 142 L460 541 L286 541 L225 142 L223 142 L171 541 L9 541 Z " />
<glyph glyph-name="x" unicode="x" horiz-adv-x="481" d="M13 541 L149 280 L4 0 L166 0 L242 174 L243 173 L315 0 L477 0 L332 280 L467 541 L305 541 L239 380 L175 541 L13 541 Z " />
<glyph glyph-name="y" unicode="y" horiz-adv-x="481" d="M10 541 L163 -4 C155 -44 134 -64 95 -64 C83 -64 67 -63 55 -60 L55 -174 C66 -175 82 -176 119 -176 C245 -176 286 -152 326 -4 L471 541 L309 541 L246 162 L244 162 L178 541 L10 541 Z " />
<glyph glyph-name="z" unicode="z" horiz-adv-x="463" d="M40 541 L40 417 L235 417 L31 124 L31 0 L432 0 L432 124 L217 124 L427 417 L427 541 L40 541 Z " />
<glyph glyph-name="braceleft" unicode="&#x7b;" horiz-adv-x="333" d="M335 714 L233 714 C142 714 91 666 91 580 L91 392 C91 349 54 310 -2 309 L-2 221 C51 221 91 181 91 131 L91 -49 C91 -138 144 -184 233 -184 L335 -184 L335 -72 L295 -72 C259 -72 241 -50 241 1 L241 147 C241 210 213 255 142 264 L142 266 C207 275 241 322 241 376 L241 531 C241 579 259 602 294 602 L335 602 L335 714 Z " />
<glyph glyph-name="bar" unicode="&#x7c;" horiz-adv-x="222" d="M46 728 L46 -14 L176 -14 L176 728 L46 728 Z " />
<glyph glyph-name="braceright" unicode="&#x7d;" horiz-adv-x="333" d="M-2 714 L-2 602 L37 602 C72 602 92 583 92 529 L92 384 C92 318 121 275 191 266 L191 264 C126 255 92 208 92 153 L92 0 C92 -52 73 -72 37 -72 L-2 -72 L-2 -184 L100 -184 C192 -184 242 -135 242 -50 L242 139 C242 183 283 221 335 221 L335 309 C275 310 242 355 242 398 L242 580 C242 668 189 714 99 714 L-2 714 Z " />
<glyph glyph-name="asciitilde" unicode="&#x7e;" horiz-adv-x="600" d="M192 352 C142 352 101 327 69 266 L105 154 C121 187 161 222 195 222 C221 222 243 213 288 189 C335 164 369 154 408 154 C460 154 499 180 531 240 L495 352 C481 322 441 284 405 284 C382 284 360 291 314 316 C271 339 235 352 192 352 L192 352 Z " />
<glyph glyph-name="uni00A0" unicode="&#xa0;" horiz-adv-x="260" d="" />
<glyph glyph-name="exclamdown" unicode="&#xa1;" horiz-adv-x="334" d="M88 544 L88 394 L244 394 L244 544 L88 544 Z M104 340 L86 64 L86 -170 L248 -170 L248 64 L228 340 L104 340 Z " />
<glyph glyph-name="cent" unicode="&#xa2;" horiz-adv-x="520" d="M228 635 L228 555 C106 544 43 473 43 289 C43 126 64 -1 228 -14 L228 -105 L306 -105 L306 -14 C425 -1 476 71 477 220 L327 220 C324 116 311 92 266 92 C211 92 205 154 205 270 C205 394 217 449 266 449 C311 449 327 413 327 337 L477 337 L477 342 C477 478 425 544 306 555 L306 635 L228 635 Z " />
<glyph glyph-name="sterling" unicode="&#xa3;" horiz-adv-x="520" d="M259 708 C127 708 44 636 44 529 C44 487 58 439 88 386 L21 386 L21 292 L128 292 C131 283 133 270 133 256 C133 196 92 135 17 86 L60 -8 C114 19 139 22 164 22 C191 22 215 16 253 5 C290 -6 317 -14 342 -14 C392 -14 447 -3 503 32 L456 135 C425 114 385 98 352 98 C303 98 288 121 244 121 C220 121 202 115 194 110 L192 112 C266 169 295 212 295 264 C295 277 292 287 290 292 L428 292 L428 386 L256 386 C219 471 206 495 206 529 C206 579 234 602 277 602 C320 602 342 573 342 515 L342 502 L492 502 L492 504 C492 642 417 708 259 708 L259 708 Z " />
<glyph glyph-name="currency" unicode="&#xa4;" horiz-adv-x="520" d="M68 605 L2 539 L56 485 C29 446 14 399 14 347 C14 295 29 248 56 209 L2 155 L68 89 L123 144 C163 115 209 101 259 101 C312 101 359 116 398 143 L452 89 L518 155 L463 210 C493 252 506 297 506 347 C506 398 492 444 464 485 L518 539 L452 605 L398 551 C359 578 312 593 259 593 C209 593 163 579 122 551 L68 605 Z M138 347 C138 420 187 475 259 475 C338 475 382 415 382 347 C382 275 335 219 259 219 C187 219 138 274 138 347 L138 347 Z " />
<glyph glyph-name="yen" unicode="&#xa5;" horiz-adv-x="520" d="M6 694 L135 394 L37 394 L37 300 L174 300 L182 281 L182 226 L37 226 L37 132 L182 132 L182 0 L338 0 L338 132 L483 132 L483 226 L338 226 L338 281 L346 300 L483 300 L483 394 L385 394 L514 694 L349 694 L263 437 L261 437 L177 694 L6 694 Z " />
<glyph glyph-name="brokenbar" unicode="&#xa6;" horiz-adv-x="222" d="M46 728 L46 457 L176 457 L176 728 L46 728 Z M46 257 L46 -14 L176 -14 L176 257 L46 257 Z " />
<glyph glyph-name="section" unicode="&#xa7;" horiz-adv-x="519" d="M259 728 C139 728 52 676 52 558 C52 504 71 469 111 443 C61 415 26 358 26 299 C26 203 103 157 200 114 C271 82 311 59 311 21 C311 -22 293 -46 257 -46 C224 -46 199 -23 199 22 L199 41 L43 41 L43 17 C43 -93 121 -152 256 -152 C403 -152 473 -93 473 22 C473 71 454 115 417 150 C471 194 493 238 493 298 C493 396 421 443 321 487 C257 515 208 536 208 573 C208 598 223 622 264 622 C318 622 321 585 321 568 L321 554 L471 554 L471 562 C471 667 416 728 259 728 L259 728 Z M156 321 C156 346 176 372 207 388 C230 377 239 375 281 355 C329 332 363 307 363 275 C363 253 349 227 323 206 C293 223 262 236 218 256 C173 276 156 295 156 321 L156 321 Z " />
<glyph glyph-name="dieresis" unicode="&#xa8;" horiz-adv-x="260" d="M-20 735 L-20 605 L104 605 L104 735 L-20 735 Z M156 735 L156 605 L280 605 L280 735 L156 735 Z " />
<glyph glyph-name="copyright" unicode="&#xa9;" horiz-adv-x="800" d="M400 728 C190 728 29 557 29 357 C29 156 191 -14 400 -14 C601 -14 771 148 771 357 C771 562 605 728 400 728 L400 728 Z M135 357 C135 512 255 628 399 628 C548 628 665 510 665 357 C665 201 544 86 400 86 C251 86 135 206 135 357 L135 357 Z M412 579 C284 579 202 490 202 357 C202 231 283 135 415 135 C504 135 583 194 599 294 L495 294 C489 252 450 229 406 229 C346 229 302 288 302 357 C302 431 342 485 407 485 C448 485 482 466 496 423 L594 423 C580 521 508 579 412 579 L412 579 Z " />
<glyph glyph-name="ordfeminine" unicode="&#xaa;" horiz-adv-x="325" d="M164 708 C86 708 15 700 14 596 L126 596 C127 624 138 636 160 636 C179 636 189 625 189 608 C189 578 183 575 115 562 C72 554 12 532 12 461 C12 398 41 367 109 367 C148 367 181 384 186 411 L188 411 C188 398 191 385 198 374 L313 374 C302 388 301 417 301 440 L301 611 C301 678 267 708 164 708 L164 708 Z M124 474 C124 492 131 504 151 511 C171 518 179 522 189 531 L189 477 C189 451 170 439 153 439 C133 439 124 455 124 474 L124 474 Z " />
<glyph glyph-name="guillemotleft" unicode="&#xab;" horiz-adv-x="444" d="M46 386 L46 192 L202 82 L202 232 L119 289 L202 346 L202 496 L46 386 Z M242 386 L242 192 L398 82 L398 232 L315 289 L398 346 L398 496 L242 386 Z " />
<glyph glyph-name="logicalnot" unicode="&#xac;" horiz-adv-x="600" d="M47 427 L47 297 L423 297 L423 98 L553 98 L553 427 L47 427 Z " />
<glyph glyph-name="uni00AD" unicode="&#xad;" horiz-adv-x="370" d="M34 357 L34 221 L336 221 L336 357 L34 357 Z " />
<glyph glyph-name="registered" unicode="&#xae;" horiz-adv-x="800" d="M400 728 C194 728 29 562 29 357 C29 153 194 -14 400 -14 C604 -14 771 151 771 357 C771 567 600 728 400 728 L400 728 Z M135 357 C135 512 255 628 399 628 C549 628 665 509 665 357 C665 201 544 86 400 86 C248 86 135 209 135 357 L135 357 Z M242 563 L242 150 L336 150 L336 314 L371 314 L464 150 L568 150 L465 318 C528 326 564 371 564 434 C564 525 504 563 405 563 L242 563 Z M334 386 L334 491 L396 491 C449 491 470 472 470 439 C470 403 453 386 405 386 L334 386 Z " />
<glyph glyph-name="macron" unicode="&#xaf;" horiz-adv-x="260" d="M-25 714 L-25 626 L285 626 L285 714 L-25 714 Z " />
<glyph glyph-name="degree" unicode="&#xb0;" horiz-adv-x="400" d="M200 708 C114 708 48 640 48 556 C48 472 114 404 200 404 C285 404 352 470 352 556 C352 642 284 708 200 708 L200 708 Z M126 556 C126 597 159 630 200 630 C241 630 274 597 274 556 C274 513 240 482 200 482 C160 482 126 514 126 556 L126 556 Z " />
<glyph glyph-name="plusminus" unicode="&#xb1;" horiz-adv-x="600" d="M235 506 L235 401 L47 401 L47 271 L235 271 L235 166 L365 166 L365 271 L553 271 L553 401 L365 401 L365 506 L235 506 Z M47 130 L47 0 L553 0 L553 130 L47 130 Z " />
<glyph glyph-name="twosuperior" unicode="&#xb2;" horiz-adv-x="370" d="M187 828 C89 828 27 797 27 701 L27 682 L145 682 L145 687 C145 730 157 750 182 750 C203 750 215 737 215 704 C215 673 213 653 141 595 C65 534 28 470 25 400 L341 400 L341 494 L183 494 C192 511 214 529 241 548 C336 613 345 646 345 705 C345 776 316 828 187 828 L187 828 Z " />
<glyph glyph-name="threesuperior" unicode="&#xb3;" horiz-adv-x="370" d="M190 828 C80 828 30 798 29 698 L147 698 C147 733 162 750 182 750 C200 750 212 736 212 712 C212 658 176 658 161 658 L135 658 L135 580 L163 580 C205 580 220 568 220 523 C220 493 210 471 183 471 C154 471 150 515 150 535 L20 535 C20 422 75 393 188 393 C299 393 350 439 350 528 C350 584 328 611 265 622 L265 624 C314 632 342 663 342 710 C342 793 299 828 190 828 L190 828 Z " />
<glyph glyph-name="acute" unicode="&#xb4;" horiz-adv-x="260" d="M119 741 L69 599 L175 599 L275 741 L119 741 Z " />
<glyph glyph-name="mu" unicode="&#xb5;" horiz-adv-x="528" d="M37 539 L37 -176 L198 -176 L198 -6 C205 -11 215 -14 227 -14 C255 -14 294 5 316 65 L319 65 C336 13 374 -14 442 -14 C475 -14 502 -6 520 6 L520 96 C509 91 499 88 490 88 C470 88 467 101 467 159 L467 539 L305 539 L305 191 C305 141 284 109 245 109 C211 109 199 133 199 175 L199 539 L37 539 Z " />
<glyph glyph-name="paragraph" unicode="&#xb6;" horiz-adv-x="600" d="M519 714 L215 714 C116 714 37 650 37 522 C37 416 106 339 193 337 L193 -138 L323 -138 L323 614 L389 614 L389 -138 L519 -138 L519 714 Z " />
<glyph glyph-name="periodcentered" unicode="&#xb7;" horiz-adv-x="260" d="M130 376 C71 376 27 329 27 273 C27 217 71 170 130 170 C188 170 233 217 233 273 C233 329 189 376 130 376 L130 376 Z " />
<glyph glyph-name="cedilla" unicode="&#xb8;" horiz-adv-x="260" d="M55 -90 L78 -109 C88 -105 97 -103 107 -103 C132 -103 153 -117 153 -134 C153 -156 138 -168 107 -168 C86 -168 60 -164 34 -153 L13 -205 C49 -219 88 -224 126 -224 C210 -224 247 -181 247 -133 C247 -90 216 -56 157 -56 C146 -56 138 -57 131 -60 L166 0 L107 0 L55 -90 Z " />
<glyph glyph-name="onesuperior" unicode="&#xb9;" horiz-adv-x="370" d="M290 828 L200 828 C190 786 155 764 91 764 L79 764 L79 686 L160 686 L160 400 L290 400 L290 828 Z " />
<glyph glyph-name="ordmasculine" unicode="&#xba;" horiz-adv-x="325" d="M163 708 C30 708 10 632 10 536 C10 442 25 367 163 367 C286 367 315 432 315 539 C315 642 294 708 163 708 L163 708 Z M128 538 C128 612 137 636 163 636 C190 636 197 611 197 538 C197 462 190 439 163 439 C136 439 128 466 128 538 L128 538 Z " />
<glyph glyph-name="guillemotright" unicode="&#xbb;" horiz-adv-x="444" d="M46 496 L46 346 L129 287 L46 232 L46 82 L202 192 L202 386 L46 496 Z M242 346 L325 287 L242 232 L242 82 L398 192 L398 386 L242 496 L242 346 Z " />
<glyph glyph-name="onequarter" unicode="&#xbc;" horiz-adv-x="880" d="M622 420 L481 168 L481 74 L640 74 L640 0 L764 0 L764 74 L808 74 L808 168 L764 168 L764 420 L622 420 Z M638 296 L640 296 L640 168 L571 168 L638 296 Z M283 708 L193 708 C183 666 148 644 84 644 L72 644 L72 566 L153 566 L153 280 L283 280 L283 708 Z M565 725 L165 -31 L264 -31 L664 725 L565 725 Z " />
<glyph glyph-name="onehalf" unicode="&#xbd;" horiz-adv-x="880" d="M283 708 L193 708 C183 666 148 644 84 644 L72 644 L72 566 L153 566 L153 280 L283 280 L283 708 Z M565 725 L165 -31 L264 -31 L664 725 L565 725 Z M650 428 C552 428 490 397 490 301 L490 282 L608 282 L608 287 C608 330 620 350 645 350 C666 350 678 337 678 304 C678 273 676 253 604 195 C528 134 491 70 488 0 L804 0 L804 94 L646 94 C655 111 677 129 704 148 C799 213 808 246 808 305 C808 376 779 428 650 428 L650 428 Z " />
<glyph glyph-name="threequarters" unicode="&#xbe;" horiz-adv-x="880" d="M648 420 L507 168 L507 74 L666 74 L666 0 L790 0 L790 74 L834 74 L834 168 L790 168 L790 420 L648 420 Z M664 296 L666 296 L666 168 L597 168 L664 296 Z M216 708 C106 708 56 678 55 578 L173 578 C173 613 188 630 208 630 C226 630 238 616 238 592 C238 538 202 538 187 538 L161 538 L161 460 L189 460 C231 460 246 448 246 403 C246 373 236 351 209 351 C180 351 176 395 176 415 L46 415 C46 302 101 273 214 273 C325 273 376 319 376 408 C376 464 354 491 291 502 L291 504 C340 512 368 543 368 590 C368 673 325 708 216 708 L216 708 Z M598 725 L198 -31 L297 -31 L697 725 L598 725 Z " />
<glyph glyph-name="questiondown" unicode="&#xbf;" horiz-adv-x="500" d="M181 544 L181 394 L337 394 L337 544 L181 544 Z M184 340 L184 312 C184 271 170 249 129 205 C78 149 39 102 39 10 C39 -114 116 -184 252 -184 C387 -184 461 -111 461 34 L461 53 L311 53 L311 51 C311 -41 293 -78 250 -78 C211 -78 195 -55 195 -5 C195 55 218 88 259 127 C321 185 334 225 334 315 L334 340 L184 340 Z " />
<glyph glyph-name="Agrave" unicode="&#xc0;" horiz-adv-x="574" d="M184 714 L2 0 L176 0 L201 136 L372 136 L398 0 L572 0 L394 714 L184 714 Z M286 584 L347 266 L225 266 L284 584 L286 584 Z M150 901 L250 759 L356 759 L306 901 L150 901 Z " />
<glyph glyph-name="Aacute" unicode="&#xc1;" horiz-adv-x="574" d="M184 714 L2 0 L176 0 L201 136 L372 136 L398 0 L572 0 L394 714 L184 714 Z M286 584 L347 266 L225 266 L284 584 L286 584 Z M282 901 L232 759 L338 759 L438 901 L282 901 Z " />
<glyph glyph-name="Acircumflex" unicode="&#xc2;" horiz-adv-x="574" d="M184 714 L2 0 L176 0 L201 136 L372 136 L398 0 L572 0 L394 714 L184 714 Z M286 584 L347 266 L225 266 L284 584 L286 584 Z M201 901 L130 759 L249 759 L285 840 L322 759 L440 759 L369 901 L201 901 Z " />
<glyph glyph-name="Atilde" unicode="&#xc3;" horiz-adv-x="574" d="M184 714 L2 0 L176 0 L201 136 L372 136 L398 0 L572 0 L394 714 L184 714 Z M286 584 L347 266 L225 266 L284 584 L286 584 Z M219 898 C167 898 133 847 125 762 L202 762 C208 784 218 792 231 792 C242 792 255 787 281 777 C308 767 328 762 349 762 C406 762 441 810 449 898 L369 898 C365 874 356 868 338 868 C322 868 305 873 279 883 C254 893 238 898 219 898 L219 898 Z " />
<glyph glyph-name="Adieresis" unicode="&#xc4;" horiz-adv-x="574" d="M184 714 L2 0 L176 0 L201 136 L372 136 L398 0 L572 0 L394 714 L184 714 Z M286 584 L347 266 L225 266 L284 584 L286 584 Z M137 895 L137 765 L261 765 L261 895 L137 895 Z M313 895 L313 765 L437 765 L437 895 L313 895 Z " />
<glyph glyph-name="Aring" unicode="&#xc5;" horiz-adv-x="574" d="M184 714 L2 0 L176 0 L201 136 L372 136 L398 0 L572 0 L394 714 L184 714 Z M286 584 L347 266 L225 266 L284 584 L286 584 Z M290 967 C221 967 169 917 169 850 C169 783 220 735 290 735 C359 735 411 782 411 850 C411 916 361 967 290 967 L290 967 Z M230 850 C230 883 257 910 289 910 C325 910 350 882 350 850 C350 816 322 790 290 790 C257 790 230 817 230 850 L230 850 Z " />
<glyph glyph-name="AE" unicode="&#xc6;" horiz-adv-x="796" d="M279 714 L9 0 L183 0 L227 136 L377 136 L377 0 L767 0 L767 136 L533 136 L533 299 L743 299 L743 435 L533 435 L533 578 L758 578 L758 714 L279 714 Z M369 578 L377 578 L377 266 L269 266 L369 578 Z " />
<glyph glyph-name="Ccedilla" unicode="&#xc7;" horiz-adv-x="537" d="M284 728 C49 728 36 549 36 361 C36 184 43 -3 241 -13 L197 -90 L220 -109 C228 -106 237 -103 249 -103 C274 -103 295 -117 295 -134 C295 -156 280 -168 249 -168 C231 -168 205 -165 176 -153 L155 -205 C191 -219 231 -224 269 -224 C344 -224 389 -187 389 -133 C389 -91 360 -56 299 -56 C288 -56 280 -57 273 -60 L300 -13 C456 -2 519 77 519 255 L519 280 L357 280 L357 268 C357 150 341 98 287 98 C215 98 210 159 210 364 C210 545 214 616 283 616 C334 616 351 579 351 471 L351 466 L513 466 L513 495 C513 657 440 728 284 728 L284 728 Z " />
<glyph glyph-name="Egrave" unicode="&#xc8;" horiz-adv-x="500" d="M52 714 L52 0 L476 0 L476 136 L220 136 L220 299 L450 299 L450 435 L220 435 L220 578 L465 578 L465 714 L52 714 Z M135 901 L235 759 L341 759 L291 901 L135 901 Z " />
<glyph glyph-name="Eacute" unicode="&#xc9;" horiz-adv-x="500" d="M52 714 L52 0 L476 0 L476 136 L220 136 L220 299 L450 299 L450 435 L220 435 L220 578 L465 578 L465 714 L52 714 Z M251 901 L201 759 L307 759 L407 901 L251 901 Z " />
<glyph glyph-name="Ecircumflex" unicode="&#xca;" horiz-adv-x="500" d="M52 714 L52 0 L476 0 L476 136 L220 136 L220 299 L450 299 L450 435 L220 435 L220 578 L465 578 L465 714 L52 714 Z M174 901 L103 759 L222 759 L258 840 L295 759 L413 759 L342 901 L174 901 Z " />
<glyph glyph-name="Edieresis" unicode="&#xcb;" horiz-adv-x="500" d="M52 714 L52 0 L476 0 L476 136 L220 136 L220 299 L450 299 L450 435 L220 435 L220 578 L465 578 L465 714 L52 714 Z M107 895 L107 765 L231 765 L231 895 L107 895 Z M283 895 L283 765 L407 765 L407 895 L283 895 Z " />
<glyph glyph-name="Igrave" unicode="&#xcc;" horiz-adv-x="278" d="M55 714 L55 0 L223 0 L223 714 L55 714 Z M15 901 L115 759 L221 759 L171 901 L15 901 Z " />
<glyph glyph-name="Iacute" unicode="&#xcd;" horiz-adv-x="278" d="M55 714 L55 0 L223 0 L223 714 L55 714 Z M106 901 L56 759 L162 759 L262 901 L106 901 Z " />
<glyph glyph-name="Icircumflex" unicode="&#xce;" horiz-adv-x="278" d="M55 714 L55 0 L223 0 L223 714 L55 714 Z M55 901 L-16 759 L103 759 L139 840 L176 759 L294 759 L223 901 L55 901 Z " />
<glyph glyph-name="Idieresis" unicode="&#xcf;" horiz-adv-x="278" d="M55 714 L55 0 L223 0 L223 714 L55 714 Z M-11 895 L-11 765 L113 765 L113 895 L-11 895 Z M165 895 L165 765 L289 765 L289 895 L165 895 Z " />
<glyph glyph-name="Eth" unicode="&#xd0;" horiz-adv-x="574" d="M52 714 L52 429 L0 429 L0 317 L52 317 L52 0 L280 0 C469 0 538 82 538 371 C538 645 446 714 299 714 L52 714 Z M220 590 L264 590 C352 590 370 553 370 370 C370 128 333 124 250 124 L220 124 L220 317 L282 317 L282 429 L220 429 L220 590 Z " />
<glyph glyph-name="Ntilde" unicode="&#xd1;" horiz-adv-x="593" d="M52 714 L52 0 L202 0 L202 492 L204 492 L351 0 L541 0 L541 714 L385 714 L385 250 L383 250 L245 714 L52 714 Z M231 898 C179 898 145 847 137 762 L214 762 C220 784 230 792 243 792 C254 792 267 787 293 777 C320 767 340 762 361 762 C418 762 453 810 461 898 L381 898 C377 874 368 868 350 868 C334 868 317 873 291 883 C266 893 250 898 231 898 L231 898 Z " />
<glyph glyph-name="Ograve" unicode="&#xd2;" horiz-adv-x="574" d="M287 728 C60 728 36 573 36 357 C36 136 63 -14 287 -14 C520 -14 538 151 538 357 C538 564 520 728 287 728 L287 728 Z M210 357 C210 546 217 616 286 616 C355 616 364 549 364 357 C364 167 356 98 286 98 C217 98 210 167 210 357 L210 357 Z M140 901 L240 759 L346 759 L296 901 L140 901 Z " />
<glyph glyph-name="Oacute" unicode="&#xd3;" horiz-adv-x="574" d="M287 728 C60 728 36 573 36 357 C36 136 63 -14 287 -14 C520 -14 538 151 538 357 C538 564 520 728 287 728 L287 728 Z M210 357 C210 546 217 616 286 616 C355 616 364 549 364 357 C364 167 356 98 286 98 C217 98 210 167 210 357 L210 357 Z M280 901 L230 759 L336 759 L436 901 L280 901 Z " />
<glyph glyph-name="Ocircumflex" unicode="&#xd4;" horiz-adv-x="574" d="M287 728 C60 728 36 573 36 357 C36 136 63 -14 287 -14 C520 -14 538 151 538 357 C538 564 520 728 287 728 L287 728 Z M210 357 C210 546 217 616 286 616 C355 616 364 549 364 357 C364 167 356 98 286 98 C217 98 210 167 210 357 L210 357 Z M203 901 L132 759 L251 759 L287 840 L324 759 L442 759 L371 901 L203 901 Z " />
<glyph glyph-name="Otilde" unicode="&#xd5;" horiz-adv-x="574" d="M287 728 C60 728 36 573 36 357 C36 136 63 -14 287 -14 C520 -14 538 151 538 357 C538 564 520 728 287 728 L287 728 Z M210 357 C210 546 217 616 286 616 C355 616 364 549 364 357 C364 167 356 98 286 98 C217 98 210 167 210 357 L210 357 Z M218 898 C166 898 132 847 124 762 L201 762 C207 784 217 792 230 792 C241 792 254 787 280 777 C307 767 327 762 348 762 C405 762 440 810 448 898 L368 898 C364 874 355 868 337 868 C321 868 304 873 278 883 C253 893 237 898 218 898 L218 898 Z " />
<glyph glyph-name="Odieresis" unicode="&#xd6;" horiz-adv-x="574" d="M287 728 C60 728 36 573 36 357 C36 136 63 -14 287 -14 C520 -14 538 151 538 357 C538 564 520 728 287 728 L287 728 Z M210 357 C210 546 217 616 286 616 C355 616 364 549 364 357 C364 167 356 98 286 98 C217 98 210 167 210 357 L210 357 Z M135 895 L135 765 L259 765 L259 895 L135 895 Z M311 895 L311 765 L435 765 L435 895 L311 895 Z " />
<glyph glyph-name="multiply" unicode="&#xd7;" horiz-adv-x="600" d="M300 342 L147 496 L57 406 L211 253 L57 100 L147 10 L300 164 L453 10 L543 100 L389 253 L543 406 L453 496 L300 342 Z " />
<glyph glyph-name="Oslash" unicode="&#xd8;" horiz-adv-x="574" d="M429 772 L401 709 C371 722 333 728 287 728 C63 728 36 580 36 357 C36 171 61 94 111 44 L79 -29 L145 -58 L173 5 C201 -8 240 -14 287 -14 C521 -14 538 152 538 357 C538 463 537 600 463 670 L495 743 L429 772 Z M286 616 C313 616 332 606 344 577 L213 275 L211 275 C210 294 210 308 210 334 L210 374 C210 554 221 616 286 616 L286 616 Z M363 438 L364 434 L364 343 C364 154 351 98 286 98 C255 98 239 113 230 136 L361 438 L363 438 Z " />
<glyph glyph-name="Ugrave" unicode="&#xd9;" horiz-adv-x="556" d="M43 714 L43 230 C43 73 104 -14 278 -14 C441 -14 513 61 513 230 L513 714 L345 714 L345 187 C345 131 323 98 278 98 C232 98 211 133 211 187 L211 714 L43 714 Z M142 901 L242 759 L348 759 L298 901 L142 901 Z " />
<glyph glyph-name="Uacute" unicode="&#xda;" horiz-adv-x="556" d="M43 714 L43 230 C43 73 104 -14 278 -14 C441 -14 513 61 513 230 L513 714 L345 714 L345 187 C345 131 323 98 278 98 C232 98 211 133 211 187 L211 714 L43 714 Z M275 900 L225 758 L331 758 L431 900 L275 900 Z " />
<glyph glyph-name="Ucircumflex" unicode="&#xdb;" horiz-adv-x="556" d="M43 714 L43 230 C43 73 104 -14 278 -14 C441 -14 513 61 513 230 L513 714 L345 714 L345 187 C345 131 323 98 278 98 C232 98 211 133 211 187 L211 714 L43 714 Z M195 901 L124 759 L243 759 L279 840 L316 759 L434 759 L363 901 L195 901 Z " />
<glyph glyph-name="Udieresis" unicode="&#xdc;" horiz-adv-x="556" d="M43 714 L43 230 C43 73 104 -14 278 -14 C441 -14 513 61 513 230 L513 714 L345 714 L345 187 C345 131 323 98 278 98 C232 98 211 133 211 187 L211 714 L43 714 Z M129 895 L129 765 L253 765 L253 895 L129 895 Z M305 895 L305 765 L429 765 L429 895 L305 895 Z " />
<glyph glyph-name="Yacute" unicode="&#xdd;" horiz-adv-x="536" d="M3 714 L184 281 L184 0 L352 0 L352 281 L533 714 L353 714 L271 449 L269 449 L189 714 L3 714 Z M268 901 L218 759 L324 759 L424 901 L268 901 Z " />
<glyph glyph-name="Thorn" unicode="&#xde;" horiz-adv-x="556" d="M52 714 L52 0 L220 0 L220 151 L293 151 C436 151 523 215 523 369 C523 489 464 586 313 586 L220 586 L220 714 L52 714 Z M220 462 L262 462 C314 462 349 440 349 365 C349 302 320 275 266 275 L220 275 L220 462 Z " />
<glyph glyph-name="germandbls" unicode="&#xdf;" horiz-adv-x="537" d="M276 728 C106 728 49 661 49 503 L49 0 L211 0 L211 538 C211 594 228 622 266 622 C309 622 324 592 324 540 C324 487 308 455 267 455 L250 455 L250 343 L265 343 C323 343 341 312 341 229 C341 136 322 106 274 106 C268 106 253 107 249 108 L249 0 C264 -4 290 -6 309 -6 C433 -6 503 38 503 225 C503 339 462 397 392 403 L392 405 C455 423 486 467 486 549 C486 673 417 728 276 728 L276 728 Z " />
<glyph glyph-name="agrave" unicode="&#xe0;" horiz-adv-x="500" d="M252 555 C134 555 43 524 42 375 L186 375 C187 431 207 449 245 449 C281 449 296 428 296 395 C296 362 290 354 275 345 C263 338 221 329 188 321 C137 309 98 295 68 266 C43 241 27 207 27 150 C27 42 72 -14 171 -14 C226 -14 275 14 298 62 L300 62 C301 37 303 16 309 0 L465 0 C451 19 446 48 446 111 L446 395 C446 514 383 555 252 555 L252 555 Z M183 167 C183 218 201 225 242 242 C256 248 282 261 296 273 C296 263 295 222 295 171 C295 152 291 98 230 98 C200 98 183 122 183 167 L183 167 Z M108 741 L208 599 L314 599 L264 741 L108 741 Z " />
<glyph glyph-name="aacute" unicode="&#xe1;" horiz-adv-x="500" d="M252 555 C134 555 43 524 42 375 L186 375 C187 431 207 449 245 449 C281 449 296 428 296 395 C296 362 290 354 275 345 C263 338 221 329 188 321 C137 309 98 295 68 266 C43 241 27 207 27 150 C27 42 72 -14 171 -14 C226 -14 275 14 298 62 L300 62 C301 37 303 16 309 0 L465 0 C451 19 446 48 446 111 L446 395 C446 514 383 555 252 555 L252 555 Z M183 167 C183 218 201 225 242 242 C256 248 282 261 296 273 C296 263 295 222 295 171 C295 152 291 98 230 98 C200 98 183 122 183 167 L183 167 Z M246 741 L196 599 L302 599 L402 741 L246 741 Z " />
<glyph glyph-name="acircumflex" unicode="&#xe2;" horiz-adv-x="500" d="M252 555 C134 555 43 524 42 375 L186 375 C187 431 207 449 245 449 C281 449 296 428 296 395 C296 362 290 354 275 345 C263 338 221 329 188 321 C137 309 98 295 68 266 C43 241 27 207 27 150 C27 42 72 -14 171 -14 C226 -14 275 14 298 62 L300 62 C301 37 303 16 309 0 L465 0 C451 19 446 48 446 111 L446 395 C446 514 383 555 252 555 L252 555 Z M183 167 C183 218 201 225 242 242 C256 248 282 261 296 273 C296 263 295 222 295 171 C295 152 291 98 230 98 C200 98 183 122 183 167 L183 167 Z M166 741 L95 599 L214 599 L250 680 L287 599 L405 599 L334 741 L166 741 Z " />
<glyph glyph-name="atilde" unicode="&#xe3;" horiz-adv-x="500" d="M252 555 C134 555 43 524 42 375 L186 375 C187 431 207 449 245 449 C281 449 296 428 296 395 C296 362 290 354 275 345 C263 338 221 329 188 321 C137 309 98 295 68 266 C43 241 27 207 27 150 C27 42 72 -14 171 -14 C226 -14 275 14 298 62 L300 62 C301 37 303 16 309 0 L465 0 C451 19 446 48 446 111 L446 395 C446 514 383 555 252 555 L252 555 Z M183 167 C183 218 201 225 242 242 C256 248 282 261 296 273 C296 263 295 222 295 171 C295 152 291 98 230 98 C200 98 183 122 183 167 L183 167 Z M183 738 C132 738 97 688 89 602 L166 602 C172 624 183 632 195 632 C208 632 221 626 245 617 C271 607 293 602 313 602 C370 602 405 650 413 738 L333 738 C329 714 320 708 302 708 C287 708 275 711 246 722 C220 732 205 738 183 738 L183 738 Z " />
<glyph glyph-name="adieresis" unicode="&#xe4;" horiz-adv-x="500" d="M252 555 C134 555 43 524 42 375 L186 375 C187 431 207 449 245 449 C281 449 296 428 296 395 C296 362 290 354 275 345 C263 338 221 329 188 321 C137 309 98 295 68 266 C43 241 27 207 27 150 C27 42 72 -14 171 -14 C226 -14 275 14 298 62 L300 62 C301 37 303 16 309 0 L465 0 C451 19 446 48 446 111 L446 395 C446 514 383 555 252 555 L252 555 Z M183 167 C183 218 201 225 242 242 C256 248 282 261 296 273 C296 263 295 222 295 171 C295 152 291 98 230 98 C200 98 183 122 183 167 L183 167 Z M100 735 L100 605 L224 605 L224 735 L100 735 Z M276 735 L276 605 L400 605 L400 735 L276 735 Z " />
<glyph glyph-name="aring" unicode="&#xe5;" horiz-adv-x="500" d="M252 555 C134 555 43 524 42 375 L186 375 C187 431 207 449 245 449 C281 449 296 428 296 395 C296 362 290 354 275 345 C263 338 221 329 188 321 C137 309 98 295 68 266 C43 241 27 207 27 150 C27 42 72 -14 171 -14 C226 -14 275 14 298 62 L300 62 C301 37 303 16 309 0 L465 0 C451 19 446 48 446 111 L446 395 C446 514 383 555 252 555 L252 555 Z M183 167 C183 218 201 225 242 242 C256 248 282 261 296 273 C296 263 295 222 295 171 C295 152 291 98 230 98 C200 98 183 122 183 167 L183 167 Z M247 811 C179 811 126 762 126 694 C126 628 175 579 247 579 C317 579 368 627 368 694 C368 761 316 811 247 811 L247 811 Z M187 694 C187 728 215 754 246 754 C282 754 307 726 307 694 C307 663 282 634 247 634 C215 634 187 660 187 694 L187 694 Z " />
<glyph glyph-name="ae" unicode="&#xe6;" horiz-adv-x="741" d="M243 555 C111 555 42 502 42 375 L186 375 C187 430 207 449 245 449 C278 449 296 431 296 395 C296 374 294 359 281 350 C267 340 238 332 184 320 C97 300 68 281 45 235 C33 212 27 181 27 150 C27 38 81 -14 186 -14 C264 -14 311 14 335 75 C358 13 410 -14 504 -14 C641 -14 711 52 714 185 L564 185 C560 110 544 86 505 86 C453 86 446 137 446 217 L446 244 L719 244 L719 282 C719 475 656 555 527 555 C464 555 414 539 384 494 C365 532 314 555 243 555 L243 555 Z M446 338 L446 344 C446 421 461 455 507 455 C544 455 563 432 563 344 L563 338 L446 338 Z M183 167 C183 218 201 225 242 242 C259 249 283 262 296 273 C296 263 295 206 295 179 C295 156 295 98 230 98 C200 98 183 123 183 167 L183 167 Z " />
<glyph glyph-name="ccedilla" unicode="&#xe7;" horiz-adv-x="481" d="M248 555 C99 555 27 479 27 289 C27 166 33 1 214 -13 L170 -90 L193 -109 C206 -104 213 -103 222 -103 C246 -103 268 -116 268 -134 C268 -157 252 -168 222 -168 C205 -168 178 -165 149 -153 L128 -205 C163 -219 204 -224 242 -224 C323 -224 362 -182 362 -133 C362 -92 333 -56 272 -56 C261 -56 253 -57 246 -60 L273 -13 C404 -4 459 65 461 220 L311 220 C308 121 296 92 250 92 C199 92 189 140 189 270 C189 382 197 449 250 449 C293 449 311 417 311 337 L461 337 L461 341 C461 492 392 555 248 555 L248 555 Z " />
<glyph glyph-name="egrave" unicode="&#xe8;" horiz-adv-x="481" d="M247 555 C77 555 27 451 27 289 C27 122 47 -14 247 -14 C384 -14 454 53 457 185 L307 185 C303 113 289 86 248 86 C207 86 189 116 189 208 L189 244 L462 244 L462 263 C462 447 432 555 247 555 L247 555 Z M189 338 L189 345 C189 423 205 455 251 455 C294 455 306 417 306 343 L306 338 L189 338 Z M101 741 L201 599 L307 599 L257 741 L101 741 Z " />
<glyph glyph-name="eacute" unicode="&#xe9;" horiz-adv-x="481" d="M247 555 C77 555 27 451 27 289 C27 122 47 -14 247 -14 C384 -14 454 53 457 185 L307 185 C303 113 289 86 248 86 C207 86 189 116 189 208 L189 244 L462 244 L462 263 C462 447 432 555 247 555 L247 555 Z M189 338 L189 345 C189 423 205 455 251 455 C294 455 306 417 306 343 L306 338 L189 338 Z M245 741 L195 599 L301 599 L401 741 L245 741 Z " />
<glyph glyph-name="ecircumflex" unicode="&#xea;" horiz-adv-x="481" d="M247 555 C77 555 27 451 27 289 C27 122 47 -14 247 -14 C384 -14 454 53 457 185 L307 185 C303 113 289 86 248 86 C207 86 189 116 189 208 L189 244 L462 244 L462 263 C462 447 432 555 247 555 L247 555 Z M189 338 L189 345 C189 423 205 455 251 455 C294 455 306 417 306 343 L306 338 L189 338 Z M166 741 L95 599 L214 599 L250 680 L287 599 L405 599 L334 741 L166 741 Z " />
<glyph glyph-name="edieresis" unicode="&#xeb;" horiz-adv-x="481" d="M247 555 C77 555 27 451 27 289 C27 122 47 -14 247 -14 C384 -14 454 53 457 185 L307 185 C303 113 289 86 248 86 C207 86 189 116 189 208 L189 244 L462 244 L462 263 C462 447 432 555 247 555 L247 555 Z M189 338 L189 345 C189 423 205 455 251 455 C294 455 306 417 306 343 L306 338 L189 338 Z M99 735 L99 605 L223 605 L223 735 L99 735 Z M275 735 L275 605 L399 605 L399 735 L275 735 Z " />
<glyph glyph-name="igrave" unicode="&#xec;" horiz-adv-x="260" d="M49 541 L49 0 L211 0 L211 541 L49 541 Z M4 741 L104 599 L210 599 L160 741 L4 741 Z " />
<glyph glyph-name="iacute" unicode="&#xed;" horiz-adv-x="260" d="M49 541 L49 0 L211 0 L211 541 L49 541 Z M100 741 L50 599 L156 599 L256 741 L100 741 Z " />
<glyph glyph-name="icircumflex" unicode="&#xee;" horiz-adv-x="260" d="M49 541 L49 0 L211 0 L211 541 L49 541 Z M48 741 L-23 599 L96 599 L132 680 L169 599 L287 599 L216 741 L48 741 Z " />
<glyph glyph-name="idieresis" unicode="&#xef;" horiz-adv-x="260" d="M49 541 L49 0 L211 0 L211 541 L49 541 Z M-20 735 L-20 605 L104 605 L104 735 L-20 735 Z M156 735 L156 605 L280 605 L280 735 L156 735 Z " />
<glyph glyph-name="eth" unicode="&#xf0;" horiz-adv-x="500" d="M74 718 C93 702 116 681 132 665 L51 616 L101 568 L181 616 C232 564 261 529 278 506 L276 504 C248 521 226 526 200 526 C85 526 27 439 27 254 C27 94 57 -14 250 -14 C433 -14 473 98 473 257 C473 355 460 422 435 486 C410 551 364 616 296 685 L377 732 L323 779 L247 733 C242 738 234 745 179 796 L74 718 Z M189 256 C189 375 203 420 250 420 C299 420 311 385 311 256 C311 137 302 92 251 92 C206 92 189 128 189 256 L189 256 Z " />
<glyph glyph-name="ntilde" unicode="&#xf1;" horiz-adv-x="519" d="M333 555 C276 555 227 527 203 477 L201 477 L201 541 L45 541 L45 0 L207 0 L207 355 C207 402 230 431 265 431 C294 431 312 411 312 368 L312 0 L474 0 L474 404 C474 505 429 555 333 555 L333 555 Z M187 738 C136 738 101 688 93 602 L170 602 C176 624 187 632 199 632 C212 632 225 626 249 617 C275 607 297 602 317 602 C374 602 409 650 417 738 L337 738 C333 714 324 708 306 708 C291 708 279 711 250 722 C224 732 209 738 187 738 L187 738 Z " />
<glyph glyph-name="ograve" unicode="&#xf2;" horiz-adv-x="500" d="M250 555 C66 555 27 435 27 269 C27 98 58 -14 250 -14 C433 -14 473 103 473 272 C473 447 439 555 250 555 L250 555 Z M189 271 C189 383 197 449 250 449 C305 449 311 393 311 270 C311 144 303 92 251 92 C204 92 189 135 189 271 L189 271 Z M109 741 L209 599 L315 599 L265 741 L109 741 Z " />
<glyph glyph-name="oacute" unicode="&#xf3;" horiz-adv-x="500" d="M250 555 C66 555 27 435 27 269 C27 98 58 -14 250 -14 C433 -14 473 103 473 272 C473 447 439 555 250 555 L250 555 Z M189 271 C189 383 197 449 250 449 C305 449 311 393 311 270 C311 144 303 92 251 92 C204 92 189 135 189 271 L189 271 Z M245 741 L195 599 L301 599 L401 741 L245 741 Z " />
<glyph glyph-name="ocircumflex" unicode="&#xf4;" horiz-adv-x="500" d="M250 555 C66 555 27 435 27 269 C27 98 58 -14 250 -14 C433 -14 473 103 473 272 C473 447 439 555 250 555 L250 555 Z M189 271 C189 383 197 449 250 449 C305 449 311 393 311 270 C311 144 303 92 251 92 C204 92 189 135 189 271 L189 271 Z M166 741 L95 599 L214 599 L250 680 L287 599 L405 599 L334 741 L166 741 Z " />
<glyph glyph-name="otilde" unicode="&#xf5;" horiz-adv-x="500" d="M250 555 C66 555 27 435 27 269 C27 98 58 -14 250 -14 C433 -14 473 103 473 272 C473 447 439 555 250 555 L250 555 Z M189 271 C189 383 197 449 250 449 C305 449 311 393 311 270 C311 144 303 92 251 92 C204 92 189 135 189 271 L189 271 Z M183 738 C132 738 97 688 89 602 L166 602 C172 624 183 632 195 632 C208 632 221 626 245 617 C271 607 293 602 313 602 C370 602 405 650 413 738 L333 738 C329 714 320 708 302 708 C287 708 275 711 246 722 C220 732 205 738 183 738 L183 738 Z " />
<glyph glyph-name="odieresis" unicode="&#xf6;" horiz-adv-x="500" d="M250 555 C66 555 27 435 27 269 C27 98 58 -14 250 -14 C433 -14 473 103 473 272 C473 447 439 555 250 555 L250 555 Z M189 271 C189 383 197 449 250 449 C305 449 311 393 311 270 C311 144 303 92 251 92 C204 92 189 135 189 271 L189 271 Z M101 735 L101 605 L225 605 L225 735 L101 735 Z M277 735 L277 605 L401 605 L401 735 L277 735 Z " />
<glyph glyph-name="divide" unicode="&#xf7;" horiz-adv-x="600" d="M300 562 C246 562 203 521 203 465 C203 411 244 368 300 368 C357 368 397 412 397 465 C397 519 356 562 300 562 L300 562 Z M47 318 L47 188 L553 188 L553 318 L47 318 Z M300 138 C247 138 203 98 203 41 C203 -16 247 -56 300 -56 C355 -56 397 -14 397 41 C397 95 356 138 300 138 L300 138 Z " />
<glyph glyph-name="oslash" unicode="&#xf8;" horiz-adv-x="500" d="M361 536 C334 549 296 555 250 555 C38 555 27 396 27 271 C27 142 46 82 83 43 L42 -29 L100 -64 L139 5 C165 -8 204 -14 250 -14 C456 -14 473 136 473 270 C473 397 457 455 418 498 L458 570 L400 605 L361 536 Z M189 280 C189 394 202 449 250 449 C272 449 287 439 295 419 L191 233 L189 233 L189 280 Z M311 307 L311 265 C311 152 300 92 250 92 C228 92 213 102 205 122 L309 307 L311 307 Z " />
<glyph glyph-name="ugrave" unicode="&#xf9;" horiz-adv-x="519" d="M45 541 L45 136 C45 39 88 -14 186 -14 C241 -14 291 12 316 64 L318 64 L318 0 L474 0 L474 541 L312 541 L312 185 C312 140 289 110 254 110 C224 110 207 132 207 171 L207 541 L45 541 Z M126 741 L226 599 L332 599 L282 741 L126 741 Z " />
<glyph glyph-name="uacute" unicode="&#xfa;" horiz-adv-x="519" d="M45 541 L45 136 C45 39 88 -14 186 -14 C241 -14 291 12 316 64 L318 64 L318 0 L474 0 L474 541 L312 541 L312 185 C312 140 289 110 254 110 C224 110 207 132 207 171 L207 541 L45 541 Z M254 741 L204 599 L310 599 L410 741 L254 741 Z " />
<glyph glyph-name="ucircumflex" unicode="&#xfb;" horiz-adv-x="519" d="M45 541 L45 136 C45 39 88 -14 186 -14 C241 -14 291 12 316 64 L318 64 L318 0 L474 0 L474 541 L312 541 L312 185 C312 140 289 110 254 110 C224 110 207 132 207 171 L207 541 L45 541 Z M175 741 L104 599 L223 599 L259 680 L296 599 L414 599 L343 741 L175 741 Z " />
<glyph glyph-name="udieresis" unicode="&#xfc;" horiz-adv-x="519" d="M45 541 L45 136 C45 39 88 -14 186 -14 C241 -14 291 12 316 64 L318 64 L318 0 L474 0 L474 541 L312 541 L312 185 C312 140 289 110 254 110 C224 110 207 132 207 171 L207 541 L45 541 Z M109 735 L109 605 L233 605 L233 735 L109 735 Z M285 735 L285 605 L409 605 L409 735 L285 735 Z " />
<glyph glyph-name="yacute" unicode="&#xfd;" horiz-adv-x="481" d="M10 541 L163 -4 C155 -44 134 -64 95 -64 C83 -64 67 -63 55 -60 L55 -174 C66 -175 82 -176 119 -176 C245 -176 286 -152 326 -4 L471 541 L309 541 L246 162 L244 162 L178 541 L10 541 Z M239 741 L189 599 L295 599 L395 741 L239 741 Z " />
<glyph glyph-name="thorn" unicode="&#xfe;" horiz-adv-x="519" d="M45 714 L45 -176 L207 -176 L207 59 L209 59 C232 9 273 -14 331 -14 C468 -14 487 122 487 274 C487 467 434 555 320 555 C263 555 222 521 209 475 L207 475 L207 714 L45 714 Z M204 272 C204 382 215 437 262 437 C322 437 325 355 325 267 C325 164 321 104 263 104 C208 104 204 179 204 272 L204 272 Z " />
<glyph glyph-name="ydieresis" unicode="&#xff;" horiz-adv-x="481" d="M10 541 L163 -4 C155 -44 134 -64 95 -64 C83 -64 67 -63 55 -60 L55 -174 C66 -175 82 -176 119 -176 C245 -176 286 -152 326 -4 L471 541 L309 541 L246 162 L244 162 L178 541 L10 541 Z M95 735 L95 605 L219 605 L219 735 L95 735 Z M271 735 L271 605 L395 605 L395 735 L271 735 Z " />
<glyph glyph-name="Amacron" unicode="&#x100;" horiz-adv-x="574" d="M184 714 L2 0 L176 0 L201 136 L372 136 L398 0 L572 0 L394 714 L184 714 Z M286 584 L347 266 L225 266 L284 584 L286 584 Z M131 874 L131 786 L441 786 L441 874 L131 874 Z " />
<glyph glyph-name="amacron" unicode="&#x101;" horiz-adv-x="500" d="M252 555 C134 555 43 524 42 375 L186 375 C187 431 207 449 245 449 C281 449 296 428 296 395 C296 362 290 354 275 345 C263 338 221 329 188 321 C137 309 98 295 68 266 C43 241 27 207 27 150 C27 42 72 -14 171 -14 C226 -14 275 14 298 62 L300 62 C301 37 303 16 309 0 L465 0 C451 19 446 48 446 111 L446 395 C446 514 383 555 252 555 L252 555 Z M183 167 C183 218 201 225 242 242 C256 248 282 261 296 273 C296 263 295 222 295 171 C295 152 291 98 230 98 C200 98 183 122 183 167 L183 167 Z M96 714 L96 626 L406 626 L406 714 L96 714 Z " />
<glyph glyph-name="Abreve" unicode="&#x102;" horiz-adv-x="574" d="M184 714 L2 0 L176 0 L201 136 L372 136 L398 0 L572 0 L394 714 L184 714 Z M286 584 L347 266 L225 266 L284 584 L286 584 Z M140 901 C141 812 193 759 286 759 C375 759 430 812 430 901 L358 901 C353 862 318 837 285 837 C252 837 217 862 212 901 L140 901 Z " />
<glyph glyph-name="abreve" unicode="&#x103;" horiz-adv-x="500" d="M252 555 C134 555 43 524 42 375 L186 375 C187 431 207 449 245 449 C281 449 296 428 296 395 C296 362 290 354 275 345 C263 338 221 329 188 321 C137 309 98 295 68 266 C43 241 27 207 27 150 C27 42 72 -14 171 -14 C226 -14 275 14 298 62 L300 62 C301 37 303 16 309 0 L465 0 C451 19 446 48 446 111 L446 395 C446 514 383 555 252 555 L252 555 Z M183 167 C183 218 201 225 242 242 C256 248 282 261 296 273 C296 263 295 222 295 171 C295 152 291 98 230 98 C200 98 183 122 183 167 L183 167 Z M102 741 C103 654 153 599 248 599 C337 599 392 652 392 741 L320 741 C315 701 279 677 247 677 C214 677 179 702 174 741 L102 741 Z " />
<glyph glyph-name="Aogonek" unicode="&#x104;" horiz-adv-x="574" d="M184 714 L2 0 L176 0 L201 136 L372 136 L398 0 C330 -37 286 -86 286 -135 C286 -191 325 -224 394 -224 C437 -224 483 -212 509 -197 L486 -152 C468 -163 449 -168 430 -168 C399 -168 380 -152 380 -121 C380 -88 412 -46 472 0 L572 0 L394 714 L184 714 Z M286 584 L347 266 L225 266 L284 584 L286 584 Z " />
<glyph glyph-name="aogonek" unicode="&#x105;" horiz-adv-x="500" d="M253 555 C149 555 43 534 42 375 L186 375 C187 431 207 449 245 449 C276 449 296 434 296 394 C296 366 291 354 274 345 C259 337 229 331 184 320 C120 305 81 284 59 256 C37 228 27 196 27 150 C27 42 73 -14 170 -14 C227 -14 276 15 298 62 L300 62 C301 41 302 21 308 2 C245 -43 214 -90 214 -135 C214 -192 250 -224 310 -224 C343 -224 390 -215 418 -197 L398 -152 C381 -163 363 -168 343 -168 C312 -168 298 -150 298 -119 C298 -85 326 -42 371 0 L465 0 C451 18 446 49 446 111 L446 394 C446 507 392 555 253 555 L253 555 Z M183 167 C183 218 200 224 242 242 C256 248 283 261 296 273 C296 263 295 225 295 172 C295 125 273 98 230 98 C199 98 183 124 183 167 L183 167 Z " />
<glyph glyph-name="Cacute" unicode="&#x106;" horiz-adv-x="537" d="M284 728 C50 728 36 551 36 362 C36 147 53 -14 269 -14 C459 -14 519 82 519 251 L519 280 L357 280 L357 270 C357 151 341 98 287 98 C216 98 210 156 210 364 C210 555 217 616 283 616 C334 616 351 578 351 471 L351 466 L514 466 L514 488 C514 659 439 728 284 728 L284 728 Z M278 901 L228 759 L334 759 L434 901 L278 901 Z " />
<glyph glyph-name="cacute" unicode="&#x107;" horiz-adv-x="481" d="M248 555 C88 555 27 466 27 289 C27 129 44 -14 247 -14 C398 -14 460 58 461 220 L311 220 C308 121 296 92 250 92 C196 92 189 149 189 270 C189 381 197 449 250 449 C293 449 311 417 311 337 L461 337 L461 341 C461 492 392 555 248 555 L248 555 Z M243 741 L193 599 L299 599 L399 741 L243 741 Z " />
<glyph glyph-name="Ccircumflex" unicode="&#x108;" horiz-adv-x="537" d="M284 728 C50 728 36 551 36 362 C36 147 53 -14 269 -14 C459 -14 519 82 519 251 L519 280 L357 280 L357 270 C357 151 341 98 287 98 C216 98 210 156 210 364 C210 555 217 616 283 616 C334 616 351 578 351 471 L351 466 L514 466 L514 488 C514 659 439 728 284 728 L284 728 Z M199 901 L128 759 L247 759 L283 840 L320 759 L438 759 L367 901 L199 901 Z " />
<glyph glyph-name="ccircumflex" unicode="&#x109;" horiz-adv-x="481" d="M248 555 C88 555 27 466 27 289 C27 129 44 -14 247 -14 C398 -14 460 58 461 220 L311 220 C308 121 296 92 250 92 C196 92 189 149 189 270 C189 381 197 449 250 449 C293 449 311 417 311 337 L461 337 L461 341 C461 492 392 555 248 555 L248 555 Z M166 741 L95 599 L214 599 L250 680 L287 599 L405 599 L334 741 L166 741 Z " />
<glyph glyph-name="Cdotaccent" unicode="&#x10a;" horiz-adv-x="537" d="M284 728 C50 728 36 551 36 362 C36 147 53 -14 269 -14 C459 -14 519 82 519 251 L519 280 L357 280 L357 270 C357 151 341 98 287 98 C216 98 210 156 210 364 C210 555 217 616 283 616 C334 616 351 578 351 471 L351 466 L514 466 L514 488 C514 659 439 728 284 728 L284 728 Z M219 895 L219 765 L343 765 L343 895 L219 895 Z " />
<glyph glyph-name="cdotaccent" unicode="&#x10b;" horiz-adv-x="481" d="M248 555 C88 555 27 466 27 289 C27 129 44 -14 247 -14 C398 -14 460 58 461 220 L311 220 C308 121 296 92 250 92 C196 92 189 149 189 270 C189 381 197 449 250 449 C293 449 311 417 311 337 L461 337 L461 341 C461 492 392 555 248 555 L248 555 Z M189 735 L189 605 L313 605 L313 735 L189 735 Z " />
<glyph glyph-name="Ccaron" unicode="&#x10c;" horiz-adv-x="537" d="M284 728 C50 728 36 551 36 362 C36 147 53 -14 269 -14 C459 -14 519 82 519 251 L519 280 L357 280 L357 270 C357 151 341 98 287 98 C216 98 210 156 210 364 C210 555 217 616 283 616 C334 616 351 578 351 471 L351 466 L514 466 L514 488 C514 659 439 728 284 728 L284 728 Z M130 901 L201 759 L369 759 L440 901 L322 901 L285 820 L249 901 L130 901 Z " />
<glyph glyph-name="ccaron" unicode="&#x10d;" horiz-adv-x="481" d="M248 555 C88 555 27 466 27 289 C27 129 44 -14 247 -14 C398 -14 460 58 461 220 L311 220 C308 121 296 92 250 92 C196 92 189 149 189 270 C189 381 197 449 250 449 C293 449 311 417 311 337 L461 337 L461 341 C461 492 392 555 248 555 L248 555 Z M97 741 L168 599 L336 599 L407 741 L289 741 L252 660 L216 741 L97 741 Z " />
<glyph glyph-name="Dcaron" unicode="&#x10e;" horiz-adv-x="574" d="M52 714 L52 0 L287 0 C506 0 538 127 538 378 C538 588 493 714 304 714 L52 714 Z M220 590 L263 590 C353 590 370 551 370 375 C370 133 336 124 252 124 L220 124 L220 590 Z M105 901 L176 759 L344 759 L415 901 L297 901 L260 820 L224 901 L105 901 Z " />
<glyph glyph-name="dcaron" unicode="&#x10f;" horiz-adv-x="519" d="M312 714 L312 482 L310 482 C287 530 246 555 189 555 C57 555 32 434 32 267 C32 74 85 -14 199 -14 C258 -14 297 15 316 66 L318 66 L318 0 L474 0 L474 714 L312 714 Z M257 104 C199 104 194 179 194 275 C194 368 196 437 255 437 C309 437 315 372 315 268 C315 159 304 104 257 104 L257 104 Z M543 714 L517 572 L615 572 L674 714 L543 714 Z " />
<glyph glyph-name="Dcroat" unicode="&#x110;" horiz-adv-x="574" d="M52 714 L52 429 L0 429 L0 317 L52 317 L52 0 L280 0 C469 0 538 82 538 371 C538 645 446 714 299 714 L52 714 Z M220 590 L264 590 C352 590 370 553 370 370 C370 128 333 124 250 124 L220 124 L220 317 L282 317 L282 429 L220 429 L220 590 Z " />
<glyph glyph-name="dcroat" unicode="&#x111;" horiz-adv-x="519" d="M312 714 L312 650 L216 650 L216 582 L312 582 L312 482 L310 482 C287 530 246 555 189 555 C54 555 32 426 32 267 C32 74 85 -14 199 -14 C258 -14 297 15 316 66 L318 66 L318 0 L474 0 L474 582 L525 582 L525 650 L474 650 L474 714 L312 714 Z M257 104 C199 104 194 179 194 275 C194 366 196 437 255 437 C309 437 315 372 315 268 C315 144 299 104 257 104 L257 104 Z " />
<glyph glyph-name="Emacron" unicode="&#x112;" horiz-adv-x="500" d="M52 714 L52 0 L476 0 L476 136 L220 136 L220 299 L450 299 L450 435 L220 435 L220 578 L465 578 L465 714 L52 714 Z M105 874 L105 786 L415 786 L415 874 L105 874 Z " />
<glyph glyph-name="emacron" unicode="&#x113;" horiz-adv-x="481" d="M247 555 C77 555 27 451 27 289 C27 122 47 -14 247 -14 C384 -14 454 53 457 185 L307 185 C303 113 289 86 248 86 C207 86 189 116 189 208 L189 244 L462 244 L462 263 C462 447 432 555 247 555 L247 555 Z M189 338 L189 345 C189 423 205 455 251 455 C294 455 306 417 306 343 L306 338 L189 338 Z M95 714 L95 626 L405 626 L405 714 L95 714 Z " />
<glyph glyph-name="Ebreve" unicode="&#x114;" horiz-adv-x="500" d="M52 714 L52 0 L476 0 L476 136 L220 136 L220 299 L450 299 L450 435 L220 435 L220 578 L465 578 L465 714 L52 714 Z M111 901 C112 812 164 759 257 759 C346 759 401 812 401 901 L329 901 C324 862 289 837 256 837 C223 837 188 862 183 901 L111 901 Z " />
<glyph glyph-name="ebreve" unicode="&#x115;" horiz-adv-x="481" d="M247 555 C77 555 27 451 27 289 C27 122 47 -14 247 -14 C384 -14 454 53 457 185 L307 185 C303 113 289 86 248 86 C207 86 189 116 189 208 L189 244 L462 244 L462 263 C462 447 432 555 247 555 L247 555 Z M189 338 L189 345 C189 423 205 455 251 455 C294 455 306 417 306 343 L306 338 L189 338 Z M107 741 C108 654 158 599 253 599 C342 599 397 652 397 741 L325 741 C320 701 284 677 252 677 C219 677 184 702 179 741 L107 741 Z " />
<glyph glyph-name="Edotaccent" unicode="&#x116;" horiz-adv-x="500" d="M52 714 L52 0 L476 0 L476 136 L220 136 L220 299 L450 299 L450 435 L220 435 L220 578 L465 578 L465 714 L52 714 Z M196 895 L196 765 L320 765 L320 895 L196 895 Z " />
<glyph glyph-name="edotaccent" unicode="&#x117;" horiz-adv-x="481" d="M247 555 C77 555 27 451 27 289 C27 122 47 -14 247 -14 C384 -14 454 53 457 185 L307 185 C303 113 289 86 248 86 C207 86 189 116 189 208 L189 244 L462 244 L462 263 C462 447 432 555 247 555 L247 555 Z M189 338 L189 345 C189 423 205 455 251 455 C294 455 306 417 306 343 L306 338 L189 338 Z M187 735 L187 605 L311 605 L311 735 L187 735 Z " />
<glyph glyph-name="Eogonek" unicode="&#x118;" horiz-adv-x="500" d="M52 714 L52 0 L364 0 C291 -40 252 -88 252 -135 C252 -191 291 -224 359 -224 C405 -224 448 -212 475 -197 L452 -152 C434 -163 415 -168 396 -168 C364 -168 346 -151 346 -121 C346 -88 376 -48 438 0 L476 0 L476 136 L220 136 L220 299 L450 299 L450 435 L220 435 L220 578 L465 578 L465 714 L52 714 Z " />
<glyph glyph-name="eogonek" unicode="&#x119;" horiz-adv-x="481" d="M247 555 C59 555 27 424 27 284 C27 121 53 -3 220 -13 C160 -52 131 -92 131 -135 C131 -190 169 -224 238 -224 C282 -224 327 -212 354 -197 L331 -152 C312 -163 294 -168 275 -168 C243 -168 225 -151 225 -121 C225 -90 252 -52 305 -9 C400 8 455 69 457 185 L307 185 C303 113 289 86 248 86 C195 86 189 139 189 221 L189 244 L462 244 L462 262 C462 443 435 555 247 555 L247 555 Z M189 338 L189 344 C189 420 204 455 250 455 C287 455 306 431 306 343 L306 338 L189 338 Z " />
<glyph glyph-name="Ecaron" unicode="&#x11a;" horiz-adv-x="500" d="M52 714 L52 0 L476 0 L476 136 L220 136 L220 299 L450 299 L450 435 L220 435 L220 578 L465 578 L465 714 L52 714 Z M107 901 L178 759 L346 759 L417 901 L299 901 L262 820 L226 901 L107 901 Z " />
<glyph glyph-name="ecaron" unicode="&#x11b;" horiz-adv-x="481" d="M247 555 C77 555 27 451 27 289 C27 122 47 -14 247 -14 C384 -14 454 53 457 185 L307 185 C303 113 289 86 248 86 C207 86 189 116 189 208 L189 244 L462 244 L462 263 C462 447 432 555 247 555 L247 555 Z M189 338 L189 345 C189 423 205 455 251 455 C294 455 306 417 306 343 L306 338 L189 338 Z M94 741 L165 599 L333 599 L404 741 L286 741 L249 660 L213 741 L94 741 Z " />
<glyph glyph-name="Gcircumflex" unicode="&#x11c;" horiz-adv-x="556" d="M290 728 C47 728 36 566 36 343 C36 125 63 -14 245 -14 C325 -14 375 13 399 68 L401 68 L405 0 L520 0 L520 383 L285 383 L285 271 L364 271 L364 252 C364 139 340 98 287 98 C217 98 210 171 210 355 C210 531 215 616 287 616 C330 616 354 580 354 497 L516 497 L516 507 C516 688 405 728 290 728 L290 728 Z M205 901 L134 759 L253 759 L289 840 L326 759 L444 759 L373 901 L205 901 Z " />
<glyph glyph-name="gcircumflex" unicode="&#x11d;" horiz-adv-x="519" d="M194 555 C60 555 36 419 36 279 C36 100 87 13 188 13 C258 13 297 41 316 93 L318 93 L318 55 C318 -45 304 -78 253 -78 C223 -78 201 -64 196 -34 L46 -34 C46 -134 116 -184 249 -184 C407 -184 474 -116 474 18 L474 541 L324 541 L324 468 L322 468 C299 528 256 555 194 555 L194 555 Z M198 280 C198 358 203 431 258 431 C305 431 318 389 318 285 C318 167 303 131 257 131 C212 131 198 170 198 280 L198 280 Z M192 741 L121 599 L240 599 L276 680 L313 599 L431 599 L360 741 L192 741 Z " />
<glyph glyph-name="Gbreve" unicode="&#x11e;" horiz-adv-x="556" d="M290 728 C47 728 36 566 36 343 C36 125 63 -14 245 -14 C325 -14 375 13 399 68 L401 68 L405 0 L520 0 L520 383 L285 383 L285 271 L364 271 L364 252 C364 139 340 98 287 98 C217 98 210 171 210 355 C210 531 215 616 287 616 C330 616 354 580 354 497 L516 497 L516 507 C516 688 405 728 290 728 L290 728 Z M138 901 C139 812 191 759 284 759 C373 759 428 812 428 901 L356 901 C351 862 316 837 283 837 C250 837 215 862 210 901 L138 901 Z " />
<glyph glyph-name="gbreve" unicode="&#x11f;" horiz-adv-x="519" d="M194 555 C60 555 36 419 36 279 C36 100 87 13 188 13 C258 13 297 41 316 93 L318 93 L318 55 C318 -45 304 -78 253 -78 C223 -78 201 -64 196 -34 L46 -34 C46 -134 116 -184 249 -184 C407 -184 474 -116 474 18 L474 541 L324 541 L324 468 L322 468 C299 528 256 555 194 555 L194 555 Z M198 280 C198 358 203 431 258 431 C305 431 318 389 318 285 C318 167 303 131 257 131 C212 131 198 170 198 280 L198 280 Z M128 741 C129 654 179 599 274 599 C363 599 418 652 418 741 L346 741 C341 701 305 677 273 677 C240 677 205 702 200 741 L128 741 Z " />
<glyph glyph-name="Gdotaccent" unicode="&#x120;" horiz-adv-x="556" d="M290 728 C47 728 36 566 36 343 C36 125 63 -14 245 -14 C325 -14 375 13 399 68 L401 68 L405 0 L520 0 L520 383 L285 383 L285 271 L364 271 L364 252 C364 139 340 98 287 98 C217 98 210 171 210 355 C210 531 215 616 287 616 C330 616 354 580 354 497 L516 497 L516 507 C516 688 405 728 290 728 L290 728 Z M226 895 L226 765 L350 765 L350 895 L226 895 Z " />
<glyph glyph-name="gdotaccent" unicode="&#x121;" horiz-adv-x="519" d="M194 555 C60 555 36 419 36 279 C36 100 87 13 188 13 C258 13 297 41 316 93 L318 93 L318 55 C318 -45 304 -78 253 -78 C223 -78 201 -64 196 -34 L46 -34 C46 -134 116 -184 249 -184 C407 -184 474 -116 474 18 L474 541 L324 541 L324 468 L322 468 C299 528 256 555 194 555 L194 555 Z M198 280 C198 358 203 431 258 431 C305 431 318 389 318 285 C318 167 303 131 257 131 C212 131 198 170 198 280 L198 280 Z M206 735 L206 605 L330 605 L330 735 L206 735 Z " />
<glyph glyph-name="Gcommaaccent" unicode="&#x122;" horiz-adv-x="556" d="M290 728 C47 728 36 566 36 343 C36 125 63 -14 245 -14 C325 -14 375 13 399 68 L401 68 L405 0 L520 0 L520 383 L285 383 L285 271 L364 271 L364 252 C364 139 340 98 287 98 C217 98 210 171 210 355 C210 531 215 616 287 616 C330 616 354 580 354 497 L516 497 L516 507 C516 688 405 728 290 728 L290 728 Z M212 -50 L212 -154 L273 -154 C270 -174 257 -180 229 -184 L229 -224 C295 -222 346 -207 346 -117 L346 -50 L212 -50 Z " />
<glyph glyph-name="gcommaaccent" unicode="&#x123;" horiz-adv-x="519" d="M194 555 C60 555 36 419 36 279 C36 100 87 13 188 13 C258 13 297 41 316 93 L318 93 L318 55 C318 -45 304 -78 253 -78 C223 -78 201 -64 196 -34 L46 -34 C46 -134 116 -184 249 -184 C407 -184 474 -116 474 18 L474 541 L324 541 L324 468 L322 468 C299 528 256 555 194 555 L194 555 Z M198 280 C198 358 203 431 258 431 C305 431 318 389 318 285 C318 167 303 131 257 131 C212 131 198 170 198 280 L198 280 Z M328 784 C240 782 211 749 211 675 L211 610 L345 610 L345 714 L284 714 C287 733 297 739 328 744 L328 784 Z " />
<glyph glyph-name="Hcircumflex" unicode="&#x124;" horiz-adv-x="574" d="M52 714 L52 0 L220 0 L220 305 L354 305 L354 0 L522 0 L522 714 L354 714 L354 447 L220 447 L220 714 L52 714 Z M202 901 L131 759 L250 759 L286 840 L323 759 L441 759 L370 901 L202 901 Z " />
<glyph glyph-name="hcircumflex" unicode="&#x125;" horiz-adv-x="519" d="M45 714 L45 0 L207 0 L207 355 C207 402 230 431 265 431 C294 431 312 411 312 369 L312 0 L474 0 L474 405 C474 503 430 555 333 555 C275 555 236 534 209 482 L207 482 L207 714 L45 714 Z M175 901 L104 759 L223 759 L259 840 L296 759 L414 759 L343 901 L175 901 Z " />
<glyph glyph-name="Hbar" unicode="&#x126;" horiz-adv-x="574" d="M52 714 L52 0 L220 0 L220 284 L354 284 L354 0 L522 0 L522 714 L354 714 L354 575 L220 575 L220 714 L52 714 Z M220 416 L220 507 L354 507 L354 416 L220 416 Z " />
<glyph glyph-name="hbar" unicode="&#x127;" horiz-adv-x="519" d="M45 714 L45 650 L-13 650 L-13 582 L45 582 L45 0 L207 0 L207 355 C207 402 230 431 265 431 C294 431 312 411 312 368 L312 0 L474 0 L474 405 C474 504 430 555 333 555 C275 555 236 534 209 482 L207 482 L207 582 L308 582 L308 650 L207 650 L207 714 L45 714 Z " />
<glyph glyph-name="Itilde" unicode="&#x128;" horiz-adv-x="278" d="M55 714 L55 0 L223 0 L223 714 L55 714 Z M72 898 C20 898 -14 847 -22 762 L55 762 C61 784 71 792 84 792 C95 792 108 787 134 777 C161 767 181 762 202 762 C259 762 294 810 302 898 L222 898 C218 874 209 868 191 868 C175 868 158 873 132 883 C107 893 91 898 72 898 L72 898 Z " />
<glyph glyph-name="itilde" unicode="&#x129;" horiz-adv-x="260" d="M49 541 L49 0 L211 0 L211 541 L49 541 Z M65 738 C14 738 -21 688 -29 602 L48 602 C54 624 65 632 77 632 C90 632 103 626 127 617 C153 607 175 602 195 602 C252 602 287 650 295 738 L215 738 C211 714 202 708 184 708 C169 708 157 711 128 722 C102 732 87 738 65 738 L65 738 Z " />
<glyph glyph-name="Imacron" unicode="&#x12a;" horiz-adv-x="278" d="M55 714 L55 0 L223 0 L223 714 L55 714 Z M-16 874 L-16 786 L294 786 L294 874 L-16 874 Z " />
<glyph glyph-name="imacron" unicode="&#x12b;" horiz-adv-x="260" d="M49 541 L49 0 L211 0 L211 541 L49 541 Z M-24 714 L-24 626 L286 626 L286 714 L-24 714 Z " />
<glyph glyph-name="Iogonek" unicode="&#x12e;" horiz-adv-x="278" d="M55 714 L55 0 L149 0 C78 -39 37 -88 37 -135 C37 -191 76 -224 145 -224 C187 -224 234 -212 260 -197 L237 -152 C219 -163 200 -168 181 -168 C150 -168 131 -152 131 -121 C131 -88 161 -48 223 0 L223 714 L55 714 Z " />
<glyph glyph-name="iogonek" unicode="&#x12f;" horiz-adv-x="260" d="M49 722 L49 598 L211 598 L211 722 L49 722 Z M49 541 L49 0 L111 0 C38 -40 -1 -88 -1 -135 C-1 -191 38 -224 106 -224 C149 -224 193 -213 222 -197 L199 -152 C181 -163 162 -168 143 -168 C110 -168 93 -150 93 -121 C93 -88 125 -46 185 0 L211 0 L211 541 L49 541 Z " />
<glyph glyph-name="Idotaccent" unicode="&#x130;" horiz-adv-x="278" d="M55 714 L55 0 L223 0 L223 714 L55 714 Z M78 895 L78 765 L202 765 L202 895 L78 895 Z " />
<glyph glyph-name="dotlessi" unicode="&#x131;" horiz-adv-x="260" d="M49 541 L49 0 L211 0 L211 541 L49 541 Z " />
<glyph glyph-name="IJ" unicode="&#x132;" horiz-adv-x="768" d="M55 714 L55 0 L223 0 L223 714 L55 714 Z M548 714 L548 205 C548 127 533 98 495 98 C440 98 440 151 440 195 L440 227 L284 227 L284 186 C284 43 361 -14 497 -14 C648 -14 716 68 716 212 L716 714 L548 714 Z " />
<glyph glyph-name="ij" unicode="&#x133;" horiz-adv-x="518" d="M49 722 L49 598 L211 598 L211 722 L49 722 Z M49 541 L49 0 L211 0 L211 541 L49 541 Z M307 722 L307 598 L469 598 L469 722 L307 722 Z M307 541 L307 0 C307 -49 296 -64 257 -64 C251 -64 246 -64 235 -63 L235 -174 C249 -175 293 -176 299 -176 C424 -176 469 -143 469 -19 L469 541 L307 541 Z " />
<glyph glyph-name="Jcircumflex" unicode="&#x134;" horiz-adv-x="500" d="M280 714 L280 205 C280 127 265 98 227 98 C172 98 172 151 172 195 L172 227 L16 227 L16 186 C16 43 93 -14 229 -14 C380 -14 448 68 448 212 L448 714 L280 714 Z M279 901 L208 759 L327 759 L363 840 L400 759 L518 759 L447 901 L279 901 Z " />
<glyph glyph-name="jcircumflex" unicode="&#x135;" horiz-adv-x="260" d="M49 541 L49 1 C49 -49 39 -64 -2 -64 C-7 -64 -12 -64 -23 -63 L-23 -174 C-1 -175 29 -176 39 -176 C165 -176 211 -144 211 -19 L211 541 L49 541 Z M43 741 L-28 599 L91 599 L127 680 L164 599 L282 599 L211 741 L43 741 Z " />
<glyph glyph-name="Kcommaaccent" unicode="&#x136;" horiz-adv-x="574" d="M52 714 L52 0 L220 0 L220 200 L265 269 L394 0 L583 0 L373 406 L560 714 L379 714 L222 432 L220 432 L220 714 L52 714 Z M241 -50 L241 -154 L302 -154 C299 -174 286 -180 258 -184 L258 -224 C324 -222 375 -207 375 -117 L375 -50 L241 -50 Z " />
<glyph glyph-name="kcommaaccent" unicode="&#x137;" horiz-adv-x="519" d="M45 714 L45 0 L207 0 L207 147 L249 204 L350 0 L527 0 L353 323 L508 541 L330 541 L209 347 L207 347 L207 714 L45 714 Z M208 -50 L208 -154 L269 -154 C266 -174 253 -180 225 -184 L225 -224 C291 -222 342 -207 342 -117 L342 -50 L208 -50 Z " />
<glyph glyph-name="Lacute" unicode="&#x139;" horiz-adv-x="463" d="M52 714 L52 0 L463 0 L463 136 L220 136 L220 714 L52 714 Z M132 901 L82 759 L188 759 L288 901 L132 901 Z " />
<glyph glyph-name="lacute" unicode="&#x13a;" horiz-adv-x="260" d="M49 714 L49 0 L211 0 L211 714 L49 714 Z M100 901 L50 759 L156 759 L256 901 L100 901 Z " />
<glyph glyph-name="Lcommaaccent" unicode="&#x13b;" horiz-adv-x="463" d="M52 714 L52 0 L463 0 L463 136 L220 136 L220 714 L52 714 Z M183 -50 L183 -154 L244 -154 C241 -174 228 -180 200 -184 L200 -224 C266 -222 317 -207 317 -117 L317 -50 L183 -50 Z " />
<glyph glyph-name="lcommaaccent" unicode="&#x13c;" horiz-adv-x="260" d="M49 714 L49 0 L211 0 L211 714 L49 714 Z M63 -50 L63 -154 L124 -154 C121 -174 108 -180 80 -184 L80 -224 C146 -222 197 -207 197 -117 L197 -50 L63 -50 Z " />
<glyph glyph-name="Lcaron" unicode="&#x13d;" horiz-adv-x="463" d="M52 714 L52 0 L463 0 L463 136 L220 136 L220 714 L52 714 Z M296 714 L270 572 L368 572 L427 714 L296 714 Z " />
<glyph glyph-name="lcaron" unicode="&#x13e;" horiz-adv-x="260" d="M49 714 L49 0 L211 0 L211 714 L49 714 Z M272 714 L246 572 L344 572 L403 714 L272 714 Z " />
<glyph glyph-name="Ldot" unicode="&#x13f;" horiz-adv-x="463" d="M52 714 L52 0 L463 0 L463 136 L220 136 L220 714 L52 714 Z M280 450 L280 320 L404 320 L404 450 L280 450 Z " />
<glyph glyph-name="ldot" unicode="&#x140;" horiz-adv-x="392" d="M49 714 L49 0 L211 0 L211 714 L49 714 Z M258 450 L258 320 L382 320 L382 450 L258 450 Z " />
<glyph glyph-name="Lslash" unicode="&#x141;" horiz-adv-x="463" d="M52 714 L52 369 L-10 329 L-10 187 L52 227 L52 0 L463 0 L463 136 L220 136 L220 336 L340 413 L340 555 L220 478 L220 714 L52 714 Z " />
<glyph glyph-name="lslash" unicode="&#x142;" horiz-adv-x="260" d="M49 714 L49 389 L0 356 L0 220 L49 253 L49 0 L211 0 L211 357 L260 390 L260 526 L211 493 L211 714 L49 714 Z " />
<glyph glyph-name="Nacute" unicode="&#x143;" horiz-adv-x="593" d="M52 714 L52 0 L202 0 L202 492 L204 492 L351 0 L541 0 L541 714 L385 714 L385 250 L383 250 L245 714 L52 714 Z M290 901 L240 759 L346 759 L446 901 L290 901 Z " />
<glyph glyph-name="nacute" unicode="&#x144;" horiz-adv-x="519" d="M333 555 C276 555 227 527 203 477 L201 477 L201 541 L45 541 L45 0 L207 0 L207 355 C207 402 230 431 265 431 C294 431 312 411 312 368 L312 0 L474 0 L474 404 C474 505 429 555 333 555 L333 555 Z M243 741 L193 599 L299 599 L399 741 L243 741 Z " />
<glyph glyph-name="Ncommaaccent" unicode="&#x145;" horiz-adv-x="593" d="M52 714 L52 0 L202 0 L202 492 L204 492 L351 0 L541 0 L541 714 L385 714 L385 250 L383 250 L245 714 L52 714 Z M233 -50 L233 -154 L294 -154 C291 -174 278 -180 250 -184 L250 -224 C316 -222 367 -207 367 -117 L367 -50 L233 -50 Z " />
<glyph glyph-name="ncommaaccent" unicode="&#x146;" horiz-adv-x="519" d="M333 555 C276 555 227 527 203 477 L201 477 L201 541 L45 541 L45 0 L207 0 L207 355 C207 402 230 431 265 431 C294 431 312 411 312 368 L312 0 L474 0 L474 404 C474 505 429 555 333 555 L333 555 Z M193 -50 L193 -154 L254 -154 C251 -174 238 -180 210 -184 L210 -224 C276 -222 327 -207 327 -117 L327 -50 L193 -50 Z " />
<glyph glyph-name="Ncaron" unicode="&#x147;" horiz-adv-x="593" d="M52 714 L52 0 L202 0 L202 492 L204 492 L351 0 L541 0 L541 714 L385 714 L385 250 L383 250 L245 714 L52 714 Z M143 901 L214 759 L382 759 L453 901 L335 901 L298 820 L262 901 L143 901 Z " />
<glyph glyph-name="ncaron" unicode="&#x148;" horiz-adv-x="519" d="M333 555 C276 555 227 527 203 477 L201 477 L201 541 L45 541 L45 0 L207 0 L207 355 C207 402 230 431 265 431 C294 431 312 411 312 368 L312 0 L474 0 L474 404 C474 505 429 555 333 555 L333 555 Z M102 741 L173 599 L341 599 L412 741 L294 741 L257 660 L221 741 L102 741 Z " />
<glyph glyph-name="napostrophe" unicode="&#x149;" horiz-adv-x="707" d="M521 555 C464 555 415 527 391 477 L389 477 L389 541 L233 541 L233 0 L395 0 L395 355 C395 402 418 431 453 431 C482 431 500 411 500 368 L500 0 L662 0 L662 404 C662 505 617 555 521 555 L521 555 Z M31 714 L31 540 L93 540 C93 467 72 443 31 443 L31 365 C136 372 187 426 187 560 L187 714 L31 714 Z " />
<glyph glyph-name="Omacron" unicode="&#x14c;" horiz-adv-x="574" d="M287 728 C60 728 36 573 36 357 C36 136 63 -14 287 -14 C520 -14 538 151 538 357 C538 564 520 728 287 728 L287 728 Z M210 357 C210 546 217 616 286 616 C355 616 364 549 364 357 C364 167 356 98 286 98 C217 98 210 167 210 357 L210 357 Z M131 874 L131 786 L441 786 L441 874 L131 874 Z " />
<glyph glyph-name="omacron" unicode="&#x14d;" horiz-adv-x="500" d="M250 555 C66 555 27 435 27 269 C27 98 58 -14 250 -14 C433 -14 473 103 473 272 C473 447 439 555 250 555 L250 555 Z M189 271 C189 383 197 449 250 449 C305 449 311 393 311 270 C311 144 303 92 251 92 C204 92 189 135 189 271 L189 271 Z M94 714 L94 626 L404 626 L404 714 L94 714 Z " />
<glyph glyph-name="Obreve" unicode="&#x14e;" horiz-adv-x="574" d="M287 728 C60 728 36 573 36 357 C36 136 63 -14 287 -14 C520 -14 538 151 538 357 C538 564 520 728 287 728 L287 728 Z M210 357 C210 546 217 616 286 616 C355 616 364 549 364 357 C364 167 356 98 286 98 C217 98 210 167 210 357 L210 357 Z M142 901 C143 812 195 759 288 759 C377 759 432 812 432 901 L360 901 C355 862 320 837 287 837 C254 837 219 862 214 901 L142 901 Z " />
<glyph glyph-name="obreve" unicode="&#x14f;" horiz-adv-x="500" d="M250 555 C66 555 27 435 27 269 C27 98 58 -14 250 -14 C433 -14 473 103 473 272 C473 447 439 555 250 555 L250 555 Z M189 271 C189 383 197 449 250 449 C305 449 311 393 311 270 C311 144 303 92 251 92 C204 92 189 135 189 271 L189 271 Z M104 741 C105 654 155 599 250 599 C339 599 394 652 394 741 L322 741 C317 701 281 677 249 677 C216 677 181 702 176 741 L104 741 Z " />
<glyph glyph-name="Ohungarumlaut" unicode="&#x150;" horiz-adv-x="574" d="M287 728 C60 728 36 573 36 357 C36 136 63 -14 287 -14 C520 -14 538 151 538 357 C538 564 520 728 287 728 L287 728 Z M210 357 C210 546 217 616 286 616 C355 616 364 549 364 357 C364 167 356 98 286 98 C217 98 210 167 210 357 L210 357 Z M180 901 L130 759 L236 759 L336 901 L180 901 Z M380 901 L330 759 L436 759 L536 901 L380 901 Z " />
<glyph glyph-name="ohungarumlaut" unicode="&#x151;" horiz-adv-x="500" d="M250 555 C66 555 27 435 27 269 C27 98 58 -14 250 -14 C433 -14 473 103 473 272 C473 447 439 555 250 555 L250 555 Z M189 271 C189 383 197 449 250 449 C305 449 311 393 311 270 C311 144 303 92 251 92 C204 92 189 135 189 271 L189 271 Z M144 741 L94 599 L200 599 L300 741 L144 741 Z M344 741 L294 599 L400 599 L500 741 L344 741 Z " />
<glyph glyph-name="OE" unicode="&#x152;" horiz-adv-x="778" d="M251 728 C42 728 36 519 36 365 C36 156 52 -14 254 -14 C302 -14 352 3 383 37 L383 0 L762 0 L762 136 L521 136 L521 299 L740 299 L740 435 L521 435 L521 578 L753 578 L753 714 L381 714 L381 679 C349 711 304 728 251 728 L251 728 Z M210 402 C210 540 221 616 288 616 C364 616 365 552 365 388 L365 294 C365 154 359 98 288 98 C222 98 210 171 210 309 L210 402 Z " />
<glyph glyph-name="oe" unicode="&#x153;" horiz-adv-x="741" d="M241 555 C52 555 27 413 27 265 C27 74 82 -14 229 -14 C307 -14 350 6 381 57 C404 11 453 -14 529 -14 C652 -14 718 51 723 185 L573 185 C569 111 553 86 517 86 C466 86 461 142 461 225 L461 244 L728 244 L728 287 C728 433 696 555 533 555 C461 555 420 532 389 486 C358 534 314 555 241 555 L241 555 Z M461 338 L461 345 C461 425 477 455 520 455 C559 455 572 423 572 342 L572 338 L461 338 Z M189 270 C189 373 195 449 250 449 C303 449 311 393 311 270 C311 153 300 92 250 92 C200 92 189 138 189 270 L189 270 Z " />
<glyph glyph-name="Racute" unicode="&#x154;" horiz-adv-x="574" d="M52 714 L52 0 L220 0 L220 295 L284 295 C334 295 354 272 354 151 C354 103 354 32 372 0 L553 0 L553 9 C529 19 525 39 521 177 C518 284 506 336 406 352 L406 354 C490 374 526 430 526 527 C526 652 452 714 335 714 L52 714 Z M220 596 L271 596 C327 596 358 571 358 506 C358 440 320 413 273 413 L220 413 L220 596 Z M249 901 L199 759 L305 759 L405 901 L249 901 Z " />
<glyph glyph-name="racute" unicode="&#x155;" horiz-adv-x="370" d="M333 555 C273 555 228 522 203 465 L201 465 L201 541 L45 541 L45 0 L207 0 L207 306 C207 382 252 405 315 405 C334 405 347 403 359 401 L359 553 C350 555 342 555 333 555 L333 555 Z M144 741 L94 599 L200 599 L300 741 L144 741 Z " />
<glyph glyph-name="Rcommaaccent" unicode="&#x156;" horiz-adv-x="574" d="M52 714 L52 0 L220 0 L220 295 L284 295 C334 295 354 272 354 151 C354 103 354 32 372 0 L553 0 L553 9 C529 19 525 39 521 177 C518 284 506 336 406 352 L406 354 C490 374 526 430 526 527 C526 652 452 714 335 714 L52 714 Z M220 596 L271 596 C327 596 358 571 358 506 C358 440 320 413 273 413 L220 413 L220 596 Z M227 -50 L227 -154 L288 -154 C285 -174 272 -180 244 -184 L244 -224 C310 -222 361 -207 361 -117 L361 -50 L227 -50 Z " />
<glyph glyph-name="rcommaaccent" unicode="&#x157;" horiz-adv-x="370" d="M333 555 C273 555 228 522 203 465 L201 465 L201 541 L45 541 L45 0 L207 0 L207 306 C207 382 252 405 315 405 C334 405 347 403 359 401 L359 553 C350 555 342 555 333 555 L333 555 Z M58 -50 L58 -154 L119 -154 C116 -174 103 -180 75 -184 L75 -224 C141 -222 192 -207 192 -117 L192 -50 L58 -50 Z " />
<glyph glyph-name="Rcaron" unicode="&#x158;" horiz-adv-x="574" d="M52 714 L52 0 L220 0 L220 295 L284 295 C334 295 354 272 354 151 C354 103 354 32 372 0 L553 0 L553 9 C529 19 525 39 521 177 C518 284 506 336 406 352 L406 354 C490 374 526 430 526 527 C526 652 452 714 335 714 L52 714 Z M220 596 L271 596 C327 596 358 571 358 506 C358 440 320 413 273 413 L220 413 L220 596 Z M112 901 L183 759 L351 759 L422 901 L304 901 L267 820 L231 901 L112 901 Z " />
<glyph glyph-name="rcaron" unicode="&#x159;" horiz-adv-x="370" d="M333 555 C273 555 228 522 203 465 L201 465 L201 541 L45 541 L45 0 L207 0 L207 306 C207 382 252 405 315 405 C334 405 347 403 359 401 L359 553 C350 555 342 555 333 555 L333 555 Z M50 741 L121 599 L289 599 L360 741 L242 741 L205 660 L169 741 L50 741 Z " />
<glyph glyph-name="Sacute" unicode="&#x15a;" horiz-adv-x="537" d="M267 728 C100 728 33 639 33 518 C33 466 45 423 70 388 C98 349 142 323 220 295 C316 261 340 230 340 183 C340 128 312 98 264 98 C213 98 191 127 191 193 L191 218 L29 218 L29 180 C29 40 116 -14 264 -14 C428 -14 508 59 508 212 C508 348 423 388 338 421 C272 447 201 468 201 539 C201 591 225 616 268 616 C309 616 333 588 333 516 L495 516 L495 531 C495 660 416 728 267 728 L267 728 Z M262 901 L212 759 L318 759 L418 901 L262 901 Z " />
<glyph glyph-name="sacute" unicode="&#x15b;" horiz-adv-x="463" d="M235 555 C101 555 29 498 29 392 C29 292 78 260 177 224 C233 203 288 195 288 141 C288 109 268 86 230 86 C191 86 171 110 169 172 L25 172 L25 149 C25 39 87 -14 231 -14 C363 -14 438 51 438 163 C438 278 361 310 278 335 C216 354 179 368 179 405 C179 440 197 455 234 455 C272 455 287 439 287 394 L287 385 L431 385 L431 402 C431 501 362 555 235 555 L235 555 Z M229 741 L179 599 L285 599 L385 741 L229 741 Z " />
<glyph glyph-name="Scircumflex" unicode="&#x15c;" horiz-adv-x="537" d="M267 728 C100 728 33 639 33 518 C33 466 45 423 70 388 C98 349 142 323 220 295 C316 261 340 230 340 183 C340 128 312 98 264 98 C213 98 191 127 191 193 L191 218 L29 218 L29 180 C29 40 116 -14 264 -14 C428 -14 508 59 508 212 C508 348 423 388 338 421 C272 447 201 468 201 539 C201 591 225 616 268 616 C309 616 333 588 333 516 L495 516 L495 531 C495 660 416 728 267 728 L267 728 Z M186 901 L115 759 L234 759 L270 840 L307 759 L425 759 L354 901 L186 901 Z " />
<glyph glyph-name="scircumflex" unicode="&#x15d;" horiz-adv-x="463" d="M235 555 C101 555 29 498 29 392 C29 292 78 260 177 224 C233 203 288 195 288 141 C288 109 268 86 230 86 C191 86 171 110 169 172 L25 172 L25 149 C25 39 87 -14 231 -14 C363 -14 438 51 438 163 C438 278 361 310 278 335 C216 354 179 368 179 405 C179 440 197 455 234 455 C272 455 287 439 287 394 L287 385 L431 385 L431 402 C431 501 362 555 235 555 L235 555 Z M148 741 L77 599 L196 599 L232 680 L269 599 L387 599 L316 741 L148 741 Z " />
<glyph glyph-name="Scedilla" unicode="&#x15e;" horiz-adv-x="537" d="M267 728 C100 728 33 639 33 518 C33 466 45 422 71 387 C98 351 139 324 220 295 C295 268 340 243 340 183 C340 128 312 98 264 98 C213 98 191 127 191 193 L191 218 L29 218 L29 175 C29 60 91 -4 223 -12 L179 -90 L202 -109 C213 -105 221 -103 231 -103 C256 -103 277 -117 277 -134 C277 -155 264 -168 231 -168 C210 -168 185 -164 158 -153 L137 -205 C172 -219 212 -224 250 -224 C339 -224 371 -176 371 -133 C371 -90 340 -56 281 -56 C270 -56 262 -57 255 -60 L282 -14 C427 -7 508 58 508 212 C508 314 463 375 341 420 C260 450 241 463 224 480 C208 496 201 517 201 539 C201 590 225 616 268 616 C309 616 333 588 333 516 L495 516 L495 531 C495 660 416 728 267 728 L267 728 Z " />
<glyph glyph-name="scedilla" unicode="&#x15f;" horiz-adv-x="463" d="M235 555 C104 555 29 500 29 392 C29 298 72 262 169 227 C231 204 288 196 288 141 C288 108 267 86 230 86 C174 86 171 129 169 172 L25 172 L25 151 C25 50 73 -3 190 -12 L145 -90 L168 -109 C178 -105 187 -103 197 -103 C222 -103 243 -117 243 -134 C243 -156 228 -168 197 -168 C179 -168 153 -165 124 -153 L103 -205 C139 -219 179 -224 216 -224 C303 -224 337 -178 337 -133 C337 -92 308 -56 247 -56 C237 -56 228 -57 221 -60 L248 -14 C380 -8 438 65 438 163 C438 275 366 311 278 337 C216 355 179 368 179 405 C179 440 197 455 234 455 C272 455 287 439 287 395 L287 385 L431 385 L431 402 C431 500 363 555 235 555 L235 555 Z " />
<glyph glyph-name="Scaron" unicode="&#x160;" horiz-adv-x="537" d="M267 728 C100 728 33 639 33 518 C33 466 45 423 70 388 C98 349 142 323 220 295 C316 261 340 230 340 183 C340 128 312 98 264 98 C213 98 191 127 191 193 L191 218 L29 218 L29 180 C29 40 116 -14 264 -14 C428 -14 508 59 508 212 C508 348 423 388 338 421 C272 447 201 468 201 539 C201 591 225 616 268 616 C309 616 333 588 333 516 L495 516 L495 531 C495 660 416 728 267 728 L267 728 Z M115 901 L186 759 L354 759 L425 901 L307 901 L270 820 L234 901 L115 901 Z " />
<glyph glyph-name="scaron" unicode="&#x161;" horiz-adv-x="463" d="M235 555 C101 555 29 498 29 392 C29 292 78 260 177 224 C233 203 288 195 288 141 C288 109 268 86 230 86 C191 86 171 110 169 172 L25 172 L25 149 C25 39 87 -14 231 -14 C363 -14 438 51 438 163 C438 278 361 310 278 335 C216 354 179 368 179 405 C179 440 197 455 234 455 C272 455 287 439 287 394 L287 385 L431 385 L431 402 C431 501 362 555 235 555 L235 555 Z M80 741 L151 599 L319 599 L390 741 L272 741 L235 660 L199 741 L80 741 Z " />
<glyph glyph-name="Tcommaaccent" unicode="&#x162;" horiz-adv-x="480" d="M6 714 L6 578 L156 578 L156 0 L324 0 L324 578 L474 578 L474 714 L6 714 Z M172 -50 L172 -154 L233 -154 C230 -174 217 -180 189 -184 L189 -224 C255 -222 306 -207 306 -117 L306 -50 L172 -50 Z " />
<glyph glyph-name="tcommaaccent" unicode="&#x163;" horiz-adv-x="315" d="M66 700 L66 541 L-1 541 L-1 429 L66 429 L66 134 C66 11 103 -6 209 -6 C241 -6 270 -4 303 0 L303 108 C290 106 283 106 278 106 C239 106 228 120 228 156 L228 429 L303 429 L303 541 L228 541 L228 700 L66 700 Z M117 -50 L117 -154 L178 -154 C175 -174 162 -180 134 -184 L134 -224 C200 -222 251 -207 251 -117 L251 -50 L117 -50 Z " />
<glyph glyph-name="Tcaron" unicode="&#x164;" horiz-adv-x="480" d="M6 714 L6 578 L156 578 L156 0 L324 0 L324 578 L474 578 L474 714 L6 714 Z M87 901 L158 759 L326 759 L397 901 L279 901 L242 820 L206 901 L87 901 Z " />
<glyph glyph-name="tcaron" unicode="&#x165;" horiz-adv-x="315" d="M66 700 L66 541 L-1 541 L-1 429 L66 429 L66 134 C66 11 103 -6 209 -6 C241 -6 270 -4 303 0 L303 108 C290 106 283 106 278 106 C239 106 228 120 228 156 L228 429 L303 429 L303 541 L228 541 L228 700 L66 700 Z M323 714 L297 572 L395 572 L454 714 L323 714 Z " />
<glyph glyph-name="Tbar" unicode="&#x166;" horiz-adv-x="480" d="M6 714 L6 578 L156 578 L156 423 L53 423 L53 355 L156 355 L156 0 L324 0 L324 355 L426 355 L426 423 L324 423 L324 578 L474 578 L474 714 L6 714 Z " />
<glyph glyph-name="tbar" unicode="&#x167;" horiz-adv-x="315" d="M66 700 L66 541 L-1 541 L-1 429 L66 429 L66 323 L-10 323 L-10 255 L66 255 L66 136 C66 12 101 -6 209 -6 C241 -6 271 -4 303 0 L303 108 C290 106 281 106 278 106 C239 106 228 120 228 156 L228 255 L312 255 L312 323 L228 323 L228 429 L303 429 L303 541 L228 541 L228 700 L66 700 Z " />
<glyph glyph-name="Utilde" unicode="&#x168;" horiz-adv-x="556" d="M43 714 L43 230 C43 73 104 -14 278 -14 C441 -14 513 61 513 230 L513 714 L345 714 L345 187 C345 131 323 98 278 98 C232 98 211 133 211 187 L211 714 L43 714 Z M212 898 C160 898 126 847 118 762 L195 762 C201 784 211 792 224 792 C235 792 248 787 274 777 C301 767 321 762 342 762 C399 762 434 810 442 898 L362 898 C358 874 349 868 331 868 C315 868 298 873 272 883 C247 893 231 898 212 898 L212 898 Z " />
<glyph glyph-name="utilde" unicode="&#x169;" horiz-adv-x="519" d="M45 541 L45 136 C45 39 88 -14 186 -14 C241 -14 291 12 316 64 L318 64 L318 0 L474 0 L474 541 L312 541 L312 185 C312 140 289 110 254 110 C224 110 207 132 207 171 L207 541 L45 541 Z M193 738 C142 738 107 688 99 602 L176 602 C182 624 193 632 205 632 C218 632 231 626 255 617 C281 607 303 602 323 602 C380 602 415 650 423 738 L343 738 C339 714 330 708 312 708 C297 708 285 711 256 722 C230 732 215 738 193 738 L193 738 Z " />
<glyph glyph-name="Umacron" unicode="&#x16a;" horiz-adv-x="556" d="M43 714 L43 230 C43 73 104 -14 278 -14 C441 -14 513 61 513 230 L513 714 L345 714 L345 187 C345 131 323 98 278 98 C232 98 211 133 211 187 L211 714 L43 714 Z M125 874 L125 786 L435 786 L435 874 L125 874 Z " />
<glyph glyph-name="umacron" unicode="&#x16b;" horiz-adv-x="519" d="M45 541 L45 136 C45 39 88 -14 186 -14 C241 -14 291 12 316 64 L318 64 L318 0 L474 0 L474 541 L312 541 L312 185 C312 140 289 110 254 110 C224 110 207 132 207 171 L207 541 L45 541 Z M106 714 L106 626 L416 626 L416 714 L106 714 Z " />
<glyph glyph-name="Ubreve" unicode="&#x16c;" horiz-adv-x="556" d="M43 714 L43 230 C43 73 104 -14 278 -14 C441 -14 513 61 513 230 L513 714 L345 714 L345 187 C345 131 323 98 278 98 C232 98 211 133 211 187 L211 714 L43 714 Z M135 901 C136 812 188 759 281 759 C370 759 425 812 425 901 L353 901 C348 862 313 837 280 837 C247 837 212 862 207 901 L135 901 Z " />
<glyph glyph-name="ubreve" unicode="&#x16d;" horiz-adv-x="519" d="M45 541 L45 136 C45 39 88 -14 186 -14 C241 -14 291 12 316 64 L318 64 L318 0 L474 0 L474 541 L312 541 L312 185 C312 140 289 110 254 110 C224 110 207 132 207 171 L207 541 L45 541 Z M116 741 C117 654 167 599 262 599 C351 599 406 652 406 741 L334 741 C329 701 293 677 261 677 C228 677 193 702 188 741 L116 741 Z " />
<glyph glyph-name="Uring" unicode="&#x16e;" horiz-adv-x="556" d="M43 714 L43 230 C43 73 104 -14 278 -14 C441 -14 513 61 513 230 L513 714 L345 714 L345 187 C345 131 323 98 278 98 C232 98 211 133 211 187 L211 714 L43 714 Z M280 967 C211 967 159 917 159 850 C159 783 210 735 280 735 C349 735 401 782 401 850 C401 916 351 967 280 967 L280 967 Z M220 850 C220 883 247 910 279 910 C315 910 340 882 340 850 C340 816 312 790 280 790 C247 790 220 817 220 850 L220 850 Z " />
<glyph glyph-name="uring" unicode="&#x16f;" horiz-adv-x="519" d="M45 541 L45 136 C45 39 88 -14 186 -14 C241 -14 291 12 316 64 L318 64 L318 0 L474 0 L474 541 L312 541 L312 185 C312 140 289 110 254 110 C224 110 207 132 207 171 L207 541 L45 541 Z M260 811 C192 811 139 762 139 694 C139 628 188 579 260 579 C330 579 381 627 381 694 C381 761 329 811 260 811 L260 811 Z M200 694 C200 728 228 754 259 754 C295 754 320 726 320 694 C320 663 295 634 260 634 C228 634 200 660 200 694 L200 694 Z " />
<glyph glyph-name="Uhungarumlaut" unicode="&#x170;" horiz-adv-x="556" d="M43 714 L43 230 C43 73 104 -14 278 -14 C441 -14 513 61 513 230 L513 714 L345 714 L345 187 C345 131 323 98 278 98 C232 98 211 133 211 187 L211 714 L43 714 Z M174 901 L124 759 L230 759 L330 901 L174 901 Z M374 901 L324 759 L430 759 L530 901 L374 901 Z " />
<glyph glyph-name="uhungarumlaut" unicode="&#x171;" horiz-adv-x="519" d="M45 541 L45 136 C45 39 88 -14 186 -14 C241 -14 291 12 316 64 L318 64 L318 0 L474 0 L474 541 L312 541 L312 185 C312 140 289 110 254 110 C224 110 207 132 207 171 L207 541 L45 541 Z M157 741 L107 599 L213 599 L313 741 L157 741 Z M357 741 L307 599 L413 599 L513 741 L357 741 Z " />
<glyph glyph-name="Uogonek" unicode="&#x172;" horiz-adv-x="556" d="M43 714 L43 230 C43 100 85 -5 249 -13 C193 -50 160 -89 160 -135 C160 -190 198 -224 268 -224 C311 -224 356 -212 383 -197 L360 -152 C342 -163 323 -168 304 -168 C273 -168 254 -152 254 -121 C254 -90 281 -53 332 -11 C448 3 513 72 513 230 L513 714 L345 714 L345 187 C345 130 323 98 278 98 C233 98 211 131 211 187 L211 714 L43 714 Z " />
<glyph glyph-name="uogonek" unicode="&#x173;" horiz-adv-x="519" d="M45 541 L45 136 C45 39 88 -14 186 -14 C243 -14 291 13 316 64 L318 64 L318 0 C256 -57 232 -92 232 -138 C232 -191 266 -224 330 -224 C369 -224 411 -212 434 -197 L414 -152 C399 -162 380 -168 363 -168 C331 -168 316 -150 316 -122 C316 -88 341 -47 388 0 L474 0 L474 541 L312 541 L312 185 C312 140 289 110 254 110 C224 110 207 132 207 172 L207 541 L45 541 Z " />
<glyph glyph-name="Wcircumflex" unicode="&#x174;" horiz-adv-x="778" d="M6 714 L132 0 L318 0 L387 507 L389 507 L462 0 L648 0 L772 714 L610 714 L550 206 L548 206 L468 714 L312 714 L238 206 L236 206 L174 714 L6 714 Z M307 901 L236 759 L355 759 L391 840 L428 759 L546 759 L475 901 L307 901 Z " />
<glyph glyph-name="wcircumflex" unicode="&#x175;" horiz-adv-x="741" d="M9 541 L122 0 L308 0 L371 399 L373 399 L432 0 L615 0 L732 541 L576 541 L519 142 L517 142 L460 541 L286 541 L225 142 L223 142 L171 541 L9 541 Z M290 741 L219 599 L338 599 L374 680 L411 599 L529 599 L458 741 L290 741 Z " />
<glyph glyph-name="Ycircumflex" unicode="&#x176;" horiz-adv-x="536" d="M3 714 L184 281 L184 0 L352 0 L352 281 L533 714 L353 714 L271 449 L269 449 L189 714 L3 714 Z M187 901 L116 759 L235 759 L271 840 L308 759 L426 759 L355 901 L187 901 Z " />
<glyph glyph-name="ycircumflex" unicode="&#x177;" horiz-adv-x="481" d="M10 541 L163 -4 C155 -44 134 -64 95 -64 C83 -64 67 -63 55 -60 L55 -174 C66 -175 82 -176 119 -176 C245 -176 286 -152 326 -4 L471 541 L309 541 L246 162 L244 162 L178 541 L10 541 Z M162 741 L91 599 L210 599 L246 680 L283 599 L401 599 L330 741 L162 741 Z " />
<glyph glyph-name="Ydieresis" unicode="&#x178;" horiz-adv-x="536" d="M3 714 L184 281 L184 0 L352 0 L352 281 L533 714 L353 714 L271 449 L269 449 L189 714 L3 714 Z M121 895 L121 765 L245 765 L245 895 L121 895 Z M297 895 L297 765 L421 765 L421 895 L297 895 Z " />
<glyph glyph-name="Zacute" unicode="&#x179;" horiz-adv-x="481" d="M42 714 L42 578 L265 578 L23 124 L23 0 L458 0 L458 136 L213 136 L458 596 L458 714 L42 714 Z M240 901 L190 759 L296 759 L396 901 L240 901 Z " />
<glyph glyph-name="zacute" unicode="&#x17a;" horiz-adv-x="463" d="M40 541 L40 417 L235 417 L31 124 L31 0 L432 0 L432 124 L217 124 L427 417 L427 541 L40 541 Z M224 741 L174 599 L280 599 L380 741 L224 741 Z " />
<glyph glyph-name="Zdotaccent" unicode="&#x17b;" horiz-adv-x="481" d="M42 714 L42 578 L265 578 L23 124 L23 0 L458 0 L458 136 L213 136 L458 596 L458 714 L42 714 Z M193 895 L193 765 L317 765 L317 895 L193 895 Z " />
<glyph glyph-name="zdotaccent" unicode="&#x17c;" horiz-adv-x="463" d="M40 541 L40 417 L235 417 L31 124 L31 0 L432 0 L432 124 L217 124 L427 417 L427 541 L40 541 Z M176 735 L176 605 L300 605 L300 735 L176 735 Z " />
<glyph glyph-name="Zcaron" unicode="&#x17d;" horiz-adv-x="481" d="M42 714 L42 578 L265 578 L23 124 L23 0 L458 0 L458 136 L213 136 L458 596 L458 714 L42 714 Z M99 901 L170 759 L338 759 L409 901 L291 901 L254 820 L218 901 L99 901 Z " />
<glyph glyph-name="zcaron" unicode="&#x17e;" horiz-adv-x="463" d="M40 541 L40 417 L235 417 L31 124 L31 0 L432 0 L432 124 L217 124 L427 417 L427 541 L40 541 Z M81 741 L152 599 L320 599 L391 741 L273 741 L236 660 L200 741 L81 741 Z " />
<glyph glyph-name="florin" unicode="&#x192;" horiz-adv-x="520" d="M425 714 C295 714 243 654 224 558 L197 421 L90 421 L71 327 L179 327 L119 19 C105 -52 86 -70 40 -70 C26 -70 12 -69 2 -68 L-19 -168 C12 -174 45 -176 71 -176 C209 -176 250 -98 270 7 L332 327 L443 327 L462 421 L350 421 L367 508 C382 586 398 608 452 608 C466 608 475 607 487 606 L509 709 C486 711 458 714 425 714 L425 714 Z " />
<glyph glyph-name="Scommaaccent" unicode="&#x218;" horiz-adv-x="537" d="M267 728 C100 728 33 639 33 518 C33 466 45 423 70 388 C98 349 142 323 220 295 C316 261 340 230 340 183 C340 128 312 98 264 98 C213 98 191 127 191 193 L191 218 L29 218 L29 180 C29 40 116 -14 264 -14 C428 -14 508 59 508 212 C508 348 423 388 338 421 C272 447 201 468 201 539 C201 591 225 616 268 616 C309 616 333 588 333 516 L495 516 L495 531 C495 660 416 728 267 728 L267 728 Z M196 -50 L196 -154 L257 -154 C254 -174 241 -180 213 -184 L213 -224 C279 -222 330 -207 330 -117 L330 -50 L196 -50 Z " />
<glyph glyph-name="scommaaccent" unicode="&#x219;" horiz-adv-x="463" d="M235 555 C101 555 29 498 29 392 C29 292 78 260 177 224 C233 203 288 195 288 141 C288 109 268 86 230 86 C191 86 171 110 169 172 L25 172 L25 149 C25 39 87 -14 231 -14 C363 -14 438 51 438 163 C438 278 361 310 278 335 C216 354 179 368 179 405 C179 440 197 455 234 455 C272 455 287 439 287 394 L287 385 L431 385 L431 402 C431 501 362 555 235 555 L235 555 Z M166 -50 L166 -154 L227 -154 C224 -174 211 -180 183 -184 L183 -224 C249 -222 300 -207 300 -117 L300 -50 L166 -50 Z " />
<glyph glyph-name="uni021A" unicode="&#x21a;" horiz-adv-x="480" d="M6 714 L6 578 L156 578 L156 0 L324 0 L324 578 L474 578 L474 714 L6 714 Z M172 -50 L172 -154 L233 -154 C230 -174 217 -180 189 -184 L189 -224 C255 -222 306 -207 306 -117 L306 -50 L172 -50 Z " />
<glyph glyph-name="uni021B" unicode="&#x21b;" horiz-adv-x="315" d="M66 700 L66 541 L-1 541 L-1 429 L66 429 L66 134 C66 11 103 -6 209 -6 C241 -6 270 -4 303 0 L303 108 C290 106 283 106 278 106 C239 106 228 120 228 156 L228 429 L303 429 L303 541 L228 541 L228 700 L66 700 Z M117 -50 L117 -154 L178 -154 C175 -174 162 -180 134 -184 L134 -224 C200 -222 251 -207 251 -117 L251 -50 L117 -50 Z " />
<glyph glyph-name="circumflex" unicode="&#x2c6;" horiz-adv-x="260" d="M46 741 L-25 599 L94 599 L130 680 L167 599 L285 599 L214 741 L46 741 Z " />
<glyph glyph-name="caron" unicode="&#x2c7;" horiz-adv-x="260" d="M-25 741 L46 599 L214 599 L285 741 L167 741 L130 660 L94 741 L-25 741 Z " />
<glyph glyph-name="uni02C9" unicode="&#x2c9;" horiz-adv-x="260" d="M-25 714 L-25 626 L285 626 L285 714 L-25 714 Z " />
<glyph glyph-name="breve" unicode="&#x2d8;" horiz-adv-x="260" d="M-15 741 C-14 654 36 599 131 599 C220 599 275 652 275 741 L203 741 C198 701 162 677 130 677 C97 677 62 702 57 741 L-15 741 Z " />
<glyph glyph-name="dotaccent" unicode="&#x2d9;" horiz-adv-x="260" d="M68 735 L68 605 L192 605 L192 735 L68 735 Z " />
<glyph glyph-name="ring" unicode="&#x2da;" horiz-adv-x="260" d="M130 811 C62 811 9 762 9 694 C9 628 58 579 130 579 C200 579 251 627 251 694 C251 761 199 811 130 811 L130 811 Z M70 694 C70 728 98 754 129 754 C165 754 190 726 190 694 C190 663 165 634 130 634 C98 634 70 660 70 694 L70 694 Z " />
<glyph glyph-name="ogonek" unicode="&#x2db;" horiz-adv-x="260" d="M125 0 C58 -37 13 -85 13 -135 C13 -191 52 -224 120 -224 C164 -224 210 -212 236 -197 L213 -152 C195 -163 176 -168 157 -168 C126 -168 107 -152 107 -121 C107 -88 138 -47 199 0 L125 0 Z " />
<glyph glyph-name="tilde" unicode="&#x2dc;" horiz-adv-x="260" d="M62 738 C11 738 -24 688 -32 602 L45 602 C51 624 62 632 74 632 C87 632 100 626 124 617 C150 607 172 602 192 602 C249 602 284 650 292 738 L212 738 C208 714 199 708 181 708 C166 708 154 711 125 722 C99 732 84 738 62 738 L62 738 Z " />
<glyph glyph-name="hungarumlaut" unicode="&#x2dd;" horiz-adv-x="260" d="M19 741 L-31 599 L75 599 L175 741 L19 741 Z M219 741 L169 599 L275 599 L375 741 L219 741 Z " />
<glyph glyph-name="uni0394" unicode="&#x394;" horiz-adv-x="561" d="M177 714 L-3 0 L564 0 L389 714 L177 714 Z M281 574 L283 574 L366 131 L195 131 L281 574 Z " />
<glyph glyph-name="uni03A9" unicode="&#x3a9;" horiz-adv-x="559" d="M280 729 C80 729 19 615 19 390 C19 280 36 218 113 139 L8 139 L8 0 L239 0 L239 142 C194 178 171 275 171 391 C171 541 209 615 280 615 C346 615 378 552 378 401 C378 274 354 173 310 139 L310 0 L550 0 L550 139 L445 139 C503 209 529 269 529 400 C529 607 474 729 280 729 L280 729 Z " />
<glyph glyph-name="uni03BC" unicode="&#x3bc;" horiz-adv-x="528" d="M37 539 L37 -176 L198 -176 L198 -6 C205 -11 215 -14 227 -14 C255 -14 294 5 316 65 L319 65 C336 13 374 -14 442 -14 C475 -14 502 -6 520 6 L520 96 C509 91 499 88 490 88 C470 88 467 101 467 159 L467 539 L305 539 L305 191 C305 141 284 109 245 109 C211 109 199 133 199 175 L199 539 L37 539 Z " />
<glyph glyph-name="pi" unicode="&#x3c0;" horiz-adv-x="581" d="M13 541 L13 417 L76 417 L76 0 L238 0 L238 417 L333 417 L333 123 C333 35 387 -14 470 -14 C511 -14 536 -2 563 12 L563 111 C543 103 533 102 523 102 C492 102 492 130 492 160 L492 417 L572 417 L572 541 L13 541 Z " />
<glyph glyph-name="uni1E9E" unicode="&#x1e9e;" horiz-adv-x="723" d="M584 714 C533 720 434 728 354 728 C196 728 52 694 52 460 L52 0 L220 0 L220 464 C220 611 296 616 354 616 C357 616 412 614 416 614 C361 597 289 561 289 462 C289 370 333 336 418 292 C509 245 522 211 522 160 C522 116 497 98 474 98 C438 98 419 119 417 201 L258 201 C260 24 338 -14 468 -14 C611 -14 690 62 690 182 C690 282 658 338 565 389 C483 434 458 449 458 497 C458 551 535 587 584 587 L584 714 Z " />
<glyph glyph-name="endash" unicode="&#x2013;" horiz-adv-x="500" d="M0 351 L0 227 L500 227 L500 351 L0 351 Z " />
<glyph glyph-name="emdash" unicode="&#x2014;" horiz-adv-x="1000" d="M80 351 L80 227 L920 227 L920 351 L80 351 Z " />
<glyph glyph-name="quoteleft" unicode="&#x2018;" horiz-adv-x="260" d="M208 714 C102 707 52 655 52 520 L52 365 L208 365 L208 539 L146 539 C146 608 164 636 208 636 L208 714 Z " />
<glyph glyph-name="quoteright" unicode="&#x2019;" horiz-adv-x="260" d="M52 714 L52 540 L114 540 C114 467 93 443 52 443 L52 365 C157 372 208 426 208 560 L208 714 L52 714 Z " />
<glyph glyph-name="quotesinglbase" unicode="&#x201a;" horiz-adv-x="260" d="M52 180 L52 6 L114 6 C114 -64 95 -91 52 -91 L52 -169 C156 -162 208 -110 208 26 L208 180 L52 180 Z " />
<glyph glyph-name="quotedblleft" unicode="&#x201c;" horiz-adv-x="481" d="M207 714 C102 707 51 656 51 520 L51 365 L207 365 L207 539 L145 539 C145 608 163 636 207 636 L207 714 Z M430 714 C325 707 274 656 274 520 L274 365 L430 365 L430 539 L368 539 C368 612 389 636 430 636 L430 714 Z " />
<glyph glyph-name="quotedblright" unicode="&#x201d;" horiz-adv-x="481" d="M51 714 L51 540 L113 540 C113 468 93 443 51 443 L51 365 C155 372 207 424 207 560 L207 714 L51 714 Z M274 714 L274 540 L336 540 C336 471 318 443 274 443 L274 365 C378 372 430 424 430 560 L430 714 L274 714 Z " />
<glyph glyph-name="quotedblbase" unicode="&#x201e;" horiz-adv-x="481" d="M51 180 L51 6 L113 6 C113 -64 94 -91 51 -91 L51 -169 C157 -162 207 -107 207 25 L207 180 L51 180 Z M274 180 L274 6 L336 6 C336 -64 317 -91 274 -91 L274 -169 C380 -162 430 -107 430 25 L430 180 L274 180 Z " />
<glyph glyph-name="dagger" unicode="&#x2020;" horiz-adv-x="520" d="M179 714 L179 521 L12 521 L12 391 L179 391 L179 -138 L341 -138 L341 391 L508 391 L508 521 L341 521 L341 714 L179 714 Z " />
<glyph glyph-name="daggerdbl" unicode="&#x2021;" horiz-adv-x="520" d="M179 714 L179 521 L12 521 L12 391 L179 391 L179 184 L12 184 L12 54 L179 54 L179 -138 L341 -138 L341 54 L507 54 L507 184 L341 184 L341 391 L508 391 L508 521 L341 521 L341 714 L179 714 Z " />
<glyph glyph-name="bullet" unicode="&#x2022;" horiz-adv-x="500" d="M250 535 C148 535 72 456 72 357 C72 257 150 179 250 179 C350 179 428 257 428 357 C428 456 350 535 250 535 L250 535 Z " />
<glyph glyph-name="ellipsis" unicode="&#x2026;" horiz-adv-x="1000" d="M89 180 L89 0 L245 0 L245 180 L89 180 Z M422 180 L422 0 L578 0 L578 180 L422 180 Z M755 180 L755 0 L911 0 L911 180 L755 180 Z " />
<glyph glyph-name="perthousand" unicode="&#x2030;" horiz-adv-x="1111" d="M169 708 C42 708 11 633 11 515 C11 404 29 324 170 324 C308 324 327 403 327 516 C327 621 313 708 169 708 L169 708 Z M489 708 L175 -14 L276 -14 L590 708 L489 708 Z M129 520 C129 603 138 625 169 625 C198 625 209 612 209 520 C209 434 204 407 169 407 C139 407 129 436 129 520 L129 520 Z M593 370 C467 370 435 296 435 178 C435 66 453 -14 594 -14 C737 -14 751 72 751 178 C751 288 734 370 593 370 L593 370 Z M942 370 C816 370 784 297 784 177 C784 71 799 -14 943 -14 C1082 -14 1100 66 1100 178 C1100 282 1087 370 942 370 L942 370 Z M593 69 C565 69 553 94 553 178 C553 245 557 287 593 287 C622 287 633 274 633 182 C633 93 627 69 593 69 L593 69 Z M902 179 C902 240 905 287 942 287 C972 287 982 272 982 183 C982 104 979 69 943 69 C912 69 902 97 902 179 L902 179 Z " />
<glyph glyph-name="guilsinglleft" unicode="&#x2039;" horiz-adv-x="260" d="M52 386 L52 192 L208 82 L208 232 L125 289 L208 346 L208 496 L52 386 Z " />
<glyph glyph-name="guilsinglright" unicode="&#x203a;" horiz-adv-x="260" d="M52 496 L52 346 L135 289 L52 232 L52 82 L208 192 L208 386 L52 496 Z " />
<glyph glyph-name="fraction" unicode="&#x2044;" horiz-adv-x="167" d="M234 725 L-166 -31 L-67 -31 L333 725 L234 725 Z " />
<glyph glyph-name="Euro" unicode="&#x20ac;" horiz-adv-x="480" d="M319 712 C174 712 102 634 90 470 L53 470 L25 382 L86 382 L86 331 L50 331 L22 243 L88 243 C95 64 166 -15 303 -15 C364 -15 411 0 459 33 L459 186 C414 131 369 96 324 96 C267 96 244 144 242 243 L348 243 L376 331 L240 331 L240 382 L385 382 L413 470 L242 470 C244 560 272 602 331 602 C367 602 399 581 430 538 L479 667 C422 700 373 712 319 712 L319 712 Z " />
<glyph glyph-name="uni20B9" unicode="&#x20b9;" horiz-adv-x="520" d="M510 460 L510 548 L406 548 C401 566 392 590 376 606 L510 606 L510 694 L52 694 L52 606 L140 606 C189 606 226 597 238 548 L51 548 L51 460 L243 460 C235 403 192 387 135 387 L51 387 L51 293 L243 0 L440 0 L242 283 C346 285 409 352 411 460 L510 460 Z " />
<glyph glyph-name="uni20BA" unicode="&#x20ba;" horiz-adv-x="520" d="M389 410 L389 505 L242 430 L242 500 L389 575 L389 670 L242 595 L242 697 L86 697 L86 516 L16 481 L16 386 L86 421 L86 351 L16 316 L16 221 L86 256 L86 0 L222 0 C424 0 506 119 506 341 L356 341 C356 189 323 106 242 106 L242 335 L389 410 Z " />
<glyph glyph-name="uni20BC" unicode="&#x20bc;" horiz-adv-x="709" d="M428 466 C550 411 537 161 537 38 L537 0 L688 0 L688 63 C688 285 650 529 428 572 L428 697 L277 697 L277 572 C55 529 17 285 17 63 L17 0 L168 0 L168 38 C168 161 155 411 277 466 L277 70 L428 70 L428 466 Z " />
<glyph glyph-name="ruble" unicode="&#x20bd;" horiz-adv-x="519" d="M238 148 L383 148 L383 236 L238 236 L238 298 L281 298 C425 298 514 361 514 505 C514 657 434 697 282 697 L82 697 L82 386 L5 386 L5 298 L82 298 L82 236 L5 236 L5 148 L82 148 L82 0 L238 0 L238 148 Z M238 386 L238 591 L272 591 C332 591 350 557 350 498 C350 437 334 386 272 386 L238 386 Z " />
<glyph glyph-name="afii61289" unicode="&#x2113;" horiz-adv-x="500" d="M301 721 C187 721 113 630 113 523 L113 287 L5 201 L59 119 L114 166 L114 137 C114 52 173 -14 284 -14 C349 -14 405 7 462 55 L411 133 C379 108 347 95 322 95 C287 95 263 118 263 160 L263 264 C403 379 458 471 458 568 C458 660 396 721 301 721 L301 721 Z M263 550 C263 593 280 622 299 622 C326 622 336 587 336 559 C336 496 310 438 263 389 L263 550 Z " />
<glyph glyph-name="trademark" unicode="&#x2122;" horiz-adv-x="990" d="M30 714 L30 614 L134 614 L134 302 L264 302 L264 614 L368 614 L368 714 L30 714 Z M436 714 L436 302 L548 302 L548 584 L550 584 L643 302 L741 302 L834 584 L836 584 L836 302 L948 302 L948 714 L774 714 L693 464 L691 464 L610 714 L436 714 Z " />
<glyph glyph-name="Omega" unicode="&#x2126;" horiz-adv-x="559" d="M280 729 C80 729 19 615 19 390 C19 280 36 218 113 139 L8 139 L8 0 L239 0 L239 142 C194 178 171 275 171 391 C171 541 209 615 280 615 C346 615 378 552 378 401 C378 274 354 173 310 139 L310 0 L550 0 L550 139 L445 139 C503 209 529 269 529 400 C529 607 474 729 280 729 L280 729 Z " />
<glyph glyph-name="estimated" unicode="&#x212e;" horiz-adv-x="600" d="M302 535 C146 535 44 415 44 259 C44 110 141 -17 302 -17 C409 -17 471 25 530 118 L495 139 C445 56 386 19 302 19 C244 19 196 39 157 78 L157 259 L561 259 C559 431 448 535 302 535 L302 535 Z M157 440 C198 481 248 500 300 500 C358 500 407 479 448 440 L448 295 L157 295 L157 440 Z " />
<glyph glyph-name="partialdiff" unicode="&#x2202;" horiz-adv-x="584" d="M263 721 C196 721 139 704 68 642 L147 554 C186 590 222 609 267 609 C366 609 394 499 394 405 C357 432 314 449 266 449 C135 449 43 350 43 221 C43 82 138 -14 280 -14 C452 -14 540 118 540 358 C540 562 457 721 263 721 L263 721 Z M185 214 C185 288 226 341 290 341 C326 341 360 325 392 293 C392 163 354 94 281 94 C216 94 185 153 185 214 L185 214 Z " />
<glyph glyph-name="Delta" unicode="&#x2206;" horiz-adv-x="561" d="M177 714 L-3 0 L564 0 L389 714 L177 714 Z M281 574 L283 574 L366 131 L195 131 L281 574 Z " />
<glyph glyph-name="product" unicode="&#x220f;" horiz-adv-x="755" d="M51 786 L51 -214 L198 -214 L198 643 L557 643 L557 -214 L704 -214 L704 786 L51 786 Z " />
<glyph glyph-name="summation" unicode="&#x2211;" horiz-adv-x="691" d="M40 786 L40 660 L319 293 L29 -89 L29 -214 L663 -214 L663 -70 L220 -70 L492 293 L236 642 L651 642 L651 786 L40 786 Z " />
<glyph glyph-name="minus" unicode="&#x2212;" horiz-adv-x="600" d="M47 318 L47 188 L553 188 L553 318 L47 318 Z " />
<glyph glyph-name="uni2215" unicode="&#x2215;" horiz-adv-x="167" d="M234 725 L-166 -31 L-67 -31 L333 725 L234 725 Z " />
<glyph glyph-name="uni2219" unicode="&#x2219;" horiz-adv-x="260" d="M130 376 C71 376 27 329 27 273 C27 217 71 170 130 170 C188 170 233 217 233 273 C233 329 189 376 130 376 L130 376 Z " />
<glyph glyph-name="radical" unicode="&#x221a;" horiz-adv-x="595" d="M447 786 L290 12 L180 253 L-7 167 L46 53 L103 79 L247 -214 L379 -214 L602 786 L447 786 Z " />
<glyph glyph-name="infinity" unicode="&#x221e;" horiz-adv-x="873" d="M240 479 C119 479 45 394 45 272 C45 151 122 62 245 62 C317 62 372 95 437 178 C497 99 560 61 632 61 C754 61 828 152 828 273 C828 396 753 479 633 479 C560 479 501 448 437 355 C375 439 318 479 240 479 L240 479 Z M167 270 C167 316 196 351 240 351 C280 351 321 320 361 268 C317 211 280 190 243 190 C196 190 167 223 167 270 L167 270 Z M511 268 C556 327 595 351 627 351 C676 351 705 318 705 271 C705 226 677 189 631 189 C589 189 553 213 511 268 L511 268 Z " />
<glyph glyph-name="integral" unicode="&#x222b;" horiz-adv-x="649" d="M417 785 C241 785 229 629 229 483 L229 43 C229 4 237 -65 237 -112 C237 -138 231 -151 217 -151 C204 -151 201 -140 196 -113 C190 -79 179 -52 135 -52 C95 -52 67 -75 67 -114 C67 -184 141 -214 199 -214 C339 -214 385 -109 385 65 L385 503 C385 546 377 630 377 680 C377 712 385 721 396 721 C407 721 413 712 418 688 C426 646 441 622 481 622 C522 622 549 651 549 691 C549 755 476 785 417 785 L417 785 Z " />
<glyph glyph-name="approxequal" unicode="&#x2248;" horiz-adv-x="593" d="M181 493 C87 493 22 408 17 291 L112 291 C116 326 141 347 167 347 C200 347 238 335 292 316 C349 296 385 286 419 286 C505 286 566 374 576 491 L480 491 C476 454 459 436 425 436 C394 436 358 446 306 464 C253 482 218 493 181 493 L181 493 Z M171 254 C77 254 21 143 17 50 L111 50 C115 83 135 106 166 106 C191 106 219 100 274 81 C337 59 379 44 423 44 C505 44 567 124 576 251 L480 251 C474 211 456 194 424 194 C385 194 343 208 298 224 C232 248 199 254 171 254 L171 254 Z " />
<glyph glyph-name="notequal" unicode="&#x2260;" horiz-adv-x="593" d="M392 623 L313 463 L26 463 L26 317 L241 317 L194 224 L26 224 L26 77 L122 77 L74 -20 L202 -83 L281 77 L566 77 L566 224 L354 224 L400 317 L566 317 L566 463 L472 463 L520 560 L392 623 Z " />
<glyph glyph-name="lessequal" unicode="&#x2264;" horiz-adv-x="593" d="M566 588 L26 433 L26 288 L566 123 L566 273 L229 361 L566 438 L566 588 Z M26 97 L26 -49 L566 -49 L566 97 L26 97 Z " />
<glyph glyph-name="greaterequal" unicode="&#x2265;" horiz-adv-x="593" d="M26 588 L26 438 L363 361 L26 273 L26 123 L566 288 L566 433 L26 588 Z M26 97 L26 -49 L566 -49 L566 97 L26 97 Z " />
<glyph glyph-name="lozenge" unicode="&#x25ca;" horiz-adv-x="593" d="M230 747 L39 356 L229 -35 L362 -35 L554 356 L362 747 L230 747 Z M296 599 L403 356 L296 112 L188 356 L296 599 Z " />
<glyph glyph-name="dotlessj" unicode="&#xe0d6;" horiz-adv-x="260" d="M49 541 L49 1 C49 -49 39 -64 -2 -64 C-7 -64 -12 -64 -23 -63 L-23 -174 C-1 -175 29 -176 39 -176 C165 -176 211 -144 211 -19 L211 541 L49 541 Z " />
<glyph glyph-name="grave.cap" unicode="&#xe300;" horiz-adv-x="260" d="M-15 901 L85 759 L191 759 L141 901 L-15 901 Z " />
<glyph glyph-name="acute.cap" unicode="&#xe301;" horiz-adv-x="260" d="M119 901 L69 759 L175 759 L275 901 L119 901 Z " />
<glyph glyph-name="circumflex.cap" unicode="&#xe302;" horiz-adv-x="260" d="M46 901 L-25 759 L94 759 L130 840 L167 759 L285 759 L214 901 L46 901 Z " />
<glyph glyph-name="caron.cap" unicode="&#xe303;" horiz-adv-x="260" d="M-25 901 L46 759 L214 759 L285 901 L167 901 L130 820 L94 901 L-25 901 Z " />
<glyph glyph-name="tilde.cap" unicode="&#xe304;" horiz-adv-x="260" d="M62 898 C10 898 -24 847 -32 762 L45 762 C51 784 61 792 74 792 C85 792 98 787 124 777 C151 767 171 762 192 762 C249 762 284 810 292 898 L212 898 C208 874 199 868 181 868 C165 868 148 873 122 883 C97 893 81 898 62 898 L62 898 Z " />
<glyph glyph-name="dieresis.cap" unicode="&#xe305;" horiz-adv-x="260" d="M-20 895 L-20 765 L104 765 L104 895 L-20 895 Z M156 895 L156 765 L280 765 L280 895 L156 895 Z " />
<glyph glyph-name="macron.cap" unicode="&#xe306;" horiz-adv-x="260" d="M-25 874 L-25 786 L285 786 L285 874 L-25 874 Z " />
<glyph glyph-name="breve.cap" unicode="&#xe307;" horiz-adv-x="260" d="M-15 901 C-14 812 38 759 131 759 C220 759 275 812 275 901 L203 901 C198 862 163 837 130 837 C97 837 62 862 57 901 L-15 901 Z " />
<glyph glyph-name="ring.cap" unicode="&#xe308;" horiz-adv-x="260" d="M130 967 C61 967 9 917 9 850 C9 783 60 735 130 735 C199 735 251 782 251 850 C251 916 201 967 130 967 L130 967 Z M70 850 C70 883 97 910 129 910 C165 910 190 882 190 850 C190 816 162 790 130 790 C97 790 70 817 70 850 L70 850 Z " />
<glyph glyph-name="hungarumlaut.cap" unicode="&#xe309;" horiz-adv-x="260" d="M19 901 L-31 759 L75 759 L175 901 L19 901 Z M219 901 L169 759 L275 759 L375 901 L219 901 Z " />
<glyph glyph-name="dotaccent.cap" unicode="&#xe30a;" horiz-adv-x="260" d="M68 895 L68 765 L192 765 L192 895 L68 895 Z " />
<glyph glyph-name="caron.alt" unicode="&#xe30b;" horiz-adv-x="260" d="M95 714 L69 572 L167 572 L226 714 L95 714 Z " />
<glyph glyph-name="commaaccent" unicode="&#xe30c;" horiz-adv-x="260" d="M64 -50 L64 -154 L125 -154 C122 -174 109 -180 81 -184 L81 -224 C147 -222 198 -207 198 -117 L198 -50 L64 -50 Z " />
<glyph glyph-name="commaaccent.alt" unicode="&#xe30d;" horiz-adv-x="260" d="M179 784 C91 782 62 749 62 675 L62 610 L196 610 L196 714 L135 714 C138 733 148 739 179 744 L179 784 Z " />
<glyph glyph-name="uniF8FF" unicode="&#xf8ff;" horiz-adv-x="512" d="M0 718 L0 0 L512 0 L512 718 L0 718 Z M50 50 L50 667 L462 667 L462 50 L50 50 Z M259 609 C181 609 133 562 124 472 L174 464 C182 528 212 559 256 559 C296 559 332 520 332 474 C332 440 308 415 286 395 C266 376 250 358 239 339 C229 320 223 292 223 253 L225 234 L271 234 C271 274 273 299 278 311 C283 322 297 337 319 357 C362 396 383 424 383 478 C383 556 330 609 259 609 L259 609 Z M222 117 L278 117 L278 184 L222 184 L222 117 Z " />
<glyph glyph-name="fi" unicode="&#xfb01;" horiz-adv-x="556" d="M232 728 C101 728 66 688 66 587 L66 541 L-1 541 L-1 429 L66 429 L66 0 L228 0 L228 429 L303 429 L303 541 L228 541 L228 576 C228 607 238 616 280 616 C285 616 290 616 303 615 L303 725 C288 727 264 728 232 728 L232 728 Z M345 722 L345 598 L507 598 L507 722 L345 722 Z M345 541 L345 0 L507 0 L507 541 L345 541 Z " />
<glyph glyph-name="fl" unicode="&#xfb02;" horiz-adv-x="556" d="M232 728 C101 728 66 688 66 587 L66 541 L-1 541 L-1 429 L66 429 L66 0 L228 0 L228 429 L303 429 L303 541 L228 541 L228 576 C228 607 238 616 280 616 C285 616 290 616 303 615 L303 725 C288 727 264 728 232 728 L232 728 Z M345 714 L345 0 L507 0 L507 714 L345 714 Z " />
</font>
</svg>
