<?xml version="1.0" encoding="UTF-8"?>
<svg xmlns="http://www.w3.org/2000/svg" xmlns:xlink="http://www.w3.org/1999/xlink" version="1.2" >
<font id="Helvetica Neue LT Pro 77 Bold Condensed">
<font-face  font-family="Helvetica Neue LT Pro" units-per-em="1000" ascent="714" descent="-286" font-style="normal" font-weight="700" font-stretch="condensed" cap-height="714" x-height="538" underline-position="-75" underline-thickness="50" />
<missing-glyph  horiz-adv-x="512" d="M0 718 L0 0 L512 0 L512 718 L0 718 Z M50 50 L50 667 L462 667 L462 50 L50 50 Z M383 478 C383 556 330 609 259 609 C182 609 133 562 124 472 L174 464 C182 528 212 559 256 559 C297 559 332 522 332 474 C332 440 311 420 287 396 C267 376 247 353 237 334 C227 315 223 289 223 273 C223 258 223 245 225 234 L271 234 C271 266 273 294 277 306 C281 319 297 337 319 357 C362 396 383 426 383 478 L383 478 Z M222 117 L278 117 L278 184 L222 184 L222 117 Z " />
<glyph glyph-name=".null" d="" />
<glyph glyph-name="CR" unicode="&#xd;" horiz-adv-x="240" d="" />
<glyph glyph-name="space" unicode="&#x20;" horiz-adv-x="240" d="" />
<glyph glyph-name="exclam" unicode="&#x21;" horiz-adv-x="296" d="M79 714 L79 482 L98 199 L198 199 L217 482 L217 714 L79 714 Z M79 132 L79 0 L217 0 L217 132 L79 132 Z " />
<glyph glyph-name="quotedbl" unicode="&#x22;" horiz-adv-x="463" d="M72 714 L72 393 L196 393 L196 714 L72 714 Z M267 714 L267 393 L391 393 L391 714 L267 714 Z " />
<glyph glyph-name="numbersign" unicode="&#x23;" horiz-adv-x="480" d="M138 694 L116 520 L30 520 L30 408 L103 408 L87 286 L0 286 L0 174 L74 174 L52 0 L149 0 L170 174 L268 174 L246 0 L343 0 L365 174 L451 174 L451 286 L378 286 L394 408 L480 408 L480 520 L407 520 L429 694 L332 694 L310 520 L213 520 L234 694 L138 694 Z M297 408 L281 286 L184 286 L199 408 L297 408 Z " />
<glyph glyph-name="dollar" unicode="&#x24;" horiz-adv-x="480" d="M205 777 L205 708 C80 694 18 622 18 504 C18 404 66 344 155 312 L205 294 L205 92 C165 102 147 131 147 208 L147 212 L9 212 L9 192 C9 71 53 -1 205 -14 L205 -101 L269 -101 L269 -14 C408 -5 471 63 471 200 C471 289 444 342 350 380 L269 413 L269 602 C300 593 316 561 316 505 L454 505 L454 518 C454 634 392 697 269 708 L269 777 L205 777 Z M156 526 C156 567 172 592 205 602 L205 442 C172 461 156 489 156 526 L156 526 Z M269 269 C309 249 327 221 327 172 C327 129 305 100 269 92 L269 269 Z " />
<glyph glyph-name="percent" unicode="&#x25;" horiz-adv-x="778" d="M546 725 L140 -31 L229 -31 L635 725 L546 725 Z M177 708 C58 708 27 652 27 517 C27 402 44 326 177 326 C310 326 327 401 327 517 C327 634 309 708 177 708 L177 708 Z M133 521 C133 594 137 632 177 632 C220 632 221 583 221 521 C221 438 216 402 177 402 C138 402 133 438 133 521 L133 521 Z M601 368 C468 368 451 293 451 177 C451 63 467 -14 601 -14 C730 -14 751 55 751 177 C751 295 732 368 601 368 L601 368 Z M557 181 C557 254 561 292 601 292 C644 292 645 243 645 181 C645 98 640 62 601 62 C562 62 557 98 557 181 L557 181 Z " />
<glyph glyph-name="ampersand" unicode="&#x26;" horiz-adv-x="593" d="M265 714 C156 714 83 654 83 563 C83 514 96 487 133 432 L156 398 C59 336 12 271 12 192 C12 97 63 -14 230 -14 C302 -14 366 11 403 55 L443 0 L596 0 L502 132 C549 200 575 270 575 343 L451 343 C451 312 440 262 426 235 L319 380 C409 444 443 497 443 565 C443 655 379 714 265 714 L265 714 Z M201 568 C201 603 225 626 262 626 C301 626 325 603 325 566 C325 548 319 521 280 488 L254 466 L238 489 C207 533 201 550 201 568 L201 568 Z M150 192 C150 233 165 268 223 313 L343 143 C319 112 286 98 250 98 C190 98 150 143 150 192 L150 192 Z " />
<glyph glyph-name="quotesingle" unicode="&#x27;" horiz-adv-x="260" d="M68 714 L68 393 L192 393 L192 714 L68 714 Z " />
<glyph glyph-name="parenleft" unicode="&#x28;" horiz-adv-x="296" d="M190 714 C101 573 50 417 50 265 C50 113 99 -40 190 -184 L296 -184 C218 -42 182 83 182 265 C182 450 221 579 296 714 L190 714 Z " />
<glyph glyph-name="parenright" unicode="&#x29;" horiz-adv-x="296" d="M0 714 C81 565 114 441 114 265 C114 93 84 -28 0 -184 L106 -184 C200 -33 246 116 246 265 C246 414 199 567 106 714 L0 714 Z " />
<glyph glyph-name="asterisk" unicode="&#x2a;" horiz-adv-x="390" d="M154 714 L154 586 L32 626 L7 548 L129 508 L53 404 L120 356 L195 460 L270 356 L337 404 L261 508 L383 548 L358 626 L236 586 L236 714 L154 714 Z " />
<glyph glyph-name="plus" unicode="&#x2b;" horiz-adv-x="600" d="M238 506 L238 315 L47 315 L47 191 L238 191 L238 0 L362 0 L362 191 L553 191 L553 315 L362 315 L362 506 L238 506 Z " />
<glyph glyph-name="comma" unicode="&#x2c;" horiz-adv-x="240" d="M54 156 L54 0 L106 0 L106 -15 C106 -56 88 -88 54 -95 L54 -165 C141 -156 186 -107 186 20 L186 156 L54 156 Z " />
<glyph glyph-name="hyphen" unicode="&#x2d;" horiz-adv-x="370" d="M44 348 L44 230 L326 230 L326 348 L44 348 Z " />
<glyph glyph-name="period" unicode="&#x2e;" horiz-adv-x="240" d="M54 156 L54 0 L186 0 L186 156 L54 156 Z " />
<glyph glyph-name="slash" unicode="&#x2f;" horiz-adv-x="332" d="M223 728 L-3 -14 L109 -14 L335 728 L223 728 Z " />
<glyph glyph-name="zero" unicode="0" horiz-adv-x="480" d="M240 708 C43 708 18 556 18 332 C18 89 61 -14 240 -14 C432 -14 462 129 462 362 C462 615 413 708 240 708 L240 708 Z M162 389 C162 569 183 614 240 614 C302 614 318 569 318 402 L318 305 C318 140 304 80 240 80 C169 80 162 147 162 298 L162 389 Z " />
<glyph glyph-name="one" unicode="1" horiz-adv-x="480" d="M220 708 C205 630 151 594 56 594 L41 594 L41 500 L182 500 L182 0 L326 0 L326 708 L220 708 Z " />
<glyph glyph-name="two" unicode="2" horiz-adv-x="480" d="M238 708 C98 708 18 648 18 499 L18 476 L156 476 C156 581 181 614 236 614 C283 614 306 586 306 525 C306 443 289 416 228 360 L174 310 C112 253 77 207 53 159 C30 112 18 59 18 0 L454 0 L454 112 L187 112 C197 147 220 179 263 219 L340 290 C409 354 450 414 450 515 C450 641 377 708 238 708 L238 708 Z " />
<glyph glyph-name="three" unicode="3" horiz-adv-x="480" d="M238 708 C101 708 30 636 30 499 L162 499 L162 505 C162 583 184 614 235 614 C287 614 304 581 304 521 C304 475 289 409 223 409 L175 409 L175 315 L223 315 C286 315 316 280 316 193 C316 100 284 80 237 80 C179 80 158 117 158 207 L20 207 C20 54 100 -14 226 -14 C380 -14 460 62 460 201 C460 305 415 354 334 368 L334 370 C402 385 442 442 442 526 C442 647 371 708 238 708 L238 708 Z " />
<glyph glyph-name="four" unicode="4" horiz-adv-x="480" d="M249 708 L14 265 L14 147 L266 147 L266 0 L398 0 L398 147 L466 147 L466 259 L398 259 L398 708 L249 708 Z M266 528 L266 259 L126 259 L264 528 L266 528 Z " />
<glyph glyph-name="five" unicode="5" horiz-adv-x="480" d="M56 694 L30 309 L159 309 C164 351 188 374 228 374 C293 374 310 338 310 225 C310 129 283 86 226 86 C180 86 156 124 156 202 L18 202 L18 187 C18 52 92 -14 227 -14 C383 -14 454 61 454 248 C454 392 396 474 281 474 C221 474 178 458 151 421 L149 421 L164 582 L425 582 L425 694 L56 694 Z " />
<glyph glyph-name="six" unicode="6" horiz-adv-x="480" d="M251 708 C23 708 14 526 14 322 C14 141 40 -14 237 -14 C389 -14 466 68 466 239 C466 383 406 460 293 460 C234 460 185 438 160 399 L158 399 L158 434 C158 524 164 614 246 614 C291 614 311 587 311 528 L449 528 C445 649 374 708 251 708 L251 708 Z M165 220 C165 312 185 354 244 354 C300 354 322 316 322 220 C322 131 309 80 244 80 C188 80 165 118 165 220 L165 220 Z " />
<glyph glyph-name="seven" unicode="7" horiz-adv-x="480" d="M22 694 L22 570 L320 570 C198 402 125 205 99 0 L250 0 C278 229 354 438 458 584 L458 694 L22 694 Z " />
<glyph glyph-name="eight" unicode="8" horiz-adv-x="480" d="M240 708 C101 708 32 643 32 514 C32 451 65 394 134 377 L134 375 C60 360 14 295 14 200 C14 61 94 -14 240 -14 C386 -14 466 61 466 200 C466 296 420 360 346 375 L346 377 C412 392 448 454 448 514 C448 641 381 708 240 708 L240 708 Z M170 517 C170 587 197 614 240 614 C288 614 310 581 310 517 C310 453 285 418 240 418 C195 418 170 452 170 517 L170 517 Z M158 202 C158 294 190 324 240 324 C295 324 322 287 322 202 C322 116 293 80 240 80 C187 80 158 115 158 202 L158 202 Z " />
<glyph glyph-name="nine" unicode="9" horiz-adv-x="480" d="M243 708 C78 708 14 611 14 455 C14 339 54 234 187 234 C237 234 291 251 320 294 L322 294 L322 269 C322 179 319 80 234 80 C182 80 169 119 169 165 L31 165 C35 41 110 -14 229 -14 C462 -14 466 180 466 372 C466 525 453 708 243 708 L243 708 Z M158 475 C158 536 161 614 235 614 C310 614 315 542 315 474 C315 389 300 340 236 340 C187 340 158 366 158 475 L158 475 Z " />
<glyph glyph-name="colon" unicode="&#x3a;" horiz-adv-x="240" d="M54 521 L54 365 L186 365 L186 521 L54 521 Z M54 156 L54 0 L186 0 L186 156 L54 156 Z " />
<glyph glyph-name="semicolon" unicode="&#x3b;" horiz-adv-x="240" d="M54 521 L54 365 L186 365 L186 521 L54 521 Z M54 156 L54 0 L106 0 L106 -16 C106 -56 87 -89 54 -95 L54 -165 C147 -155 186 -100 186 21 L186 156 L54 156 Z " />
<glyph glyph-name="less" unicode="&#x3c;" horiz-adv-x="600" d="M553 514 L47 306 L47 200 L553 -8 L553 116 L215 253 L553 390 L553 514 Z " />
<glyph glyph-name="equal" unicode="&#x3d;" horiz-adv-x="600" d="M47 424 L47 300 L553 300 L553 424 L47 424 Z M47 206 L47 82 L553 82 L553 206 L47 206 Z " />
<glyph glyph-name="greater" unicode="&#x3e;" horiz-adv-x="600" d="M47 390 L385 253 L47 116 L47 -8 L553 200 L553 306 L47 514 L47 390 Z " />
<glyph glyph-name="question" unicode="&#x3f;" horiz-adv-x="481" d="M234 722 C114 722 36 650 36 512 L36 493 L168 493 L168 515 C168 593 194 628 239 628 C279 628 307 601 307 542 C307 493 291 461 266 433 L231 394 C183 341 169 299 169 235 L169 198 L293 198 L293 217 C293 265 310 293 341 327 L382 373 C423 419 445 465 445 529 C445 653 367 722 234 722 L234 722 Z M162 132 L162 0 L300 0 L300 132 L162 132 Z " />
<glyph glyph-name="at" unicode="&#x40;" horiz-adv-x="800" d="M400 728 C195 728 29 562 29 357 C29 152 194 -14 400 -14 C534 -14 651 32 730 144 L641 144 C575 103 502 80 424 80 C277 80 141 198 141 356 C141 506 266 634 417 634 C558 634 683 535 683 404 C683 361 672 317 648 281 C633 259 608 231 579 230 C566 230 559 237 559 250 C559 264 563 283 567 299 L623 541 L535 541 L522 488 C495 532 455 555 401 555 C270 555 187 431 187 309 C187 199 264 139 333 139 C383 139 420 159 453 192 L455 192 C458 156 483 139 520 139 C571 139 642 175 685 216 C744 272 771 345 771 425 C771 602 608 728 400 728 L400 728 Z M299 326 C299 382 349 449 411 449 C453 449 486 414 486 373 C486 314 438 245 370 245 C326 245 299 285 299 326 L299 326 Z " />
<glyph glyph-name="A" unicode="A" horiz-adv-x="556" d="M189 714 L0 0 L150 0 L183 151 L373 151 L406 0 L556 0 L367 714 L189 714 Z M279 590 L348 269 L208 269 L277 590 L279 590 Z " />
<glyph glyph-name="B" unicode="B" horiz-adv-x="556" d="M50 714 L50 0 L298 0 C437 0 516 74 516 209 C516 300 470 363 386 375 L386 377 C459 398 494 456 494 534 C494 655 424 714 296 714 L50 714 Z M194 608 L248 608 C320 608 350 582 350 515 C350 424 287 421 213 421 L194 421 L194 608 Z M194 321 L259 321 C331 321 366 286 366 214 C366 155 343 106 251 106 L194 106 L194 321 Z " />
<glyph glyph-name="C" unicode="C" horiz-adv-x="537" d="M278 728 C72 728 35 591 35 357 C35 117 74 -14 278 -14 C462 -14 505 110 505 273 L361 273 C361 142 335 92 271 92 C202 92 179 147 179 349 C179 529 191 622 269 622 C343 622 355 560 355 473 L499 473 L499 480 C499 631 445 728 278 728 L278 728 Z " />
<glyph glyph-name="D" unicode="D" horiz-adv-x="574" d="M57 714 L57 0 L289 0 C488 0 529 141 529 367 C529 535 512 714 298 714 L57 714 Z M201 106 L201 608 L262 608 C371 608 385 525 385 363 C385 169 364 106 268 106 L201 106 Z " />
<glyph glyph-name="E" unicode="E" horiz-adv-x="481" d="M50 714 L50 0 L459 0 L459 118 L194 118 L194 310 L434 310 L434 428 L194 428 L194 596 L449 596 L449 714 L50 714 Z " />
<glyph glyph-name="F" unicode="F" horiz-adv-x="463" d="M50 714 L50 0 L194 0 L194 310 L434 310 L434 428 L194 428 L194 596 L449 596 L449 714 L50 714 Z " />
<glyph glyph-name="G" unicode="G" horiz-adv-x="556" d="M283 728 C91 728 43 592 43 364 C43 93 91 -14 255 -14 C321 -14 371 9 405 66 L407 66 L407 0 L513 0 L513 385 L280 385 L280 279 L375 279 L375 207 C375 128 321 92 286 92 C219 92 187 155 187 371 C187 573 226 622 285 622 C345 622 366 556 367 502 L505 502 C505 654 433 728 283 728 L283 728 Z " />
<glyph glyph-name="H" unicode="H" horiz-adv-x="556" d="M50 714 L50 0 L194 0 L194 317 L362 317 L362 0 L506 0 L506 714 L362 714 L362 441 L194 441 L194 714 L50 714 Z " />
<glyph glyph-name="I" unicode="I" horiz-adv-x="258" d="M57 714 L57 0 L201 0 L201 714 L57 714 Z " />
<glyph glyph-name="J" unicode="J" horiz-adv-x="463" d="M275 714 L275 198 C275 119 257 92 211 92 C168 92 147 113 147 204 L147 226 L15 226 L15 197 C15 40 88 -14 204 -14 C359 -14 419 59 419 197 L419 714 L275 714 Z " />
<glyph glyph-name="K" unicode="K" horiz-adv-x="537" d="M50 714 L50 0 L194 0 L194 212 L247 293 L394 0 L556 0 L340 408 L534 714 L378 714 L196 428 L194 428 L194 714 L50 714 Z " />
<glyph glyph-name="L" unicode="L" horiz-adv-x="463" d="M50 714 L50 0 L449 0 L449 118 L194 118 L194 714 L50 714 Z " />
<glyph glyph-name="M" unicode="M" horiz-adv-x="740" d="M53 714 L53 0 L185 0 L185 570 L187 570 L314 0 L426 0 L553 570 L555 570 L555 0 L687 0 L687 714 L474 714 L371 210 L369 210 L267 714 L53 714 Z " />
<glyph glyph-name="N" unicode="N" horiz-adv-x="574" d="M50 714 L50 0 L182 0 L182 500 L184 500 L360 0 L524 0 L524 714 L392 714 L392 225 L390 225 L216 714 L50 714 Z " />
<glyph glyph-name="O" unicode="O" horiz-adv-x="556" d="M278 728 C58 728 35 567 35 357 C35 145 59 -14 278 -14 C497 -14 521 145 521 357 C521 567 497 728 278 728 L278 728 Z M179 357 C179 535 189 622 278 622 C368 622 377 535 377 357 C377 176 368 92 278 92 C189 92 179 177 179 357 L179 357 Z " />
<glyph glyph-name="P" unicode="P" horiz-adv-x="519" d="M50 714 L50 0 L194 0 L194 285 L275 285 C412 285 498 359 498 500 C498 632 428 714 305 714 L50 714 Z M194 391 L194 608 L252 608 C321 608 354 575 354 498 C354 428 317 391 261 391 L194 391 Z " />
<glyph glyph-name="Q" unicode="Q" horiz-adv-x="556" d="M278 730 C60 730 35 573 35 359 C35 163 52 -12 278 -12 C318 -12 339 -9 373 2 L458 -86 L543 -9 L466 69 C520 149 521 277 521 350 C521 567 499 730 278 730 L278 730 Z M179 359 C179 537 189 624 278 624 C368 624 377 537 377 359 C377 178 368 94 278 94 C189 94 179 179 179 359 L179 359 Z " />
<glyph glyph-name="R" unicode="R" horiz-adv-x="556" d="M50 714 L50 0 L194 0 L194 302 L273 302 C325 302 354 272 356 213 L359 98 C360 48 367 15 378 0 L534 0 L534 6 C500 23 503 96 502 134 C498 280 490 338 387 352 L387 354 C463 370 506 428 506 530 C506 652 434 714 319 714 L50 714 Z M194 402 L194 608 L265 608 C326 608 362 577 362 509 C362 435 325 402 257 402 L194 402 Z " />
<glyph glyph-name="S" unicode="S" horiz-adv-x="519" d="M253 728 C112 728 32 653 32 518 C32 392 101 348 199 309 L286 274 C337 254 347 224 347 180 C347 125 312 92 261 92 C201 92 166 115 166 204 L166 223 L22 223 L22 201 C22 45 100 -14 249 -14 C411 -14 497 59 497 205 C497 305 455 353 360 394 L250 442 C196 465 176 487 176 539 C176 592 203 622 258 622 C311 622 336 588 336 516 L474 516 L474 533 C474 663 394 728 253 728 L253 728 Z " />
<glyph glyph-name="T" unicode="T" horiz-adv-x="480" d="M12 714 L12 596 L168 596 L168 0 L312 0 L312 596 L468 596 L468 714 L12 714 Z " />
<glyph glyph-name="U" unicode="U" horiz-adv-x="538" d="M41 714 L41 213 C41 25 153 -14 269 -14 C423 -14 497 72 497 211 L497 714 L353 714 L353 211 C353 129 326 92 269 92 C212 92 185 129 185 211 L185 714 L41 714 Z " />
<glyph glyph-name="V" unicode="V" horiz-adv-x="519" d="M3 714 L167 0 L352 0 L516 714 L367 714 L261 186 L258 186 L157 714 L3 714 Z " />
<glyph glyph-name="W" unicode="W" horiz-adv-x="760" d="M8 714 L138 0 L299 0 L379 518 L381 518 L461 0 L622 0 L752 714 L614 714 L535 186 L533 186 L449 714 L311 714 L227 186 L225 186 L146 714 L8 714 Z " />
<glyph glyph-name="X" unicode="X" horiz-adv-x="537" d="M20 714 L184 361 L6 0 L164 0 L266 242 L369 0 L531 0 L353 361 L519 714 L362 714 L271 483 L179 714 L20 714 Z " />
<glyph glyph-name="Y" unicode="Y" horiz-adv-x="520" d="M3 714 L188 281 L188 0 L332 0 L332 281 L517 714 L361 714 L261 438 L259 438 L165 714 L3 714 Z " />
<glyph glyph-name="Z" unicode="Z" horiz-adv-x="481" d="M42 714 L42 596 L287 596 L24 105 L24 0 L457 0 L457 118 L186 118 L453 605 L453 714 L42 714 Z " />
<glyph glyph-name="bracketleft" unicode="&#x5b;" horiz-adv-x="315" d="M80 714 L80 -184 L309 -184 L309 -84 L204 -84 L204 614 L309 614 L309 714 L80 714 Z " />
<glyph glyph-name="backslash" unicode="&#x5c;" horiz-adv-x="332" d="M-3 728 L223 -14 L335 -14 L109 728 L-3 728 Z " />
<glyph glyph-name="bracketright" unicode="&#x5d;" horiz-adv-x="315" d="M6 714 L6 614 L111 614 L111 -84 L6 -84 L6 -184 L235 -184 L235 714 L6 714 Z " />
<glyph glyph-name="asciicircum" unicode="&#x5e;" horiz-adv-x="600" d="M244 694 L56 309 L180 309 L300 556 L420 309 L544 309 L356 694 L244 694 Z " />
<glyph glyph-name="underscore" unicode="&#x5f;" horiz-adv-x="500" d="M0 -75 L0 -125 L500 -125 L500 -75 L0 -75 Z " />
<glyph glyph-name="grave" unicode="&#x60;" horiz-adv-x="222" d="M-16 746 L82 602 L176 602 L122 746 L-16 746 Z " />
<glyph glyph-name="a" unicode="a" horiz-adv-x="481" d="M234 552 C110 552 45 495 45 383 L45 373 L169 373 L169 387 C169 435 194 458 233 458 C276 458 297 437 297 392 C297 354 280 339 235 327 L172 310 C64 281 28 237 28 141 C28 85 50 -14 159 -14 C234 -14 265 6 295 56 L297 56 C303 29 308 10 314 0 L446 0 C433 31 429 54 429 96 L429 392 C429 508 370 552 234 552 L234 552 Z M160 155 C160 198 177 219 220 235 L250 246 C275 255 282 260 297 271 L297 161 C297 108 254 80 212 80 C179 80 160 107 160 155 L160 155 Z " />
<glyph glyph-name="b" unicode="b" horiz-adv-x="500" d="M46 714 L46 0 L178 0 L178 57 L180 57 C208 9 246 -14 302 -14 C442 -14 467 119 467 269 C467 419 441 552 302 552 C250 552 215 531 186 488 L184 488 L184 714 L46 714 Z M184 269 C184 384 195 446 257 446 C318 446 329 384 329 269 C329 156 318 92 257 92 C195 92 184 155 184 269 L184 269 Z " />
<glyph glyph-name="c" unicode="c" horiz-adv-x="463" d="M244 552 C65 552 26 421 26 269 C26 67 84 -14 232 -14 C378 -14 437 65 437 206 L305 206 C305 150 299 80 238 80 C174 80 164 145 164 268 C164 398 178 452 243 452 C299 452 305 386 305 344 L437 344 C437 461 381 552 244 552 L244 552 Z " />
<glyph glyph-name="d" unicode="d" horiz-adv-x="500" d="M316 714 L316 488 L314 488 C285 531 250 552 198 552 C70 552 33 441 33 269 C33 94 71 -14 198 -14 C255 -14 291 9 320 57 L322 57 L322 0 L454 0 L454 714 L316 714 Z M171 269 C171 398 188 446 243 446 C299 446 316 398 316 269 C316 137 298 92 243 92 C190 92 171 137 171 269 L171 269 Z " />
<glyph glyph-name="e" unicode="e" horiz-adv-x="463" d="M240 552 C60 552 26 428 26 273 C26 121 44 -14 234 -14 C370 -14 424 60 429 181 L305 181 C298 119 283 81 232 80 C175 79 164 155 164 209 L164 248 L437 248 L437 279 C437 464 389 552 240 552 L240 552 Z M164 330 L164 351 C164 387 173 458 235 458 C278 458 304 434 305 330 L164 330 Z " />
<glyph glyph-name="f" unicode="f" horiz-adv-x="296" d="M221 728 C118 728 76 686 76 598 L76 538 L6 538 L6 444 L76 444 L76 0 L214 0 L214 444 L294 444 L294 538 L214 538 L214 587 C214 612 224 628 268 628 C280 628 290 627 294 627 L294 725 C283 726 247 728 221 728 L221 728 Z " />
<glyph glyph-name="g" unicode="g" horiz-adv-x="500" d="M204 552 C51 552 35 398 35 278 C35 107 76 6 200 6 C247 6 289 35 315 72 L317 72 L317 -2 C317 -53 298 -96 241 -96 C209 -96 174 -76 174 -40 L42 -40 C42 -151 134 -184 226 -184 C370 -184 449 -129 449 23 L449 538 L317 538 L317 478 L315 478 C294 523 255 552 204 552 L204 552 Z M173 254 C173 397 185 446 244 446 C300 446 317 397 317 268 C317 172 300 112 242 112 C185 112 173 171 173 254 L173 254 Z " />
<glyph glyph-name="h" unicode="h" horiz-adv-x="500" d="M46 714 L46 0 L184 0 L184 360 C184 415 208 446 257 446 C300 446 316 422 316 374 L316 0 L454 0 L454 403 C454 497 411 552 317 552 C255 552 212 528 186 483 L184 483 L184 714 L46 714 Z " />
<glyph glyph-name="i" unicode="i" horiz-adv-x="240" d="M51 722 L51 604 L189 604 L189 722 L51 722 Z M51 538 L51 0 L189 0 L189 538 L51 538 Z " />
<glyph glyph-name="j" unicode="j" horiz-adv-x="240" d="M51 722 L51 604 L189 604 L189 722 L51 722 Z M51 538 L51 0 C51 -61 36 -76 -2 -76 C-9 -76 -17 -76 -25 -74 L-25 -174 C2 -175 21 -176 31 -176 C146 -176 189 -134 189 -41 L189 538 L51 538 Z " />
<glyph glyph-name="k" unicode="k" horiz-adv-x="500" d="M51 714 L51 0 L189 0 L189 157 L238 221 L353 0 L505 0 L327 326 L482 538 L330 538 L191 337 L189 337 L189 714 L51 714 Z " />
<glyph glyph-name="l" unicode="l" horiz-adv-x="240" d="M51 714 L51 0 L189 0 L189 714 L51 714 Z " />
<glyph glyph-name="m" unicode="m" horiz-adv-x="758" d="M316 552 C251 552 210 526 180 483 L178 483 L178 538 L46 538 L46 0 L184 0 L184 357 C184 409 207 446 255 446 C295 446 310 421 310 378 L310 0 L448 0 L448 357 C448 412 473 446 520 446 C561 446 574 418 574 379 L574 0 L712 0 L712 395 C712 496 668 552 578 552 C510 552 462 521 442 466 L440 466 C426 519 383 552 316 552 L316 552 Z " />
<glyph glyph-name="n" unicode="n" horiz-adv-x="500" d="M317 552 C253 552 207 524 180 475 L178 475 L178 538 L46 538 L46 0 L184 0 L184 360 C184 415 208 446 257 446 C300 446 316 422 316 374 L316 0 L454 0 L454 402 C454 497 411 552 317 552 L317 552 Z " />
<glyph glyph-name="o" unicode="o" horiz-adv-x="480" d="M452 270 C452 484 387 552 241 552 C106 552 28 484 28 269 C28 38 105 -14 237 -14 C362 -14 452 38 452 270 L452 270 Z M314 269 C314 132 295 80 240 80 C175 80 166 152 166 269 C166 375 170 458 240 458 C295 458 314 407 314 269 L314 269 Z " />
<glyph glyph-name="p" unicode="p" horiz-adv-x="500" d="M302 552 C242 552 207 526 180 481 L178 481 L178 538 L46 538 L46 -176 L184 -176 L184 50 L186 50 C214 7 250 -14 302 -14 C423 -14 467 83 467 269 C467 466 418 552 302 552 L302 552 Z M184 269 C184 400 203 446 256 446 C308 446 329 408 329 269 C329 156 318 92 257 92 C196 92 184 152 184 269 L184 269 Z " />
<glyph glyph-name="q" unicode="q" horiz-adv-x="500" d="M198 552 C85 552 33 469 33 269 C33 70 85 -14 198 -14 C251 -14 287 9 314 50 L316 50 L316 -176 L454 -176 L454 538 L322 538 L322 481 L320 481 C292 527 260 552 198 552 L198 552 Z M171 269 C171 383 182 446 243 446 C305 446 316 383 316 269 C316 149 303 92 243 92 C184 92 171 149 171 269 L171 269 Z " />
<glyph glyph-name="r" unicode="r" horiz-adv-x="333" d="M304 552 C252 552 211 523 180 466 L178 466 L178 538 L46 538 L46 0 L184 0 L184 325 C184 383 224 420 288 420 C303 420 318 419 329 418 L329 550 C321 551 312 552 304 552 L304 552 Z " />
<glyph glyph-name="s" unicode="s" horiz-adv-x="444" d="M225 552 C95 552 27 488 27 390 C27 318 60 270 142 240 L239 205 C273 193 289 173 289 144 C289 104 265 80 219 80 C176 80 147 105 147 162 L147 176 L23 176 L23 156 C23 38 83 -14 221 -14 C344 -14 421 48 421 155 C421 239 384 281 307 307 L216 338 C179 350 159 369 159 400 C159 437 187 458 224 458 C267 458 285 436 285 377 L409 377 L409 398 C409 492 356 552 225 552 L225 552 Z " />
<glyph glyph-name="t" unicode="t" horiz-adv-x="296" d="M76 692 L76 538 L6 538 L6 444 L76 444 L76 130 C76 22 101 -6 204 -6 C224 -6 236 -6 294 0 L294 96 C285 95 280 94 264 94 C223 94 214 110 214 149 L214 444 L294 444 L294 538 L214 538 L214 692 L76 692 Z " />
<glyph glyph-name="u" unicode="u" horiz-adv-x="500" d="M46 538 L46 140 C46 39 90 -14 183 -14 C246 -14 292 13 320 63 L322 63 L322 0 L454 0 L454 538 L316 538 L316 177 C316 123 292 92 243 92 C201 92 184 114 184 165 L184 538 L46 538 Z " />
<glyph glyph-name="v" unicode="v" horiz-adv-x="444" d="M5 538 L144 0 L304 0 L439 538 L301 538 L228 153 L226 153 L149 538 L5 538 Z " />
<glyph glyph-name="w" unicode="w" horiz-adv-x="704" d="M7 538 L124 0 L285 0 L351 382 L353 382 L424 0 L581 0 L697 538 L565 538 L500 156 L498 156 L427 538 L277 538 L210 156 L208 156 L145 538 L7 538 Z " />
<glyph glyph-name="x" unicode="x" horiz-adv-x="462" d="M13 538 L153 277 L7 0 L151 0 L231 176 L311 0 L455 0 L309 277 L449 538 L305 538 L231 376 L157 538 L13 538 Z " />
<glyph glyph-name="y" unicode="y" horiz-adv-x="444" d="M5 538 L156 0 C152 -54 128 -76 82 -76 C70 -76 59 -75 46 -73 L46 -176 L113 -176 C199 -176 233 -155 262 -103 C276 -77 293 -27 311 43 L439 538 L301 538 L231 166 L229 166 L149 538 L5 538 Z " />
<glyph glyph-name="z" unicode="z" horiz-adv-x="426" d="M34 538 L34 426 L239 426 L24 106 L24 0 L402 0 L402 112 L187 112 L402 432 L402 538 L34 538 Z " />
<glyph glyph-name="braceleft" unicode="&#x7b;" horiz-adv-x="315" d="M200 714 C134 714 96 665 96 584 L96 385 C96 347 68 307 30 306 L30 224 C70 223 96 181 96 146 L96 -54 C96 -136 135 -184 198 -184 L289 -184 L289 -84 L258 -84 C235 -84 220 -64 220 -17 L220 156 C220 185 210 251 148 264 L148 266 C195 274 220 323 220 373 L220 546 C220 591 233 614 259 614 L289 614 L289 714 L200 714 Z " />
<glyph glyph-name="bar" unicode="&#x7c;" horiz-adv-x="222" d="M49 728 L49 -14 L173 -14 L173 728 L49 728 Z " />
<glyph glyph-name="braceright" unicode="&#x7d;" horiz-adv-x="315" d="M26 714 L26 614 L56 614 C85 614 95 585 95 545 L95 373 C95 320 122 275 167 266 L167 264 C122 254 95 211 95 157 L95 -12 C95 -58 85 -84 54 -84 L26 -84 L26 -184 L118 -184 C181 -184 219 -134 219 -54 L219 145 C219 185 249 224 285 224 L285 306 C249 306 219 344 219 385 L219 584 C219 670 177 714 118 714 L26 714 Z " />
<glyph glyph-name="asciitilde" unicode="&#x7e;" horiz-adv-x="600" d="M192 349 C141 349 100 322 69 263 L105 157 C122 193 165 225 195 225 C259 225 313 157 408 157 C463 157 501 186 531 243 L495 349 C479 315 439 281 404 281 C339 281 290 349 192 349 L192 349 Z " />
<glyph glyph-name="uni00A0" unicode="&#xa0;" horiz-adv-x="240" d="" />
<glyph glyph-name="exclamdown" unicode="&#xa1;" horiz-adv-x="296" d="M79 538 L79 406 L217 406 L217 538 L79 538 Z M98 339 L79 56 L79 -176 L217 -176 L217 56 L198 339 L98 339 Z " />
<glyph glyph-name="cent" unicode="&#xa2;" horiz-adv-x="480" d="M222 552 C59 537 33 414 33 265 C33 130 60 -10 222 -14 L222 -102 L274 -102 L274 -14 C405 2 447 85 447 209 L315 209 C315 168 313 110 274 86 L274 452 C310 438 315 389 315 348 L447 348 C447 467 400 546 274 552 L274 628 L222 628 L222 552 Z M171 271 C171 375 178 436 222 452 L222 86 C171 102 171 191 171 271 L171 271 Z " />
<glyph glyph-name="sterling" unicode="&#xa3;" horiz-adv-x="480" d="M246 708 C110 708 31 637 31 530 C31 491 48 441 76 388 L9 388 L9 306 L111 306 C119 287 122 273 122 257 C122 194 76 123 5 80 L46 -6 C95 17 114 22 145 22 C167 22 200 16 241 4 C281 -8 310 -14 327 -14 C375 -14 425 1 475 34 L431 128 C386 99 350 86 328 86 C314 86 294 91 268 101 C241 111 223 116 213 116 C198 116 175 112 168 109 L164 111 C227 164 254 203 254 267 C254 283 252 296 249 306 L390 306 L390 388 L223 388 L195 445 C178 480 169 515 169 536 C169 581 196 614 253 614 C307 614 331 571 331 501 L463 501 C461 639 388 708 246 708 L246 708 Z " />
<glyph glyph-name="currency" unicode="&#xa4;" horiz-adv-x="480" d="M61 587 L0 525 L50 475 C23 434 11 393 11 347 C11 304 23 260 50 219 L0 169 L61 107 L112 158 C150 131 193 118 240 118 C284 118 332 132 368 158 L419 107 L480 169 L430 219 C457 259 469 304 469 347 C469 390 458 434 430 475 L480 525 L419 587 L368 537 C326 564 284 576 240 576 C197 576 152 564 112 537 L61 587 Z M117 347 C117 429 168 476 239 476 C315 476 363 427 363 347 C363 266 314 218 240 218 C166 218 117 266 117 347 L117 347 Z " />
<glyph glyph-name="yen" unicode="&#xa5;" horiz-adv-x="480" d="M-17 694 L128 389 L36 389 L36 307 L167 307 L178 284 L178 241 L36 241 L36 159 L178 159 L178 0 L302 0 L302 159 L444 159 L444 241 L302 241 L302 284 L313 307 L444 307 L444 389 L352 389 L497 694 L353 694 L241 425 L239 425 L132 694 L-17 694 Z " />
<glyph glyph-name="brokenbar" unicode="&#xa6;" horiz-adv-x="222" d="M49 728 L49 457 L173 457 L173 728 L49 728 Z M49 257 L49 -14 L173 -14 L173 257 L49 257 Z " />
<glyph glyph-name="section" unicode="&#xa7;" horiz-adv-x="481" d="M248 728 C117 728 43 669 43 563 C43 520 62 479 103 449 C46 420 13 369 13 306 C13 264 25 202 119 155 L242 93 C293 67 306 42 306 9 C306 -29 282 -58 240 -58 C200 -58 170 -30 170 26 L170 37 L38 37 L38 24 C38 -91 109 -152 240 -152 C375 -152 444 -92 444 23 C444 77 428 115 390 147 C435 172 468 237 468 290 C468 364 432 417 358 452 L239 508 C201 525 175 550 175 577 C175 609 198 634 237 634 C294 634 306 596 306 566 L438 566 C438 671 372 728 248 728 L248 728 Z M131 329 C131 354 151 380 186 401 L282 350 C331 324 350 304 350 268 C350 241 338 223 307 196 C292 207 232 237 173 268 C161 275 131 292 131 329 L131 329 Z " />
<glyph glyph-name="dieresis" unicode="&#xa8;" horiz-adv-x="222" d="M-31 733 L-31 615 L81 615 L81 733 L-31 733 Z M141 733 L141 615 L253 615 L253 733 L141 733 Z " />
<glyph glyph-name="copyright" unicode="&#xa9;" horiz-adv-x="800" d="M400 728 C195 728 29 562 29 357 C29 152 195 -14 400 -14 C603 -14 771 150 771 357 C771 562 605 728 400 728 L400 728 Z M141 357 C141 502 252 622 399 622 C547 622 659 504 659 357 C659 211 548 92 400 92 C252 92 141 211 141 357 L141 357 Z M412 578 C286 578 208 485 208 360 C208 236 290 142 415 142 C510 142 581 207 595 298 L495 298 C487 251 452 228 406 228 C336 228 302 296 302 360 C302 426 332 492 407 492 C453 492 482 469 495 425 L591 425 C580 518 507 578 412 578 L412 578 Z " />
<glyph glyph-name="ordfeminine" unicode="&#xaa;" horiz-adv-x="314" d="M159 708 C63 708 21 675 21 605 L21 596 L115 596 L115 603 C115 632 132 644 156 644 C179 644 193 632 193 607 C193 589 182 578 157 573 L99 561 C40 548 10 527 10 459 C10 421 28 367 100 367 C154 367 171 378 193 409 C196 398 197 385 204 374 L304 374 C295 392 293 411 293 432 L293 612 C293 682 252 708 159 708 L159 708 Z M110 473 C110 499 121 508 138 514 L159 521 C178 527 185 531 193 537 L193 479 C193 441 163 431 142 431 C119 431 110 450 110 473 L110 473 Z " />
<glyph glyph-name="guillemotleft" unicode="&#xab;" horiz-adv-x="426" d="M52 370 L52 208 L201 88 L201 220 L122 289 L201 358 L201 490 L52 370 Z M225 370 L225 208 L374 88 L374 220 L295 289 L374 358 L374 490 L225 370 Z " />
<glyph glyph-name="logicalnot" unicode="&#xac;" horiz-adv-x="600" d="M47 424 L47 300 L429 300 L429 98 L553 98 L553 424 L47 424 Z " />
<glyph glyph-name="uni00AD" unicode="&#xad;" horiz-adv-x="370" d="M44 348 L44 230 L326 230 L326 348 L44 348 Z " />
<glyph glyph-name="registered" unicode="&#xae;" horiz-adv-x="800" d="M255 557 L255 157 L343 157 L343 318 L375 318 L469 157 L565 157 L466 322 C528 330 565 371 565 433 C565 540 474 557 415 557 L255 557 Z M343 388 L343 487 L403 487 C450 487 477 473 477 438 C477 400 455 388 414 388 L343 388 Z M400 728 C195 728 29 562 29 357 C29 152 195 -14 400 -14 C603 -14 771 150 771 357 C771 562 605 728 400 728 L400 728 Z M141 357 C141 502 252 622 399 622 C547 622 659 504 659 357 C659 211 548 92 400 92 C252 92 141 211 141 357 L141 357 Z " />
<glyph glyph-name="macron" unicode="&#xaf;" horiz-adv-x="222" d="M-36 712 L-36 636 L258 636 L258 712 L-36 712 Z " />
<glyph glyph-name="degree" unicode="&#xb0;" horiz-adv-x="400" d="M200 708 C115 708 52 641 52 560 C52 479 115 412 200 412 C281 412 348 475 348 560 C348 641 285 708 200 708 L200 708 Z M128 560 C128 600 160 632 200 632 C241 632 272 598 272 560 C272 519 239 488 200 488 C161 488 128 519 128 560 L128 560 Z " />
<glyph glyph-name="plusminus" unicode="&#xb1;" horiz-adv-x="600" d="M238 506 L238 398 L47 398 L47 274 L238 274 L238 166 L362 166 L362 274 L553 274 L553 398 L362 398 L362 506 L238 506 Z M47 124 L47 0 L553 0 L553 124 L47 124 Z " />
<glyph glyph-name="twosuperior" unicode="&#xb2;" horiz-adv-x="360" d="M184 828 C70 828 24 785 24 702 L24 679 L130 679 C130 723 145 752 181 752 C207 752 224 733 224 705 C224 674 214 652 175 624 L125 588 C53 536 24 480 24 400 L336 400 L336 482 L160 482 C164 505 198 535 213 546 L270 590 C316 626 336 658 336 720 C336 793 280 828 184 828 L184 828 Z " />
<glyph glyph-name="threesuperior" unicode="&#xb3;" horiz-adv-x="360" d="M176 828 C75 828 31 781 31 692 L131 692 C131 734 147 752 177 752 C200 752 218 733 218 708 C218 663 183 655 164 655 L136 655 L136 585 L161 585 C208 585 224 562 224 522 C224 490 208 469 179 469 C144 469 132 494 130 536 L24 536 L24 527 C24 437 72 393 167 393 C279 393 336 437 336 522 C336 580 310 611 254 622 L254 624 C300 634 324 670 324 719 C324 792 279 828 176 828 L176 828 Z " />
<glyph glyph-name="acute" unicode="&#xb4;" horiz-adv-x="222" d="M100 746 L46 602 L140 602 L238 746 L100 746 Z " />
<glyph glyph-name="mu" unicode="&#xb5;" horiz-adv-x="509" d="M44 538 L44 -176 L182 -176 L182 -2 C188 -8 202 -14 219 -14 C263 -14 301 15 321 68 L323 68 C335 16 371 -14 431 -14 C457 -14 485 -7 501 5 L501 87 C490 83 481 80 471 80 C457 80 450 83 450 139 L450 538 L311 538 L311 194 C311 138 284 94 234 94 C200 94 183 119 183 165 L183 538 L44 538 Z " />
<glyph glyph-name="paragraph" unicode="&#xb6;" horiz-adv-x="480" d="M194 714 C63 714 1 656 1 521 C1 400 63 335 182 335 L182 -138 L288 -138 L288 620 L361 620 L361 -138 L467 -138 L467 714 L194 714 Z " />
<glyph glyph-name="periodcentered" unicode="&#xb7;" horiz-adv-x="240" d="M120 379 C64 379 23 336 23 282 C23 227 66 185 120 185 C173 185 217 226 217 282 C217 339 173 379 120 379 L120 379 Z " />
<glyph glyph-name="cedilla" unicode="&#xb8;" horiz-adv-x="222" d="M38 -88 L60 -108 C72 -104 79 -102 92 -102 C118 -102 138 -113 138 -134 C138 -151 121 -167 87 -167 C67 -167 39 -162 19 -152 L0 -198 C19 -208 59 -217 100 -217 C146 -217 226 -206 226 -124 C226 -62 163 -53 141 -53 C129 -53 116 -55 109 -58 L147 0 L95 0 L38 -88 Z " />
<glyph glyph-name="onesuperior" unicode="&#xb9;" horiz-adv-x="360" d="M195 828 C186 781 148 760 83 760 L78 760 L78 690 L169 690 L169 400 L281 400 L281 828 L195 828 Z " />
<glyph glyph-name="ordmasculine" unicode="&#xba;" horiz-adv-x="314" d="M159 708 C51 708 12 656 12 537 C12 402 58 367 156 367 C278 367 302 438 302 537 C302 681 247 708 159 708 L159 708 Z M112 537 C112 611 122 644 157 644 C189 644 202 615 202 537 C202 464 191 431 157 431 C114 431 112 486 112 537 L112 537 Z " />
<glyph glyph-name="guillemotright" unicode="&#xbb;" horiz-adv-x="426" d="M52 490 L52 358 L131 289 L52 220 L52 88 L201 208 L201 370 L52 490 Z M225 490 L225 358 L304 289 L225 220 L225 88 L374 208 L374 370 L225 490 Z " />
<glyph glyph-name="onequarter" unicode="&#xbc;" horiz-adv-x="850" d="M566 725 L160 -31 L249 -31 L655 725 L566 725 Z M181 708 C172 665 140 640 70 640 L64 640 L64 570 L155 570 L155 280 L267 280 L267 708 L181 708 Z M617 428 L465 168 L465 77 L635 77 L635 0 L741 0 L741 77 L785 77 L785 159 L741 159 L741 428 L617 428 Z M633 304 L635 304 L635 159 L547 159 L633 304 Z " />
<glyph glyph-name="onehalf" unicode="&#xbd;" horiz-adv-x="850" d="M542 725 L136 -31 L225 -31 L631 725 L542 725 Z M181 708 C172 665 140 640 70 640 L64 640 L64 570 L155 570 L155 280 L267 280 L267 708 L181 708 Z M633 428 C519 428 473 385 473 302 L473 279 L579 279 C579 323 594 352 630 352 C656 352 673 333 673 305 C673 274 663 252 624 224 L574 188 C502 136 473 80 473 0 L785 0 L785 82 L609 82 C613 105 647 135 662 146 L719 190 C765 226 785 258 785 320 C785 393 729 428 633 428 L633 428 Z " />
<glyph glyph-name="threequarters" unicode="&#xbe;" horiz-adv-x="850" d="M605 725 L199 -31 L288 -31 L694 725 L605 725 Z M617 428 L465 168 L465 77 L635 77 L635 0 L741 0 L741 77 L785 77 L785 159 L741 159 L741 428 L617 428 Z M633 304 L635 304 L635 159 L547 159 L633 304 Z M216 708 C115 708 71 661 71 572 L171 572 C171 614 187 632 217 632 C240 632 258 613 258 588 C258 543 223 535 204 535 L176 535 L176 465 L201 465 C248 465 264 442 264 402 C264 370 248 349 219 349 C184 349 172 374 170 416 L64 416 L64 407 C64 317 112 273 207 273 C319 273 376 317 376 402 C376 460 350 491 294 502 L294 504 C340 514 364 550 364 599 C364 672 319 708 216 708 L216 708 Z " />
<glyph glyph-name="questiondown" unicode="&#xbf;" horiz-adv-x="481" d="M247 -184 C367 -184 445 -112 445 26 L445 45 L313 45 L313 23 C313 -55 287 -90 242 -90 C202 -90 174 -63 174 -4 C174 45 189 75 214 103 L250 144 C297 198 312 237 312 303 L312 340 L188 340 L188 321 C188 273 171 245 140 211 L99 165 C58 119 36 73 36 9 C36 -115 114 -184 247 -184 L247 -184 Z M319 406 L319 538 L181 538 L181 406 L319 406 Z " />
<glyph glyph-name="Agrave" unicode="&#xc0;" horiz-adv-x="556" d="M189 714 L0 0 L150 0 L183 151 L373 151 L406 0 L556 0 L367 714 L189 714 Z M279 590 L348 269 L208 269 L277 590 L279 590 Z M148 900 L246 756 L340 756 L286 900 L148 900 Z " />
<glyph glyph-name="Aacute" unicode="&#xc1;" horiz-adv-x="556" d="M189 714 L0 0 L150 0 L183 151 L373 151 L406 0 L556 0 L367 714 L189 714 Z M279 590 L348 269 L208 269 L277 590 L279 590 Z M266 900 L212 756 L306 756 L404 900 L266 900 Z " />
<glyph glyph-name="Acircumflex" unicode="&#xc2;" horiz-adv-x="556" d="M189 714 L0 0 L150 0 L183 151 L373 151 L406 0 L556 0 L367 714 L189 714 Z M279 590 L348 269 L208 269 L277 590 L279 590 Z M205 900 L127 756 L227 756 L275 841 L321 756 L427 756 L349 900 L205 900 Z " />
<glyph glyph-name="Atilde" unicode="&#xc3;" horiz-adv-x="556" d="M189 714 L0 0 L150 0 L183 151 L373 151 L406 0 L556 0 L367 714 L189 714 Z M279 590 L348 269 L208 269 L277 590 L279 590 Z M363 891 C362 870 350 855 335 855 C301 855 258 889 214 889 C162 889 131 841 121 765 L191 765 C196 789 206 801 223 801 C255 801 300 767 342 767 C389 767 427 812 435 891 L363 891 Z " />
<glyph glyph-name="Adieresis" unicode="&#xc4;" horiz-adv-x="556" d="M189 714 L0 0 L150 0 L183 151 L373 151 L406 0 L556 0 L367 714 L189 714 Z M279 590 L348 269 L208 269 L277 590 L279 590 Z M136 889 L136 771 L248 771 L248 889 L136 889 Z M308 889 L308 771 L420 771 L420 889 L308 889 Z " />
<glyph glyph-name="Aring" unicode="&#xc5;" horiz-adv-x="556" d="M189 714 L0 0 L150 0 L183 151 L373 151 L406 0 L556 0 L367 714 L189 714 Z M279 590 L348 269 L208 269 L277 590 L279 590 Z M279 954 C215 954 166 906 166 844 C166 780 213 736 279 736 C346 736 392 782 392 844 C392 906 344 954 279 954 L279 954 Z M222 844 C222 878 249 901 278 901 C312 901 336 875 336 844 C336 812 312 787 279 787 C247 787 222 812 222 844 L222 844 Z " />
<glyph glyph-name="AE" unicode="&#xc6;" horiz-adv-x="759" d="M264 714 L-5 0 L145 0 L195 151 L354 151 L354 0 L737 0 L737 118 L492 118 L492 310 L712 310 L712 428 L492 428 L492 596 L727 596 L727 714 L264 714 Z M345 602 L354 602 L354 269 L234 269 L345 602 Z " />
<glyph glyph-name="Ccedilla" unicode="&#xc7;" horiz-adv-x="537" d="M295 -14 C464 -6 505 115 505 273 L361 273 C361 142 335 92 271 92 C202 92 179 147 179 349 C179 529 191 622 269 622 C343 622 355 560 355 473 L499 473 L499 480 C499 631 445 728 278 728 C72 728 35 591 35 357 C35 131 70 2 244 -12 L195 -88 L217 -108 C231 -103 238 -102 249 -102 C274 -102 295 -112 295 -134 C295 -154 273 -167 245 -167 C225 -167 199 -163 176 -152 L157 -198 C178 -209 218 -217 257 -217 C338 -217 383 -185 383 -124 C383 -87 355 -53 297 -53 C292 -53 285 -53 266 -58 L295 -14 Z " />
<glyph glyph-name="Egrave" unicode="&#xc8;" horiz-adv-x="481" d="M50 714 L50 0 L459 0 L459 118 L194 118 L194 310 L434 310 L434 428 L194 428 L194 596 L449 596 L449 714 L50 714 Z M127 900 L225 756 L319 756 L265 900 L127 900 Z " />
<glyph glyph-name="Eacute" unicode="&#xc9;" horiz-adv-x="481" d="M50 714 L50 0 L459 0 L459 118 L194 118 L194 310 L434 310 L434 428 L194 428 L194 596 L449 596 L449 714 L50 714 Z M253 900 L199 756 L293 756 L391 900 L253 900 Z " />
<glyph glyph-name="Ecircumflex" unicode="&#xca;" horiz-adv-x="481" d="M50 714 L50 0 L459 0 L459 118 L194 118 L194 310 L434 310 L434 428 L194 428 L194 596 L449 596 L449 714 L50 714 Z M179 900 L101 756 L201 756 L249 841 L295 756 L401 756 L323 900 L179 900 Z " />
<glyph glyph-name="Edieresis" unicode="&#xcb;" horiz-adv-x="481" d="M50 714 L50 0 L459 0 L459 118 L194 118 L194 310 L434 310 L434 428 L194 428 L194 596 L449 596 L449 714 L50 714 Z M106 887 L106 769 L218 769 L218 887 L106 887 Z M278 887 L278 769 L390 769 L390 887 L278 887 Z " />
<glyph glyph-name="Igrave" unicode="&#xcc;" horiz-adv-x="258" d="M57 714 L57 0 L201 0 L201 714 L57 714 Z M10 900 L108 756 L202 756 L148 900 L10 900 Z " />
<glyph glyph-name="Iacute" unicode="&#xcd;" horiz-adv-x="258" d="M57 714 L57 0 L201 0 L201 714 L57 714 Z M112 900 L58 756 L152 756 L250 900 L112 900 Z " />
<glyph glyph-name="Icircumflex" unicode="&#xce;" horiz-adv-x="258" d="M57 714 L57 0 L201 0 L201 714 L57 714 Z M59 900 L-19 756 L81 756 L129 841 L175 756 L281 756 L203 900 L59 900 Z " />
<glyph glyph-name="Idieresis" unicode="&#xcf;" horiz-adv-x="258" d="M57 714 L57 0 L201 0 L201 714 L57 714 Z M-12 887 L-12 769 L100 769 L100 887 L-12 887 Z M160 887 L160 769 L272 769 L272 887 L160 887 Z " />
<glyph glyph-name="Eth" unicode="&#xd0;" horiz-adv-x="574" d="M57 714 L57 421 L0 421 L0 315 L57 315 L57 0 L289 0 C488 0 529 141 529 367 C529 535 512 714 298 714 L57 714 Z M201 106 L201 315 L294 315 L294 421 L201 421 L201 608 L262 608 C371 608 385 525 385 363 C385 169 365 106 269 106 L201 106 Z " />
<glyph glyph-name="Ntilde" unicode="&#xd1;" horiz-adv-x="574" d="M50 714 L50 0 L182 0 L182 500 L184 500 L360 0 L524 0 L524 714 L392 714 L392 225 L390 225 L216 714 L50 714 Z M374 891 C373 870 361 855 346 855 C312 855 269 889 225 889 C173 889 142 841 132 765 L202 765 C207 789 217 801 234 801 C266 801 311 767 353 767 C400 767 438 812 446 891 L374 891 Z " />
<glyph glyph-name="Ograve" unicode="&#xd2;" horiz-adv-x="556" d="M278 728 C58 728 35 567 35 357 C35 145 59 -14 278 -14 C497 -14 521 145 521 357 C521 567 497 728 278 728 L278 728 Z M179 357 C179 535 189 622 278 622 C368 622 377 535 377 357 C377 176 368 92 278 92 C189 92 179 177 179 357 L179 357 Z M148 900 L246 756 L340 756 L286 900 L148 900 Z " />
<glyph glyph-name="Oacute" unicode="&#xd3;" horiz-adv-x="556" d="M278 728 C58 728 35 567 35 357 C35 145 59 -14 278 -14 C497 -14 521 145 521 357 C521 567 497 728 278 728 L278 728 Z M179 357 C179 535 189 622 278 622 C368 622 377 535 377 357 C377 176 368 92 278 92 C189 92 179 177 179 357 L179 357 Z M281 900 L227 756 L321 756 L419 900 L281 900 Z " />
<glyph glyph-name="Ocircumflex" unicode="&#xd4;" horiz-adv-x="556" d="M278 728 C58 728 35 567 35 357 C35 145 59 -14 278 -14 C497 -14 521 145 521 357 C521 567 497 728 278 728 L278 728 Z M179 357 C179 535 189 622 278 622 C368 622 377 535 377 357 C377 176 368 92 278 92 C189 92 179 177 179 357 L179 357 Z M208 900 L130 756 L230 756 L278 841 L324 756 L430 756 L352 900 L208 900 Z " />
<glyph glyph-name="Otilde" unicode="&#xd5;" horiz-adv-x="556" d="M278 728 C58 728 35 567 35 357 C35 145 59 -14 278 -14 C497 -14 521 145 521 357 C521 567 497 728 278 728 L278 728 Z M179 357 C179 535 189 622 278 622 C368 622 377 535 377 357 C377 176 368 92 278 92 C189 92 179 177 179 357 L179 357 Z M362 891 C361 870 349 855 334 855 C300 855 257 889 213 889 C161 889 130 841 120 765 L190 765 C195 789 205 801 222 801 C254 801 299 767 341 767 C388 767 426 812 434 891 L362 891 Z " />
<glyph glyph-name="Odieresis" unicode="&#xd6;" horiz-adv-x="556" d="M278 728 C58 728 35 567 35 357 C35 145 59 -14 278 -14 C497 -14 521 145 521 357 C521 567 497 728 278 728 L278 728 Z M179 357 C179 535 189 622 278 622 C368 622 377 535 377 357 C377 176 368 92 278 92 C189 92 179 177 179 357 L179 357 Z M137 887 L137 769 L249 769 L249 887 L137 887 Z M309 887 L309 769 L421 769 L421 887 L309 887 Z " />
<glyph glyph-name="multiply" unicode="&#xd7;" horiz-adv-x="600" d="M300 338 L145 494 L59 408 L215 253 L59 98 L145 12 L300 168 L455 12 L541 98 L385 253 L541 408 L455 494 L300 338 Z " />
<glyph glyph-name="Oslash" unicode="&#xd8;" horiz-adv-x="556" d="M399 704 C361 722 320 728 278 728 C60 728 35 572 35 356 C35 263 36 109 113 40 L83 -30 L131 -51 L157 10 C194 -9 237 -14 278 -14 C479 -14 521 113 521 357 C521 448 519 610 443 674 L473 744 L425 765 L399 704 Z M179 356 C179 542 191 622 277 622 C306 622 332 612 348 586 L187 209 L185 209 C179 257 179 307 179 356 L179 356 Z M369 505 L371 505 C377 459 377 410 377 357 C377 147 357 92 278 92 C249 92 222 102 208 129 L369 505 Z " />
<glyph glyph-name="Ugrave" unicode="&#xd9;" horiz-adv-x="538" d="M41 714 L41 213 C41 25 153 -14 269 -14 C423 -14 497 72 497 211 L497 714 L353 714 L353 211 C353 129 326 92 269 92 C212 92 185 129 185 211 L185 714 L41 714 Z M141 900 L239 756 L333 756 L279 900 L141 900 Z " />
<glyph glyph-name="Uacute" unicode="&#xda;" horiz-adv-x="538" d="M41 714 L41 213 C41 25 153 -14 269 -14 C423 -14 497 72 497 211 L497 714 L353 714 L353 211 C353 129 326 92 269 92 C212 92 185 129 185 211 L185 714 L41 714 Z M274 900 L220 756 L314 756 L412 900 L274 900 Z " />
<glyph glyph-name="Ucircumflex" unicode="&#xdb;" horiz-adv-x="538" d="M41 714 L41 213 C41 25 153 -14 269 -14 C423 -14 497 72 497 211 L497 714 L353 714 L353 211 C353 129 326 92 269 92 C212 92 185 129 185 211 L185 714 L41 714 Z M198 900 L120 756 L220 756 L268 841 L314 756 L420 756 L342 900 L198 900 Z " />
<glyph glyph-name="Udieresis" unicode="&#xdc;" horiz-adv-x="538" d="M41 714 L41 213 C41 25 153 -14 269 -14 C423 -14 497 72 497 211 L497 714 L353 714 L353 211 C353 129 326 92 269 92 C212 92 185 129 185 211 L185 714 L41 714 Z M127 887 L127 769 L239 769 L239 887 L127 887 Z M299 887 L299 769 L411 769 L411 887 L299 887 Z " />
<glyph glyph-name="Yacute" unicode="&#xdd;" horiz-adv-x="520" d="M3 714 L188 281 L188 0 L332 0 L332 281 L517 714 L361 714 L261 438 L259 438 L165 714 L3 714 Z M270 902 L216 758 L310 758 L408 902 L270 902 Z " />
<glyph glyph-name="Thorn" unicode="&#xde;" horiz-adv-x="519" d="M50 714 L50 0 L194 0 L194 157 L272 157 C436 157 498 253 498 372 C498 505 427 586 305 586 L194 586 L194 714 L50 714 Z M194 263 L194 480 L257 480 C319 480 354 447 354 370 C354 300 317 263 261 263 L194 263 Z " />
<glyph glyph-name="germandbls" unicode="&#xdf;" horiz-adv-x="500" d="M253 728 C104 728 41 661 41 531 L41 0 L179 0 L179 529 C179 601 199 634 246 634 C292 634 312 601 312 544 C312 467 280 449 243 449 L229 449 L229 355 L252 355 C321 355 334 298 334 233 C334 157 328 88 249 88 C241 88 236 88 227 92 L227 -2 C239 -4 261 -6 292 -6 C413 -6 472 71 472 216 C472 333 436 395 361 408 L361 410 C425 437 450 477 450 557 C450 669 380 728 253 728 L253 728 Z " />
<glyph glyph-name="agrave" unicode="&#xe0;" horiz-adv-x="481" d="M234 552 C110 552 45 495 45 383 L45 373 L169 373 L169 387 C169 435 194 458 233 458 C276 458 297 437 297 392 C297 354 280 339 235 327 L172 310 C64 281 28 237 28 141 C28 85 50 -14 159 -14 C234 -14 265 6 295 56 L297 56 C303 29 308 10 314 0 L446 0 C433 31 429 54 429 96 L429 392 C429 508 370 552 234 552 L234 552 Z M160 155 C160 198 177 219 220 235 L250 246 C275 255 282 260 297 271 L297 161 C297 108 254 80 212 80 C179 80 160 107 160 155 L160 155 Z M116 746 L214 602 L308 602 L254 746 L116 746 Z " />
<glyph glyph-name="aacute" unicode="&#xe1;" horiz-adv-x="481" d="M234 552 C110 552 45 495 45 383 L45 373 L169 373 L169 387 C169 435 194 458 233 458 C276 458 297 437 297 392 C297 354 280 339 235 327 L172 310 C64 281 28 237 28 141 C28 85 50 -14 159 -14 C234 -14 265 6 295 56 L297 56 C303 29 308 10 314 0 L446 0 C433 31 429 54 429 96 L429 392 C429 508 370 552 234 552 L234 552 Z M160 155 C160 198 177 219 220 235 L250 246 C275 255 282 260 297 271 L297 161 C297 108 254 80 212 80 C179 80 160 107 160 155 L160 155 Z M244 746 L190 602 L284 602 L382 746 L244 746 Z " />
<glyph glyph-name="acircumflex" unicode="&#xe2;" horiz-adv-x="481" d="M234 552 C110 552 45 495 45 383 L45 373 L169 373 L169 387 C169 435 194 458 233 458 C276 458 297 437 297 392 C297 354 280 339 235 327 L172 310 C64 281 28 237 28 141 C28 85 50 -14 159 -14 C234 -14 265 6 295 56 L297 56 C303 29 308 10 314 0 L446 0 C433 31 429 54 429 96 L429 392 C429 508 370 552 234 552 L234 552 Z M160 155 C160 198 177 219 220 235 L250 246 C275 255 282 260 297 271 L297 161 C297 108 254 80 212 80 C179 80 160 107 160 155 L160 155 Z M168 746 L90 602 L190 602 L238 687 L284 602 L390 602 L312 746 L168 746 Z " />
<glyph glyph-name="atilde" unicode="&#xe3;" horiz-adv-x="481" d="M234 552 C110 552 45 495 45 383 L45 373 L169 373 L169 387 C169 435 194 458 233 458 C276 458 297 437 297 392 C297 354 280 339 235 327 L172 310 C64 281 28 237 28 141 C28 85 50 -14 159 -14 C234 -14 265 6 295 56 L297 56 C303 29 308 10 314 0 L446 0 C433 31 429 54 429 96 L429 392 C429 508 370 552 234 552 L234 552 Z M160 155 C160 198 177 219 220 235 L250 246 C275 255 282 260 297 271 L297 161 C297 108 254 80 212 80 C179 80 160 107 160 155 L160 155 Z M327 737 C326 716 314 701 299 701 C265 701 222 735 178 735 C126 735 95 687 85 611 L155 611 C160 635 170 647 187 647 C219 647 264 613 306 613 C353 613 391 658 399 737 L327 737 Z " />
<glyph glyph-name="adieresis" unicode="&#xe4;" horiz-adv-x="481" d="M234 552 C110 552 45 495 45 383 L45 373 L169 373 L169 387 C169 435 194 458 233 458 C276 458 297 437 297 392 C297 354 280 339 235 327 L172 310 C64 281 28 237 28 141 C28 85 50 -14 159 -14 C234 -14 265 6 295 56 L297 56 C303 29 308 10 314 0 L446 0 C433 31 429 54 429 96 L429 392 C429 508 370 552 234 552 L234 552 Z M160 155 C160 198 177 219 220 235 L250 246 C275 255 282 260 297 271 L297 161 C297 108 254 80 212 80 C179 80 160 107 160 155 L160 155 Z M99 733 L99 615 L211 615 L211 733 L99 733 Z M271 733 L271 615 L383 615 L383 733 L271 733 Z " />
<glyph glyph-name="aring" unicode="&#xe5;" horiz-adv-x="481" d="M234 552 C110 552 45 495 45 383 L45 373 L169 373 L169 387 C169 435 194 458 233 458 C276 458 297 437 297 392 C297 354 280 339 235 327 L172 310 C64 281 28 237 28 141 C28 85 50 -14 159 -14 C234 -14 265 6 295 56 L297 56 C303 29 308 10 314 0 L446 0 C433 31 429 54 429 96 L429 392 C429 508 370 552 234 552 L234 552 Z M160 155 C160 198 177 219 220 235 L250 246 C275 255 282 260 297 271 L297 161 C297 108 254 80 212 80 C179 80 160 107 160 155 L160 155 Z M237 800 C172 800 124 752 124 690 C124 625 172 582 237 582 C301 582 350 626 350 690 C350 751 303 800 237 800 L237 800 Z M180 690 C180 723 207 747 236 747 C270 747 294 722 294 690 C294 658 268 633 237 633 C206 633 180 658 180 690 L180 690 Z " />
<glyph glyph-name="ae" unicode="&#xe6;" horiz-adv-x="722" d="M233 552 C110 552 44 496 44 384 L44 373 L168 373 L168 384 C168 436 191 458 232 458 C275 458 296 437 296 392 C296 361 287 342 241 329 L153 305 C64 281 27 235 27 141 C27 49 78 -14 170 -14 C252 -14 298 17 331 79 C355 17 412 -14 493 -14 C616 -14 681 49 687 181 L563 181 C555 111 534 80 491 80 C447 80 424 128 424 205 L424 248 L695 248 L695 286 C695 482 630 552 500 552 C439 552 392 529 372 488 C345 533 311 552 233 552 L233 552 Z M424 330 L424 344 C424 420 450 458 494 458 C542 458 560 428 563 330 L424 330 Z M160 155 C160 209 190 223 218 234 L250 246 C266 252 289 263 297 271 L297 161 C297 108 254 80 212 80 C179 80 160 107 160 155 L160 155 Z " />
<glyph glyph-name="ccedilla" unicode="&#xe7;" horiz-adv-x="463" d="M261 -13 C385 -4 437 75 437 206 L305 206 C305 150 299 80 238 80 C174 80 164 145 164 268 C164 398 178 452 243 452 C299 452 305 386 305 344 L437 344 C437 461 381 552 244 552 C65 552 26 421 26 269 C26 78 79 -7 209 -13 L161 -88 L183 -108 C194 -104 203 -102 215 -102 C235 -102 261 -110 261 -134 C261 -159 229 -167 210 -167 C188 -167 162 -162 142 -152 L123 -198 C151 -212 193 -217 223 -217 C289 -217 349 -197 349 -121 C349 -73 303 -53 261 -53 C251 -53 242 -55 232 -58 L261 -13 Z " />
<glyph glyph-name="egrave" unicode="&#xe8;" horiz-adv-x="463" d="M240 552 C60 552 26 428 26 273 C26 121 44 -14 234 -14 C370 -14 424 60 429 181 L305 181 C298 119 283 81 232 80 C175 79 164 155 164 209 L164 248 L437 248 L437 279 C437 464 389 552 240 552 L240 552 Z M164 330 L164 351 C164 387 173 458 235 458 C278 458 304 434 305 330 L164 330 Z M110 746 L208 602 L302 602 L248 746 L110 746 Z " />
<glyph glyph-name="eacute" unicode="&#xe9;" horiz-adv-x="463" d="M240 552 C60 552 26 428 26 273 C26 121 44 -14 234 -14 C370 -14 424 60 429 181 L305 181 C298 119 283 81 232 80 C175 79 164 155 164 209 L164 248 L437 248 L437 279 C437 464 389 552 240 552 L240 552 Z M164 330 L164 351 C164 387 173 458 235 458 C278 458 304 434 305 330 L164 330 Z M244 746 L190 602 L284 602 L382 746 L244 746 Z " />
<glyph glyph-name="ecircumflex" unicode="&#xea;" horiz-adv-x="463" d="M240 552 C60 552 26 428 26 273 C26 121 44 -14 234 -14 C370 -14 424 60 429 181 L305 181 C298 119 283 81 232 80 C175 79 164 155 164 209 L164 248 L437 248 L437 279 C437 464 389 552 240 552 L240 552 Z M164 330 L164 351 C164 387 173 458 235 458 C278 458 304 434 305 330 L164 330 Z M168 746 L90 602 L190 602 L238 687 L284 602 L390 602 L312 746 L168 746 Z " />
<glyph glyph-name="edieresis" unicode="&#xeb;" horiz-adv-x="463" d="M240 552 C60 552 26 428 26 273 C26 121 44 -14 234 -14 C370 -14 424 60 429 181 L305 181 C298 119 283 81 232 80 C175 79 164 155 164 209 L164 248 L437 248 L437 279 C437 464 389 552 240 552 L240 552 Z M164 330 L164 351 C164 387 173 458 235 458 C278 458 304 434 305 330 L164 330 Z M98 733 L98 615 L210 615 L210 733 L98 733 Z M270 733 L270 615 L382 615 L382 733 L270 733 Z " />
<glyph glyph-name="igrave" unicode="&#xec;" horiz-adv-x="240" d="M51 538 L51 0 L189 0 L189 538 L51 538 Z M-4 746 L94 602 L188 602 L134 746 L-4 746 Z " />
<glyph glyph-name="iacute" unicode="&#xed;" horiz-adv-x="240" d="M51 538 L51 0 L189 0 L189 538 L51 538 Z M105 746 L51 602 L145 602 L243 746 L105 746 Z " />
<glyph glyph-name="icircumflex" unicode="&#xee;" horiz-adv-x="240" d="M51 538 L51 0 L189 0 L189 538 L51 538 Z M49 746 L-29 602 L71 602 L119 687 L165 602 L271 602 L193 746 L49 746 Z " />
<glyph glyph-name="idieresis" unicode="&#xef;" horiz-adv-x="240" d="M51 538 L51 0 L189 0 L189 538 L51 538 Z M-22 733 L-22 615 L90 615 L90 733 L-22 733 Z M150 733 L150 615 L262 615 L262 733 L150 733 Z " />
<glyph glyph-name="eth" unicode="&#xf0;" horiz-adv-x="480" d="M247 732 C229 750 205 773 180 795 L76 734 C98 714 121 691 142 670 L66 625 L105 583 L182 628 C218 587 253 542 274 508 L272 506 C253 522 229 532 202 532 C89 532 28 444 28 269 C28 53 95 -14 236 -14 C388 -14 452 70 452 269 C452 435 407 560 288 690 L365 735 L322 777 L247 732 Z M166 262 C166 358 171 438 240 438 C291 438 314 397 314 262 C314 126 293 80 240 80 C173 80 166 153 166 262 L166 262 Z " />
<glyph glyph-name="ntilde" unicode="&#xf1;" horiz-adv-x="500" d="M317 552 C253 552 207 524 180 475 L178 475 L178 538 L46 538 L46 0 L184 0 L184 360 C184 415 208 446 257 446 C300 446 316 422 316 374 L316 0 L454 0 L454 402 C454 497 411 552 317 552 L317 552 Z M328 737 C327 716 315 701 300 701 C266 701 223 735 179 735 C127 735 96 687 86 611 L156 611 C161 635 171 647 188 647 C220 647 265 613 307 613 C354 613 392 658 400 737 L328 737 Z " />
<glyph glyph-name="ograve" unicode="&#xf2;" horiz-adv-x="480" d="M452 270 C452 484 387 552 241 552 C106 552 28 484 28 269 C28 38 105 -14 237 -14 C362 -14 452 38 452 270 L452 270 Z M314 269 C314 132 295 80 240 80 C175 80 166 152 166 269 C166 375 170 458 240 458 C295 458 314 407 314 269 L314 269 Z M107 746 L205 602 L299 602 L245 746 L107 746 Z " />
<glyph glyph-name="oacute" unicode="&#xf3;" horiz-adv-x="480" d="M452 270 C452 484 387 552 241 552 C106 552 28 484 28 269 C28 38 105 -14 237 -14 C362 -14 452 38 452 270 L452 270 Z M314 269 C314 132 295 80 240 80 C175 80 166 152 166 269 C166 375 170 458 240 458 C295 458 314 407 314 269 L314 269 Z M245 746 L191 602 L285 602 L383 746 L245 746 Z " />
<glyph glyph-name="ocircumflex" unicode="&#xf4;" horiz-adv-x="480" d="M452 270 C452 484 387 552 241 552 C106 552 28 484 28 269 C28 38 105 -14 237 -14 C362 -14 452 38 452 270 L452 270 Z M314 269 C314 132 295 80 240 80 C175 80 166 152 166 269 C166 375 170 458 240 458 C295 458 314 407 314 269 L314 269 Z M168 746 L90 602 L190 602 L238 687 L284 602 L390 602 L312 746 L168 746 Z " />
<glyph glyph-name="otilde" unicode="&#xf5;" horiz-adv-x="480" d="M452 270 C452 484 387 552 241 552 C106 552 28 484 28 269 C28 38 105 -14 237 -14 C362 -14 452 38 452 270 L452 270 Z M314 269 C314 132 295 80 240 80 C175 80 166 152 166 269 C166 375 170 458 240 458 C295 458 314 407 314 269 L314 269 Z M325 737 C324 716 312 701 297 701 C263 701 220 735 176 735 C124 735 93 687 83 611 L153 611 C158 635 168 647 185 647 C217 647 262 613 304 613 C351 613 389 658 397 737 L325 737 Z " />
<glyph glyph-name="odieresis" unicode="&#xf6;" horiz-adv-x="480" d="M452 270 C452 484 387 552 241 552 C106 552 28 484 28 269 C28 38 105 -14 237 -14 C362 -14 452 38 452 270 L452 270 Z M314 269 C314 132 295 80 240 80 C175 80 166 152 166 269 C166 375 170 458 240 458 C295 458 314 407 314 269 L314 269 Z M98 733 L98 615 L210 615 L210 733 L98 733 Z M270 733 L270 615 L382 615 L382 733 L270 733 Z " />
<glyph glyph-name="divide" unicode="&#xf7;" horiz-adv-x="600" d="M300 562 C247 562 203 521 203 465 C203 410 246 368 300 368 C356 368 397 412 397 465 C397 520 354 562 300 562 L300 562 Z M47 315 L47 191 L553 191 L553 315 L47 315 Z M300 138 C247 138 203 98 203 41 C203 -16 247 -56 300 -56 C354 -56 397 -14 397 41 C397 96 354 138 300 138 L300 138 Z " />
<glyph glyph-name="oslash" unicode="&#xf8;" horiz-adv-x="480" d="M383 596 L349 531 C319 547 283 552 242 552 C100 552 28 477 28 269 C28 195 33 90 90 35 L53 -35 L97 -58 L131 7 C163 -11 200 -14 236 -14 C388 -14 452 70 452 270 C452 341 448 448 390 503 L427 573 L383 596 Z M168 186 C166 216 166 246 166 269 C166 404 181 458 240 458 C266 458 282 447 293 424 L170 186 L168 186 L168 186 Z M312 351 C313 324 314 296 314 269 C314 123 291 80 240 80 C216 80 197 91 186 113 L310 351 L312 351 L312 351 Z " />
<glyph glyph-name="ugrave" unicode="&#xf9;" horiz-adv-x="500" d="M46 538 L46 140 C46 39 90 -14 183 -14 C246 -14 292 13 320 63 L322 63 L322 0 L454 0 L454 538 L316 538 L316 177 C316 123 292 92 243 92 C201 92 184 114 184 165 L184 538 L46 538 Z M120 746 L218 602 L312 602 L258 746 L120 746 Z " />
<glyph glyph-name="uacute" unicode="&#xfa;" horiz-adv-x="500" d="M46 538 L46 140 C46 39 90 -14 183 -14 C246 -14 292 13 320 63 L322 63 L322 0 L454 0 L454 538 L316 538 L316 177 C316 123 292 92 243 92 C201 92 184 114 184 165 L184 538 L46 538 Z M254 746 L200 602 L294 602 L392 746 L254 746 Z " />
<glyph glyph-name="ucircumflex" unicode="&#xfb;" horiz-adv-x="500" d="M46 538 L46 140 C46 39 90 -14 183 -14 C246 -14 292 13 320 63 L322 63 L322 0 L454 0 L454 538 L316 538 L316 177 C316 123 292 92 243 92 C201 92 184 114 184 165 L184 538 L46 538 Z M178 746 L100 602 L200 602 L248 687 L294 602 L400 602 L322 746 L178 746 Z " />
<glyph glyph-name="udieresis" unicode="&#xfc;" horiz-adv-x="500" d="M46 538 L46 140 C46 39 90 -14 183 -14 C246 -14 292 13 320 63 L322 63 L322 0 L454 0 L454 538 L316 538 L316 177 C316 123 292 92 243 92 C201 92 184 114 184 165 L184 538 L46 538 Z M108 733 L108 615 L220 615 L220 733 L108 733 Z M280 733 L280 615 L392 615 L392 733 L280 733 Z " />
<glyph glyph-name="yacute" unicode="&#xfd;" horiz-adv-x="444" d="M5 538 L156 0 C152 -54 128 -76 82 -76 C70 -76 59 -75 46 -73 L46 -176 L113 -176 C199 -176 233 -155 262 -103 C276 -77 293 -27 311 43 L439 538 L301 538 L231 166 L229 166 L149 538 L5 538 Z M232 746 L178 602 L272 602 L370 746 L232 746 Z " />
<glyph glyph-name="thorn" unicode="&#xfe;" horiz-adv-x="500" d="M46 714 L46 -176 L184 -176 L184 50 L186 50 C215 7 250 -14 302 -14 C414 -14 467 68 467 269 C467 471 415 552 302 552 C242 552 207 526 186 481 L184 481 L184 714 L46 714 Z M184 269 C184 380 194 446 256 446 C310 446 329 404 329 269 C329 135 310 92 257 92 C194 92 184 157 184 269 L184 269 Z " />
<glyph glyph-name="ydieresis" unicode="&#xff;" horiz-adv-x="444" d="M5 538 L156 0 C152 -54 128 -76 82 -76 C70 -76 59 -75 46 -73 L46 -176 L113 -176 C199 -176 233 -155 262 -103 C276 -77 293 -27 311 43 L439 538 L301 538 L231 166 L229 166 L149 538 L5 538 Z M89 733 L89 615 L201 615 L201 733 L89 733 Z M261 733 L261 615 L373 615 L373 733 L261 733 Z " />
<glyph glyph-name="Amacron" unicode="&#x100;" horiz-adv-x="556" d="M189 714 L0 0 L150 0 L183 151 L373 151 L406 0 L556 0 L367 714 L189 714 Z M279 590 L348 269 L208 269 L277 590 L279 590 Z M131 866 L131 790 L425 790 L425 866 L131 866 Z " />
<glyph glyph-name="amacron" unicode="&#x101;" horiz-adv-x="481" d="M234 552 C110 552 45 495 45 383 L45 373 L169 373 L169 387 C169 435 194 458 233 458 C276 458 297 437 297 392 C297 354 280 339 235 327 L172 310 C64 281 28 237 28 141 C28 85 50 -14 159 -14 C234 -14 265 6 295 56 L297 56 C303 29 308 10 314 0 L446 0 C433 31 429 54 429 96 L429 392 C429 508 370 552 234 552 L234 552 Z M160 155 C160 198 177 219 220 235 L250 246 C275 255 282 260 297 271 L297 161 C297 108 254 80 212 80 C179 80 160 107 160 155 L160 155 Z M96 712 L96 636 L390 636 L390 712 L96 712 Z " />
<glyph glyph-name="Abreve" unicode="&#x102;" horiz-adv-x="556" d="M189 714 L0 0 L150 0 L183 151 L373 151 L406 0 L556 0 L367 714 L189 714 Z M279 590 L348 269 L208 269 L277 590 L279 590 Z M139 899 C141 819 190 758 278 758 C391 758 417 854 417 899 L352 899 C348 860 317 834 278 834 C245 834 209 854 204 899 L139 899 Z " />
<glyph glyph-name="abreve" unicode="&#x103;" horiz-adv-x="481" d="M234 552 C110 552 45 495 45 383 L45 373 L169 373 L169 387 C169 435 194 458 233 458 C276 458 297 437 297 392 C297 354 280 339 235 327 L172 310 C64 281 28 237 28 141 C28 85 50 -14 159 -14 C234 -14 265 6 295 56 L297 56 C303 29 308 10 314 0 L446 0 C433 31 429 54 429 96 L429 392 C429 508 370 552 234 552 L234 552 Z M160 155 C160 198 177 219 220 235 L250 246 C275 255 282 260 297 271 L297 161 C297 108 254 80 212 80 C179 80 160 107 160 155 L160 155 Z M105 745 C107 665 156 604 244 604 C357 604 383 700 383 745 L318 745 C314 706 283 680 244 680 C211 680 175 700 170 745 L105 745 Z " />
<glyph glyph-name="Aogonek" unicode="&#x104;" horiz-adv-x="556" d="M189 714 L0 0 L150 0 L183 151 L373 151 L406 0 C329 -37 283 -88 283 -138 C283 -186 312 -217 379 -217 C432 -217 460 -206 493 -182 L463 -133 C441 -146 425 -153 401 -153 C381 -153 372 -141 372 -122 C372 -83 408 -47 473 0 L556 0 L367 714 L189 714 Z M279 590 L348 269 L208 269 L277 590 L279 590 Z " />
<glyph glyph-name="aogonek" unicode="&#x105;" horiz-adv-x="481" d="M234 552 C110 552 45 495 45 383 L45 373 L169 373 L169 387 C169 435 192 458 233 458 C276 458 297 437 297 392 C297 354 280 339 235 327 L172 310 C64 281 28 237 28 141 C28 85 50 -14 159 -14 C234 -14 265 6 295 56 L297 56 C302 30 307 12 313 2 C255 -45 220 -93 220 -138 C220 -187 248 -217 307 -217 C354 -217 378 -207 409 -182 L382 -133 C362 -145 347 -153 326 -153 C309 -153 300 -142 300 -122 C300 -89 321 -51 377 0 L446 0 C433 31 429 54 429 96 L429 392 C429 508 370 552 234 552 L234 552 Z M160 155 C160 198 177 219 220 235 L250 246 C275 255 282 260 297 271 L297 161 C297 108 254 80 212 80 C179 80 160 107 160 155 L160 155 Z " />
<glyph glyph-name="Cacute" unicode="&#x106;" horiz-adv-x="537" d="M278 728 C72 728 35 591 35 357 C35 117 74 -14 278 -14 C462 -14 505 110 505 273 L361 273 C361 142 335 92 271 92 C202 92 179 147 179 349 C179 529 191 622 269 622 C343 622 355 560 355 473 L499 473 L499 480 C499 631 445 728 278 728 L278 728 Z M276 900 L222 756 L316 756 L414 900 L276 900 Z " />
<glyph glyph-name="cacute" unicode="&#x107;" horiz-adv-x="463" d="M244 552 C65 552 26 421 26 269 C26 67 84 -14 232 -14 C378 -14 437 65 437 206 L305 206 C305 150 299 80 238 80 C174 80 164 145 164 268 C164 398 178 452 243 452 C299 452 305 386 305 344 L437 344 C437 461 381 552 244 552 L244 552 Z M245 746 L191 602 L285 602 L383 746 L245 746 Z " />
<glyph glyph-name="Ccircumflex" unicode="&#x108;" horiz-adv-x="537" d="M278 728 C72 728 35 591 35 357 C35 117 74 -14 278 -14 C462 -14 505 110 505 273 L361 273 C361 142 335 92 271 92 C202 92 179 147 179 349 C179 529 191 622 269 622 C343 622 355 560 355 473 L499 473 L499 480 C499 631 445 728 278 728 L278 728 Z M204 900 L126 756 L226 756 L274 841 L320 756 L426 756 L348 900 L204 900 Z " />
<glyph glyph-name="ccircumflex" unicode="&#x109;" horiz-adv-x="463" d="M244 552 C65 552 26 421 26 269 C26 67 84 -14 232 -14 C378 -14 437 65 437 206 L305 206 C305 150 299 80 238 80 C174 80 164 145 164 268 C164 398 178 452 243 452 C299 452 305 386 305 344 L437 344 C437 461 381 552 244 552 L244 552 Z M170 746 L92 602 L192 602 L240 687 L286 602 L392 602 L314 746 L170 746 Z " />
<glyph glyph-name="Cdotaccent" unicode="&#x10a;" horiz-adv-x="537" d="M278 728 C72 728 35 591 35 357 C35 117 74 -14 278 -14 C462 -14 505 110 505 273 L361 273 C361 142 335 92 271 92 C202 92 179 147 179 349 C179 529 191 622 269 622 C343 622 355 560 355 473 L499 473 L499 480 C499 631 445 728 278 728 L278 728 Z M219 887 L219 769 L331 769 L331 887 L219 887 Z " />
<glyph glyph-name="cdotaccent" unicode="&#x10b;" horiz-adv-x="463" d="M244 552 C65 552 26 421 26 269 C26 67 84 -14 232 -14 C378 -14 437 65 437 206 L305 206 C305 150 299 80 238 80 C174 80 164 145 164 268 C164 398 178 452 243 452 C299 452 305 386 305 344 L437 344 C437 461 381 552 244 552 L244 552 Z M184 733 L184 615 L296 615 L296 733 L184 733 Z " />
<glyph glyph-name="Ccaron" unicode="&#x10c;" horiz-adv-x="537" d="M278 728 C72 728 35 591 35 357 C35 117 74 -14 278 -14 C462 -14 505 110 505 273 L361 273 C361 142 335 92 271 92 C202 92 179 147 179 349 C179 529 191 622 269 622 C343 622 355 560 355 473 L499 473 L499 480 C499 631 445 728 278 728 L278 728 Z M125 900 L203 756 L347 756 L425 900 L325 900 L277 815 L231 900 L125 900 Z " />
<glyph glyph-name="ccaron" unicode="&#x10d;" horiz-adv-x="463" d="M244 552 C65 552 26 421 26 269 C26 67 84 -14 232 -14 C378 -14 437 65 437 206 L305 206 C305 150 299 80 238 80 C174 80 164 145 164 268 C164 398 178 452 243 452 C299 452 305 386 305 344 L437 344 C437 461 381 552 244 552 L244 552 Z M93 746 L171 602 L315 602 L393 746 L293 746 L245 661 L199 746 L93 746 Z " />
<glyph glyph-name="Dcaron" unicode="&#x10e;" horiz-adv-x="574" d="M57 714 L57 0 L289 0 C488 0 529 141 529 367 C529 535 512 714 298 714 L57 714 Z M201 106 L201 608 L262 608 C371 608 385 525 385 363 C385 169 364 106 268 106 L201 106 Z M106 900 L184 756 L328 756 L406 900 L306 900 L258 815 L212 900 L106 900 Z " />
<glyph glyph-name="dcaron" unicode="&#x10f;" horiz-adv-x="500" d="M316 714 L316 488 L314 488 C285 531 250 552 198 552 C70 552 33 441 33 269 C33 94 71 -14 198 -14 C255 -14 291 9 320 57 L322 57 L322 0 L454 0 L454 714 L316 714 Z M171 269 C171 398 188 446 243 446 C299 446 316 398 316 269 C316 137 298 92 243 92 C190 92 171 137 171 269 L171 269 Z M525 714 L492 570 L582 570 L645 714 L525 714 Z " />
<glyph glyph-name="Dcroat" unicode="&#x110;" horiz-adv-x="574" d="M57 714 L57 421 L0 421 L0 315 L57 315 L57 0 L289 0 C488 0 529 141 529 367 C529 535 512 714 298 714 L57 714 Z M201 106 L201 315 L294 315 L294 421 L201 421 L201 608 L262 608 C371 608 385 525 385 363 C385 169 365 106 269 106 L201 106 Z " />
<glyph glyph-name="dcroat" unicode="&#x111;" horiz-adv-x="500" d="M316 714 L316 647 L206 647 L206 586 L316 586 L316 488 L314 488 C285 531 250 552 198 552 C70 552 33 441 33 269 C33 94 71 -14 198 -14 C255 -14 291 9 320 57 L322 57 L322 0 L454 0 L454 586 L500 586 L500 647 L454 647 L454 714 L316 714 Z M171 269 C171 398 188 446 243 446 C299 446 316 398 316 269 C316 137 298 92 243 92 C190 92 171 137 171 269 L171 269 Z " />
<glyph glyph-name="Emacron" unicode="&#x112;" horiz-adv-x="481" d="M50 714 L50 0 L459 0 L459 118 L194 118 L194 310 L434 310 L434 428 L194 428 L194 596 L449 596 L449 714 L50 714 Z M104 866 L104 790 L398 790 L398 866 L104 866 Z " />
<glyph glyph-name="emacron" unicode="&#x113;" horiz-adv-x="463" d="M240 552 C60 552 26 428 26 273 C26 121 44 -14 234 -14 C370 -14 424 60 429 181 L305 181 C298 119 283 81 232 80 C175 79 164 155 164 209 L164 248 L437 248 L437 279 C437 464 389 552 240 552 L240 552 Z M164 330 L164 351 C164 387 173 458 235 458 C278 458 304 434 305 330 L164 330 Z M90 712 L90 636 L384 636 L384 712 L90 712 Z " />
<glyph glyph-name="Ebreve" unicode="&#x114;" horiz-adv-x="481" d="M50 714 L50 0 L459 0 L459 118 L194 118 L194 310 L434 310 L434 428 L194 428 L194 596 L449 596 L449 714 L50 714 Z M108 899 C110 819 159 758 247 758 C360 758 386 854 386 899 L321 899 C317 860 286 834 247 834 C214 834 178 854 173 899 L108 899 Z " />
<glyph glyph-name="ebreve" unicode="&#x115;" horiz-adv-x="463" d="M240 552 C60 552 26 428 26 273 C26 121 44 -14 234 -14 C370 -14 424 60 429 181 L305 181 C298 119 283 81 232 80 C175 79 164 155 164 209 L164 248 L437 248 L437 279 C437 464 389 552 240 552 L240 552 Z M164 330 L164 351 C164 387 173 458 235 458 C278 458 304 434 305 330 L164 330 Z M98 745 C100 665 149 604 237 604 C350 604 376 700 376 745 L311 745 C307 706 276 680 237 680 C204 680 168 700 163 745 L98 745 Z " />
<glyph glyph-name="Edotaccent" unicode="&#x116;" horiz-adv-x="481" d="M50 714 L50 0 L459 0 L459 118 L194 118 L194 310 L434 310 L434 428 L194 428 L194 596 L449 596 L449 714 L50 714 Z M196 887 L196 769 L308 769 L308 887 L196 887 Z " />
<glyph glyph-name="edotaccent" unicode="&#x117;" horiz-adv-x="463" d="M240 552 C60 552 26 428 26 273 C26 121 44 -14 234 -14 C370 -14 424 60 429 181 L305 181 C298 119 283 81 232 80 C175 79 164 155 164 209 L164 248 L437 248 L437 279 C437 464 389 552 240 552 L240 552 Z M164 330 L164 351 C164 387 173 458 235 458 C278 458 304 434 305 330 L164 330 Z M182 733 L182 615 L294 615 L294 733 L182 733 Z " />
<glyph glyph-name="Eogonek" unicode="&#x118;" horiz-adv-x="481" d="M50 714 L50 0 L372 0 C292 -38 249 -91 249 -138 C249 -187 280 -217 346 -217 C398 -217 426 -206 459 -182 L429 -133 C404 -146 389 -153 367 -153 C347 -153 338 -141 338 -122 C338 -84 369 -50 439 0 L459 0 L459 118 L194 118 L194 310 L434 310 L434 428 L194 428 L194 596 L449 596 L449 714 L50 714 Z " />
<glyph glyph-name="eogonek" unicode="&#x119;" horiz-adv-x="463" d="M240 552 C60 552 26 428 26 273 C26 126 46 -7 216 -13 C154 -52 121 -94 121 -138 C121 -187 151 -217 217 -217 C271 -217 298 -206 331 -182 L301 -133 C279 -146 262 -153 238 -153 C220 -153 210 -141 210 -122 C210 -85 236 -54 301 -7 C388 14 425 82 429 181 L305 181 C298 119 283 80 232 80 C175 80 164 155 164 209 L164 248 L437 248 L437 279 C437 464 389 552 240 552 L240 552 Z M164 330 L164 351 C164 387 173 458 235 458 C278 458 304 434 305 330 L164 330 Z " />
<glyph glyph-name="Ecaron" unicode="&#x11a;" horiz-adv-x="481" d="M50 714 L50 0 L459 0 L459 118 L194 118 L194 310 L434 310 L434 428 L194 428 L194 596 L449 596 L449 714 L50 714 Z M103 900 L181 756 L325 756 L403 900 L303 900 L255 815 L209 900 L103 900 Z " />
<glyph glyph-name="ecaron" unicode="&#x11b;" horiz-adv-x="463" d="M240 552 C60 552 26 428 26 273 C26 121 44 -14 234 -14 C370 -14 424 60 429 181 L305 181 C298 119 283 81 232 80 C175 79 164 155 164 209 L164 248 L437 248 L437 279 C437 464 389 552 240 552 L240 552 Z M164 330 L164 351 C164 387 173 458 235 458 C278 458 304 434 305 330 L164 330 Z M86 746 L164 602 L308 602 L386 746 L286 746 L238 661 L192 746 L86 746 Z " />
<glyph glyph-name="Gcircumflex" unicode="&#x11c;" horiz-adv-x="556" d="M283 728 C91 728 43 592 43 364 C43 93 91 -14 255 -14 C321 -14 371 9 405 66 L407 66 L407 0 L513 0 L513 385 L280 385 L280 279 L375 279 L375 207 C375 128 321 92 286 92 C219 92 187 155 187 371 C187 573 226 622 285 622 C345 622 366 556 367 502 L505 502 C505 654 433 728 283 728 L283 728 Z M215 900 L137 756 L237 756 L285 841 L331 756 L437 756 L359 900 L215 900 Z " />
<glyph glyph-name="gcircumflex" unicode="&#x11d;" horiz-adv-x="500" d="M204 552 C51 552 35 398 35 278 C35 107 76 6 200 6 C247 6 289 35 315 72 L317 72 L317 -2 C317 -53 298 -96 241 -96 C209 -96 174 -76 174 -40 L42 -40 C42 -151 134 -184 226 -184 C370 -184 449 -129 449 23 L449 538 L317 538 L317 478 L315 478 C294 523 255 552 204 552 L204 552 Z M173 254 C173 397 185 446 244 446 C300 446 317 397 317 268 C317 172 300 112 242 112 C185 112 173 171 173 254 L173 254 Z M188 746 L110 602 L210 602 L258 687 L304 602 L410 602 L332 746 L188 746 Z " />
<glyph glyph-name="Gbreve" unicode="&#x11e;" horiz-adv-x="556" d="M283 728 C91 728 43 592 43 364 C43 93 91 -14 255 -14 C321 -14 371 9 405 66 L407 66 L407 0 L513 0 L513 385 L280 385 L280 279 L375 279 L375 207 C375 128 321 92 286 92 C219 92 187 155 187 371 C187 573 226 622 285 622 C345 622 366 556 367 502 L505 502 C505 654 433 728 283 728 L283 728 Z M145 899 C147 819 196 758 284 758 C397 758 423 854 423 899 L358 899 C354 860 323 834 284 834 C251 834 215 854 210 899 L145 899 Z " />
<glyph glyph-name="gbreve" unicode="&#x11f;" horiz-adv-x="500" d="M204 552 C51 552 35 398 35 278 C35 107 76 6 200 6 C247 6 289 35 315 72 L317 72 L317 -2 C317 -53 298 -96 241 -96 C209 -96 174 -76 174 -40 L42 -40 C42 -151 134 -184 226 -184 C370 -184 449 -129 449 23 L449 538 L317 538 L317 478 L315 478 C294 523 255 552 204 552 L204 552 Z M173 254 C173 397 185 446 244 446 C300 446 317 397 317 268 C317 172 300 112 242 112 C185 112 173 171 173 254 L173 254 Z M114 745 C116 665 165 604 253 604 C366 604 392 700 392 745 L327 745 C323 706 292 680 253 680 C220 680 184 700 179 745 L114 745 Z " />
<glyph glyph-name="Gdotaccent" unicode="&#x120;" horiz-adv-x="556" d="M283 728 C91 728 43 592 43 364 C43 93 91 -14 255 -14 C321 -14 371 9 405 66 L407 66 L407 0 L513 0 L513 385 L280 385 L280 279 L375 279 L375 207 C375 128 321 92 286 92 C219 92 187 155 187 371 C187 573 226 622 285 622 C345 622 366 556 367 502 L505 502 C505 654 433 728 283 728 L283 728 Z M230 887 L230 769 L342 769 L342 887 L230 887 Z " />
<glyph glyph-name="gdotaccent" unicode="&#x121;" horiz-adv-x="500" d="M204 552 C51 552 35 398 35 278 C35 107 76 6 200 6 C247 6 289 35 315 72 L317 72 L317 -2 C317 -53 298 -96 241 -96 C209 -96 174 -76 174 -40 L42 -40 C42 -151 134 -184 226 -184 C370 -184 449 -129 449 23 L449 538 L317 538 L317 478 L315 478 C294 523 255 552 204 552 L204 552 Z M173 254 C173 397 185 446 244 446 C300 446 317 397 317 268 C317 172 300 112 242 112 C185 112 173 171 173 254 L173 254 Z M198 733 L198 615 L310 615 L310 733 L198 733 Z " />
<glyph glyph-name="Gcommaaccent" unicode="&#x122;" horiz-adv-x="556" d="M283 728 C91 728 43 592 43 364 C43 93 91 -14 255 -14 C321 -14 371 9 405 66 L407 66 L407 0 L513 0 L513 385 L280 385 L280 279 L375 279 L375 207 C375 128 321 92 286 92 C219 92 187 155 187 371 C187 573 226 622 285 622 C345 622 366 556 367 502 L505 502 C505 654 433 728 283 728 L283 728 Z M225 -50 L225 -168 L276 -168 C275 -198 264 -210 240 -217 L240 -253 C288 -247 337 -236 337 -148 L337 -50 L225 -50 Z " />
<glyph glyph-name="gcommaaccent" unicode="&#x123;" horiz-adv-x="500" d="M204 552 C51 552 35 398 35 278 C35 107 76 6 200 6 C247 6 289 35 315 72 L317 72 L317 -2 C317 -53 298 -96 241 -96 C209 -96 174 -76 174 -40 L42 -40 C42 -151 134 -184 226 -184 C370 -184 449 -129 449 23 L449 538 L317 538 L317 478 L315 478 C294 523 255 552 204 552 L204 552 Z M173 254 C173 397 185 446 244 446 C300 446 317 397 317 268 C317 172 300 112 242 112 C185 112 173 171 173 254 L173 254 Z M299 799 C239 792 202 774 202 690 L202 596 L314 596 L314 714 L263 714 C264 741 272 755 299 763 L299 799 Z " />
<glyph glyph-name="Hcircumflex" unicode="&#x124;" horiz-adv-x="556" d="M50 714 L50 0 L194 0 L194 317 L362 317 L362 0 L506 0 L506 714 L362 714 L362 441 L194 441 L194 714 L50 714 Z M207 900 L129 756 L229 756 L277 841 L323 756 L429 756 L351 900 L207 900 Z " />
<glyph glyph-name="hcircumflex" unicode="&#x125;" horiz-adv-x="500" d="M46 714 L46 0 L184 0 L184 360 C184 415 208 446 257 446 C300 446 316 422 316 374 L316 0 L454 0 L454 403 C454 497 411 552 317 552 C255 552 212 528 186 483 L184 483 L184 714 L46 714 Z M178 900 L100 756 L200 756 L248 841 L294 756 L400 756 L322 900 L178 900 Z " />
<glyph glyph-name="Hbar" unicode="&#x126;" horiz-adv-x="556" d="M50 714 L50 0 L194 0 L194 300 L362 300 L362 0 L506 0 L506 714 L362 714 L362 568 L194 568 L194 714 L50 714 Z M194 420 L194 507 L362 507 L362 420 L194 420 Z " />
<glyph glyph-name="hbar" unicode="&#x127;" horiz-adv-x="500" d="M46 714 L46 647 L-10 647 L-10 586 L46 586 L46 0 L184 0 L184 360 C184 411 205 446 257 446 C300 446 316 422 316 375 L316 0 L454 0 L454 402 C454 497 411 552 317 552 C256 552 213 529 186 483 L184 483 L184 586 L285 586 L285 647 L184 647 L184 714 L46 714 Z " />
<glyph glyph-name="Itilde" unicode="&#x128;" horiz-adv-x="258" d="M57 714 L57 0 L201 0 L201 714 L57 714 Z M215 891 C214 870 202 855 187 855 C153 855 110 889 66 889 C14 889 -17 841 -27 765 L43 765 C48 789 58 801 75 801 C107 801 152 767 194 767 C241 767 279 812 287 891 L215 891 Z " />
<glyph glyph-name="itilde" unicode="&#x129;" horiz-adv-x="240" d="M51 538 L51 0 L189 0 L189 538 L51 538 Z M205 737 C204 716 192 701 177 701 C143 701 100 735 56 735 C4 735 -27 687 -37 611 L33 611 C38 635 48 647 65 647 C97 647 142 613 184 613 C231 613 269 658 277 737 L205 737 Z " />
<glyph glyph-name="Imacron" unicode="&#x12a;" horiz-adv-x="258" d="M57 714 L57 0 L201 0 L201 714 L57 714 Z M-17 866 L-17 790 L277 790 L277 866 L-17 866 Z " />
<glyph glyph-name="imacron" unicode="&#x12b;" horiz-adv-x="240" d="M51 538 L51 0 L189 0 L189 538 L51 538 Z M-27 712 L-27 636 L267 636 L267 712 L-27 712 Z " />
<glyph glyph-name="Iogonek" unicode="&#x12e;" horiz-adv-x="258" d="M57 714 L57 0 L134 0 C61 -34 11 -86 11 -138 C11 -186 41 -217 107 -217 C160 -217 188 -206 221 -182 L191 -133 C169 -146 152 -153 128 -153 C110 -153 100 -141 100 -122 C100 -83 137 -46 201 0 L201 714 L57 714 Z " />
<glyph glyph-name="iogonek" unicode="&#x12f;" horiz-adv-x="240" d="M51 722 L51 604 L189 604 L189 722 L51 722 Z M51 538 L51 0 L121 0 C42 -37 -2 -90 -2 -138 C-2 -186 28 -217 95 -217 C147 -217 175 -206 208 -182 L178 -133 C156 -146 138 -153 116 -153 C96 -153 87 -141 87 -122 C87 -84 118 -50 188 0 L189 0 L189 538 L51 538 Z " />
<glyph glyph-name="Idotaccent" unicode="&#x130;" horiz-adv-x="258" d="M57 714 L57 0 L201 0 L201 714 L57 714 Z M73 887 L73 769 L185 769 L185 887 L73 887 Z " />
<glyph glyph-name="dotlessi" unicode="&#x131;" horiz-adv-x="240" d="M51 538 L51 0 L189 0 L189 538 L51 538 Z " />
<glyph glyph-name="IJ" unicode="&#x132;" horiz-adv-x="719" d="M57 714 L57 0 L201 0 L201 714 L57 714 Z M531 714 L531 198 C531 119 513 92 467 92 C424 92 403 113 403 204 L403 226 L271 226 L271 197 C271 40 344 -14 460 -14 C615 -14 675 59 675 197 L675 714 L531 714 Z " />
<glyph glyph-name="ij" unicode="&#x133;" horiz-adv-x="480" d="M51 722 L51 604 L189 604 L189 722 L51 722 Z M51 538 L51 0 L189 0 L189 538 L51 538 Z M291 722 L291 604 L429 604 L429 722 L291 722 Z M291 538 L291 0 C291 -61 276 -76 238 -76 C231 -76 223 -76 215 -74 L215 -174 C242 -175 261 -176 271 -176 C386 -176 429 -134 429 -41 L429 538 L291 538 Z " />
<glyph glyph-name="Jcircumflex" unicode="&#x134;" horiz-adv-x="463" d="M275 714 L275 198 C275 119 257 92 211 92 C168 92 147 113 147 204 L147 226 L15 226 L15 197 C15 40 88 -14 204 -14 C359 -14 419 59 419 197 L419 714 L275 714 Z M274 900 L196 756 L296 756 L344 841 L390 756 L496 756 L418 900 L274 900 Z " />
<glyph glyph-name="jcircumflex" unicode="&#x135;" horiz-adv-x="240" d="M51 538 L51 0 C51 -61 36 -76 -2 -76 C-9 -76 -17 -76 -25 -74 L-25 -174 C2 -175 21 -176 31 -176 C146 -176 189 -134 189 -41 L189 538 L51 538 Z M45 746 L-33 602 L67 602 L115 687 L161 602 L267 602 L189 746 L45 746 Z " />
<glyph glyph-name="Kcommaaccent" unicode="&#x136;" horiz-adv-x="537" d="M50 714 L50 0 L194 0 L194 212 L247 293 L394 0 L556 0 L340 408 L534 714 L378 714 L196 428 L194 428 L194 714 L50 714 Z M233 -50 L233 -168 L284 -168 C283 -198 272 -210 248 -217 L248 -253 C296 -247 345 -236 345 -148 L345 -50 L233 -50 Z " />
<glyph glyph-name="kcommaaccent" unicode="&#x137;" horiz-adv-x="500" d="M51 714 L51 0 L189 0 L189 157 L238 221 L353 0 L505 0 L327 326 L482 538 L330 538 L191 337 L189 337 L189 714 L51 714 Z M214 -50 L214 -168 L265 -168 C264 -198 253 -210 229 -217 L229 -253 C277 -247 326 -236 326 -148 L326 -50 L214 -50 Z " />
<glyph glyph-name="Lacute" unicode="&#x139;" horiz-adv-x="463" d="M50 714 L50 0 L449 0 L449 118 L194 118 L194 714 L50 714 Z M124 900 L70 756 L164 756 L262 900 L124 900 Z " />
<glyph glyph-name="lacute" unicode="&#x13a;" horiz-adv-x="240" d="M51 714 L51 0 L189 0 L189 714 L51 714 Z M106 900 L52 756 L146 756 L244 900 L106 900 Z " />
<glyph glyph-name="Lcommaaccent" unicode="&#x13b;" horiz-adv-x="463" d="M50 714 L50 0 L449 0 L449 118 L194 118 L194 714 L50 714 Z M197 -50 L197 -168 L248 -168 C247 -198 236 -210 212 -217 L212 -253 C260 -247 309 -236 309 -148 L309 -50 L197 -50 Z " />
<glyph glyph-name="lcommaaccent" unicode="&#x13c;" horiz-adv-x="240" d="M51 714 L51 0 L189 0 L189 714 L51 714 Z M67 -50 L67 -168 L118 -168 C117 -198 106 -210 82 -217 L82 -253 C130 -247 179 -236 179 -148 L179 -50 L67 -50 Z " />
<glyph glyph-name="Lcaron" unicode="&#x13d;" horiz-adv-x="463" d="M50 714 L50 0 L449 0 L449 118 L194 118 L194 714 L50 714 Z M278 714 L245 570 L335 570 L398 714 L278 714 Z " />
<glyph glyph-name="lcaron" unicode="&#x13e;" horiz-adv-x="240" d="M51 714 L51 0 L189 0 L189 714 L51 714 Z M260 714 L227 570 L317 570 L380 714 L260 714 Z " />
<glyph glyph-name="Ldot" unicode="&#x13f;" horiz-adv-x="463" d="M50 714 L50 0 L449 0 L449 118 L194 118 L194 714 L50 714 Z M267 448 L267 330 L379 330 L379 448 L267 448 Z " />
<glyph glyph-name="ldot" unicode="&#x140;" horiz-adv-x="370" d="M51 714 L51 0 L189 0 L189 714 L51 714 Z M245 448 L245 330 L357 330 L357 448 L245 448 Z " />
<glyph glyph-name="Lslash" unicode="&#x141;" horiz-adv-x="463" d="M50 714 L50 362 L0 331 L0 225 L50 256 L50 0 L449 0 L449 118 L194 118 L194 346 L320 425 L320 531 L194 452 L194 714 L50 714 Z " />
<glyph glyph-name="lslash" unicode="&#x142;" horiz-adv-x="240" d="M51 714 L51 370 L-12 328 L-12 240 L51 282 L51 0 L189 0 L189 373 L252 414 L252 502 L189 461 L189 714 L51 714 Z " />
<glyph glyph-name="Nacute" unicode="&#x143;" horiz-adv-x="574" d="M50 714 L50 0 L182 0 L182 500 L184 500 L360 0 L524 0 L524 714 L392 714 L392 225 L390 225 L216 714 L50 714 Z M292 900 L238 756 L332 756 L430 900 L292 900 Z " />
<glyph glyph-name="nacute" unicode="&#x144;" horiz-adv-x="500" d="M317 552 C253 552 207 524 180 475 L178 475 L178 538 L46 538 L46 0 L184 0 L184 360 C184 415 208 446 257 446 C300 446 316 422 316 374 L316 0 L454 0 L454 402 C454 497 411 552 317 552 L317 552 Z M249 746 L195 602 L289 602 L387 746 L249 746 Z " />
<glyph glyph-name="Ncommaaccent" unicode="&#x145;" horiz-adv-x="574" d="M50 714 L50 0 L182 0 L182 500 L184 500 L360 0 L524 0 L524 714 L392 714 L392 225 L390 225 L216 714 L50 714 Z M232 -50 L232 -168 L283 -168 C282 -198 271 -210 247 -217 L247 -253 C295 -247 344 -236 344 -148 L344 -50 L232 -50 Z " />
<glyph glyph-name="ncommaaccent" unicode="&#x146;" horiz-adv-x="500" d="M317 552 C253 552 207 524 180 475 L178 475 L178 538 L46 538 L46 0 L184 0 L184 360 C184 415 208 446 257 446 C300 446 316 422 316 374 L316 0 L454 0 L454 402 C454 497 411 552 317 552 L317 552 Z M196 -50 L196 -168 L247 -168 C246 -198 235 -210 211 -217 L211 -253 C259 -247 308 -236 308 -148 L308 -50 L196 -50 Z " />
<glyph glyph-name="Ncaron" unicode="&#x147;" horiz-adv-x="574" d="M50 714 L50 0 L182 0 L182 500 L184 500 L360 0 L524 0 L524 714 L392 714 L392 225 L390 225 L216 714 L50 714 Z M137 900 L215 756 L359 756 L437 900 L337 900 L289 815 L243 900 L137 900 Z " />
<glyph glyph-name="ncaron" unicode="&#x148;" horiz-adv-x="500" d="M317 552 C253 552 207 524 180 475 L178 475 L178 538 L46 538 L46 0 L184 0 L184 360 C184 415 208 446 257 446 C300 446 316 422 316 374 L316 0 L454 0 L454 402 C454 497 411 552 317 552 L317 552 Z M98 746 L176 602 L320 602 L398 746 L298 746 L250 661 L204 746 L98 746 Z " />
<glyph glyph-name="napostrophe" unicode="&#x149;" horiz-adv-x="670" d="M487 552 C423 552 377 524 350 475 L348 475 L348 538 L216 538 L216 0 L354 0 L354 360 C354 415 378 446 427 446 C470 446 486 422 486 374 L486 0 L624 0 L624 402 C624 497 581 552 487 552 L487 552 Z M23 714 L23 558 L75 558 L75 544 C75 501 56 470 23 463 L23 393 C124 404 155 470 155 580 L155 714 L23 714 Z " />
<glyph glyph-name="Omacron" unicode="&#x14c;" horiz-adv-x="556" d="M278 728 C58 728 35 567 35 357 C35 145 59 -14 278 -14 C497 -14 521 145 521 357 C521 567 497 728 278 728 L278 728 Z M179 357 C179 535 189 622 278 622 C368 622 377 535 377 357 C377 176 368 92 278 92 C189 92 179 177 179 357 L179 357 Z M130 866 L130 790 L424 790 L424 866 L130 866 Z " />
<glyph glyph-name="omacron" unicode="&#x14d;" horiz-adv-x="480" d="M452 270 C452 484 387 552 241 552 C106 552 28 484 28 269 C28 38 105 -14 237 -14 C362 -14 452 38 452 270 L452 270 Z M314 269 C314 132 295 80 240 80 C175 80 166 152 166 269 C166 375 170 458 240 458 C295 458 314 407 314 269 L314 269 Z M92 712 L92 636 L386 636 L386 712 L92 712 Z " />
<glyph glyph-name="Obreve" unicode="&#x14e;" horiz-adv-x="556" d="M278 728 C58 728 35 567 35 357 C35 145 59 -14 278 -14 C497 -14 521 145 521 357 C521 567 497 728 278 728 L278 728 Z M179 357 C179 535 189 622 278 622 C368 622 377 535 377 357 C377 176 368 92 278 92 C189 92 179 177 179 357 L179 357 Z M138 899 C140 819 189 758 277 758 C390 758 416 854 416 899 L351 899 C347 860 316 834 277 834 C244 834 208 854 203 899 L138 899 Z " />
<glyph glyph-name="obreve" unicode="&#x14f;" horiz-adv-x="480" d="M452 270 C452 484 387 552 241 552 C106 552 28 484 28 269 C28 38 105 -14 237 -14 C362 -14 452 38 452 270 L452 270 Z M314 269 C314 132 295 80 240 80 C175 80 166 152 166 269 C166 375 170 458 240 458 C295 458 314 407 314 269 L314 269 Z M101 745 C103 665 152 604 240 604 C353 604 379 700 379 745 L314 745 C310 706 279 680 240 680 C207 680 171 700 166 745 L101 745 Z " />
<glyph glyph-name="Ohungarumlaut" unicode="&#x150;" horiz-adv-x="556" d="M278 728 C58 728 35 567 35 357 C35 145 59 -14 278 -14 C497 -14 521 145 521 357 C521 567 497 728 278 728 L278 728 Z M179 357 C179 535 189 622 278 622 C368 622 377 535 377 357 C377 176 368 92 278 92 C189 92 179 177 179 357 L179 357 Z M198 900 L144 756 L238 756 L336 900 L198 900 Z M364 900 L310 756 L404 756 L502 900 L364 900 Z " />
<glyph glyph-name="ohungarumlaut" unicode="&#x151;" horiz-adv-x="480" d="M452 270 C452 484 387 552 241 552 C106 552 28 484 28 269 C28 38 105 -14 237 -14 C362 -14 452 38 452 270 L452 270 Z M314 269 C314 132 295 80 240 80 C175 80 166 152 166 269 C166 375 170 458 240 458 C295 458 314 407 314 269 L314 269 Z M160 746 L106 602 L200 602 L298 746 L160 746 Z M326 746 L272 602 L366 602 L464 746 L326 746 Z " />
<glyph glyph-name="OE" unicode="&#x152;" horiz-adv-x="778" d="M251 728 C49 728 35 516 35 363 C35 200 40 -14 257 -14 C300 -14 362 2 381 41 L383 41 L383 0 L756 0 L756 118 L506 118 L506 310 L733 310 L733 428 L506 428 L506 596 L748 596 L748 714 L383 714 L383 676 L381 676 C357 718 295 728 251 728 L251 728 Z M278 92 C185 92 179 180 179 366 C179 554 194 622 278 622 C364 622 368 554 368 357 C368 156 364 92 278 92 L278 92 Z " />
<glyph glyph-name="oe" unicode="&#x153;" horiz-adv-x="741" d="M241 552 C63 552 29 421 29 269 C29 75 78 -14 229 -14 C286 -14 356 8 377 65 C400 6 459 -14 517 -14 C644 -14 699 60 704 181 L580 181 C575 135 564 80 507 80 C450 80 440 151 439 206 L439 248 L712 248 L712 281 C712 426 686 552 516 552 C461 552 411 525 384 477 C354 536 304 552 241 552 L241 552 Z M315 269 C315 136 299 80 243 80 C176 80 167 149 167 269 C167 388 176 458 241 458 C294 458 315 410 315 269 L315 269 Z M439 330 L439 346 C439 390 448 458 510 458 C572 458 576 398 579 347 L580 330 L439 330 Z " />
<glyph glyph-name="Racute" unicode="&#x154;" horiz-adv-x="556" d="M50 714 L50 0 L194 0 L194 302 L273 302 C325 302 354 272 356 213 L359 98 C360 48 367 15 378 0 L534 0 L534 6 C500 23 503 96 502 134 C498 280 490 338 387 352 L387 354 C463 370 506 428 506 530 C506 652 434 714 319 714 L50 714 Z M194 402 L194 608 L265 608 C326 608 362 577 362 509 C362 435 325 402 257 402 L194 402 Z M249 900 L195 756 L289 756 L387 900 L249 900 Z " />
<glyph glyph-name="racute" unicode="&#x155;" horiz-adv-x="333" d="M304 552 C252 552 211 523 180 466 L178 466 L178 538 L46 538 L46 0 L184 0 L184 325 C184 383 224 420 288 420 C303 420 318 419 329 418 L329 550 C321 551 312 552 304 552 L304 552 Z M135 746 L81 602 L175 602 L273 746 L135 746 Z " />
<glyph glyph-name="Rcommaaccent" unicode="&#x156;" horiz-adv-x="556" d="M50 714 L50 0 L194 0 L194 302 L273 302 C325 302 354 272 356 213 L359 98 C360 48 367 15 378 0 L534 0 L534 6 C500 23 503 96 502 134 C498 280 490 338 387 352 L387 354 C463 370 506 428 506 530 C506 652 434 714 319 714 L50 714 Z M194 402 L194 608 L265 608 C326 608 362 577 362 509 C362 435 325 402 257 402 L194 402 Z M230 -50 L230 -168 L281 -168 C280 -198 269 -210 245 -217 L245 -253 C293 -247 342 -236 342 -148 L342 -50 L230 -50 Z " />
<glyph glyph-name="rcommaaccent" unicode="&#x157;" horiz-adv-x="333" d="M304 552 C252 552 211 523 180 466 L178 466 L178 538 L46 538 L46 0 L184 0 L184 325 C184 383 224 420 288 420 C303 420 318 419 329 418 L329 550 C321 551 312 552 304 552 L304 552 Z M62 -50 L62 -168 L113 -168 C112 -198 101 -210 77 -217 L77 -253 C125 -247 174 -236 174 -148 L174 -50 L62 -50 Z " />
<glyph glyph-name="Rcaron" unicode="&#x158;" horiz-adv-x="556" d="M50 714 L50 0 L194 0 L194 302 L273 302 C325 302 354 272 356 213 L359 98 C360 48 367 15 378 0 L534 0 L534 6 C500 23 503 96 502 134 C498 280 490 338 387 352 L387 354 C463 370 506 428 506 530 C506 652 434 714 319 714 L50 714 Z M194 402 L194 608 L265 608 C326 608 362 577 362 509 C362 435 325 402 257 402 L194 402 Z M108 900 L186 756 L330 756 L408 900 L308 900 L260 815 L214 900 L108 900 Z " />
<glyph glyph-name="rcaron" unicode="&#x159;" horiz-adv-x="333" d="M304 552 C252 552 211 523 180 466 L178 466 L178 538 L46 538 L46 0 L184 0 L184 325 C184 383 224 420 288 420 C303 420 318 419 329 418 L329 550 C321 551 312 552 304 552 L304 552 Z M40 746 L118 602 L262 602 L340 746 L240 746 L192 661 L146 746 L40 746 Z " />
<glyph glyph-name="Sacute" unicode="&#x15a;" horiz-adv-x="519" d="M253 728 C112 728 32 653 32 518 C32 392 101 348 199 309 L286 274 C337 254 347 224 347 180 C347 125 312 92 261 92 C201 92 166 115 166 204 L166 223 L22 223 L22 201 C22 45 100 -14 249 -14 C411 -14 497 59 497 205 C497 305 455 353 360 394 L250 442 C196 465 176 487 176 539 C176 592 203 622 258 622 C311 622 336 588 336 516 L474 516 L474 533 C474 663 394 728 253 728 L253 728 Z M262 900 L208 756 L302 756 L400 900 L262 900 Z " />
<glyph glyph-name="sacute" unicode="&#x15b;" horiz-adv-x="444" d="M225 552 C95 552 27 488 27 390 C27 318 60 270 142 240 L239 205 C273 193 289 173 289 144 C289 104 265 80 219 80 C176 80 147 105 147 162 L147 176 L23 176 L23 156 C23 38 83 -14 221 -14 C344 -14 421 48 421 155 C421 239 384 281 307 307 L216 338 C179 350 159 369 159 400 C159 437 187 458 224 458 C267 458 285 436 285 377 L409 377 L409 398 C409 492 356 552 225 552 L225 552 Z M225 746 L171 602 L265 602 L363 746 L225 746 Z " />
<glyph glyph-name="Scircumflex" unicode="&#x15c;" horiz-adv-x="519" d="M253 728 C112 728 32 653 32 518 C32 392 101 348 199 309 L286 274 C337 254 347 224 347 180 C347 125 312 92 261 92 C201 92 166 115 166 204 L166 223 L22 223 L22 201 C22 45 100 -14 249 -14 C411 -14 497 59 497 205 C497 305 455 353 360 394 L250 442 C196 465 176 487 176 539 C176 592 203 622 258 622 C311 622 336 588 336 516 L474 516 L474 533 C474 663 394 728 253 728 L253 728 Z M187 900 L109 756 L209 756 L257 841 L303 756 L409 756 L331 900 L187 900 Z " />
<glyph glyph-name="scircumflex" unicode="&#x15d;" horiz-adv-x="444" d="M225 552 C95 552 27 488 27 390 C27 318 60 270 142 240 L239 205 C273 193 289 173 289 144 C289 104 265 80 219 80 C176 80 147 105 147 162 L147 176 L23 176 L23 156 C23 38 83 -14 221 -14 C344 -14 421 48 421 155 C421 239 384 281 307 307 L216 338 C179 350 159 369 159 400 C159 437 187 458 224 458 C267 458 285 436 285 377 L409 377 L409 398 C409 492 356 552 225 552 L225 552 Z M155 746 L77 602 L177 602 L225 687 L271 602 L377 602 L299 746 L155 746 Z " />
<glyph glyph-name="Scedilla" unicode="&#x15e;" horiz-adv-x="519" d="M253 728 C112 728 32 653 32 518 C32 394 100 352 197 312 L285 276 C335 255 347 224 347 180 C347 125 312 92 261 92 C201 92 166 115 166 204 L166 223 L22 223 L22 201 C22 58 87 -4 213 -13 L165 -88 L187 -108 C201 -103 208 -102 219 -102 C244 -102 265 -112 265 -134 C265 -154 243 -167 215 -167 C195 -167 169 -163 146 -152 L127 -198 C148 -209 188 -217 227 -217 C308 -217 353 -185 353 -124 C353 -87 325 -53 267 -53 C262 -53 255 -53 236 -58 L265 -14 C416 -8 497 64 497 205 C497 305 455 353 360 394 L250 442 C196 465 176 487 176 539 C176 592 203 622 258 622 C311 622 336 588 336 516 L474 516 L474 533 C474 663 394 728 253 728 L253 728 Z " />
<glyph glyph-name="scedilla" unicode="&#x15f;" horiz-adv-x="444" d="M225 552 C95 552 27 488 27 390 C27 318 60 270 142 240 L239 205 C273 193 289 173 289 144 C289 104 265 80 219 80 C176 80 147 105 147 162 L147 176 L23 176 L23 156 C23 50 71 -3 181 -12 L132 -88 L154 -108 C168 -103 173 -102 186 -102 C211 -102 232 -112 232 -134 C232 -154 210 -167 182 -167 C162 -167 136 -163 113 -152 L94 -198 C119 -210 158 -217 194 -217 C275 -217 320 -185 320 -123 C320 -82 288 -53 232 -53 C227 -53 214 -54 203 -58 L232 -14 C348 -10 421 51 421 155 C421 239 384 281 307 307 L216 338 C179 350 159 369 159 400 C159 437 187 458 224 458 C267 458 285 436 285 377 L409 377 L409 398 C409 492 356 552 225 552 L225 552 Z " />
<glyph glyph-name="Scaron" unicode="&#x160;" horiz-adv-x="519" d="M253 728 C112 728 32 653 32 518 C32 392 101 348 199 309 L286 274 C337 254 347 224 347 180 C347 125 312 92 261 92 C201 92 166 115 166 204 L166 223 L22 223 L22 201 C22 45 100 -14 249 -14 C411 -14 497 59 497 205 C497 305 455 353 360 394 L250 442 C196 465 176 487 176 539 C176 592 203 622 258 622 C311 622 336 588 336 516 L474 516 L474 533 C474 663 394 728 253 728 L253 728 Z M107 902 L185 758 L329 758 L407 902 L307 902 L259 817 L213 902 L107 902 Z " />
<glyph glyph-name="scaron" unicode="&#x161;" horiz-adv-x="444" d="M225 552 C95 552 27 488 27 390 C27 318 60 270 142 240 L239 205 C273 193 289 173 289 144 C289 104 265 80 219 80 C176 80 147 105 147 162 L147 176 L23 176 L23 156 C23 38 83 -14 221 -14 C344 -14 421 48 421 155 C421 239 384 281 307 307 L216 338 C179 350 159 369 159 400 C159 437 187 458 224 458 C267 458 285 436 285 377 L409 377 L409 398 C409 492 356 552 225 552 L225 552 Z M73 746 L151 602 L295 602 L373 746 L273 746 L225 661 L179 746 L73 746 Z " />
<glyph glyph-name="Tcommaaccent" unicode="&#x162;" horiz-adv-x="480" d="M12 714 L12 596 L168 596 L168 0 L312 0 L312 596 L468 596 L468 714 L12 714 Z M185 -50 L185 -168 L236 -168 C235 -198 224 -210 200 -217 L200 -253 C248 -247 297 -236 297 -148 L297 -50 L185 -50 Z " />
<glyph glyph-name="tcommaaccent" unicode="&#x163;" horiz-adv-x="296" d="M76 692 L76 538 L6 538 L6 444 L76 444 L76 130 C76 22 101 -6 204 -6 C224 -6 236 -6 294 0 L294 96 C285 95 280 94 264 94 C223 94 214 110 214 149 L214 444 L294 444 L294 538 L214 538 L214 692 L76 692 Z M138 -50 L138 -168 L189 -168 C188 -198 177 -210 153 -217 L153 -253 C201 -247 250 -236 250 -148 L250 -50 L138 -50 Z " />
<glyph glyph-name="Tcaron" unicode="&#x164;" horiz-adv-x="480" d="M12 714 L12 596 L168 596 L168 0 L312 0 L312 596 L468 596 L468 714 L12 714 Z M91 900 L169 756 L313 756 L391 900 L291 900 L243 815 L197 900 L91 900 Z " />
<glyph glyph-name="tcaron" unicode="&#x165;" horiz-adv-x="296" d="M76 692 L76 538 L6 538 L6 444 L76 444 L76 130 C76 22 101 -6 204 -6 C224 -6 236 -6 294 0 L294 96 C285 95 280 94 264 94 C223 94 214 110 214 149 L214 444 L294 444 L294 538 L214 538 L214 692 L76 692 Z M320 714 L287 570 L377 570 L440 714 L320 714 Z " />
<glyph glyph-name="Tbar" unicode="&#x166;" horiz-adv-x="480" d="M12 714 L12 596 L168 596 L168 466 L60 466 L60 405 L168 405 L168 0 L312 0 L312 405 L420 405 L420 466 L312 466 L312 596 L468 596 L468 714 L12 714 Z " />
<glyph glyph-name="tbar" unicode="&#x167;" horiz-adv-x="296" d="M76 692 L76 538 L6 538 L6 444 L76 444 L76 346 L-5 346 L-5 285 L76 285 L76 130 C76 19 107 -6 204 -6 C224 -6 236 -6 294 0 L294 96 C285 95 280 94 264 94 C223 94 214 110 214 149 L214 285 L303 285 L303 346 L214 346 L214 444 L294 444 L294 538 L214 538 L214 692 L76 692 Z " />
<glyph glyph-name="Utilde" unicode="&#x168;" horiz-adv-x="538" d="M41 714 L41 213 C41 25 153 -14 269 -14 C423 -14 497 72 497 211 L497 714 L353 714 L353 211 C353 129 326 92 269 92 C212 92 185 129 185 211 L185 714 L41 714 Z M357 891 C356 870 344 855 329 855 C295 855 252 889 208 889 C156 889 125 841 115 765 L185 765 C190 789 200 801 217 801 C249 801 294 767 336 767 C383 767 421 812 429 891 L357 891 Z " />
<glyph glyph-name="utilde" unicode="&#x169;" horiz-adv-x="500" d="M46 538 L46 140 C46 39 90 -14 183 -14 C246 -14 292 13 320 63 L322 63 L322 0 L454 0 L454 538 L316 538 L316 177 C316 123 292 92 243 92 C201 92 184 114 184 165 L184 538 L46 538 Z M335 737 C334 716 322 701 307 701 C273 701 230 735 186 735 C134 735 103 687 93 611 L163 611 C168 635 178 647 195 647 C227 647 272 613 314 613 C361 613 399 658 407 737 L335 737 Z " />
<glyph glyph-name="Umacron" unicode="&#x16a;" horiz-adv-x="538" d="M41 714 L41 213 C41 25 153 -14 269 -14 C423 -14 497 72 497 211 L497 714 L353 714 L353 211 C353 129 326 92 269 92 C212 92 185 129 185 211 L185 714 L41 714 Z M123 866 L123 790 L417 790 L417 866 L123 866 Z " />
<glyph glyph-name="umacron" unicode="&#x16b;" horiz-adv-x="500" d="M46 538 L46 140 C46 39 90 -14 183 -14 C246 -14 292 13 320 63 L322 63 L322 0 L454 0 L454 538 L316 538 L316 177 C316 123 292 92 243 92 C201 92 184 114 184 165 L184 538 L46 538 Z M103 712 L103 636 L397 636 L397 712 L103 712 Z " />
<glyph glyph-name="Ubreve" unicode="&#x16c;" horiz-adv-x="538" d="M41 714 L41 213 C41 25 153 -14 269 -14 C423 -14 497 72 497 211 L497 714 L353 714 L353 211 C353 129 326 92 269 92 C212 92 185 129 185 211 L185 714 L41 714 Z M131 899 C133 819 182 758 270 758 C383 758 409 854 409 899 L344 899 C340 860 309 834 270 834 C237 834 201 854 196 899 L131 899 Z " />
<glyph glyph-name="ubreve" unicode="&#x16d;" horiz-adv-x="500" d="M46 538 L46 140 C46 39 90 -14 183 -14 C246 -14 292 13 320 63 L322 63 L322 0 L454 0 L454 538 L316 538 L316 177 C316 123 292 92 243 92 C201 92 184 114 184 165 L184 538 L46 538 Z M112 745 C114 665 163 604 251 604 C364 604 390 700 390 745 L325 745 C321 706 290 680 251 680 C218 680 182 700 177 745 L112 745 Z " />
<glyph glyph-name="Uring" unicode="&#x16e;" horiz-adv-x="538" d="M41 714 L41 213 C41 25 153 -14 269 -14 C423 -14 497 72 497 211 L497 714 L353 714 L353 211 C353 129 326 92 269 92 C212 92 185 129 185 211 L185 714 L41 714 Z M270 954 C206 954 157 906 157 844 C157 780 204 736 270 736 C337 736 383 782 383 844 C383 906 335 954 270 954 L270 954 Z M213 844 C213 878 240 901 269 901 C303 901 327 875 327 844 C327 812 303 787 270 787 C238 787 213 812 213 844 L213 844 Z " />
<glyph glyph-name="uring" unicode="&#x16f;" horiz-adv-x="500" d="M46 538 L46 140 C46 39 90 -14 183 -14 C246 -14 292 13 320 63 L322 63 L322 0 L454 0 L454 538 L316 538 L316 177 C316 123 292 92 243 92 C201 92 184 114 184 165 L184 538 L46 538 Z M250 800 C185 800 137 752 137 690 C137 625 185 582 250 582 C314 582 363 626 363 690 C363 751 316 800 250 800 L250 800 Z M193 690 C193 723 220 747 249 747 C283 747 307 722 307 690 C307 658 281 633 250 633 C219 633 193 658 193 690 L193 690 Z " />
<glyph glyph-name="Uhungarumlaut" unicode="&#x170;" horiz-adv-x="538" d="M41 714 L41 213 C41 25 153 -14 269 -14 C423 -14 497 72 497 211 L497 714 L353 714 L353 211 C353 129 326 92 269 92 C212 92 185 129 185 211 L185 714 L41 714 Z M192 900 L138 756 L232 756 L330 900 L192 900 Z M358 900 L304 756 L398 756 L496 900 L358 900 Z " />
<glyph glyph-name="uhungarumlaut" unicode="&#x171;" horiz-adv-x="500" d="M46 538 L46 140 C46 39 90 -14 183 -14 C246 -14 292 13 320 63 L322 63 L322 0 L454 0 L454 538 L316 538 L316 177 C316 123 292 92 243 92 C201 92 184 114 184 165 L184 538 L46 538 Z M167 746 L113 602 L207 602 L305 746 L167 746 Z M333 746 L279 602 L373 602 L471 746 L333 746 Z " />
<glyph glyph-name="Uogonek" unicode="&#x172;" horiz-adv-x="538" d="M41 714 L41 213 C41 34 143 -10 253 -14 C196 -46 158 -94 158 -138 C158 -188 190 -217 254 -217 C308 -217 335 -207 368 -182 L338 -133 C316 -146 300 -153 276 -153 C256 -153 247 -141 247 -122 C247 -82 295 -38 336 -8 C444 12 497 94 497 211 L497 714 L353 714 L353 211 C353 129 326 92 269 92 C212 92 185 129 185 211 L185 714 L41 714 Z " />
<glyph glyph-name="uogonek" unicode="&#x173;" horiz-adv-x="500" d="M46 538 L46 140 C46 39 90 -14 183 -14 C246 -14 292 13 320 63 L322 63 L322 0 C258 -47 227 -94 227 -138 C227 -187 255 -217 313 -217 C360 -217 385 -207 416 -182 L389 -133 C367 -147 354 -153 333 -153 C317 -153 307 -144 307 -127 C307 -90 324 -59 390 0 L454 0 L454 538 L316 538 L316 177 C316 123 292 92 243 92 C201 92 184 114 184 165 L184 538 L46 538 Z " />
<glyph glyph-name="Wcircumflex" unicode="&#x174;" horiz-adv-x="760" d="M8 714 L138 0 L299 0 L379 518 L381 518 L461 0 L622 0 L752 714 L614 714 L535 186 L533 186 L449 714 L311 714 L227 186 L225 186 L146 714 L8 714 Z M308 900 L230 756 L330 756 L378 841 L424 756 L530 756 L452 900 L308 900 Z " />
<glyph glyph-name="wcircumflex" unicode="&#x175;" horiz-adv-x="704" d="M7 538 L124 0 L285 0 L351 382 L353 382 L424 0 L581 0 L697 538 L565 538 L500 156 L498 156 L427 538 L277 538 L210 156 L208 156 L145 538 L7 538 Z M281 746 L203 602 L303 602 L351 687 L397 602 L503 602 L425 746 L281 746 Z " />
<glyph glyph-name="Ycircumflex" unicode="&#x176;" horiz-adv-x="520" d="M3 714 L188 281 L188 0 L332 0 L332 281 L517 714 L361 714 L261 438 L259 438 L165 714 L3 714 Z M191 900 L113 756 L213 756 L261 841 L307 756 L413 756 L335 900 L191 900 Z " />
<glyph glyph-name="ycircumflex" unicode="&#x177;" horiz-adv-x="444" d="M5 538 L156 0 C152 -54 128 -76 82 -76 C70 -76 59 -75 46 -73 L46 -176 L113 -176 C199 -176 233 -155 262 -103 C276 -77 293 -27 311 43 L439 538 L301 538 L231 166 L229 166 L149 538 L5 538 Z M158 746 L80 602 L180 602 L228 687 L274 602 L380 602 L302 746 L158 746 Z " />
<glyph glyph-name="Ydieresis" unicode="&#x178;" horiz-adv-x="520" d="M3 714 L188 281 L188 0 L332 0 L332 281 L517 714 L361 714 L261 438 L259 438 L165 714 L3 714 Z M118 887 L118 769 L230 769 L230 887 L118 887 Z M290 887 L290 769 L402 769 L402 887 L290 887 Z " />
<glyph glyph-name="Zacute" unicode="&#x179;" horiz-adv-x="481" d="M42 714 L42 596 L287 596 L24 105 L24 0 L457 0 L457 118 L186 118 L453 605 L453 714 L42 714 Z M246 900 L192 756 L286 756 L384 900 L246 900 Z " />
<glyph glyph-name="zacute" unicode="&#x17a;" horiz-adv-x="426" d="M34 538 L34 426 L239 426 L24 106 L24 0 L402 0 L402 112 L187 112 L402 432 L402 538 L34 538 Z M222 746 L168 602 L262 602 L360 746 L222 746 Z " />
<glyph glyph-name="Zdotaccent" unicode="&#x17b;" horiz-adv-x="481" d="M42 714 L42 596 L287 596 L24 105 L24 0 L457 0 L457 118 L186 118 L453 605 L453 714 L42 714 Z M191 887 L191 769 L303 769 L303 887 L191 887 Z " />
<glyph glyph-name="zdotaccent" unicode="&#x17c;" horiz-adv-x="426" d="M34 538 L34 426 L239 426 L24 106 L24 0 L402 0 L402 112 L187 112 L402 432 L402 538 L34 538 Z M162 733 L162 615 L274 615 L274 733 L162 733 Z " />
<glyph glyph-name="Zcaron" unicode="&#x17d;" horiz-adv-x="481" d="M42 714 L42 596 L287 596 L24 105 L24 0 L457 0 L457 118 L186 118 L453 605 L453 714 L42 714 Z M102 902 L180 758 L324 758 L402 902 L302 902 L254 817 L208 902 L102 902 Z " />
<glyph glyph-name="zcaron" unicode="&#x17e;" horiz-adv-x="426" d="M34 538 L34 426 L239 426 L24 106 L24 0 L402 0 L402 112 L187 112 L402 432 L402 538 L34 538 Z M69 746 L147 602 L291 602 L369 746 L269 746 L221 661 L175 746 L69 746 Z " />
<glyph glyph-name="florin" unicode="&#x192;" horiz-adv-x="480" d="M400 714 C255 714 226 631 203 518 L185 428 L80 428 L64 346 L169 346 L104 14 C90 -60 76 -82 20 -82 C8 -82 -3 -81 -15 -78 L-35 -169 C-26 -172 -5 -176 36 -176 C163 -176 213 -119 233 -12 L301 346 L412 346 L427 428 L317 428 L339 533 C355 610 382 620 433 620 C438 620 441 620 456 617 L475 711 C453 714 422 714 400 714 L400 714 Z " />
<glyph glyph-name="Scommaaccent" unicode="&#x218;" horiz-adv-x="519" d="M253 728 C112 728 32 653 32 518 C32 392 101 348 199 309 L286 274 C337 254 347 224 347 180 C347 125 312 92 261 92 C201 92 166 115 166 204 L166 223 L22 223 L22 201 C22 45 100 -14 249 -14 C411 -14 497 59 497 205 C497 305 455 353 360 394 L250 442 C196 465 176 487 176 539 C176 592 203 622 258 622 C311 622 336 588 336 516 L474 516 L474 533 C474 663 394 728 253 728 L253 728 Z M198 -50 L198 -168 L249 -168 C248 -198 237 -210 213 -217 L213 -253 C261 -247 310 -236 310 -148 L310 -50 L198 -50 Z " />
<glyph glyph-name="scommaaccent" unicode="&#x219;" horiz-adv-x="444" d="M225 552 C95 552 27 488 27 390 C27 318 60 270 142 240 L239 205 C273 193 289 173 289 144 C289 104 265 80 219 80 C176 80 147 105 147 162 L147 176 L23 176 L23 156 C23 38 83 -14 221 -14 C344 -14 421 48 421 155 C421 239 384 281 307 307 L216 338 C179 350 159 369 159 400 C159 437 187 458 224 458 C267 458 285 436 285 377 L409 377 L409 398 C409 492 356 552 225 552 L225 552 Z M166 -50 L166 -168 L217 -168 C216 -198 205 -210 181 -217 L181 -253 C229 -247 278 -236 278 -148 L278 -50 L166 -50 Z " />
<glyph glyph-name="uni021A" unicode="&#x21a;" horiz-adv-x="480" d="M12 714 L12 596 L168 596 L168 0 L312 0 L312 596 L468 596 L468 714 L12 714 Z M185 -50 L185 -168 L236 -168 C235 -198 224 -210 200 -217 L200 -253 C248 -247 297 -236 297 -148 L297 -50 L185 -50 Z " />
<glyph glyph-name="uni021B" unicode="&#x21b;" horiz-adv-x="296" d="M76 692 L76 538 L6 538 L6 444 L76 444 L76 130 C76 22 101 -6 204 -6 C224 -6 236 -6 294 0 L294 96 C285 95 280 94 264 94 C223 94 214 110 214 149 L214 444 L294 444 L294 538 L214 538 L214 692 L76 692 Z M138 -50 L138 -168 L189 -168 C188 -198 177 -210 153 -217 L153 -253 C201 -247 250 -236 250 -148 L250 -50 L138 -50 Z " />
<glyph glyph-name="circumflex" unicode="&#x2c6;" horiz-adv-x="222" d="M39 746 L-39 602 L61 602 L109 687 L155 602 L261 602 L183 746 L39 746 Z " />
<glyph glyph-name="caron" unicode="&#x2c7;" horiz-adv-x="222" d="M-39 746 L39 602 L183 602 L261 746 L161 746 L113 661 L67 746 L-39 746 Z " />
<glyph glyph-name="uni02C9" unicode="&#x2c9;" horiz-adv-x="222" d="M-36 712 L-36 636 L258 636 L258 712 L-36 712 Z " />
<glyph glyph-name="breve" unicode="&#x2d8;" horiz-adv-x="222" d="M-28 745 C-26 665 23 604 111 604 C224 604 250 700 250 745 L185 745 C181 706 150 680 111 680 C78 680 42 700 37 745 L-28 745 Z " />
<glyph glyph-name="dotaccent" unicode="&#x2d9;" horiz-adv-x="222" d="M55 733 L55 615 L167 615 L167 733 L55 733 Z " />
<glyph glyph-name="ring" unicode="&#x2da;" horiz-adv-x="222" d="M111 800 C46 800 -2 752 -2 690 C-2 625 46 582 111 582 C175 582 224 626 224 690 C224 751 177 800 111 800 L111 800 Z M54 690 C54 723 81 747 110 747 C144 747 168 722 168 690 C168 658 142 633 111 633 C80 633 54 658 54 690 L54 690 Z " />
<glyph glyph-name="ogonek" unicode="&#x2db;" horiz-adv-x="222" d="M147 0 C70 -36 24 -89 24 -138 C24 -187 55 -217 121 -217 C174 -217 201 -206 234 -182 L204 -133 C181 -146 166 -153 142 -153 C122 -153 113 -140 113 -122 C113 -85 144 -51 214 0 L147 0 Z " />
<glyph glyph-name="tilde" unicode="&#x2dc;" horiz-adv-x="222" d="M196 737 C195 716 183 701 168 701 C134 701 91 735 47 735 C-5 735 -36 687 -46 611 L24 611 C29 635 39 647 56 647 C88 647 133 613 175 613 C222 613 260 658 268 737 L196 737 Z " />
<glyph glyph-name="hungarumlaut" unicode="&#x2dd;" horiz-adv-x="222" d="M17 746 L-37 602 L57 602 L155 746 L17 746 Z M183 746 L129 602 L223 602 L321 746 L183 746 Z " />
<glyph glyph-name="uni0394" unicode="&#x394;" horiz-adv-x="552" d="M188 714 L0 0 L552 0 L372 714 L188 714 Z M278 585 L280 585 L381 113 L173 113 L278 585 Z " />
<glyph glyph-name="uni03A9" unicode="&#x3a9;" horiz-adv-x="556" d="M279 729 C104 729 20 619 20 390 C20 269 48 196 122 121 L10 121 L10 0 L240 0 L240 120 C184 168 154 271 154 391 C154 539 199 627 279 627 C354 627 395 547 395 401 C395 272 364 164 311 118 L311 0 L546 0 L546 121 L433 121 C499 193 529 270 529 400 C529 618 445 729 279 729 L279 729 Z " />
<glyph glyph-name="uni03BC" unicode="&#x3bc;" horiz-adv-x="509" d="M44 538 L44 -176 L182 -176 L182 -2 C188 -8 202 -14 219 -14 C263 -14 301 15 321 68 L323 68 C335 16 371 -14 431 -14 C457 -14 485 -7 501 5 L501 87 C490 83 481 80 471 80 C457 80 450 83 450 139 L450 538 L311 538 L311 194 C311 138 284 94 234 94 C200 94 183 119 183 165 L183 538 L44 538 Z " />
<glyph glyph-name="pi" unicode="&#x3c0;" horiz-adv-x="551" d="M9 538 L9 426 L76 426 L76 0 L215 0 L215 426 L321 426 L321 110 C321 73 335 -13 440 -13 C467 -13 488 -8 521 10 L521 99 C505 92 492 90 484 90 C465 90 457 100 457 132 L457 426 L536 426 L536 538 L9 538 Z " />
<glyph glyph-name="uni1E9E" unicode="&#x1e9e;" horiz-adv-x="674" d="M549 714 C498 720 403 728 339 728 C179 728 44 696 44 471 L44 0 L188 0 L188 470 C188 619 273 624 327 624 C340 624 370 623 379 621 C317 605 266 562 266 490 C266 405 321 359 398 305 C480 247 503 226 503 160 C503 114 472 92 437 92 C393 92 368 117 366 197 L229 197 C231 28 308 -14 433 -14 C575 -14 653 58 653 180 C653 279 607 323 529 381 C455 436 412 450 412 510 C412 573 497 590 545 590 L549 714 Z " />
<glyph glyph-name="endash" unicode="&#x2013;" horiz-adv-x="500" d="M0 345 L0 233 L500 233 L500 345 L0 345 Z " />
<glyph glyph-name="emdash" unicode="&#x2014;" horiz-adv-x="1000" d="M80 345 L80 233 L920 233 L920 345 L80 345 Z " />
<glyph glyph-name="quoteleft" unicode="&#x2018;" horiz-adv-x="260" d="M196 714 C75 702 64 606 64 521 L64 393 L196 393 L196 549 L144 549 L144 563 C144 607 164 638 196 644 L196 714 Z " />
<glyph glyph-name="quoteright" unicode="&#x2019;" horiz-adv-x="260" d="M64 714 L64 558 L116 558 L116 544 C116 501 97 470 64 463 L64 393 C165 404 196 470 196 580 L196 714 L64 714 Z " />
<glyph glyph-name="quotesinglbase" unicode="&#x201a;" horiz-adv-x="260" d="M64 156 L64 0 L116 0 L116 -14 C116 -57 97 -88 64 -95 L64 -165 C165 -154 196 -88 196 22 L196 156 L64 156 Z " />
<glyph glyph-name="quotedblleft" unicode="&#x201c;" horiz-adv-x="463" d="M200 714 C79 702 68 606 68 521 L68 393 L200 393 L200 549 L148 549 L148 563 C148 607 168 638 200 644 L200 714 Z M395 714 C274 702 263 606 263 521 L263 393 L395 393 L395 549 L343 549 L343 563 C343 607 363 638 395 644 L395 714 Z " />
<glyph glyph-name="quotedblright" unicode="&#x201d;" horiz-adv-x="463" d="M68 714 L68 558 L120 558 L120 544 C120 501 101 470 68 463 L68 393 C169 404 200 470 200 580 L200 714 L68 714 Z M263 714 L263 558 L315 558 L315 544 C315 501 296 470 263 463 L263 393 C364 404 395 470 395 580 L395 714 L263 714 Z " />
<glyph glyph-name="quotedblbase" unicode="&#x201e;" horiz-adv-x="463" d="M68 156 L68 0 L120 0 L120 -14 C120 -57 101 -88 68 -95 L68 -165 C169 -154 200 -88 200 22 L200 156 L68 156 Z M263 156 L263 0 L315 0 L315 -14 C315 -57 296 -88 263 -95 L263 -165 C364 -154 395 -88 395 22 L395 156 L263 156 Z " />
<glyph glyph-name="dagger" unicode="&#x2020;" horiz-adv-x="480" d="M171 714 L171 516 L3 516 L3 404 L171 404 L171 -138 L309 -138 L309 404 L477 404 L477 516 L309 516 L309 714 L171 714 Z " />
<glyph glyph-name="daggerdbl" unicode="&#x2021;" horiz-adv-x="480" d="M171 714 L171 524 L3 524 L3 412 L171 412 L171 164 L3 164 L3 52 L171 52 L171 -138 L309 -138 L309 52 L477 52 L477 164 L309 164 L309 412 L477 412 L477 524 L309 524 L309 714 L171 714 Z " />
<glyph glyph-name="bullet" unicode="&#x2022;" horiz-adv-x="500" d="M250 535 C151 535 72 455 72 357 C72 260 150 179 250 179 C348 179 428 258 428 357 C428 455 350 535 250 535 L250 535 Z " />
<glyph glyph-name="ellipsis" unicode="&#x2026;" horiz-adv-x="1000" d="M101 156 L101 0 L233 0 L233 156 L101 156 Z M434 156 L434 0 L566 0 L566 156 L434 156 Z M767 156 L767 0 L899 0 L899 156 L767 156 Z " />
<glyph glyph-name="perthousand" unicode="&#x2030;" horiz-adv-x="1093" d="M534 725 L128 -31 L217 -31 L623 725 L534 725 L534 725 Z M177 708 C58 708 27 652 27 517 C27 401 44 326 177 326 C310 326 327 401 327 517 C327 632 309 708 177 708 L177 708 Z M133 521 C133 594 137 632 177 632 C220 632 221 583 221 521 C221 438 216 402 177 402 C138 402 133 438 133 521 L133 521 Z M578 368 C445 368 428 293 428 177 C428 63 444 -14 578 -14 C707 -14 728 55 728 177 C728 295 709 368 578 368 L578 368 Z M534 181 C534 254 538 292 578 292 C621 292 622 243 622 181 C622 98 617 62 578 62 C539 62 534 98 534 181 L534 181 Z M916 368 C783 368 766 293 766 177 C766 63 782 -14 916 -14 C1045 -14 1066 55 1066 177 C1066 295 1047 368 916 368 L916 368 Z M872 181 C872 254 876 292 916 292 C959 292 960 243 960 181 C960 98 955 62 916 62 C877 62 872 98 872 181 L872 181 Z " />
<glyph glyph-name="guilsinglleft" unicode="&#x2039;" horiz-adv-x="241" d="M46 370 L46 208 L195 88 L195 220 L116 289 L195 358 L195 490 L46 370 Z " />
<glyph glyph-name="guilsinglright" unicode="&#x203a;" horiz-adv-x="241" d="M46 490 L46 358 L125 289 L46 220 L46 88 L195 208 L195 370 L46 490 Z " />
<glyph glyph-name="fraction" unicode="&#x2044;" horiz-adv-x="167" d="M242 725 L-164 -31 L-75 -31 L331 725 L242 725 Z " />
<glyph glyph-name="Euro" unicode="&#x20ac;" horiz-adv-x="480" d="M325 711 C170 711 110 608 97 466 L97 465 L56 465 L26 387 L94 387 L93 336 L55 336 L26 258 L95 258 C99 118 142 -14 305 -14 C358 -14 410 4 456 31 L456 156 C423 127 373 89 327 89 C245 89 241 183 238 258 L339 258 L368 336 L236 336 L236 387 L378 387 L407 465 L239 465 C244 535 250 612 334 612 C375 612 407 588 433 561 L479 661 C434 695 381 711 325 711 L325 711 Z " />
<glyph glyph-name="uni20B9" unicode="&#x20b9;" horiz-adv-x="480" d="M380 541 C375 569 365 595 346 616 L464 616 L464 694 L41 694 L41 616 L129 616 C179 616 221 597 234 541 L41 541 L41 463 L236 463 C230 396 185 374 119 374 L41 374 L41 292 L228 0 L392 0 L201 281 C314 281 378 361 382 463 L464 463 L464 541 L380 541 Z " />
<glyph glyph-name="uni20BA" unicode="&#x20ba;" horiz-adv-x="480" d="M337 341 C337 165 309 110 224 97 L224 352 L357 419 L357 503 L224 436 L224 504 L357 571 L357 655 L224 588 L224 694 L92 694 L92 521 L26 488 L26 404 L92 437 L92 369 L26 336 L26 252 L92 285 L92 0 L204 0 C398 0 469 101 469 341 L337 341 Z " />
<glyph glyph-name="uni20BC" unicode="&#x20bc;" horiz-adv-x="697" d="M412 473 C546 428 548 175 548 41 L548 0 L677 0 L677 64 C677 285 631 528 412 567 L412 694 L285 694 L285 567 C66 528 20 285 20 64 L20 0 L149 0 L149 41 C149 175 151 428 285 473 L285 70 L412 70 L412 473 Z " />
<glyph glyph-name="ruble" unicode="&#x20bd;" horiz-adv-x="480" d="M342 159 L342 237 L222 237 L222 303 L258 303 C393 303 472 367 472 502 C472 644 397 694 254 694 L87 694 L87 381 L11 381 L11 303 L87 303 L87 237 L11 237 L11 159 L87 159 L87 0 L222 0 L222 159 L342 159 Z M222 381 L222 600 L244 600 C310 600 330 561 330 495 C330 427 314 381 246 381 L222 381 Z " />
<glyph glyph-name="afii61289" unicode="&#x2113;" horiz-adv-x="500" d="M297 721 C186 721 125 625 125 533 L125 287 L23 202 L69 131 L126 183 L126 130 C126 40 189 -14 284 -14 C344 -14 394 5 449 51 L405 117 C379 95 341 80 316 80 C275 80 253 108 253 147 L253 267 C376 373 442 471 442 574 C442 665 382 721 297 721 L297 721 Z M253 555 C253 602 273 636 296 636 C321 636 337 606 337 566 C337 500 306 432 253 375 L253 555 Z " />
<glyph glyph-name="trademark" unicode="&#x2122;" horiz-adv-x="990" d="M31 714 L31 620 L143 620 L143 300 L255 300 L255 620 L367 620 L367 714 L31 714 Z M442 714 L442 300 L548 300 L548 584 L550 584 L645 300 L745 300 L840 584 L842 584 L842 300 L948 300 L948 714 L779 714 L696 464 L694 464 L611 714 L442 714 Z " />
<glyph glyph-name="Omega" unicode="&#x2126;" horiz-adv-x="556" d="M279 729 C104 729 20 619 20 390 C20 269 48 196 122 121 L10 121 L10 0 L240 0 L240 120 C184 168 154 271 154 391 C154 539 199 627 279 627 C354 627 395 547 395 401 C395 272 364 164 311 118 L311 0 L546 0 L546 121 L433 121 C499 193 529 270 529 400 C529 618 445 729 279 729 L279 729 Z " />
<glyph glyph-name="estimated" unicode="&#x212e;" horiz-adv-x="600" d="M302 535 C143 535 44 412 44 259 C44 107 144 -17 302 -17 C411 -17 473 28 530 118 L495 139 C449 62 394 19 302 19 C246 19 197 38 157 78 L157 259 L561 259 C561 413 463 535 302 535 L302 535 Z M448 295 L157 295 L157 440 C196 478 242 500 300 500 C357 500 407 479 448 440 L448 295 Z " />
<glyph glyph-name="partialdiff" unicode="&#x2202;" horiz-adv-x="560" d="M245 721 C182 721 132 703 67 653 L129 581 C176 617 208 631 250 631 C296 631 333 611 360 570 C387 529 398 475 399 420 C399 409 399 398 398 385 C357 418 311 438 257 438 C129 438 40 345 40 216 C40 77 134 -13 263 -13 C429 -13 518 118 518 358 C518 469 495 555 448 622 C406 682 339 721 245 721 L245 721 Z M154 210 C154 298 203 351 273 351 C321 351 359 331 396 289 C397 281 397 268 397 260 C397 179 357 75 266 75 C195 75 154 132 154 210 L154 210 Z " />
<glyph glyph-name="Delta" unicode="&#x2206;" horiz-adv-x="552" d="M188 714 L0 0 L552 0 L372 714 L188 714 Z M278 585 L280 585 L381 113 L173 113 L278 585 Z " />
<glyph glyph-name="product" unicode="&#x220f;" horiz-adv-x="743" d="M60 786 L60 -214 L179 -214 L179 677 L564 677 L564 -214 L683 -214 L683 786 L60 786 Z " />
<glyph glyph-name="summation" unicode="&#x2211;" horiz-adv-x="654" d="M38 786 L38 692 L326 292 L25 -119 L25 -214 L629 -214 L629 -105 L178 -105 L468 293 L196 677 L617 677 L617 786 L38 786 Z " />
<glyph glyph-name="minus" unicode="&#x2212;" horiz-adv-x="600" d="M47 315 L47 191 L553 191 L553 315 L47 315 Z " />
<glyph glyph-name="uni2215" unicode="&#x2215;" horiz-adv-x="167" d="M242 725 L-164 -31 L-75 -31 L331 725 L242 725 Z " />
<glyph glyph-name="uni2219" unicode="&#x2219;" horiz-adv-x="240" d="M120 379 C64 379 23 336 23 282 C23 227 66 185 120 185 C173 185 217 226 217 282 C217 339 173 379 120 379 L120 379 Z " />
<glyph glyph-name="radical" unicode="&#x221a;" horiz-adv-x="545" d="M435 786 L269 -30 L143 239 L-12 168 L32 75 L83 99 L234 -214 L344 -214 L557 786 L435 786 Z " />
<glyph glyph-name="infinity" unicode="&#x221e;" horiz-adv-x="823" d="M606 447 C536 447 480 411 412 327 C336 419 283 446 216 446 C112 446 45 367 45 263 C45 157 115 79 220 79 C287 79 336 112 377 155 L412 191 C477 115 535 78 605 78 C708 78 778 156 778 265 C778 372 708 447 606 447 L606 447 Z M472 260 C519 314 564 347 604 347 C649 347 684 312 684 262 C684 217 655 179 607 179 C561 179 519 208 472 260 L472 260 Z M140 261 C140 310 175 346 215 346 C256 346 302 315 352 260 C303 205 261 180 219 180 C170 180 140 212 140 261 L140 261 Z " />
<glyph glyph-name="integral" unicode="&#x222b;" horiz-adv-x="614" d="M381 785 C330 785 294 764 270 735 C229 685 229 609 229 568 L230 14 C230 -17 234 -118 234 -126 C234 -151 226 -158 216 -158 C208 -158 202 -150 199 -139 C184 -86 164 -82 142 -82 C111 -82 88 -105 88 -135 C88 -184 144 -214 202 -214 C350 -214 351 -68 351 43 L350 575 C350 615 346 656 346 698 C346 721 353 729 364 729 C373 729 379 721 384 704 C393 669 410 653 439 653 C470 653 493 680 493 708 C493 757 437 785 381 785 L381 785 Z " />
<glyph glyph-name="approxequal" unicode="&#x2248;" horiz-adv-x="593" d="M493 457 C483 410 461 393 431 393 C400 393 370 401 303 426 C235 451 207 456 178 456 C92 456 37 391 27 281 L102 281 C109 324 133 347 164 347 C186 347 226 336 283 314 C340 292 383 281 412 281 C499 281 555 339 567 457 L493 457 Z M176 245 C95 245 37 185 25 68 L100 68 C105 104 129 135 162 135 C181 135 207 128 241 116 C310 90 373 68 414 68 C501 68 555 132 565 244 L491 244 C482 201 462 181 430 181 C399 181 373 187 306 212 C240 237 207 245 176 245 L176 245 Z " />
<glyph glyph-name="notequal" unicode="&#x2260;" horiz-adv-x="593" d="M398 585 L320 432 L34 432 L34 319 L263 319 L207 207 L34 207 L34 94 L149 94 L97 -11 L195 -61 L273 94 L559 94 L559 207 L331 207 L387 319 L559 319 L559 432 L444 432 L497 536 L398 585 Z " />
<glyph glyph-name="lessequal" unicode="&#x2264;" horiz-adv-x="593" d="M559 563 L34 389 L34 276 L559 106 L559 224 L189 333 L559 445 L559 563 Z M34 75 L34 -38 L559 -38 L559 75 L34 75 Z " />
<glyph glyph-name="greaterequal" unicode="&#x2265;" horiz-adv-x="593" d="M34 563 L34 445 L404 333 L34 224 L34 106 L559 276 L559 389 L34 563 Z M34 75 L34 -38 L559 -38 L559 75 L34 75 Z " />
<glyph glyph-name="lozenge" unicode="&#x25ca;" horiz-adv-x="593" d="M244 747 L65 356 L243 -35 L348 -35 L528 356 L348 747 L244 747 Z M296 635 L413 356 L296 76 L180 356 L296 635 Z " />
<glyph glyph-name="dotlessj" unicode="&#xe0d6;" horiz-adv-x="240" d="M51 538 L51 0 C51 -61 36 -76 -2 -76 C-9 -76 -17 -76 -25 -74 L-25 -174 C2 -175 21 -176 31 -176 C146 -176 189 -134 189 -41 L189 538 L51 538 Z " />
<glyph glyph-name="grave.cap" unicode="&#xe300;" horiz-adv-x="222" d="M-16 900 L82 756 L176 756 L122 900 L-16 900 Z " />
<glyph glyph-name="acute.cap" unicode="&#xe301;" horiz-adv-x="222" d="M100 900 L46 756 L140 756 L238 900 L100 900 Z " />
<glyph glyph-name="circumflex.cap" unicode="&#xe302;" horiz-adv-x="222" d="M39 900 L-39 756 L61 756 L109 841 L155 756 L261 756 L183 900 L39 900 Z " />
<glyph glyph-name="caron.cap" unicode="&#xe303;" horiz-adv-x="222" d="M-39 900 L39 756 L183 756 L261 900 L161 900 L113 815 L67 900 L-39 900 Z " />
<glyph glyph-name="tilde.cap" unicode="&#xe304;" horiz-adv-x="222" d="M196 891 C195 870 183 855 168 855 C134 855 91 889 47 889 C-5 889 -36 841 -46 765 L24 765 C29 789 39 801 56 801 C88 801 133 767 175 767 C222 767 260 812 268 891 L196 891 Z " />
<glyph glyph-name="dieresis.cap" unicode="&#xe305;" horiz-adv-x="222" d="M-31 889 L-31 771 L81 771 L81 889 L-31 889 Z M141 889 L141 771 L253 771 L253 889 L141 889 Z " />
<glyph glyph-name="macron.cap" unicode="&#xe306;" horiz-adv-x="222" d="M-36 866 L-36 790 L258 790 L258 866 L-36 866 Z " />
<glyph glyph-name="breve.cap" unicode="&#xe307;" horiz-adv-x="222" d="M-28 899 C-26 819 23 758 111 758 C224 758 250 854 250 899 L185 899 C181 860 150 834 111 834 C78 834 42 854 37 899 L-28 899 Z " />
<glyph glyph-name="ring.cap" unicode="&#xe308;" horiz-adv-x="222" d="M111 954 C47 954 -2 906 -2 844 C-2 780 45 736 111 736 C178 736 224 782 224 844 C224 906 176 954 111 954 L111 954 Z M54 844 C54 878 81 901 110 901 C144 901 168 875 168 844 C168 812 144 787 111 787 C79 787 54 812 54 844 L54 844 Z " />
<glyph glyph-name="hungarumlaut.cap" unicode="&#xe309;" horiz-adv-x="222" d="M17 900 L-37 756 L57 756 L155 900 L17 900 Z M183 900 L129 756 L223 756 L321 900 L183 900 Z " />
<glyph glyph-name="dotaccent.cap" unicode="&#xe30a;" horiz-adv-x="222" d="M55 829 L55 711 L167 711 L167 829 L55 829 Z " />
<glyph glyph-name="caron.alt" unicode="&#xe30b;" horiz-adv-x="222" d="M79 714 L46 570 L136 570 L199 714 L79 714 Z " />
<glyph glyph-name="commaaccent" unicode="&#xe30c;" horiz-adv-x="240" d="M66 -50 L66 -168 L117 -168 C116 -198 105 -210 81 -217 L81 -253 C129 -247 178 -236 178 -148 L178 -50 L66 -50 Z " />
<glyph glyph-name="commaaccent.alt" unicode="&#xe30d;" horiz-adv-x="240" d="M160 799 C100 792 63 774 63 690 L63 596 L175 596 L175 714 L124 714 C125 741 133 755 160 763 L160 799 Z " />
<glyph glyph-name="uniF8FF" unicode="&#xf8ff;" horiz-adv-x="512" d="M0 718 L0 0 L512 0 L512 718 L0 718 Z M50 50 L50 667 L462 667 L462 50 L50 50 Z M259 609 C181 609 133 562 124 472 L174 464 C182 528 212 559 256 559 C299 559 332 520 332 474 C332 440 308 415 286 395 C266 376 249 355 238 336 C228 317 223 292 223 253 C223 247 224 240 225 234 L271 234 C271 274 273 297 278 309 C283 322 297 336 319 357 C362 398 383 424 383 478 C383 556 330 609 259 609 L259 609 Z M222 117 L278 117 L278 184 L222 184 L222 117 Z " />
<glyph glyph-name="fi" unicode="&#xfb01;" horiz-adv-x="537" d="M221 728 C118 728 76 686 76 598 L76 538 L6 538 L6 444 L76 444 L76 0 L214 0 L214 444 L294 444 L294 538 L214 538 L214 587 C214 612 224 628 268 628 C280 628 290 627 294 627 L294 725 C283 726 247 728 221 728 L221 728 Z M348 722 L348 604 L486 604 L486 722 L348 722 Z M348 538 L348 0 L486 0 L486 538 L348 538 Z " />
<glyph glyph-name="fl" unicode="&#xfb02;" horiz-adv-x="537" d="M221 728 C118 728 76 686 76 598 L76 538 L6 538 L6 444 L76 444 L76 0 L214 0 L214 444 L294 444 L294 538 L214 538 L214 587 C214 612 224 628 268 628 C280 628 290 627 294 627 L294 725 C283 726 247 728 221 728 L221 728 Z M348 714 L348 0 L486 0 L486 714 L348 714 Z " />
</font>
</svg>
